<?xml version="1.0" encoding="UTF-8" standalone="no"?>
<svg width="2801px" height="1073px" viewBox="0 0 2801 1073" version="1.1" xmlns="http://www.w3.org/2000/svg" xmlns:xlink="http://www.w3.org/1999/xlink" xmlns:sketch="http://www.bohemiancoding.com/sketch/ns">
    <!-- Generator: Sketch 3.3.3 (12072) - http://www.bohemiancoding.com/sketch -->
    <title>Slice 1</title>
    <desc>Created with Sketch.</desc>
    <defs>
        <linearGradient x1="50%" y1="91.0776422%" x2="50%" y2="11.1259838%" id="linearGradient-1">
            <stop stop-color="#4A8BA1" offset="0%"></stop>
            <stop stop-color="#D3E2E5" offset="100%"></stop>
        </linearGradient>
        <linearGradient x1="50%" y1="141.313985%" x2="50%" y2="29.718073%" id="linearGradient-2">
            <stop stop-color="#4A8BA1" offset="0%"></stop>
            <stop stop-color="#D3E2E5" offset="100%"></stop>
        </linearGradient>
        <linearGradient x1="50%" y1="33.4075821%" x2="50%" y2="100%" id="linearGradient-3">
            <stop stop-color="#FFFFFF" offset="0%"></stop>
            <stop stop-color="#D9BDC4" offset="100%"></stop>
        </linearGradient>
        <linearGradient x1="50%" y1="39.6095388%" x2="50%" y2="106.268562%" id="linearGradient-4">
            <stop stop-color="#FFFFFF" offset="0%"></stop>
            <stop stop-color="#D9ABB7" offset="100%"></stop>
        </linearGradient>
    </defs>
    <g id="Page-1" stroke="none" stroke-width="1" fill="none" fill-rule="evenodd" sketch:type="MSPage">
        <g id="clouds_login_sml" sketch:type="MSLayerGroup" transform="translate(-59.000000, 0.000000)">
            <g id="Page-1" sketch:type="MSShapeGroup">
                <g id="Group" transform="translate(0.000000, 0.750000)">
                    <path d="M2610.0786,183.054991 C2687.35267,187.99121 2748.5,252.229743 2748.5,330.75 C2748.5,335.985951 2748.2281,341.158398 2747.69766,346.25399 C2747.96479,346.251332 2748.23224,346.25 2748.5,346.25 C2792.1305,346.25 2827.5,381.619505 2827.5,425.25 C2827.5,455.342852 2810.67421,481.505831 2785.91722,494.844359 L2785.91722,494.844359 C2798.29822,516.478337 2805.375,541.537733 2805.375,568.25 C2805.375,645.735534 2745.82862,709.313267 2670,715.719073 L2670,715.719073 L2670,716.25 L2236.5,716.25 L1872.5,716.25 L312,716.25 L311.999985,716.205873 C274.774158,714.889702 245,684.296915 245,646.75 C245,639.83748 246.009169,633.160665 247.888213,626.858846 C229.951853,607.358737 219,581.33334 219,552.75 C219,510.72494 242.674366,474.229324 277.413934,455.872316 C265.983136,443.486192 259,426.933595 259,408.75 C259,381.636258 274.526368,358.148894 297.173128,346.693886 C297.058355,345.060844 297,343.412237 297,341.75 C297,303.36621 328.11621,272.25 366.5,272.25 C377.159864,272.25 387.259199,274.649906 396.287179,278.938891 C401.633042,183.220266 480.94462,107.25 578,107.25 C665.28055,107.25 738.21141,168.688319 755.90428,250.676653 C770.03979,237.389836 789.06931,229.25 810,229.25 C853.6305,229.25 889,264.619505 889,308.25 C889,310.319853 888.9204,312.371114 888.76409,314.400889 L888.76409,314.400889 C912.06156,315.881204 932.4296,328.142161 944.93444,346.25 L960.73151,346.25 C969.19049,316.798766 996.32876,295.25 1028.5,295.25 C1055.90648,295.25 1079.66042,310.888436 1091.32512,333.728636 C1091.10979,331.097561 1091,328.436601 1091,325.75 C1091,272.454522 1134.20452,229.25 1187.5,229.25 C1233.47876,229.25 1271.94707,261.406077 1281.6428,304.456104 L1281.6428,304.456104 C1291.92316,298.59717 1303.82069,295.25 1316.5,295.25 C1333.09632,295.25 1348.35324,300.984697 1360.39727,310.58062 L1360.39727,310.58062 C1365.31069,251.039784 1415.19117,204.25 1476,204.25 C1525.5666,204.25 1567.87215,235.338232 1584.48175,279.079791 C1597.16857,266.804057 1614.45211,259.25 1633.5,259.25 C1665.79926,259.25 1693.0254,280.970602 1701.36858,310.601954 C1727.3139,267.829062 1774.31945,239.25 1828,239.25 C1838.27624,239.25 1848.30787,240.297328 1857.99396,242.291066 C1858.48707,238.983684 1859.15914,235.734749 1860,232.554425 L1860,220.25 L1864.22807,220.25 C1878.0312,187.913725 1910.1189,165.25 1947.5,165.25 C1951.82687,165.25 1956.08282,165.553651 1960.2477,166.140807 C1968.6369,73.4091576 2046.58322,0.75 2141.5,0.75 C2228.78055,0.75 2301.71141,62.1883187 2319.40428,144.176653 L2319.40428,144.176653 C2333.53979,130.889836 2352.56931,122.75 2373.5,122.75 C2389.68162,122.75 2404.72694,127.615113 2417.25301,135.962404 C2433.00198,100.769857 2468.32503,76.25 2509.375,76.25 C2565.08672,76.25 2610.25,121.413276 2610.25,177.125 C2610.25,179.115657 2610.19234,181.092847 2610.07859,183.05499 L2610.0786,183.054991 Z" id="Oval-22-Copy-27" fill="url(#linearGradient-1)"></path>
                    <path d="M2623.0786,306.304991 C2700.35267,311.24121 2761.5,375.479743 2761.5,454 C2761.5,459.235951 2761.2281,464.408398 2760.69766,469.50399 C2760.96479,469.501332 2761.23224,469.5 2761.5,469.5 C2805.1305,469.5 2840.5,504.869505 2840.5,548.5 C2840.5,578.592852 2823.67421,604.755831 2798.91722,618.094359 L2798.91722,618.094359 C2811.29822,639.728337 2818.375,664.787733 2818.375,691.5 C2818.375,768.985534 2758.82862,832.563267 2683,838.969073 L2683,838.969073 L2683,839.5 L2249.5,839.5 L1885.5,839.5 L325,839.5 L324.999985,839.455873 C287.774158,838.139702 258,807.546915 258,770 C258,763.08748 259.009169,756.410665 260.888213,750.108846 C242.951853,730.608737 232,704.58334 232,676 C232,633.97494 255.674366,597.479324 290.413934,579.122316 C278.983136,566.736192 272,550.183595 272,532 C272,504.886258 287.526368,481.398894 310.173128,469.943886 C310.058355,468.310844 310,466.662237 310,465 C310,426.61621 341.11621,395.5 379.5,395.5 C390.159864,395.5 400.259199,397.899906 409.287179,402.188891 C414.633042,306.470266 493.944618,230.5 591,230.5 C678.280548,230.5 751.211407,291.938319 768.904276,373.926653 C783.039786,360.639836 802.069313,352.5 823,352.5 C866.630495,352.5 902,387.869505 902,431.5 C902,433.569853 901.920397,435.621114 901.764086,437.650889 L901.764086,437.650889 C925.061561,439.131204 945.429599,451.392161 957.93444,469.5 L973.731515,469.5 C982.190494,440.048766 1009.32876,418.5 1041.5,418.5 C1068.90648,418.5 1092.66042,434.138436 1104.32512,456.978636 C1104.10979,454.347561 1104,451.686601 1104,449 C1104,395.704522 1147.20452,352.5 1200.5,352.5 C1246.47876,352.5 1284.94707,384.656077 1294.6428,427.706104 L1294.6428,427.706104 C1304.92316,421.84717 1316.82069,418.5 1329.5,418.5 C1346.09632,418.5 1361.35324,424.234697 1373.39727,433.83062 L1373.39727,433.83062 C1378.31069,374.289784 1428.19117,327.5 1489,327.5 C1538.5666,327.5 1580.87215,358.588232 1597.48175,402.329791 C1610.16857,390.054057 1627.45211,382.5 1646.5,382.5 C1678.79926,382.5 1706.0254,404.220602 1714.36858,433.851954 C1740.3139,391.079062 1787.31945,362.5 1841,362.5 C1851.27624,362.5 1861.30787,363.547328 1870.99396,365.541066 C1871.48707,362.233684 1872.15914,358.984749 1873,355.804425 L1873,343.5 L1877.22807,343.5 C1891.0312,311.163725 1923.1189,288.5 1960.5,288.5 C1964.82687,288.5 1969.08282,288.803651 1973.2477,289.390807 C1981.6369,196.659158 2059.58322,124 2154.5,124 C2241.78055,124 2314.71141,185.438319 2332.40428,267.426653 L2332.40428,267.426653 C2346.53979,254.139836 2365.56931,246 2386.5,246 C2402.68162,246 2417.72694,250.865113 2430.25301,259.212404 C2446.00198,224.019857 2481.32503,199.5 2522.375,199.5 C2578.08672,199.5 2623.25,244.663276 2623.25,300.375 C2623.25,302.365657 2623.19234,304.342847 2623.07859,306.30499 L2623.0786,306.304991 Z" id="Oval-22-Copy-25" fill="url(#linearGradient-2)"></path>
                    <path d="M2391.0786,540.804991 C2468.35267,545.74121 2529.5,609.979743 2529.5,688.5 C2529.5,693.735951 2529.2281,698.908398 2528.69766,704.00399 C2528.96479,704.001332 2529.23224,704 2529.5,704 C2573.1305,704 2608.5,739.369505 2608.5,783 C2608.5,813.092852 2591.67421,839.255831 2566.91722,852.594359 L2566.91722,852.594359 C2579.29822,874.228337 2586.375,899.287733 2586.375,926 C2586.375,1003.48553 2526.82862,1067.06327 2451,1073.46907 L2451,1073.46907 L2451,1074 L2017.5,1074 L1653.5,1074 L93,1074 L92.999985,1073.95587 C55.774158,1072.6397 26,1042.04691 26,1004.5 C26,997.58748 27.0091686,990.910665 28.8882129,984.608846 C10.9518532,965.108737 0,939.08334 0,910.5 C0,868.47494 23.6743657,831.979324 58.4139341,813.622316 C46.983136,801.236192 40,784.683595 40,766.5 C40,739.386258 55.5263684,715.898894 78.1731277,704.443886 C78.0583548,702.810844 78,701.162237 78,699.5 C78,661.11621 109.11621,630 147.5,630 C158.159864,630 168.259199,632.399906 177.287179,636.688891 C182.633042,540.970266 261.944618,465 359,465 C446.280548,465 519.211407,526.438319 536.904276,608.426653 C551.039786,595.139836 570.069313,587 591,587 C634.630495,587 670,622.369505 670,666 C670,668.069853 669.920397,670.121114 669.764086,672.150889 L669.764086,672.150889 C693.061561,673.631204 713.429599,685.892161 725.93444,704 L741.731515,704 C750.190494,674.548766 777.328755,653 809.5,653 C836.906484,653 860.660416,668.638436 872.325122,691.478636 C872.109788,688.847561 872,686.186601 872,683.5 C872,630.204522 915.204522,587 968.5,587 C1014.47876,587 1052.94707,619.156077 1062.6428,662.206104 L1062.6428,662.206104 C1072.92316,656.34717 1084.82069,653 1097.5,653 C1114.09632,653 1129.35324,658.734697 1141.39727,668.33062 L1141.39727,668.33062 C1146.31069,608.789784 1196.19117,562 1257,562 C1306.5666,562 1348.87215,593.088232 1365.48175,636.829791 C1378.16857,624.554057 1395.45211,617 1414.5,617 C1446.79926,617 1474.0254,638.720602 1482.36858,668.351954 C1508.3139,625.579062 1555.31945,597 1609,597 C1619.27624,597 1629.30787,598.047328 1638.99396,600.041066 C1639.48707,596.733684 1640.15914,593.484749 1641,590.304425 L1641,578 L1645.22807,578 C1659.0312,545.663725 1691.1189,523 1728.5,523 C1732.82687,523 1737.08282,523.303651 1741.2477,523.890807 C1749.6369,431.159158 1827.58322,358.5 1922.5,358.5 C2009.78055,358.5 2082.71141,419.938319 2100.40428,501.926653 L2100.40428,501.926653 C2114.53979,488.639836 2133.56931,480.5 2154.5,480.5 C2170.68162,480.5 2185.72694,485.365113 2198.25301,493.712404 C2214.00198,458.519857 2249.32503,434 2290.375,434 C2346.08672,434 2391.25,479.163276 2391.25,534.875 C2391.25,536.865657 2391.19234,538.842847 2391.07859,540.80499 L2391.0786,540.804991 Z" id="Oval-22-Copy-23" fill="url(#linearGradient-3)"></path>
                    <path d="M2690.0786,420.804991 C2767.35267,425.74121 2828.5,489.979743 2828.5,568.5 C2828.5,573.735951 2828.2281,578.908398 2827.69766,584.00399 C2827.96479,584.001332 2828.23224,584 2828.5,584 C2872.1305,584 2907.5,619.369505 2907.5,663 C2907.5,693.092852 2890.67421,719.255831 2865.91722,732.594359 L2865.91722,732.594359 C2878.29822,754.228337 2885.375,779.287733 2885.375,806 C2885.375,883.485534 2825.82862,947.063267 2750,953.469073 L2750,953.469073 L2750,954 L2316.5,954 L1952.5,954 L392,954 L391.999985,953.955873 C354.774158,952.639702 325,922.046915 325,884.5 C325,877.58748 326.009169,870.910665 327.888213,864.608846 C309.951853,845.108737 299,819.08334 299,790.5 C299,748.47494 322.674366,711.979324 357.413934,693.622316 C345.983136,681.236192 339,664.683595 339,646.5 C339,619.386258 354.526368,595.898894 377.173128,584.443886 C377.058355,582.810844 377,581.162237 377,579.5 C377,541.11621 408.11621,510 446.5,510 C457.159864,510 467.259199,512.399906 476.287179,516.688891 C481.633042,420.970266 560.94462,345 658,345 C745.28055,345 818.21141,406.438319 835.90428,488.426653 C850.03979,475.139836 869.06931,467 890,467 C933.6305,467 969,502.369505 969,546 C969,548.069853 968.9204,550.121114 968.76409,552.150889 L968.76409,552.150889 C992.06156,553.631204 1012.4296,565.892161 1024.93444,584 L1040.73151,584 C1049.19049,554.548766 1076.32876,533 1108.5,533 C1135.90648,533 1159.66042,548.638436 1171.32512,571.478636 C1171.10979,568.847561 1171,566.186601 1171,563.5 C1171,510.204522 1214.20452,467 1267.5,467 C1313.47876,467 1351.94707,499.156077 1361.6428,542.206104 L1361.6428,542.206104 C1371.92316,536.34717 1383.82069,533 1396.5,533 C1413.09632,533 1428.35324,538.734697 1440.39727,548.33062 L1440.39727,548.33062 C1445.31069,488.789784 1495.19117,442 1556,442 C1605.5666,442 1647.87215,473.088232 1664.48175,516.829791 C1677.16857,504.554057 1694.45211,497 1713.5,497 C1745.79926,497 1773.0254,518.720602 1781.36858,548.351954 C1807.3139,505.579062 1854.31945,477 1908,477 C1918.27624,477 1928.30787,478.047328 1937.99396,480.041066 C1938.48707,476.733684 1939.15914,473.484749 1940,470.304425 L1940,458 L1944.22807,458 C1958.0312,425.663725 1990.1189,403 2027.5,403 C2031.82687,403 2036.08282,403.303651 2040.2477,403.890807 C2048.6369,311.159158 2126.58322,238.5 2221.5,238.5 C2308.78055,238.5 2381.71141,299.938319 2399.40428,381.926653 L2399.40428,381.926653 C2413.53979,368.639836 2432.56931,360.5 2453.5,360.5 C2469.68162,360.5 2484.72694,365.365113 2497.25301,373.712404 C2513.00198,338.519857 2548.32503,314 2589.375,314 C2645.08672,314 2690.25,359.163276 2690.25,414.875 C2690.25,416.865657 2690.19234,418.842847 2690.07859,420.80499 L2690.0786,420.804991 Z" id="Oval-22-Copy-26" fill="url(#linearGradient-4)"></path>
                    <path d="M2651.8286,689.554991 C2729.10267,694.49121 2790.25,758.729743 2790.25,837.25 C2790.25,842.485951 2789.9781,847.658398 2789.44766,852.75399 C2789.71479,852.751332 2789.98224,852.75 2790.25,852.75 C2833.8805,852.75 2869.25,888.119505 2869.25,931.75 C2869.25,961.84285 2852.42421,988.00583 2827.66722,1001.34436 L2827.66722,1001.34436 C2840.04822,1022.97834 2847.125,1048.03773 2847.125,1074.75 C2847.125,1152.23553 2787.57862,1215.81327 2711.75,1222.21907 L2711.75,1222.21907 L2711.75,1222.75 L2278.25,1222.75 L1914.25,1222.75 L353.75,1222.75 L353.749985,1222.70587 C316.524158,1221.3897 286.75,1190.79691 286.75,1153.25 C286.75,1146.33748 287.759169,1139.66066 289.638213,1133.35885 C271.701853,1113.85874 260.75,1087.83334 260.75,1059.25 C260.75,1017.22494 284.424366,980.72932 319.163934,962.37232 C307.733136,949.98619 300.75,933.4336 300.75,915.25 C300.75,888.136258 316.276368,864.648894 338.923128,853.193886 C338.808355,851.560844 338.75,849.912237 338.75,848.25 C338.75,809.86621 369.86621,778.75 408.25,778.75 C418.909864,778.75 429.009199,781.149906 438.037179,785.438891 C443.383042,689.720266 522.694618,613.75 619.75,613.75 C707.030548,613.75 779.961407,675.188319 797.654276,757.176653 C811.789786,743.889836 830.819313,735.75 851.75,735.75 C895.3805,735.75 930.75,771.119505 930.75,814.75 C930.75,816.819853 930.6704,818.871114 930.51409,820.900889 L930.51409,820.900889 C953.81156,822.381204 974.1796,834.642161 986.68444,852.75 L1002.48151,852.75 C1010.94049,823.298766 1038.07876,801.75 1070.25,801.75 C1097.65648,801.75 1121.41042,817.388436 1133.07512,840.228636 C1132.85979,837.597561 1132.75,834.936601 1132.75,832.25 C1132.75,778.954522 1175.95452,735.75 1229.25,735.75 C1275.22876,735.75 1313.69707,767.906077 1323.3928,810.956104 L1323.3928,810.956104 C1333.67316,805.09717 1345.57069,801.75 1358.25,801.75 C1374.84632,801.75 1390.10324,807.484697 1402.14727,817.08062 L1402.14727,817.08062 C1407.06069,757.539784 1456.94117,710.75 1517.75,710.75 C1567.3166,710.75 1609.62215,741.838232 1626.23175,785.579791 C1638.91857,773.304057 1656.20211,765.75 1675.25,765.75 C1707.54926,765.75 1734.7754,787.470602 1743.11858,817.101954 C1769.0639,774.329062 1816.06945,745.75 1869.75,745.75 C1880.02624,745.75 1890.05787,746.797328 1899.74396,748.791066 C1900.23707,745.483684 1900.90914,742.234749 1901.75,739.054425 L1901.75,726.75 L1905.97807,726.75 C1919.7812,694.413725 1951.8689,671.75 1989.25,671.75 C1993.57687,671.75 1997.83282,672.053651 2001.9977,672.640807 C2010.3869,579.909158 2088.33322,507.25 2183.25,507.25 C2270.53055,507.25 2343.46141,568.688319 2361.15428,650.676653 L2361.15428,650.676653 C2375.28979,637.389836 2394.31931,629.25 2415.25,629.25 C2431.43162,629.25 2446.47694,634.115113 2459.00301,642.462404 C2474.75198,607.269857 2510.07503,582.75 2551.125,582.75 C2606.83672,582.75 2652,627.913276 2652,683.625 C2652,685.615657 2651.94234,687.592847 2651.82859,689.55499 L2651.8286,689.554991 Z" id="Oval-22" fill="#FFFFFF"></path>
                </g>
            </g>
        </g>
    </g>
</svg>