<?xml version="1.0" encoding="UTF-8" standalone="no"?>
<svg width="2567px" height="1364px" viewBox="0 0 2567 1364" version="1.1" xmlns="http://www.w3.org/2000/svg" xmlns:xlink="http://www.w3.org/1999/xlink" xmlns:sketch="http://www.bohemiancoding.com/sketch/ns">
    <!-- Generator: Sketch 3.3.3 (12072) - http://www.bohemiancoding.com/sketch -->
    <title>Group Copy 2</title>
    <desc>Created with Sketch.</desc>
    <defs>
        <linearGradient x1="50%" y1="91.0776422%" x2="50%" y2="11.1259838%" id="linearGradient-1">
            <stop stop-color="#4A8BA1" offset="0%"></stop>
            <stop stop-color="#D3E2E5" offset="100%"></stop>
        </linearGradient>
        <linearGradient x1="50%" y1="141.313985%" x2="50%" y2="29.718073%" id="linearGradient-2">
            <stop stop-color="#4A8BA1" offset="0%"></stop>
            <stop stop-color="#D3E2E5" offset="100%"></stop>
        </linearGradient>
        <linearGradient x1="50%" y1="33.4075821%" x2="50%" y2="100%" id="linearGradient-3">
            <stop stop-color="#FFFFFF" offset="0%"></stop>
            <stop stop-color="#D9BDC4" offset="100%"></stop>
        </linearGradient>
        <linearGradient x1="50%" y1="39.6095388%" x2="50%" y2="106.268562%" id="linearGradient-4">
            <stop stop-color="#FFFFFF" offset="0%"></stop>
            <stop stop-color="#D9ABB7" offset="100%"></stop>
        </linearGradient>
    </defs>
    <g id="Page-1" stroke="none" stroke-width="1" fill="none" fill-rule="evenodd" sketch:type="MSPage">
        <g id="Group-Copy-2" sketch:type="MSLayerGroup" transform="translate(-597.000000, 0.000000)">
            <path d="M3203.0786,188.054991 C3280.35267,192.99121 3341.5,257.229743 3341.5,335.75 C3341.5,340.985951 3341.2281,346.158398 3340.69766,351.25399 C3340.96479,351.251332 3341.23224,351.25 3341.5,351.25 C3385.1305,351.25 3420.5,386.619505 3420.5,430.25 C3420.5,460.342852 3403.67421,486.505831 3378.91722,499.844359 L3378.91722,499.844359 C3391.29822,521.478337 3398.375,546.537733 3398.375,573.25 C3398.375,650.735534 3338.82862,714.313267 3263,720.719073 L3263,720.719073 L3263,721.25 L2829.5,721.25 L2478,721.25 L2478,625.062559 L2478,625.062559 L2478,721.25 L905,721.25 L904.999985,721.205873 C867.774158,719.889702 838,689.296915 838,651.75 C838,644.83748 839.009169,638.160665 840.888213,631.858846 C822.951853,612.358737 812,586.33334 812,557.75 C812,515.72494 835.674366,479.229324 870.413934,460.872316 C858.983136,448.486192 852,431.933595 852,413.75 C852,386.636258 867.526368,363.148894 890.173128,351.693886 C890.058355,350.060844 890,348.412237 890,346.75 C890,308.36621 921.11621,277.25 959.5,277.25 C970.159864,277.25 980.259199,279.649906 989.287179,283.938891 C994.633042,188.220266 1073.94462,112.25 1171,112.25 C1258.28055,112.25 1331.21141,173.688319 1348.90428,255.676653 C1363.03979,242.389836 1382.06931,234.25 1403,234.25 C1446.6305,234.25 1482,269.619505 1482,313.25 C1482,315.319853 1481.9204,317.371114 1481.76409,319.400889 L1481.76409,319.400889 C1505.06156,320.881204 1525.4296,333.142161 1537.93444,351.25 L1553.73151,351.25 L1553.73151,351.25 C1562.19049,321.798766 1589.32876,300.25 1621.5,300.25 C1648.90648,300.25 1672.66042,315.888436 1684.32512,338.728636 C1684.10979,336.097561 1684,333.436601 1684,330.75 C1684,277.454522 1727.20452,234.25 1780.5,234.25 C1826.47876,234.25 1864.94707,266.406077 1874.6428,309.456104 L1874.6428,309.456104 C1884.92316,303.59717 1896.82069,300.25 1909.5,300.25 C1926.09632,300.25 1941.35324,305.984697 1953.39727,315.58062 L1953.39727,315.58062 C1958.31069,256.039784 2008.19117,209.25 2069,209.25 C2118.5666,209.25 2160.87215,240.338232 2177.48175,284.079791 C2190.16857,271.804057 2207.45211,264.25 2226.5,264.25 C2258.79926,264.25 2286.0254,285.970602 2294.36858,315.601954 C2320.3139,272.829062 2367.31945,244.25 2421,244.25 C2431.27624,244.25 2441.30787,245.297328 2450.99396,247.291066 C2457.49431,203.692407 2495.09171,170.25 2540.5,170.25 C2540.62711,170.25 2540.75417,170.250262 2540.88116,170.250786 C2546.998,75.2695126 2625.97353,0.125 2722.5,0.125 C2815.38381,0.125 2892.01634,69.7050045 2903.11804,159.585458 L2903.11804,159.585458 C2917.51967,140.263339 2940.54851,127.75 2966.5,127.75 C2982.68162,127.75 2997.72694,132.615113 3010.25301,140.962404 C3026.00198,105.769857 3061.32503,81.25 3102.375,81.25 C3158.08672,81.25 3203.25,126.413276 3203.25,182.125 C3203.25,184.115657 3203.19234,186.092847 3203.07859,188.05499 Z" id="Oval-22-Copy-27" fill="url(#linearGradient-1)" sketch:type="MSShapeGroup"></path>
            <path d="M2434.0786,356.304991 C2511.35267,361.24121 2572.5,425.479743 2572.5,504 C2572.5,509.235951 2572.2281,514.408398 2571.69766,519.50399 C2571.96479,519.501332 2572.23224,519.5 2572.5,519.5 C2616.1305,519.5 2651.5,554.869505 2651.5,598.5 C2651.5,628.592852 2634.67421,654.755831 2609.91722,668.094359 L2609.91722,668.094359 C2622.29822,689.728337 2629.375,714.787733 2629.375,741.5 C2629.375,818.985534 2569.82862,882.563267 2494,888.969073 L2494,888.969073 L2494,889.5 L2060.5,889.5 L1695,889.5 L1695,889.5 L136,889.5 L135.999985,889.455873 C98.774158,888.139702 69,857.546915 69,820 C69,813.08748 70.0091686,806.410665 71.8882129,800.108846 C53.9518532,780.608737 43,754.58334 43,726 C43,683.97494 66.6743657,647.479324 101.413934,629.122316 C89.983136,616.736192 83,600.183595 83,582 C83,554.886258 98.5263684,531.398894 121.173128,519.943886 C121.058355,518.310844 121,516.662237 121,515 C121,476.61621 152.11621,445.5 190.5,445.5 C201.159864,445.5 211.259199,447.899906 220.287179,452.188891 C225.633042,356.470266 304.944618,280.5 402,280.5 C489.280548,280.5 562.211407,341.938319 579.904276,423.926653 C594.039786,410.639836 613.069313,402.5 634,402.5 C677.630495,402.5 713,437.869505 713,481.5 C713,483.569853 712.920397,485.621114 712.764086,487.650889 L712.764086,487.650889 C736.061561,489.131204 756.429599,501.392161 768.93444,519.5 L784.731515,519.5 L784.731515,519.5 C793.190494,490.048766 820.328755,468.5 852.5,468.5 C879.906484,468.5 903.660416,484.138436 915.325122,506.978636 C915.109788,504.347561 915,501.686601 915,499 C915,445.704522 958.204522,402.5 1011.5,402.5 C1057.47876,402.5 1095.94707,434.656077 1105.6428,477.706104 L1105.6428,477.706104 C1115.92316,471.84717 1127.82069,468.5 1140.5,468.5 C1157.09632,468.5 1172.35324,474.234697 1184.39727,483.83062 L1184.39727,483.83062 C1189.31069,424.289784 1239.19117,377.5 1300,377.5 C1349.5666,377.5 1391.87215,408.588232 1408.48175,452.329791 C1421.16857,440.054057 1438.45211,432.5 1457.5,432.5 C1489.79926,432.5 1517.0254,454.220602 1525.36858,483.851954 C1551.3139,441.079062 1598.31945,412.5 1652,412.5 C1661.92516,412.5 1671.62214,413.476988 1681,415.340041 L1681,412.5 L1682.50059,412.5 C1690.25666,370.396899 1727.15337,338.5 1771.5,338.5 C1775.82687,338.5 1780.08282,338.803651 1784.2477,339.390807 C1792.6369,246.659158 1870.58322,174 1965.5,174 C2052.78055,174 2125.71141,235.438319 2143.40428,317.426653 L2143.40428,317.426653 C2157.53979,304.139836 2176.56931,296 2197.5,296 C2213.68162,296 2228.72694,300.865113 2241.25301,309.212404 C2257.00198,274.019857 2292.32503,249.5 2333.375,249.5 C2389.08672,249.5 2434.25,294.663276 2434.25,350.375 C2434.25,352.365657 2434.19234,354.342847 2434.07859,356.30499 Z" id="Oval-22-Copy-25" fill="url(#linearGradient-2)" sketch:type="MSShapeGroup"></path>
            <path d="M2391.0786,592.804991 C2468.35267,597.74121 2529.5,661.979743 2529.5,740.5 C2529.5,745.735951 2529.2281,750.908398 2528.69766,756.00399 C2528.96479,756.001332 2529.23224,756 2529.5,756 C2573.1305,756 2608.5,791.369505 2608.5,835 C2608.5,865.092852 2591.67421,891.255831 2566.91722,904.594359 L2566.91722,904.594359 C2579.29822,926.228337 2586.375,951.287733 2586.375,978 C2586.375,1055.48553 2526.82862,1119.06327 2451,1125.46907 L2451,1125.46907 L2451,1126 L2017.5,1126 L1653.5,1126 L1653.5,1126 L93,1126 L92.9999846,1125.95587 C55.774158,1124.6397 26,1094.04691 26,1056.5 C26,1049.58748 27.0091686,1042.91066 28.8882129,1036.60885 C10.9518532,1017.10874 0,991.08334 0,962.5 C0,920.47494 23.6743657,883.979324 58.4139341,865.622316 C46.983136,853.236192 40,836.683595 40,818.5 C40,791.386258 55.5263684,767.898894 78.1731277,756.443886 C78.0583548,754.810844 78,753.162237 78,751.5 C78,713.11621 109.11621,682 147.5,682 C158.159864,682 168.259199,684.399906 177.287179,688.688891 C182.633042,592.970266 261.944618,517 359,517 C446.280548,517 519.211407,578.438319 536.904276,660.426653 C551.039786,647.139836 570.069313,639 591,639 C634.630495,639 670,674.369505 670,718 C670,720.069853 669.920397,722.121114 669.764086,724.150889 L669.764086,724.150889 C693.061561,725.631204 713.429599,737.892161 725.93444,756 L741.731515,756 L741.731515,756 C750.190494,726.548766 777.328755,705 809.5,705 C836.906484,705 860.660416,720.638436 872.325122,743.478636 C872.109788,740.847561 872,738.186601 872,735.5 C872,682.204522 915.204522,639 968.5,639 C1014.47876,639 1052.94707,671.156077 1062.6428,714.206104 L1062.6428,714.206104 C1072.92316,708.34717 1084.82069,705 1097.5,705 C1114.09632,705 1129.35324,710.734697 1141.39727,720.33062 L1141.39727,720.33062 C1146.31069,660.789784 1196.19117,614 1257,614 C1306.5666,614 1348.87215,645.088232 1365.48175,688.829791 C1378.16857,676.554057 1395.45211,669 1414.5,669 C1446.79926,669 1474.0254,690.720602 1482.36858,720.351954 C1508.3139,677.579062 1555.31945,649 1609,649 C1619.27624,649 1629.30787,650.047328 1638.99396,652.041066 C1639.48707,648.733684 1640.15914,645.484749 1641,642.304425 L1641,630 L1645.22807,630 C1659.0312,597.663725 1691.1189,575 1728.5,575 C1732.82687,575 1737.08282,575.303651 1741.2477,575.890807 C1749.6369,483.159158 1827.58322,410.5 1922.5,410.5 C2009.78055,410.5 2082.71141,471.938319 2100.40428,553.926653 L2100.40428,553.926653 C2114.53979,540.639836 2133.56931,532.5 2154.5,532.5 C2170.68162,532.5 2185.72694,537.365113 2198.25301,545.712404 C2214.00198,510.519857 2249.32503,486 2290.375,486 C2346.08672,486 2391.25,531.163276 2391.25,586.875 C2391.25,588.865657 2391.19234,590.842847 2391.07859,592.80499 Z" id="Oval-22-Copy-23" fill="url(#linearGradient-3)" sketch:type="MSShapeGroup"></path>
            <path d="M3177.0786,472.804991 C3254.35267,477.74121 3315.5,541.979743 3315.5,620.5 C3315.5,625.735951 3315.2281,630.908398 3314.69766,636.00399 C3314.96479,636.001332 3315.23224,636 3315.5,636 C3359.1305,636 3394.5,671.369505 3394.5,715 C3394.5,745.092852 3377.67421,771.255831 3352.91722,784.594359 L3352.91722,784.594359 C3365.29822,806.228337 3372.375,831.287733 3372.375,858 C3372.375,935.485534 3312.82862,999.063267 3237,1005.46907 L3237,1005.46907 L3237,1006 L2803.5,1006 L2452,1006 L2452,909.812559 L2452,1006 L879,1006 L878.999985,1005.95587 C841.774158,1004.6397 812,974.046915 812,936.5 C812,929.58748 813.009169,922.910665 814.888213,916.608846 C796.951853,897.108737 786,871.08334 786,842.5 C786,800.47494 809.674366,763.979324 844.413934,745.622316 C832.983136,733.236192 826,716.683595 826,698.5 C826,671.386258 841.526368,647.898894 864.173128,636.443886 C864.058355,634.810844 864,633.162237 864,631.5 C864,593.11621 895.11621,562 933.5,562 C944.159864,562 954.259199,564.399906 963.287179,568.688891 C968.633042,472.970266 1047.94462,397 1145,397 C1232.28055,397 1305.21141,458.438319 1322.90428,540.426653 C1337.03979,527.139836 1356.06931,519 1377,519 C1420.6305,519 1456,554.369505 1456,598 C1456,600.069853 1455.9204,602.121114 1455.76409,604.150889 L1455.76409,604.150889 C1479.06156,605.631204 1499.4296,617.892161 1511.93444,636 L1527.73151,636 L1527.73151,636 C1536.19049,606.548766 1563.32876,585 1595.5,585 C1622.90648,585 1646.66042,600.638436 1658.32512,623.478636 C1658.10979,620.847561 1658,618.186601 1658,615.5 C1658,562.204522 1701.20452,519 1754.5,519 C1800.47876,519 1838.94707,551.156077 1848.6428,594.206104 L1848.6428,594.206104 C1858.92316,588.34717 1870.82069,585 1883.5,585 C1900.09632,585 1915.35324,590.734697 1927.39727,600.33062 L1927.39727,600.33062 C1932.31069,540.789784 1982.19117,494 2043,494 C2092.5666,494 2134.87215,525.088232 2151.48175,568.829791 C2164.16857,556.554057 2181.45211,549 2200.5,549 C2232.79926,549 2260.0254,570.720602 2268.36858,600.351954 C2294.3139,557.579062 2341.31945,529 2395,529 C2405.27624,529 2415.30787,530.047328 2424.99396,532.041066 C2431.49431,488.442407 2469.09171,455 2514.5,455 C2518.82687,455 2523.08282,455.303651 2527.2477,455.890807 C2535.6369,363.159158 2613.58322,290.5 2708.5,290.5 C2795.78055,290.5 2868.71141,351.938319 2886.40428,433.926653 L2886.40428,433.926653 C2900.53979,420.639836 2919.56931,412.5 2940.5,412.5 C2956.68162,412.5 2971.72694,417.365113 2984.25301,425.712404 C3000.00198,390.519857 3035.32503,366 3076.375,366 C3132.08672,366 3177.25,411.163276 3177.25,466.875 C3177.25,468.865657 3177.19234,470.842847 3177.07859,472.80499 Z" id="Oval-22-Copy-26" fill="url(#linearGradient-4)" sketch:type="MSShapeGroup"></path>
            <path d="M2994.8286,830.554991 C3072.10267,835.49121 3133.25,899.729743 3133.25,978.25 C3133.25,983.485951 3132.9781,988.658398 3132.44766,993.75399 C3132.71479,993.751332 3132.98224,993.75 3133.25,993.75 C3176.8805,993.75 3212.25,1029.1195 3212.25,1072.75 C3212.25,1102.84285 3195.42421,1129.00583 3170.66722,1142.34436 L3170.66722,1142.34436 C3183.04822,1163.97834 3190.125,1189.03773 3190.125,1215.75 C3190.125,1293.23553 3130.57862,1356.81327 3054.75,1363.21907 L3054.75,1363.21907 L3054.75,1363.75 L2621.25,1363.75 L2269.75,1363.75 L2269.75,1267.56256 L2269.75,1267.56256 L2269.75,1363.75 L696.75,1363.75 L696.749985,1363.70587 C659.524158,1362.3897 629.75,1331.79691 629.75,1294.25 C629.75,1287.33748 630.759169,1280.66066 632.638213,1274.35885 C614.701853,1254.85874 603.75,1228.83334 603.75,1200.25 C603.75,1158.22494 627.424366,1121.72932 662.163934,1103.37232 C650.733136,1090.98619 643.75,1074.4336 643.75,1056.25 C643.75,1029.13626 659.276368,1005.64889 681.923128,994.193886 C681.808355,992.560844 681.75,990.912237 681.75,989.25 C681.75,950.86621 712.86621,919.75 751.25,919.75 C761.909864,919.75 772.009199,922.149906 781.037179,926.438891 C786.383042,830.720266 865.694618,754.75 962.75,754.75 C1050.03055,754.75 1122.96141,816.188319 1140.65428,898.176653 C1154.78979,884.889836 1173.81931,876.75 1194.75,876.75 C1238.3805,876.75 1273.75,912.119505 1273.75,955.75 C1273.75,957.819853 1273.6704,959.871114 1273.51409,961.900889 L1273.51409,961.900889 C1296.81156,963.381204 1317.1796,975.642161 1329.68444,993.75 L1345.48151,993.75 L1345.48151,993.75 C1353.94049,964.298766 1381.07876,942.75 1413.25,942.75 C1440.65648,942.75 1464.41042,958.388436 1476.07512,981.228636 C1475.85979,978.597561 1475.75,975.936601 1475.75,973.25 C1475.75,919.954522 1518.95452,876.75 1572.25,876.75 C1618.22876,876.75 1656.69707,908.906077 1666.3928,951.956104 L1666.3928,951.956104 C1676.67316,946.09717 1688.57069,942.75 1701.25,942.75 C1717.84632,942.75 1733.10324,948.484697 1745.14727,958.08062 L1745.14727,958.08062 C1750.06069,898.539784 1799.94117,851.75 1860.75,851.75 C1910.3166,851.75 1952.62215,882.838232 1969.23175,926.579791 C1981.91857,914.304057 1999.20211,906.75 2018.25,906.75 C2050.54926,906.75 2077.7754,928.470602 2086.11858,958.101954 C2112.0639,915.329062 2159.06945,886.75 2212.75,886.75 C2223.02624,886.75 2233.05787,887.797328 2242.74396,889.791066 C2249.24431,846.192407 2286.84171,812.75 2332.25,812.75 C2336.57687,812.75 2340.83282,813.053651 2344.9977,813.640807 C2353.3869,720.909158 2431.33322,648.25 2526.25,648.25 C2613.53055,648.25 2686.46141,709.688319 2704.15428,791.676653 L2704.15428,791.676653 C2718.28979,778.389836 2737.31931,770.25 2758.25,770.25 C2774.43162,770.25 2789.47694,775.115113 2802.00301,783.462404 C2817.75198,748.269857 2853.07503,723.75 2894.125,723.75 C2949.83672,723.75 2995,768.913276 2995,824.625 C2995,826.615657 2994.94234,828.592847 2994.82859,830.55499 Z" id="Oval-22" fill="#FFFFFF" sketch:type="MSShapeGroup"></path>
        </g>
    </g>
</svg>