<?xml version="1.0" encoding="UTF-8" standalone="no"?>
<svg width="4905px" height="1074px" viewBox="0 0 4905 1074" version="1.1" xmlns="http://www.w3.org/2000/svg" xmlns:xlink="http://www.w3.org/1999/xlink" xmlns:sketch="http://www.bohemiancoding.com/sketch/ns">
    <!-- Generator: Sketch 3.3.3 (12072) - http://www.bohemiancoding.com/sketch -->
    <title>Slice 1</title>
    <desc>Created with Sketch.</desc>
    <defs>
        <linearGradient x1="50%" y1="91.0776422%" x2="50%" y2="11.1259838%" id="linearGradient-1">
            <stop stop-color="#4A8BA1" offset="0%"></stop>
            <stop stop-color="#D3E2E5" offset="100%"></stop>
        </linearGradient>
        <linearGradient x1="50%" y1="141.313985%" x2="50%" y2="29.718073%" id="linearGradient-2">
            <stop stop-color="#4A8BA1" offset="0%"></stop>
            <stop stop-color="#D3E2E5" offset="100%"></stop>
        </linearGradient>
        <linearGradient x1="50%" y1="33.4075821%" x2="50%" y2="100%" id="linearGradient-3">
            <stop stop-color="#FFFFFF" offset="0%"></stop>
            <stop stop-color="#D9BDC4" offset="100%"></stop>
        </linearGradient>
        <linearGradient x1="50%" y1="39.6095388%" x2="50%" y2="106.268562%" id="linearGradient-4">
            <stop stop-color="#FFFFFF" offset="0%"></stop>
            <stop stop-color="#D9ABB7" offset="100%"></stop>
        </linearGradient>
    </defs>
    <g id="Page-1" stroke="none" stroke-width="1" fill="none" fill-rule="evenodd" sketch:type="MSPage">
        <g id="clouds_login" sketch:type="MSLayerGroup" transform="translate(-78.000000, 0.000000)">
            <g id="Page-1" sketch:type="MSShapeGroup">
                <g id="Group" transform="translate(0.000000, 0.750000)">
                    <path d="M2610.0786,183.054991 C2687.35267,187.99121 2748.5,252.229743 2748.5,330.75 C2748.5,335.985951 2748.2281,341.158398 2747.69766,346.25399 C2747.96479,346.251332 2748.23224,346.25 2748.5,346.25 C2792.1305,346.25 2827.5,381.619505 2827.5,425.25 C2827.5,455.342852 2810.67421,481.505831 2785.91722,494.844359 L2785.91722,494.844359 C2798.29822,516.478337 2805.375,541.537733 2805.375,568.25 C2805.375,645.735534 2745.82862,709.313267 2670,715.719073 L2670,715.719073 L2670,716.25 L2236.5,716.25 L1872.5,716.25 L312,716.25 L311.999985,716.205873 C274.774158,714.889702 245,684.296915 245,646.75 C245,639.83748 246.009169,633.160665 247.888213,626.858846 C229.951853,607.358737 219,581.33334 219,552.75 C219,510.72494 242.674366,474.229324 277.413934,455.872316 C265.983136,443.486192 259,426.933595 259,408.75 C259,381.636258 274.526368,358.148894 297.173128,346.693886 C297.058355,345.060844 297,343.412237 297,341.75 C297,303.36621 328.11621,272.25 366.5,272.25 C377.159864,272.25 387.259199,274.649906 396.287179,278.938891 C401.633042,183.220266 480.94462,107.25 578,107.25 C665.28055,107.25 738.21141,168.688319 755.90428,250.676653 C770.03979,237.389836 789.06931,229.25 810,229.25 C853.6305,229.25 889,264.619505 889,308.25 C889,310.319853 888.9204,312.371114 888.76409,314.400889 L888.76409,314.400889 C912.06156,315.881204 932.4296,328.142161 944.93444,346.25 L960.73151,346.25 C969.19049,316.798766 996.32876,295.25 1028.5,295.25 C1055.90648,295.25 1079.66042,310.888436 1091.32512,333.728636 C1091.10979,331.097561 1091,328.436601 1091,325.75 C1091,272.454522 1134.20452,229.25 1187.5,229.25 C1233.47876,229.25 1271.94707,261.406077 1281.6428,304.456104 L1281.6428,304.456104 C1291.92316,298.59717 1303.82069,295.25 1316.5,295.25 C1333.09632,295.25 1348.35324,300.984697 1360.39727,310.58062 L1360.39727,310.58062 C1365.31069,251.039784 1415.19117,204.25 1476,204.25 C1525.5666,204.25 1567.87215,235.338232 1584.48175,279.079791 C1597.16857,266.804057 1614.45211,259.25 1633.5,259.25 C1665.79926,259.25 1693.0254,280.970602 1701.36858,310.601954 C1727.3139,267.829062 1774.31945,239.25 1828,239.25 C1838.27624,239.25 1848.30787,240.297328 1857.99396,242.291066 C1858.48707,238.983684 1859.15914,235.734749 1860,232.554425 L1860,220.25 L1864.22807,220.25 C1878.0312,187.913725 1910.1189,165.25 1947.5,165.25 C1951.82687,165.25 1956.08282,165.553651 1960.2477,166.140807 C1968.6369,73.4091576 2046.58322,0.75 2141.5,0.75 C2228.78055,0.75 2301.71141,62.1883187 2319.40428,144.176653 L2319.40428,144.176653 C2333.53979,130.889836 2352.56931,122.75 2373.5,122.75 C2389.68162,122.75 2404.72694,127.615113 2417.25301,135.962404 C2433.00198,100.769857 2468.32503,76.25 2509.375,76.25 C2565.08672,76.25 2610.25,121.413276 2610.25,177.125 C2610.25,179.115657 2610.19234,181.092847 2610.07859,183.05499 L2610.0786,183.054991 Z" id="front" fill="url(#linearGradient-1)"></path>
                    <path d="M4734.0786,187.054991 C4811.35267,191.99121 4872.5,256.229743 4872.5,334.75 C4872.5,339.985951 4872.2281,345.158398 4871.69766,350.25399 C4871.96479,350.251332 4872.23224,350.25 4872.5,350.25 C4916.1305,350.25 4951.5,385.619505 4951.5,429.25 C4951.5,459.342852 4934.67421,485.505831 4909.91722,498.844359 L4909.91722,498.844359 C4922.29822,520.478337 4929.375,545.537733 4929.375,572.25 C4929.375,649.735534 4869.82862,713.313267 4794,719.719073 L4794,719.719073 L4794,720.25 L4360.5,720.25 L3996.5,720.25 L2436,720.25 L2435.99998,720.205873 C2398.77416,718.889702 2369,688.296915 2369,650.75 C2369,643.83748 2370.00917,637.160665 2371.88821,630.858846 C2353.95185,611.358737 2343,585.33334 2343,556.75 C2343,514.72494 2366.67437,478.229324 2401.41393,459.872316 C2389.98314,447.486192 2383,430.933595 2383,412.75 C2383,385.636258 2398.52637,362.148894 2421.17313,350.693886 C2421.05836,349.060844 2421,347.412237 2421,345.75 C2421,307.36621 2452.11621,276.25 2490.5,276.25 C2501.15986,276.25 2511.2592,278.649906 2520.28718,282.938891 C2525.63304,187.220266 2604.94462,111.25 2702,111.25 C2789.28055,111.25 2862.21141,172.688319 2879.90428,254.676653 C2894.03979,241.389836 2913.06931,233.25 2934,233.25 C2977.6305,233.25 3013,268.619505 3013,312.25 C3013,314.319853 3012.9204,316.371114 3012.76409,318.400889 L3012.76409,318.400889 C3036.06156,319.881204 3056.4296,332.142161 3068.93444,350.25 L3084.73151,350.25 C3093.19049,320.798766 3120.32876,299.25 3152.5,299.25 C3179.90648,299.25 3203.66042,314.888436 3215.32512,337.728636 C3215.10979,335.097561 3215,332.436601 3215,329.75 C3215,276.454522 3258.20452,233.25 3311.5,233.25 C3357.47876,233.25 3395.94707,265.406077 3405.6428,308.456104 L3405.6428,308.456104 C3415.92316,302.59717 3427.82069,299.25 3440.5,299.25 C3457.09632,299.25 3472.35324,304.984697 3484.39727,314.58062 L3484.39727,314.58062 C3489.31069,255.039784 3539.19117,208.25 3600,208.25 C3649.5666,208.25 3691.87215,239.338232 3708.48175,283.079791 C3721.16857,270.804057 3738.45211,263.25 3757.5,263.25 C3789.79926,263.25 3817.0254,284.970602 3825.36858,314.601954 C3851.3139,271.829062 3898.31945,243.25 3952,243.25 C3962.27624,243.25 3972.30787,244.297328 3981.99396,246.291066 C3982.48707,242.983684 3983.15914,239.734749 3984,236.554425 L3984,224.25 L3988.22807,224.25 C4002.0312,191.913725 4034.1189,169.25 4071.5,169.25 C4075.82687,169.25 4080.08282,169.553651 4084.2477,170.140807 C4092.6369,77.4091576 4170.58322,4.75 4265.5,4.75 C4352.78055,4.75 4425.71141,66.1883187 4443.40428,148.176653 L4443.40428,148.176653 C4457.53979,134.889836 4476.56931,126.75 4497.5,126.75 C4513.68162,126.75 4528.72694,131.615113 4541.25301,139.962404 C4557.00198,104.769857 4592.32503,80.25 4633.375,80.25 C4689.08672,80.25 4734.25,125.413276 4734.25,181.125 C4734.25,183.115657 4734.19234,185.092847 4734.07859,187.05499 L4734.0786,187.054991 Z" id="1b" fill="url(#linearGradient-1)"></path>
                    <path d="M4747.0786,310.304991 C4824.35267,315.24121 4885.5,379.479743 4885.5,458 C4885.5,463.235951 4885.2281,468.408398 4884.69766,473.50399 C4884.96479,473.501332 4885.23224,473.5 4885.5,473.5 C4929.1305,473.5 4964.5,508.869505 4964.5,552.5 C4964.5,582.592852 4947.67421,608.755831 4922.91722,622.094359 L4922.91722,622.094359 C4935.29822,643.728337 4942.375,668.787733 4942.375,695.5 C4942.375,772.985534 4882.82862,836.563267 4807,842.969073 L4807,842.969073 L4807,843.5 L4373.5,843.5 L4009.5,843.5 L2449,843.5 L2448.99998,843.455873 C2411.77416,842.139702 2382,811.546915 2382,774 C2382,767.08748 2383.00917,760.410665 2384.88821,754.108846 C2366.95185,734.608737 2356,708.58334 2356,680 C2356,637.97494 2379.67437,601.479324 2414.41393,583.122316 C2402.98314,570.736192 2396,554.183595 2396,536 C2396,508.886258 2411.52637,485.398894 2434.17313,473.943886 C2434.05835,472.310844 2434,470.662237 2434,469 C2434,430.61621 2465.11621,399.5 2503.5,399.5 C2514.15986,399.5 2524.2592,401.899906 2533.28718,406.188891 C2538.63304,310.470266 2617.94462,234.5 2715,234.5 C2802.28055,234.5 2875.21141,295.938319 2892.90428,377.926653 C2907.03979,364.639836 2926.06931,356.5 2947,356.5 C2990.63049,356.5 3026,391.869505 3026,435.5 C3026,437.569853 3025.9204,439.621114 3025.76409,441.650889 L3025.76409,441.650889 C3049.06156,443.131204 3069.4296,455.392161 3081.93444,473.5 L3097.73151,473.5 C3106.19049,444.048766 3133.32876,422.5 3165.5,422.5 C3192.90648,422.5 3216.66042,438.138436 3228.32512,460.978636 C3228.10979,458.347561 3228,455.686601 3228,453 C3228,399.704522 3271.20452,356.5 3324.5,356.5 C3370.47876,356.5 3408.94707,388.656077 3418.6428,431.706104 L3418.6428,431.706104 C3428.92316,425.84717 3440.82069,422.5 3453.5,422.5 C3470.09632,422.5 3485.35324,428.234697 3497.39727,437.83062 L3497.39727,437.83062 C3502.31069,378.289784 3552.19117,331.5 3613,331.5 C3662.5666,331.5 3704.87215,362.588232 3721.48175,406.329791 C3734.16857,394.054057 3751.45211,386.5 3770.5,386.5 C3802.79926,386.5 3830.0254,408.220602 3838.36858,437.851954 C3864.3139,395.079062 3911.31945,366.5 3965,366.5 C3975.27624,366.5 3985.30787,367.547328 3994.99396,369.541066 C3995.48707,366.233684 3996.15914,362.984749 3997,359.804425 L3997,347.5 L4001.22807,347.5 C4015.0312,315.163725 4047.1189,292.5 4084.5,292.5 C4088.82687,292.5 4093.08282,292.803651 4097.2477,293.390807 C4105.6369,200.659158 4183.58322,128 4278.5,128 C4365.78055,128 4438.71141,189.438319 4456.40428,271.426653 L4456.40428,271.426653 C4470.53979,258.139836 4489.56931,250 4510.5,250 C4526.68162,250 4541.72694,254.865113 4554.25301,263.212404 C4570.00198,228.019857 4605.32503,203.5 4646.375,203.5 C4702.08672,203.5 4747.25,248.663276 4747.25,304.375 C4747.25,306.365657 4747.19234,308.342847 4747.07859,310.30499 L4747.0786,310.304991 Z" id="2b" fill="url(#linearGradient-2)"></path>
                    <path d="M4515.0786,544.804991 C4592.35267,549.74121 4653.5,613.979743 4653.5,692.5 C4653.5,697.735951 4653.2281,702.908398 4652.69766,708.00399 C4652.96479,708.001332 4653.23224,708 4653.5,708 C4697.1305,708 4732.5,743.369505 4732.5,787 C4732.5,817.092852 4715.67421,843.255831 4690.91722,856.594359 L4690.91722,856.594359 C4703.29822,878.228337 4710.375,903.287733 4710.375,930 C4710.375,1007.48553 4650.82862,1071.06327 4575,1077.46907 L4575,1077.46907 L4575,1078 L4141.5,1078 L3777.5,1078 L2217,1078 L2216.99998,1077.95587 C2179.77416,1076.6397 2150,1046.04691 2150,1008.5 C2150,1001.58748 2151.00917,994.910665 2152.88821,988.608846 C2134.95185,969.108737 2124,943.08334 2124,914.5 C2124,872.47494 2147.67437,835.979324 2182.41393,817.622316 C2170.98314,805.236192 2164,788.683595 2164,770.5 C2164,743.386258 2179.52637,719.898894 2202.17313,708.443886 C2202.05835,706.810844 2202,705.162237 2202,703.5 C2202,665.11621 2233.11621,634 2271.5,634 C2282.15986,634 2292.2592,636.399906 2301.28718,640.688891 C2306.63304,544.970266 2385.94462,469 2483,469 C2570.28055,469 2643.21141,530.438319 2660.90428,612.426653 C2675.03979,599.139836 2694.06931,591 2715,591 C2758.63049,591 2794,626.369505 2794,670 C2794,672.069853 2793.9204,674.121114 2793.76409,676.150889 L2793.76409,676.150889 C2817.06156,677.631204 2837.4296,689.892161 2849.93444,708 L2865.73151,708 C2874.19049,678.548766 2901.32876,657 2933.5,657 C2960.90648,657 2984.66042,672.638436 2996.32512,695.478636 C2996.10979,692.847561 2996,690.186601 2996,687.5 C2996,634.204522 3039.20452,591 3092.5,591 C3138.47876,591 3176.94707,623.156077 3186.6428,666.206104 L3186.6428,666.206104 C3196.92316,660.34717 3208.82069,657 3221.5,657 C3238.09632,657 3253.35324,662.734697 3265.39727,672.33062 L3265.39727,672.33062 C3270.31069,612.789784 3320.19117,566 3381,566 C3430.5666,566 3472.87215,597.088232 3489.48175,640.829791 C3502.16857,628.554057 3519.45211,621 3538.5,621 C3570.79926,621 3598.0254,642.720602 3606.36858,672.351954 C3632.3139,629.579062 3679.31945,601 3733,601 C3743.27624,601 3753.30787,602.047328 3762.99396,604.041066 C3763.48707,600.733684 3764.15914,597.484749 3765,594.304425 L3765,582 L3769.22807,582 C3783.0312,549.663725 3815.1189,527 3852.5,527 C3856.82687,527 3861.08282,527.303651 3865.2477,527.890807 C3873.6369,435.159158 3951.58322,362.5 4046.5,362.5 C4133.78055,362.5 4206.71141,423.938319 4224.40428,505.926653 L4224.40428,505.926653 C4238.53979,492.639836 4257.56931,484.5 4278.5,484.5 C4294.68162,484.5 4309.72694,489.365113 4322.25301,497.712404 C4338.00198,462.519857 4373.32503,438 4414.375,438 C4470.08672,438 4515.25,483.163276 4515.25,538.875 C4515.25,540.865657 4515.19234,542.842847 4515.07859,544.80499 L4515.0786,544.804991 Z" id="3b" fill="url(#linearGradient-3)"></path>
                    <path d="M2391.0786,540.804991 C2468.35267,545.74121 2529.5,609.979743 2529.5,688.5 C2529.5,693.735951 2529.2281,698.908398 2528.69766,704.00399 C2528.96479,704.001332 2529.23224,704 2529.5,704 C2573.1305,704 2608.5,739.369505 2608.5,783 C2608.5,813.092852 2591.67421,839.255831 2566.91722,852.594359 L2566.91722,852.594359 C2579.29822,874.228337 2586.375,899.287733 2586.375,926 C2586.375,1003.48553 2526.82862,1067.06327 2451,1073.46907 L2451,1073.46907 L2451,1074 L2017.5,1074 L1653.5,1074 L93,1074 L92.999985,1073.95587 C55.774158,1072.6397 26,1042.04691 26,1004.5 C26,997.58748 27.0091686,990.910665 28.8882129,984.608846 C10.9518532,965.108737 0,939.08334 0,910.5 C0,868.47494 23.6743657,831.979324 58.4139341,813.622316 C46.983136,801.236192 40,784.683595 40,766.5 C40,739.386258 55.5263684,715.898894 78.1731277,704.443886 C78.0583548,702.810844 78,701.162237 78,699.5 C78,661.11621 109.11621,630 147.5,630 C158.159864,630 168.259199,632.399906 177.287179,636.688891 C182.633042,540.970266 261.944618,465 359,465 C446.280548,465 519.211407,526.438319 536.904276,608.426653 C551.039786,595.139836 570.069313,587 591,587 C634.630495,587 670,622.369505 670,666 C670,668.069853 669.920397,670.121114 669.764086,672.150889 L669.764086,672.150889 C693.061561,673.631204 713.429599,685.892161 725.93444,704 L741.731515,704 C750.190494,674.548766 777.328755,653 809.5,653 C836.906484,653 860.660416,668.638436 872.325122,691.478636 C872.109788,688.847561 872,686.186601 872,683.5 C872,630.204522 915.204522,587 968.5,587 C1014.47876,587 1052.94707,619.156077 1062.6428,662.206104 L1062.6428,662.206104 C1072.92316,656.34717 1084.82069,653 1097.5,653 C1114.09632,653 1129.35324,658.734697 1141.39727,668.33062 L1141.39727,668.33062 C1146.31069,608.789784 1196.19117,562 1257,562 C1306.5666,562 1348.87215,593.088232 1365.48175,636.829791 C1378.16857,624.554057 1395.45211,617 1414.5,617 C1446.79926,617 1474.0254,638.720602 1482.36858,668.351954 C1508.3139,625.579062 1555.31945,597 1609,597 C1619.27624,597 1629.30787,598.047328 1638.99396,600.041066 C1639.48707,596.733684 1640.15914,593.484749 1641,590.304425 L1641,578 L1645.22807,578 C1659.0312,545.663725 1691.1189,523 1728.5,523 C1732.82687,523 1737.08282,523.303651 1741.2477,523.890807 C1749.6369,431.159158 1827.58322,358.5 1922.5,358.5 C2009.78055,358.5 2082.71141,419.938319 2100.40428,501.926653 L2100.40428,501.926653 C2114.53979,488.639836 2133.56931,480.5 2154.5,480.5 C2170.68162,480.5 2185.72694,485.365113 2198.25301,493.712404 C2214.00198,458.519857 2249.32503,434 2290.375,434 C2346.08672,434 2391.25,479.163276 2391.25,534.875 C2391.25,536.865657 2391.19234,538.842847 2391.07859,540.80499 L2391.0786,540.804991 Z" id="3" fill="url(#linearGradient-3)"></path>
                    <path d="M2828.5,568.5 C2828.5,573.735951 2828.2281,578.908398 2827.69766,584.00399 C2872.1305,584 2907.5,619.369505 2907.5,663 C2907.5,693.092852 2890.67421,719.255831 2865.91722,732.594359 C2878.29822,754.228337 2885.375,779.287733 2885.375,806 C2885.375,883.485534 2825.82862,947.063267 2750,953.469073 L2316.5,954 L1952.5,954 L392,954 C354.774158,952.639702 325,922.046915 325,884.5 C325,877.58748 326.009169,870.910665 327.888213,864.608846 C309.951853,845.108737 299,819.08334 299,790.5 C299,748.47494 322.674366,711.979324 357.413934,693.622316 C345.983136,681.236192 339,664.683595 339,646.5 C339,619.386258 354.526368,595.898894 377.173128,584.443886 C377.058355,582.810844 377,581.162237 377,579.5 C377,541.11621 408.11621,510 446.5,510 C457.159864,510 467.259199,512.399906 476.287179,516.688891 C481.633042,420.970266 560.94462,345 658,345 C745.28055,345 818.21141,406.438319 835.90428,488.426653 C850.03979,475.139836 869.06931,467 890,467 C933.6305,467 969,502.369505 969,546 C969,548.069853 968.9204,550.121114 968.76409,552.150889 C992.06156,553.631204 1012.4296,565.892161 1024.93444,584 L1040.73151,584 C1049.19049,554.548766 1076.32876,533 1108.5,533 C1135.90648,533 1159.66042,548.638436 1171.32512,571.478636 C1171.10979,568.847561 1171,566.186601 1171,563.5 C1171,510.204522 1214.20452,467 1267.5,467 C1313.47876,467 1351.94707,499.156077 1361.6428,542.206104 C1371.92316,536.34717 1383.82069,533 1396.5,533 C1413.09632,533 1428.35324,538.734697 1440.39727,548.33062 C1445.31069,488.789784 1495.19117,442 1556,442 C1605.5666,442 1647.87215,473.088232 1664.48175,516.829791 C1677.16857,504.554057 1694.45211,497 1713.5,497 C1745.79926,497 1773.0254,518.720602 1781.36858,548.351954 C1807.3139,505.579062 1854.31945,477 1908,477 C1918.27624,477 1928.30787,478.047328 1937.99396,480.041066 C1938.48707,476.733684 1939.15914,473.484749 1940,470.304425 L1940,458 C1958.0312,425.663725 1990.1189,403 2027.5,403 C2031.82687,403 2036.08282,403.303651 2040.2477,403.890807 C2048.6369,311.159158 2126.58322,238.5 2221.5,238.5 C2308.78055,238.5 2381.71141,299.938319 2399.40428,381.926653 C2413.53979,368.639836 2432.56931,360.5 2453.5,360.5 C2469.68162,360.5 2484.72694,365.365113 2497.25301,373.712404 C2513.00198,338.519857 2548.32503,314 2589.375,314 C2645.08672,314 2690.25,359.163276 2690.25,414.875 C2690.25,416.865657 2690.19234,418.842847 2690.07859,420.80499 C2767.35267,425.74121 2828.5,489.979743 2828.5,568.5 Z" id="4" fill="url(#linearGradient-4)"></path>
                    <path d="M4814.0786,424.804991 C4891.35267,429.74121 4952.5,493.979743 4952.5,572.5 C4952.5,577.735951 4952.2281,582.908398 4951.69766,588.00399 C4951.96479,588.001332 4952.23224,588 4952.5,588 C4996.1305,588 5031.5,623.369505 5031.5,667 C5031.5,697.092852 5014.67421,723.255831 4989.91722,736.594359 L4989.91722,736.594359 C5002.29822,758.228337 5009.375,783.287733 5009.375,810 C5009.375,887.485534 4949.82862,951.063267 4874,957.469073 L4874,957.469073 L4874,958 L4440.5,958 L4076.5,958 L2516,958 L2515.99998,957.955873 C2478.77416,956.639702 2449,926.046915 2449,888.5 C2449,881.58748 2450.00917,874.910665 2451.88821,868.608846 C2433.95185,849.108737 2423,823.08334 2423,794.5 C2423,752.47494 2446.67437,715.979324 2481.41393,697.622316 C2469.98314,685.236192 2463,668.683595 2463,650.5 C2463,623.386258 2478.52637,599.898894 2501.17313,588.443886 C2501.05836,586.810844 2501,585.162237 2501,583.5 C2501,545.11621 2532.11621,514 2570.5,514 C2581.15986,514 2591.2592,516.399906 2600.28718,520.688891 C2605.63304,424.970266 2684.94462,349 2782,349 C2869.28055,349 2942.21141,410.438319 2959.90428,492.426653 C2974.03979,479.139836 2993.06931,471 3014,471 C3057.6305,471 3093,506.369505 3093,550 C3093,552.069853 3092.9204,554.121114 3092.76409,556.150889 L3092.76409,556.150889 C3116.06156,557.631204 3136.4296,569.892161 3148.93444,588 L3164.73151,588 C3173.19049,558.548766 3200.32876,537 3232.5,537 C3259.90648,537 3283.66042,552.638436 3295.32512,575.478636 C3295.10979,572.847561 3295,570.186601 3295,567.5 C3295,514.204522 3338.20452,471 3391.5,471 C3437.47876,471 3475.94707,503.156077 3485.6428,546.206104 L3485.6428,546.206104 C3495.92316,540.34717 3507.82069,537 3520.5,537 C3537.09632,537 3552.35324,542.734697 3564.39727,552.33062 L3564.39727,552.33062 C3569.31069,492.789784 3619.19117,446 3680,446 C3729.5666,446 3771.87215,477.088232 3788.48175,520.829791 C3801.16857,508.554057 3818.45211,501 3837.5,501 C3869.79926,501 3897.0254,522.720602 3905.36858,552.351954 C3931.3139,509.579062 3978.31945,481 4032,481 C4042.27624,481 4052.30787,482.047328 4061.99396,484.041066 C4062.48707,480.733684 4063.15914,477.484749 4064,474.304425 L4064,462 L4068.22807,462 C4082.0312,429.663725 4114.1189,407 4151.5,407 C4155.82687,407 4160.08282,407.303651 4164.2477,407.890807 C4172.6369,315.159158 4250.58322,242.5 4345.5,242.5 C4432.78055,242.5 4505.71141,303.938319 4523.40428,385.926653 L4523.40428,385.926653 C4537.53979,372.639836 4556.56931,364.5 4577.5,364.5 C4593.68162,364.5 4608.72694,369.365113 4621.25301,377.712404 C4637.00198,342.519857 4672.32503,318 4713.375,318 C4769.08672,318 4814.25,363.163276 4814.25,418.875 C4814.25,420.865657 4814.19234,422.842847 4814.07859,424.80499 L4814.0786,424.804991 Z" id="4b" fill="url(#linearGradient-4)"></path>
                    <path d="M2651.8286,689.554991 C2729.10267,694.49121 2790.25,758.729743 2790.25,837.25 C2790.25,842.485951 2789.9781,847.658398 2789.44766,852.75399 C2789.71479,852.751332 2789.98224,852.75 2790.25,852.75 C2833.8805,852.75 2869.25,888.119505 2869.25,931.75 C2869.25,961.84285 2852.42421,988.00583 2827.66722,1001.34436 L2827.66722,1001.34436 C2840.04822,1022.97834 2847.125,1048.03773 2847.125,1074.75 C2847.125,1152.23553 2787.57862,1215.81327 2711.75,1222.21907 L2711.75,1222.21907 L2711.75,1222.75 L2278.25,1222.75 L1914.25,1222.75 L353.75,1222.75 L353.749985,1222.70587 C316.524158,1221.3897 286.75,1190.79691 286.75,1153.25 C286.75,1146.33748 287.759169,1139.66066 289.638213,1133.35885 C271.701853,1113.85874 260.75,1087.83334 260.75,1059.25 C260.75,1017.22494 284.424366,980.72932 319.163934,962.37232 C307.733136,949.98619 300.75,933.4336 300.75,915.25 C300.75,888.136258 316.276368,864.648894 338.923128,853.193886 C338.808355,851.560844 338.75,849.912237 338.75,848.25 C338.75,809.86621 369.86621,778.75 408.25,778.75 C418.909864,778.75 429.009199,781.149906 438.037179,785.438891 C443.383042,689.720266 522.694618,613.75 619.75,613.75 C707.030548,613.75 779.961407,675.188319 797.654276,757.176653 C811.789786,743.889836 830.819313,735.75 851.75,735.75 C895.3805,735.75 930.75,771.119505 930.75,814.75 C930.75,816.819853 930.6704,818.871114 930.51409,820.900889 L930.51409,820.900889 C953.81156,822.381204 974.1796,834.642161 986.68444,852.75 L1002.48151,852.75 C1010.94049,823.298766 1038.07876,801.75 1070.25,801.75 C1097.65648,801.75 1121.41042,817.388436 1133.07512,840.228636 C1132.85979,837.597561 1132.75,834.936601 1132.75,832.25 C1132.75,778.954522 1175.95452,735.75 1229.25,735.75 C1275.22876,735.75 1313.69707,767.906077 1323.3928,810.956104 L1323.3928,810.956104 C1333.67316,805.09717 1345.57069,801.75 1358.25,801.75 C1374.84632,801.75 1390.10324,807.484697 1402.14727,817.08062 L1402.14727,817.08062 C1407.06069,757.539784 1456.94117,710.75 1517.75,710.75 C1567.3166,710.75 1609.62215,741.838232 1626.23175,785.579791 C1638.91857,773.304057 1656.20211,765.75 1675.25,765.75 C1707.54926,765.75 1734.7754,787.470602 1743.11858,817.101954 C1769.0639,774.329062 1816.06945,745.75 1869.75,745.75 C1880.02624,745.75 1890.05787,746.797328 1899.74396,748.791066 C1900.23707,745.483684 1900.90914,742.234749 1901.75,739.054425 L1901.75,726.75 L1905.97807,726.75 C1919.7812,694.413725 1951.8689,671.75 1989.25,671.75 C1993.57687,671.75 1997.83282,672.053651 2001.9977,672.640807 C2010.3869,579.909158 2088.33322,507.25 2183.25,507.25 C2270.53055,507.25 2343.46141,568.688319 2361.15428,650.676653 L2361.15428,650.676653 C2375.28979,637.389836 2394.31931,629.25 2415.25,629.25 C2431.43162,629.25 2446.47694,634.115113 2459.00301,642.462404 C2474.75198,607.269857 2510.07503,582.75 2551.125,582.75 C2606.83672,582.75 2652,627.913276 2652,683.625 C2652,685.615657 2651.94234,687.592847 2651.82859,689.55499 L2651.8286,689.554991 Z" id="5" fill="#FFFFFF"></path>
                    <path d="M4914.25,841.25 C4914.25,846.485951 4913.9781,851.658398 4913.44766,856.75399 C4957.8805,856.75 4993.25,892.119505 4993.25,935.75 C4993.25,965.84285 4976.42421,992.00583 4951.66722,1005.34436 C4964.04822,1026.97834 4971.125,1052.03773 4971.125,1078.75 C4971.125,1156.23553 4911.57862,1219.81327 4835.75,1226.21907 L4402.25,1226.75 L4038.25,1226.75 L2477.75,1226.75 C2440.52416,1225.3897 2410.75,1194.79691 2410.75,1157.25 C2410.75,1150.33748 2411.75917,1143.66066 2413.63821,1137.35885 C2395.70185,1117.85874 2384.75,1091.83334 2384.75,1063.25 C2384.75,1021.22494 2408.42437,984.72932 2443.16393,966.37232 C2431.73314,953.98619 2424.75,937.4336 2424.75,919.25 C2424.75,892.136258 2440.27637,868.648894 2462.92313,857.193886 C2462.80836,855.560844 2462.75,853.912237 2462.75,852.25 C2462.75,813.86621 2493.86621,782.75 2532.25,782.75 C2542.90986,782.75 2553.0092,785.149906 2562.03718,789.438891 C2567.38304,693.720266 2646.69462,617.75 2743.75,617.75 C2831.03055,617.75 2903.96141,679.188319 2921.65428,761.176653 C2935.78979,747.889836 2954.81931,739.75 2975.75,739.75 C3019.3805,739.75 3054.75,775.119505 3054.75,818.75 C3054.75,820.819853 3054.6704,822.871114 3054.51409,824.900889 C3077.81156,826.381204 3098.1796,838.642161 3110.68444,856.75 L3126.48151,856.75 C3134.94049,827.298766 3162.07876,805.75 3194.25,805.75 C3221.65648,805.75 3245.41042,821.388436 3257.07512,844.228636 C3256.85979,841.597561 3256.75,838.936601 3256.75,836.25 C3256.75,782.954522 3299.95452,739.75 3353.25,739.75 C3399.22876,739.75 3437.69707,771.906077 3447.3928,814.956104 C3457.67316,809.09717 3469.57069,805.75 3482.25,805.75 C3498.84632,805.75 3514.10324,811.484697 3526.14727,821.08062 C3531.06069,761.539784 3580.94117,714.75 3641.75,714.75 C3691.3166,714.75 3733.62215,745.838232 3750.23175,789.579791 C3762.91857,777.304057 3780.20211,769.75 3799.25,769.75 C3831.54926,769.75 3858.7754,791.470602 3867.11858,821.101954 C3893.0639,778.329062 3940.06945,749.75 3993.75,749.75 C4004.02624,749.75 4014.05787,750.797328 4023.74396,752.791066 C4024.23707,749.483684 4024.90914,746.234749 4025.75,743.054425 L4025.75,730.75 C4043.7812,698.413725 4075.8689,675.75 4113.25,675.75 C4117.57687,675.75 4121.83282,676.053651 4125.9977,676.640807 C4134.3869,583.909158 4212.33322,511.25 4307.25,511.25 C4394.53055,511.25 4467.46141,572.688319 4485.15428,654.676653 C4499.28979,641.389836 4518.31931,633.25 4539.25,633.25 C4555.43162,633.25 4570.47694,638.115113 4583.00301,646.462404 C4598.75198,611.269857 4634.07503,586.75 4675.125,586.75 C4730.83672,586.75 4776,631.913276 4776,687.625 C4776,689.615657 4775.94234,691.592847 4775.82859,693.55499 C4853.10267,698.49121 4914.25,762.729743 4914.25,841.25 Z" id="5b" fill="#FFFFFF"></path>
                </g>
            </g>
        </g>
    </g>
</svg>