<?xml version="1.0" encoding="UTF-8" standalone="no"?>
<svg width="2644px" height="733px" viewBox="0 0 2644 733" version="1.1" xmlns="http://www.w3.org/2000/svg" xmlns:xlink="http://www.w3.org/1999/xlink" xmlns:sketch="http://www.bohemiancoding.com/sketch/ns">
    <!-- Generator: Sketch 3.3.3 (12072) - http://www.bohemiancoding.com/sketch -->
    <title>Group Copy 4</title>
    <desc>Created with Sketch.</desc>
    <defs>
        <rect id="path-1" x="0" y="0" width="2644" height="1021"></rect>
        <linearGradient x1="50%" y1="33.4075821%" x2="50%" y2="100%" id="linearGradient-3">
            <stop stop-color="#FFFFFF" offset="0%"></stop>
            <stop stop-color="#D9BDC4" offset="100%"></stop>
        </linearGradient>
        <filter x="-50%" y="-50%" width="200%" height="200%" filterUnits="objectBoundingBox" id="filter-4">
            <feOffset dx="0" dy="-13" in="SourceAlpha" result="shadowOffsetOuter1"></feOffset>
            <feGaussianBlur stdDeviation="2" in="shadowOffsetOuter1" result="shadowBlurOuter1"></feGaussianBlur>
            <feColorMatrix values="0 0 0 0 0.988235294   0 0 0 0 0.97254902   0 0 0 0 0.960784314  0 0 0 0.7 0" in="shadowBlurOuter1" type="matrix" result="shadowMatrixOuter1"></feColorMatrix>
            <feMerge>
                <feMergeNode in="shadowMatrixOuter1"></feMergeNode>
                <feMergeNode in="SourceGraphic"></feMergeNode>
            </feMerge>
        </filter>
        <filter x="-50%" y="-50%" width="200%" height="200%" filterUnits="objectBoundingBox" id="filter-5">
            <feOffset dx="0" dy="-9" in="SourceAlpha" result="shadowOffsetOuter1"></feOffset>
            <feGaussianBlur stdDeviation="2" in="shadowOffsetOuter1" result="shadowBlurOuter1"></feGaussianBlur>
            <feColorMatrix values="0 0 0 0 0.917647059   0 0 0 0 0.8   0 0 0 0 0.741176471  0 0 0 0.297353374 0" in="shadowBlurOuter1" type="matrix" result="shadowMatrixOuter1"></feColorMatrix>
            <feMerge>
                <feMergeNode in="shadowMatrixOuter1"></feMergeNode>
                <feMergeNode in="SourceGraphic"></feMergeNode>
            </feMerge>
        </filter>
        <filter x="-50%" y="-50%" width="200%" height="200%" filterUnits="objectBoundingBox" id="filter-6">
            <feOffset dx="0" dy="-3" in="SourceAlpha" result="shadowOffsetOuter1"></feOffset>
            <feGaussianBlur stdDeviation="2.5" in="shadowOffsetOuter1" result="shadowBlurOuter1"></feGaussianBlur>
            <feColorMatrix values="0 0 0 0 0.952941176   0 0 0 0 0.898039216   0 0 0 0 0.878431373  0 0 0 0.7 0" in="shadowBlurOuter1" type="matrix" result="shadowMatrixOuter1"></feColorMatrix>
            <feMerge>
                <feMergeNode in="shadowMatrixOuter1"></feMergeNode>
                <feMergeNode in="SourceGraphic"></feMergeNode>
            </feMerge>
        </filter>
    </defs>
    <g id="Page-1" stroke="none" stroke-width="1" fill="none" fill-rule="evenodd" sketch:type="MSPage">
        <g id="Group-Copy-4" sketch:type="MSLayerGroup" transform="translate(1322.000000, 510.500000) scale(1, -1) translate(-1322.000000, -510.500000) ">
            <mask id="mask-2" sketch:name="Mask" fill="white">
                <use xlink:href="#path-1"></use>
            </mask>
            <use id="Mask" sketch:type="MSShapeGroup" xlink:href="#path-1"></use>
            <g id="Group-Copy-2" mask="url(#mask-2)" sketch:type="MSShapeGroup">
                <g transform="translate(-193.000000, 305.000000)">
                    <path d="M2391.0786,182.804991 C2468.35267,187.74121 2529.5,251.979743 2529.5,330.5 C2529.5,335.735951 2529.2281,340.908398 2528.69766,346.00399 C2528.96479,346.001332 2529.23224,346 2529.5,346 C2573.1305,346 2608.5,381.369505 2608.5,425 C2608.5,455.092852 2591.67421,481.255831 2566.91722,494.594359 L2566.91722,494.594359 C2579.29822,516.228337 2586.375,541.287733 2586.375,568 C2586.375,645.485534 2526.82862,709.063267 2451,715.469073 L2451,715.469073 L2451,716 L2017.5,716 L1658.5,716 L93,716 L92.9999846,715.955873 C55.774158,714.639702 26,684.046915 26,646.5 C26,639.58748 27.0091686,632.910665 28.8882129,626.608846 C10.9518532,607.108737 0,581.08334 0,552.5 C0,510.47494 23.6743657,473.979324 58.4139341,455.622316 C46.983136,443.236192 40,426.683595 40,408.5 C40,381.386258 55.5263684,357.898894 78.1731277,346.443886 C78.0583548,344.810844 78,343.162237 78,341.5 C78,303.11621 109.11621,272 147.5,272 C158.159864,272 168.259199,274.399906 177.287179,278.688891 C182.633042,182.970266 261.944618,107 359,107 C446.280548,107 519.211407,168.438319 536.904276,250.426653 C551.039786,237.139836 570.069313,229 591,229 C634.630495,229 670,264.369505 670,308 C670,310.069853 669.920397,312.121114 669.764086,314.150889 L669.764086,314.150889 C693.061561,315.631204 713.429599,327.892161 725.93444,346 L741.731515,346 L741.731515,346 C750.190494,316.548766 777.328755,295 809.5,295 C836.906484,295 860.660416,310.638436 872.325122,333.478636 C872.109788,330.847561 872,328.186601 872,325.5 C872,272.204522 915.204522,229 968.5,229 C1014.47876,229 1052.94707,261.156077 1062.6428,304.206104 L1062.6428,304.206104 C1072.92316,298.34717 1084.82069,295 1097.5,295 C1114.09632,295 1129.35324,300.734697 1141.39727,310.33062 L1141.39727,310.33062 C1146.31069,250.789784 1196.19117,204 1257,204 C1306.5666,204 1348.87215,235.088232 1365.48175,278.829791 C1378.16857,266.554057 1395.45211,259 1414.5,259 C1446.79926,259 1474.0254,280.720602 1482.36858,310.351954 C1508.3139,267.579062 1555.31945,239 1609,239 C1619.27624,239 1629.30787,240.047328 1638.99396,242.041066 C1645.49431,198.442407 1683.09171,165 1728.5,165 C1732.82687,165 1737.08282,165.303651 1741.2477,165.890807 C1749.6369,73.1591576 1827.58322,0.5 1922.5,0.5 C2009.78055,0.5 2082.71141,61.9383187 2100.40428,143.926653 L2100.40428,143.926653 C2114.53979,130.639836 2133.56931,122.5 2154.5,122.5 C2170.68162,122.5 2185.72694,127.365113 2198.25301,135.712404 C2214.00198,100.519857 2249.32503,76 2290.375,76 C2346.08672,76 2391.25,121.163276 2391.25,176.875 C2391.25,178.865657 2391.19234,180.842847 2391.07859,182.80499 Z" id="Oval-22-Copy-23" fill="url(#linearGradient-3)" filter="url(#filter-4)"></path>
                    <path d="M2933.0786,182.804991 C3010.35267,187.74121 3071.5,251.979743 3071.5,330.5 C3071.5,335.735951 3071.2281,340.908398 3070.69766,346.00399 C3070.96479,346.001332 3071.23224,346 3071.5,346 C3115.1305,346 3150.5,381.369505 3150.5,425 C3150.5,455.092852 3133.67421,481.255831 3108.91722,494.594359 L3108.91722,494.594359 C3121.29822,516.228337 3128.375,541.287733 3128.375,568 C3128.375,645.485534 3068.82862,709.063267 2993,715.469073 L2993,715.469073 L2993,716 L2559.5,716 L2208,716 L2208,619.812559 L2208,716 L635,716 L634.999985,715.955873 C597.774158,714.639702 568,684.046915 568,646.5 C568,639.58748 569.009169,632.910665 570.888213,626.608846 C552.951853,607.108737 542,581.08334 542,552.5 C542,510.47494 565.674366,473.979324 600.413934,455.622316 C588.983136,443.236192 582,426.683595 582,408.5 C582,381.386258 597.526368,357.898894 620.173128,346.443886 C620.058355,344.810844 620,343.162237 620,341.5 C620,303.11621 651.11621,272 689.5,272 C700.159864,272 710.259199,274.399906 719.287179,278.688891 C724.633042,182.970266 803.944618,107 901,107 C988.280548,107 1061.21141,168.438319 1078.90428,250.426653 C1093.03979,237.139836 1112.06931,229 1133,229 C1176.6305,229 1212,264.369505 1212,308 C1212,310.069853 1211.9204,312.121114 1211.76409,314.150889 L1211.76409,314.150889 C1235.06156,315.631204 1255.4296,327.892161 1267.93444,346 L1283.73151,346 L1283.73151,346 C1292.19049,316.548766 1319.32876,295 1351.5,295 C1378.90648,295 1402.66042,310.638436 1414.32512,333.478636 C1414.10979,330.847561 1414,328.186601 1414,325.5 C1414,272.204522 1457.20452,229 1510.5,229 C1556.47876,229 1594.94707,261.156077 1604.6428,304.206104 L1604.6428,304.206104 C1614.92316,298.34717 1626.82069,295 1639.5,295 C1656.09632,295 1671.35324,300.734697 1683.39727,310.33062 L1683.39727,310.33062 C1688.31069,250.789784 1738.19117,204 1799,204 C1848.5666,204 1890.87215,235.088232 1907.48175,278.829791 C1920.16857,266.554057 1937.45211,259 1956.5,259 C1988.79926,259 2016.0254,280.720602 2024.36858,310.351954 C2050.3139,267.579062 2097.31945,239 2151,239 C2161.27624,239 2171.30787,240.047328 2180.99396,242.041066 C2187.49431,198.442407 2225.09171,165 2270.5,165 C2274.82687,165 2279.08282,165.303651 2283.2477,165.890807 C2291.6369,73.1591576 2369.58322,0.5 2464.5,0.5 C2551.78055,0.5 2624.71141,61.9383187 2642.40428,143.926653 L2642.40428,143.926653 C2656.53979,130.639836 2675.56931,122.5 2696.5,122.5 C2712.68162,122.5 2727.72694,127.365113 2740.25301,135.712404 C2756.00198,100.519857 2791.32503,76 2832.375,76 C2888.08672,76 2933.25,121.163276 2933.25,176.875 C2933.25,178.865657 2933.19234,180.842847 2933.07859,182.80499 Z" id="Oval-22-Copy-26" fill="#FFFFFF" filter="url(#filter-5)"></path>
                    <path d="M2649.0786,377.804991 C2726.35267,382.74121 2787.5,446.979743 2787.5,525.5 C2787.5,530.735951 2787.2281,535.908398 2786.69766,541.00399 C2786.96479,541.001332 2787.23224,541 2787.5,541 C2831.1305,541 2866.5,576.369505 2866.5,620 C2866.5,650.092852 2849.67421,676.255831 2824.91722,689.594359 L2824.91722,689.594359 C2837.29822,711.228337 2844.375,736.287733 2844.375,763 C2844.375,840.485534 2784.82862,904.063267 2709,910.469073 L2709,910.469073 L2709,911 L2275.5,911 L1924,911 L1924,814.812559 L1924,814.812559 L1924,911 L351,911 L350.999985,910.955873 C313.774158,909.639702 284,879.046915 284,841.5 C284,834.58748 285.009169,827.910665 286.888213,821.608846 C268.951853,802.108737 258,776.08334 258,747.5 C258,705.47494 281.674366,668.979324 316.413934,650.622316 C304.983136,638.236192 298,621.683595 298,603.5 C298,576.386258 313.526368,552.898894 336.173128,541.443886 C336.058355,539.810844 336,538.162237 336,536.5 C336,498.11621 367.11621,467 405.5,467 C416.159864,467 426.259199,469.399906 435.287179,473.688891 C440.633042,377.970266 519.944618,302 617,302 C704.280548,302 777.211407,363.438319 794.904276,445.426653 C809.039786,432.139836 828.069313,424 849,424 C892.630495,424 928,459.369505 928,503 C928,505.069853 927.920397,507.121114 927.764086,509.150889 L927.764086,509.150889 C951.061561,510.631204 971.429599,522.892161 983.93444,541 L999.731515,541 L999.731515,541 C1008.19049,511.548766 1035.32876,490 1067.5,490 C1094.90648,490 1118.66042,505.638436 1130.32512,528.478636 C1130.10979,525.847561 1130,523.186601 1130,520.5 C1130,467.204522 1173.20452,424 1226.5,424 C1272.47876,424 1310.94707,456.156077 1320.6428,499.206104 L1320.6428,499.206104 C1330.92316,493.34717 1342.82069,490 1355.5,490 C1372.09632,490 1387.35324,495.734697 1399.39727,505.33062 L1399.39727,505.33062 C1404.31069,445.789784 1454.19117,399 1515,399 C1564.5666,399 1606.87215,430.088232 1623.48175,473.829791 C1636.16857,461.554057 1653.45211,454 1672.5,454 C1704.79926,454 1732.0254,475.720602 1740.36858,505.351954 C1766.3139,462.579062 1813.31945,434 1867,434 C1877.27624,434 1887.30787,435.047328 1896.99396,437.041066 C1903.49431,393.442407 1941.09171,360 1986.5,360 C1990.82687,360 1995.08282,360.303651 1999.2477,360.890807 C2007.6369,268.159158 2085.58322,195.5 2180.5,195.5 C2267.78055,195.5 2340.71141,256.938319 2358.40428,338.926653 L2358.40428,338.926653 C2372.53979,325.639836 2391.56931,317.5 2412.5,317.5 C2428.68162,317.5 2443.72694,322.365113 2456.25301,330.712404 C2472.00198,295.519857 2507.32503,271 2548.375,271 C2604.08672,271 2649.25,316.163276 2649.25,371.875 C2649.25,373.865657 2649.19234,375.842847 2649.07859,377.80499 Z" id="Oval-22" fill="#FFFFFF" filter="url(#filter-6)"></path>
                </g>
            </g>
        </g>
    </g>
</svg>