<?xml version="1.0" encoding="UTF-8" standalone="no"?>
<svg width="2644px" height="1732px" viewBox="0 0 2644 1732" version="1.1" xmlns="http://www.w3.org/2000/svg" xmlns:xlink="http://www.w3.org/1999/xlink" xmlns:sketch="http://www.bohemiancoding.com/sketch/ns">
    <!-- Generator: Sketch 3.3.3 (12072) - http://www.bohemiancoding.com/sketch -->
    <title>Group Copy 6 + Group Copy 7</title>
    <desc>Created with Sketch.</desc>
    <defs>
        <rect id="path-1" x="0" y="0" width="2644" height="1021"></rect>
        <linearGradient x1="50%" y1="91.0776422%" x2="50%" y2="11.1259838%" id="linearGradient-3">
            <stop stop-color="#4A8BA1" offset="0%"></stop>
            <stop stop-color="#D3E2E5" offset="100%"></stop>
        </linearGradient>
        <linearGradient x1="50%" y1="141.313985%" x2="50%" y2="29.718073%" id="linearGradient-4">
            <stop stop-color="#4A8BA1" offset="0%"></stop>
            <stop stop-color="#D3E2E5" offset="100%"></stop>
        </linearGradient>
        <linearGradient x1="50%" y1="33.4075821%" x2="50%" y2="100%" id="linearGradient-5">
            <stop stop-color="#FFFFFF" offset="0%"></stop>
            <stop stop-color="#D9BDC4" offset="100%"></stop>
        </linearGradient>
        <filter x="-50%" y="-50%" width="200%" height="200%" filterUnits="objectBoundingBox" id="filter-6">
            <feOffset dx="0" dy="-13" in="SourceAlpha" result="shadowOffsetOuter1"></feOffset>
            <feGaussianBlur stdDeviation="2" in="shadowOffsetOuter1" result="shadowBlurOuter1"></feGaussianBlur>
            <feColorMatrix values="0 0 0 0 0.643137255   0 0 0 0 0.768627451   0 0 0 0 0.807843137  0 0 0 0.234244792 0" in="shadowBlurOuter1" type="matrix" result="shadowMatrixOuter1"></feColorMatrix>
            <feMerge>
                <feMergeNode in="shadowMatrixOuter1"></feMergeNode>
                <feMergeNode in="SourceGraphic"></feMergeNode>
            </feMerge>
        </filter>
        <linearGradient x1="50%" y1="39.6095388%" x2="50%" y2="92.7214361%" id="linearGradient-7">
            <stop stop-color="#FFFFFF" offset="0%"></stop>
            <stop stop-color="#D9ABB7" offset="100%"></stop>
        </linearGradient>
        <filter x="-50%" y="-50%" width="200%" height="200%" filterUnits="objectBoundingBox" id="filter-8">
            <feOffset dx="0" dy="-9" in="SourceAlpha" result="shadowOffsetOuter1"></feOffset>
            <feGaussianBlur stdDeviation="2" in="shadowOffsetOuter1" result="shadowBlurOuter1"></feGaussianBlur>
            <feColorMatrix values="0 0 0 0 0.917647059   0 0 0 0 0.8   0 0 0 0 0.741176471  0 0 0 0.059522192 0" in="shadowBlurOuter1" type="matrix" result="shadowMatrixOuter1"></feColorMatrix>
            <feMerge>
                <feMergeNode in="shadowMatrixOuter1"></feMergeNode>
                <feMergeNode in="SourceGraphic"></feMergeNode>
            </feMerge>
        </filter>
        <rect id="path-9" x="0" y="0" width="2644" height="1021"></rect>
        <filter x="-50%" y="-50%" width="200%" height="200%" filterUnits="objectBoundingBox" id="filter-11">
            <feOffset dx="0" dy="-13" in="SourceAlpha" result="shadowOffsetOuter1"></feOffset>
            <feGaussianBlur stdDeviation="2" in="shadowOffsetOuter1" result="shadowBlurOuter1"></feGaussianBlur>
            <feColorMatrix values="0 0 0 0 0.988235294   0 0 0 0 0.97254902   0 0 0 0 0.960784314  0 0 0 0.7 0" in="shadowBlurOuter1" type="matrix" result="shadowMatrixOuter1"></feColorMatrix>
            <feMerge>
                <feMergeNode in="shadowMatrixOuter1"></feMergeNode>
                <feMergeNode in="SourceGraphic"></feMergeNode>
            </feMerge>
        </filter>
        <filter x="-50%" y="-50%" width="200%" height="200%" filterUnits="objectBoundingBox" id="filter-12">
            <feOffset dx="0" dy="-9" in="SourceAlpha" result="shadowOffsetOuter1"></feOffset>
            <feGaussianBlur stdDeviation="2" in="shadowOffsetOuter1" result="shadowBlurOuter1"></feGaussianBlur>
            <feColorMatrix values="0 0 0 0 0.917647059   0 0 0 0 0.8   0 0 0 0 0.741176471  0 0 0 0.297353374 0" in="shadowBlurOuter1" type="matrix" result="shadowMatrixOuter1"></feColorMatrix>
            <feMerge>
                <feMergeNode in="shadowMatrixOuter1"></feMergeNode>
                <feMergeNode in="SourceGraphic"></feMergeNode>
            </feMerge>
        </filter>
        <filter x="-50%" y="-50%" width="200%" height="200%" filterUnits="objectBoundingBox" id="filter-13">
            <feOffset dx="0" dy="-3" in="SourceAlpha" result="shadowOffsetOuter1"></feOffset>
            <feGaussianBlur stdDeviation="2.5" in="shadowOffsetOuter1" result="shadowBlurOuter1"></feGaussianBlur>
            <feColorMatrix values="0 0 0 0 0.952941176   0 0 0 0 0.898039216   0 0 0 0 0.878431373  0 0 0 0.7 0" in="shadowBlurOuter1" type="matrix" result="shadowMatrixOuter1"></feColorMatrix>
            <feMerge>
                <feMergeNode in="shadowMatrixOuter1"></feMergeNode>
                <feMergeNode in="SourceGraphic"></feMergeNode>
            </feMerge>
        </filter>
    </defs>
    <g id="Page-1" stroke="none" stroke-width="1" fill="none" fill-rule="evenodd" sketch:type="MSPage">
        <g id="Group-Copy-6-+-Group-Copy-7" sketch:type="MSLayerGroup" transform="translate(0.000000, -21.000000)">
            <g id="Group-Copy-6">
                <mask id="mask-2" sketch:name="Mask" fill="white">
                    <use xlink:href="#path-1"></use>
                </mask>
                <use id="Mask" sketch:type="MSShapeGroup" xlink:href="#path-1"></use>
                <g id="Group-Copy-2" mask="url(#mask-2)" sketch:type="MSShapeGroup">
                    <g transform="translate(-300.000000, 21.000000)">
                        <path d="M3109.0786,188.054991 C3186.35267,192.99121 3247.5,257.229743 3247.5,335.75 C3247.5,340.985951 3247.2281,346.158398 3246.69766,351.25399 C3246.96479,351.251332 3247.23224,351.25 3247.5,351.25 C3291.1305,351.25 3326.5,386.619505 3326.5,430.25 C3326.5,460.342852 3309.67421,486.505831 3284.91722,499.844359 L3284.91722,499.844359 C3297.29822,521.478337 3304.375,546.537733 3304.375,573.25 C3304.375,650.735534 3244.82862,714.313267 3169,720.719073 L3169,720.719073 L3169,721.25 L2735.5,721.25 L2384,721.25 L2384,625.062559 L2384,625.062559 L2384,721.25 L811,721.25 L810.999985,721.205873 C773.774158,719.889702 744,689.296915 744,651.75 C744,644.83748 745.009169,638.160665 746.888213,631.858846 C728.951853,612.358737 718,586.33334 718,557.75 C718,515.72494 741.674366,479.229324 776.413934,460.872316 C764.983136,448.486192 758,431.933595 758,413.75 C758,386.636258 773.526368,363.148894 796.173128,351.693886 C796.058355,350.060844 796,348.412237 796,346.75 C796,308.36621 827.11621,277.25 865.5,277.25 C876.159864,277.25 886.259199,279.649906 895.287179,283.938891 C900.633042,188.220266 979.944618,112.25 1077,112.25 C1164.28055,112.25 1237.21141,173.688319 1254.90428,255.676653 C1269.03979,242.389836 1288.06931,234.25 1309,234.25 C1352.6305,234.25 1388,269.619505 1388,313.25 C1388,315.319853 1387.9204,317.371114 1387.76409,319.400889 L1387.76409,319.400889 C1411.06156,320.881204 1431.4296,333.142161 1443.93444,351.25 L1459.73151,351.25 L1459.73151,351.25 C1468.19049,321.798766 1495.32876,300.25 1527.5,300.25 C1554.90648,300.25 1578.66042,315.888436 1590.32512,338.728636 C1590.10979,336.097561 1590,333.436601 1590,330.75 C1590,277.454522 1633.20452,234.25 1686.5,234.25 C1732.47876,234.25 1770.94707,266.406077 1780.6428,309.456104 L1780.6428,309.456104 C1790.92316,303.59717 1802.82069,300.25 1815.5,300.25 C1832.09632,300.25 1847.35324,305.984697 1859.39727,315.58062 L1859.39727,315.58062 C1864.31069,256.039784 1914.19117,209.25 1975,209.25 C2024.5666,209.25 2066.87215,240.338232 2083.48175,284.079791 C2096.16857,271.804057 2113.45211,264.25 2132.5,264.25 C2164.79926,264.25 2192.0254,285.970602 2200.36858,315.601954 C2226.3139,272.829062 2273.31945,244.25 2327,244.25 C2337.27624,244.25 2347.30787,245.297328 2356.99396,247.291066 C2363.49431,203.692407 2401.09171,170.25 2446.5,170.25 C2446.62711,170.25 2446.75417,170.250262 2446.88116,170.250786 C2452.998,75.2695126 2531.97353,0.125 2628.5,0.125 C2721.38381,0.125 2798.01634,69.7050045 2809.11804,159.585458 L2809.11804,159.585458 C2823.51967,140.263339 2846.54851,127.75 2872.5,127.75 C2888.68162,127.75 2903.72694,132.615113 2916.25301,140.962404 C2932.00198,105.769857 2967.32503,81.25 3008.375,81.25 C3064.08672,81.25 3109.25,126.413276 3109.25,182.125 C3109.25,184.115657 3109.19234,186.092847 3109.07859,188.05499 Z" id="Oval-22-Copy-27" fill="url(#linearGradient-3)"></path>
                        <path d="M2391.0786,305.054991 C2468.35267,309.99121 2529.5,374.229743 2529.5,452.75 C2529.5,457.985951 2529.2281,463.158398 2528.69766,468.25399 C2528.96479,468.251332 2529.23224,468.25 2529.5,468.25 C2573.1305,468.25 2608.5,503.619505 2608.5,547.25 C2608.5,577.342852 2591.67421,603.505831 2566.91722,616.844359 L2566.91722,616.844359 C2579.29822,638.478337 2586.375,663.537733 2586.375,690.25 C2586.375,767.735534 2526.82862,831.313267 2451,837.719073 L2451,837.719073 L2451,838.25 L2017.5,838.25 L1652,838.25 L1652,838.25 L93,838.25 L92.9999846,838.205873 C55.774158,836.889702 26,806.296915 26,768.75 C26,761.83748 27.0091686,755.160665 28.8882129,748.858846 C10.9518532,729.358737 0,703.33334 0,674.75 C0,632.72494 23.6743657,596.229324 58.4139341,577.872316 C46.983136,565.486192 40,548.933595 40,530.75 C40,503.636258 55.5263684,480.148894 78.1731277,468.693886 C78.0583548,467.060844 78,465.412237 78,463.75 C78,425.36621 109.11621,394.25 147.5,394.25 C158.159864,394.25 168.259199,396.649906 177.287179,400.938891 C182.633042,305.220266 261.944618,229.25 359,229.25 C446.280548,229.25 519.211407,290.688319 536.904276,372.676653 C551.039786,359.389836 570.069313,351.25 591,351.25 C634.630495,351.25 670,386.619505 670,430.25 C670,432.319853 669.920397,434.371114 669.764086,436.400889 L669.764086,436.400889 C693.061561,437.881204 713.429599,450.142161 725.93444,468.25 L741.731515,468.25 L741.731515,468.25 C750.190494,438.798766 777.328755,417.25 809.5,417.25 C836.906484,417.25 860.660416,432.888436 872.325122,455.728636 C872.109788,453.097561 872,450.436601 872,447.75 C872,394.454522 915.204522,351.25 968.5,351.25 C1014.47876,351.25 1052.94707,383.406077 1062.6428,426.456104 L1062.6428,426.456104 C1072.92316,420.59717 1084.82069,417.25 1097.5,417.25 C1114.09632,417.25 1129.35324,422.984697 1141.39727,432.58062 L1141.39727,432.58062 C1146.31069,373.039784 1196.19117,326.25 1257,326.25 C1306.5666,326.25 1348.87215,357.338232 1365.48175,401.079791 C1378.16857,388.804057 1395.45211,381.25 1414.5,381.25 C1446.79926,381.25 1474.0254,402.970602 1482.36858,432.601954 C1508.3139,389.829062 1555.31945,361.25 1609,361.25 C1618.92516,361.25 1628.62214,362.226988 1638,364.090041 L1638,361.25 L1639.50059,361.25 C1647.25666,319.146899 1684.15337,287.25 1728.5,287.25 C1732.82687,287.25 1737.08282,287.553651 1741.2477,288.140807 C1749.6369,195.409158 1827.58322,122.75 1922.5,122.75 C2009.78055,122.75 2082.71141,184.188319 2100.40428,266.176653 L2100.40428,266.176653 C2114.53979,252.889836 2133.56931,244.75 2154.5,244.75 C2170.68162,244.75 2185.72694,249.615113 2198.25301,257.962404 C2214.00198,222.769857 2249.32503,198.25 2290.375,198.25 C2346.08672,198.25 2391.25,243.413276 2391.25,299.125 C2391.25,301.115657 2391.19234,303.092847 2391.07859,305.05499 Z" id="Oval-22-Copy-25" fill="url(#linearGradient-4)"></path>
                        <path d="M2538.0786,466.804991 C2615.35267,471.74121 2676.5,535.979743 2676.5,614.5 C2676.5,619.735951 2676.2281,624.908398 2675.69766,630.00399 C2675.96479,630.001332 2676.23224,630 2676.5,630 C2720.1305,630 2755.5,665.369505 2755.5,709 C2755.5,739.092852 2738.67421,765.255831 2713.91722,778.594359 L2713.91722,778.594359 C2726.29822,800.228337 2733.375,825.287733 2733.375,852 C2733.375,929.485534 2673.82862,993.063267 2598,999.469073 L2598,999.469073 L2598,1000 L2164.5,1000 L1805.5,1000 L240,1000 L239.999985,999.955873 C202.774158,998.639702 173,968.046915 173,930.5 C173,923.58748 174.009169,916.910665 175.888213,910.608846 C157.951853,891.108737 147,865.08334 147,836.5 C147,794.47494 170.674366,757.979324 205.413934,739.622316 C193.983136,727.236192 187,710.683595 187,692.5 C187,665.386258 202.526368,641.898894 225.173128,630.443886 C225.058355,628.810844 225,627.162237 225,625.5 C225,587.11621 256.11621,556 294.5,556 C305.159864,556 315.259199,558.399906 324.287179,562.688891 C329.633042,466.970266 408.944618,391 506,391 C593.280548,391 666.211407,452.438319 683.904276,534.426653 C698.039786,521.139836 717.069313,513 738,513 C781.630495,513 817,548.369505 817,592 C817,594.069853 816.920397,596.121114 816.764086,598.150889 L816.764086,598.150889 C840.061561,599.631204 860.429599,611.892161 872.93444,630 L888.731515,630 L888.731515,630 C897.190494,600.548766 924.328755,579 956.5,579 C983.906484,579 1007.66042,594.638436 1019.32512,617.478636 C1019.10979,614.847561 1019,612.186601 1019,609.5 C1019,556.204522 1062.20452,513 1115.5,513 C1161.47876,513 1199.94707,545.156077 1209.6428,588.206104 L1209.6428,588.206104 C1219.92316,582.34717 1231.82069,579 1244.5,579 C1261.09632,579 1276.35324,584.734697 1288.39727,594.33062 L1288.39727,594.33062 C1293.31069,534.789784 1343.19117,488 1404,488 C1453.5666,488 1495.87215,519.088232 1512.48175,562.829791 C1525.16857,550.554057 1542.45211,543 1561.5,543 C1593.79926,543 1621.0254,564.720602 1629.36858,594.351954 C1655.3139,551.579062 1702.31945,523 1756,523 C1766.27624,523 1776.30787,524.047328 1785.99396,526.041066 C1792.49431,482.442407 1830.09171,449 1875.5,449 C1879.82687,449 1884.08282,449.303651 1888.2477,449.890807 C1896.6369,357.159158 1974.58322,284.5 2069.5,284.5 C2156.78055,284.5 2229.71141,345.938319 2247.40428,427.926653 L2247.40428,427.926653 C2261.53979,414.639836 2280.56931,406.5 2301.5,406.5 C2317.68162,406.5 2332.72694,411.365113 2345.25301,419.712404 C2361.00198,384.519857 2396.32503,360 2437.375,360 C2493.08672,360 2538.25,405.163276 2538.25,460.875 C2538.25,462.865657 2538.19234,464.842847 2538.07859,466.80499 Z" id="Oval-22-Copy-23" fill="url(#linearGradient-5)" filter="url(#filter-6)"></path>
                        <path d="M3109.0786,542.992491 C3186.35267,547.92871 3247.5,612.167243 3247.5,690.6875 C3247.5,695.923451 3247.2281,701.095898 3246.69766,706.19149 C3246.96479,706.188832 3247.23224,706.1875 3247.5,706.1875 C3291.1305,706.1875 3326.5,741.557005 3326.5,785.1875 C3326.5,815.280352 3309.67421,841.443331 3284.91722,854.781859 L3284.91722,854.781859 C3297.29822,876.415837 3304.375,901.475233 3304.375,928.1875 C3304.375,1005.67303 3244.82862,1069.25077 3169,1075.65657 L3169,1075.65657 L3169,1076.1875 L2735.5,1076.1875 L2384,1076.1875 L2384,980.000059 L2384,1076.1875 L811,1076.1875 L810.999985,1076.14337 C773.774158,1074.8272 744,1044.23441 744,1006.6875 C744,999.77498 745.009169,993.098165 746.888213,986.796346 C728.951853,967.296237 718,941.27084 718,912.6875 C718,870.66244 741.674366,834.166824 776.413934,815.809816 C764.983136,803.423692 758,786.871095 758,768.6875 C758,741.573758 773.526368,718.086394 796.173128,706.631386 C796.058355,704.998344 796,703.349737 796,701.6875 C796,663.30371 827.11621,632.1875 865.5,632.1875 C876.159864,632.1875 886.259199,634.587406 895.287179,638.876391 C900.633042,543.157766 979.944618,467.1875 1077,467.1875 C1164.28055,467.1875 1237.21141,528.625819 1254.90428,610.614153 C1269.03979,597.327336 1288.06931,589.1875 1309,589.1875 C1352.6305,589.1875 1388,624.557005 1388,668.1875 C1388,670.257353 1387.9204,672.308614 1387.76409,674.338389 L1387.76409,674.338389 C1411.06156,675.818704 1431.4296,688.079661 1443.93444,706.1875 L1459.73151,706.1875 L1459.73151,706.1875 C1468.19049,676.736266 1495.32876,655.1875 1527.5,655.1875 C1554.90648,655.1875 1578.66042,670.825936 1590.32512,693.666136 C1590.10979,691.035061 1590,688.374101 1590,685.6875 C1590,632.392022 1633.20452,589.1875 1686.5,589.1875 C1732.47876,589.1875 1770.94707,621.343577 1780.6428,664.393604 L1780.6428,664.393604 C1790.92316,658.53467 1802.82069,655.1875 1815.5,655.1875 C1832.09632,655.1875 1847.35324,660.922197 1859.39727,670.51812 L1859.39727,670.51812 C1864.31069,610.977284 1914.19117,564.1875 1975,564.1875 C2024.5666,564.1875 2066.87215,595.275732 2083.48175,639.017291 C2096.16857,626.741557 2113.45211,619.1875 2132.5,619.1875 C2164.79926,619.1875 2192.0254,640.908102 2200.36858,670.539454 C2226.3139,627.766562 2273.31945,599.1875 2327,599.1875 C2337.27624,599.1875 2347.30787,600.234828 2356.99396,602.228566 C2363.49431,558.629907 2401.09171,525.1875 2446.5,525.1875 C2450.82687,525.1875 2455.08282,525.491151 2459.2477,526.078307 C2467.6369,433.346658 2545.58322,360.6875 2640.5,360.6875 C2727.78055,360.6875 2800.71141,422.125819 2818.40428,504.114153 L2818.40428,504.114153 C2832.53979,490.827336 2851.56931,482.6875 2872.5,482.6875 C2888.68162,482.6875 2903.72694,487.552613 2916.25301,495.899904 C2932.00198,460.707357 2967.32503,436.1875 3008.375,436.1875 C3064.08672,436.1875 3109.25,481.350776 3109.25,537.0625 C3109.25,539.053157 3109.19234,541.030347 3109.07859,542.99249 Z" id="Oval-22-Copy-26" fill="url(#linearGradient-7)" filter="url(#filter-8)"></path>
                        <path d="M2836.0786,662.804991 C2913.35267,667.74121 2974.5,731.979743 2974.5,810.5 C2974.5,815.735951 2974.2281,820.908398 2973.69766,826.00399 C2973.96479,826.001332 2974.23224,826 2974.5,826 C3018.1305,826 3053.5,861.369505 3053.5,905 C3053.5,935.092852 3036.67421,961.255831 3011.91722,974.594359 L3011.91722,974.594359 C3024.29822,996.228337 3031.375,1021.28773 3031.375,1048 C3031.375,1125.48553 2971.82862,1189.06327 2896,1195.46907 L2896,1195.46907 L2896,1196 L2462.5,1196 L2111,1196 L2111,1099.81256 L2111,1099.81256 L2111,1196 L538,1196 L537.999985,1195.95587 C500.774158,1194.6397 471,1164.04691 471,1126.5 C471,1113.16196 474.75729,1100.70149 481.271189,1090.11926 C461.926604,1070.37086 450,1043.32824 450,1013.5 C450,977.033365 467.825965,944.730208 495.239391,924.82903 C488.745064,914.257927 485,901.816317 485,888.5 C485,861.386258 500.526368,837.898894 523.173128,826.443886 C523.058355,824.810844 523,823.162237 523,821.5 C523,783.11621 554.11621,752 592.5,752 C603.159864,752 613.259199,754.399906 622.287179,758.688891 C627.633042,662.970266 706.944618,587 804,587 C891.280548,587 964.211407,648.438319 981.904276,730.426653 C996.039786,717.139836 1015.06931,709 1036,709 C1079.6305,709 1115,744.369505 1115,788 C1115,790.069853 1114.9204,792.121114 1114.76409,794.150889 L1114.76409,794.150889 C1138.06156,795.631204 1158.4296,807.892161 1170.93444,826 L1186.73151,826 L1186.73151,826 C1195.19049,796.548766 1222.32876,775 1254.5,775 C1281.90648,775 1305.66042,790.638436 1317.32512,813.478636 C1317.10979,810.847561 1317,808.186601 1317,805.5 C1317,752.204522 1360.20452,709 1413.5,709 C1459.47876,709 1497.94707,741.156077 1507.6428,784.206104 L1507.6428,784.206104 C1517.92316,778.34717 1529.82069,775 1542.5,775 C1559.09632,775 1574.35324,780.734697 1586.39727,790.33062 L1586.39727,790.33062 C1591.31069,730.789784 1641.19117,684 1702,684 C1751.5666,684 1793.87215,715.088232 1810.48175,758.829791 C1823.16857,746.554057 1840.45211,739 1859.5,739 C1891.79926,739 1919.0254,760.720602 1927.36858,790.351954 C1953.3139,747.579062 2000.31945,719 2054,719 C2064.27624,719 2074.30787,720.047328 2083.99396,722.041066 C2090.49431,678.442407 2128.09171,645 2173.5,645 C2177.82687,645 2182.08282,645.303651 2186.2477,645.890807 C2194.6369,553.159158 2272.58322,480.5 2367.5,480.5 C2454.78055,480.5 2527.71141,541.938319 2545.40428,623.926653 L2545.40428,623.926653 C2559.53979,610.639836 2578.56931,602.5 2599.5,602.5 C2615.68162,602.5 2630.72694,607.365113 2643.25301,615.712404 C2659.00198,580.519857 2694.32503,556 2735.375,556 C2791.08672,556 2836.25,601.163276 2836.25,656.875 C2836.25,658.865657 2836.19234,660.842847 2836.07859,662.80499 Z" id="Oval-22" fill="#FFFFFF"></path>
                    </g>
                </g>
            </g>
            <g id="Group-Copy-7" transform="translate(1322.000000, 1530.500000) scale(1, -1) translate(-1322.000000, -1530.500000) translate(0.000000, 1020.000000)">
                <mask id="mask-10" sketch:name="Mask" fill="white">
                    <use xlink:href="#path-9"></use>
                </mask>
                <use id="Mask" sketch:type="MSShapeGroup" xlink:href="#path-9"></use>
                <g id="Group-Copy-2" mask="url(#mask-10)" sketch:type="MSShapeGroup">
                    <g transform="translate(-193.000000, 305.000000)">
                        <path d="M2391.0786,182.804991 C2468.35267,187.74121 2529.5,251.979743 2529.5,330.5 C2529.5,335.735951 2529.2281,340.908398 2528.69766,346.00399 C2528.96479,346.001332 2529.23224,346 2529.5,346 C2573.1305,346 2608.5,381.369505 2608.5,425 C2608.5,455.092852 2591.67421,481.255831 2566.91722,494.594359 L2566.91722,494.594359 C2579.29822,516.228337 2586.375,541.287733 2586.375,568 C2586.375,645.485534 2526.82862,709.063267 2451,715.469073 L2451,715.469073 L2451,716 L2017.5,716 L1658.5,716 L93,716 L92.9999846,715.955873 C55.774158,714.639702 26,684.046915 26,646.5 C26,639.58748 27.0091686,632.910665 28.8882129,626.608846 C10.9518532,607.108737 0,581.08334 0,552.5 C0,510.47494 23.6743657,473.979324 58.4139341,455.622316 C46.983136,443.236192 40,426.683595 40,408.5 C40,381.386258 55.5263684,357.898894 78.1731277,346.443886 C78.0583548,344.810844 78,343.162237 78,341.5 C78,303.11621 109.11621,272 147.5,272 C158.159864,272 168.259199,274.399906 177.287179,278.688891 C182.633042,182.970266 261.944618,107 359,107 C446.280548,107 519.211407,168.438319 536.904276,250.426653 C551.039786,237.139836 570.069313,229 591,229 C634.630495,229 670,264.369505 670,308 C670,310.069853 669.920397,312.121114 669.764086,314.150889 L669.764086,314.150889 C693.061561,315.631204 713.429599,327.892161 725.93444,346 L741.731515,346 L741.731515,346 C750.190494,316.548766 777.328755,295 809.5,295 C836.906484,295 860.660416,310.638436 872.325122,333.478636 C872.109788,330.847561 872,328.186601 872,325.5 C872,272.204522 915.204522,229 968.5,229 C1014.47876,229 1052.94707,261.156077 1062.6428,304.206104 L1062.6428,304.206104 C1072.92316,298.34717 1084.82069,295 1097.5,295 C1114.09632,295 1129.35324,300.734697 1141.39727,310.33062 L1141.39727,310.33062 C1146.31069,250.789784 1196.19117,204 1257,204 C1306.5666,204 1348.87215,235.088232 1365.48175,278.829791 C1378.16857,266.554057 1395.45211,259 1414.5,259 C1446.79926,259 1474.0254,280.720602 1482.36858,310.351954 C1508.3139,267.579062 1555.31945,239 1609,239 C1619.27624,239 1629.30787,240.047328 1638.99396,242.041066 C1645.49431,198.442407 1683.09171,165 1728.5,165 C1732.82687,165 1737.08282,165.303651 1741.2477,165.890807 C1749.6369,73.1591576 1827.58322,0.5 1922.5,0.5 C2009.78055,0.5 2082.71141,61.9383187 2100.40428,143.926653 L2100.40428,143.926653 C2114.53979,130.639836 2133.56931,122.5 2154.5,122.5 C2170.68162,122.5 2185.72694,127.365113 2198.25301,135.712404 C2214.00198,100.519857 2249.32503,76 2290.375,76 C2346.08672,76 2391.25,121.163276 2391.25,176.875 C2391.25,178.865657 2391.19234,180.842847 2391.07859,182.80499 Z" id="Oval-22-Copy-23" fill="url(#linearGradient-5)" filter="url(#filter-11)"></path>
                        <path d="M2933.0786,182.804991 C3010.35267,187.74121 3071.5,251.979743 3071.5,330.5 C3071.5,335.735951 3071.2281,340.908398 3070.69766,346.00399 C3070.96479,346.001332 3071.23224,346 3071.5,346 C3115.1305,346 3150.5,381.369505 3150.5,425 C3150.5,455.092852 3133.67421,481.255831 3108.91722,494.594359 L3108.91722,494.594359 C3121.29822,516.228337 3128.375,541.287733 3128.375,568 C3128.375,645.485534 3068.82862,709.063267 2993,715.469073 L2993,715.469073 L2993,716 L2559.5,716 L2208,716 L2208,619.812559 L2208,716 L635,716 L634.999985,715.955873 C597.774158,714.639702 568,684.046915 568,646.5 C568,639.58748 569.009169,632.910665 570.888213,626.608846 C552.951853,607.108737 542,581.08334 542,552.5 C542,510.47494 565.674366,473.979324 600.413934,455.622316 C588.983136,443.236192 582,426.683595 582,408.5 C582,381.386258 597.526368,357.898894 620.173128,346.443886 C620.058355,344.810844 620,343.162237 620,341.5 C620,303.11621 651.11621,272 689.5,272 C700.159864,272 710.259199,274.399906 719.287179,278.688891 C724.633042,182.970266 803.944618,107 901,107 C988.280548,107 1061.21141,168.438319 1078.90428,250.426653 C1093.03979,237.139836 1112.06931,229 1133,229 C1176.6305,229 1212,264.369505 1212,308 C1212,310.069853 1211.9204,312.121114 1211.76409,314.150889 L1211.76409,314.150889 C1235.06156,315.631204 1255.4296,327.892161 1267.93444,346 L1283.73151,346 L1283.73151,346 C1292.19049,316.548766 1319.32876,295 1351.5,295 C1378.90648,295 1402.66042,310.638436 1414.32512,333.478636 C1414.10979,330.847561 1414,328.186601 1414,325.5 C1414,272.204522 1457.20452,229 1510.5,229 C1556.47876,229 1594.94707,261.156077 1604.6428,304.206104 L1604.6428,304.206104 C1614.92316,298.34717 1626.82069,295 1639.5,295 C1656.09632,295 1671.35324,300.734697 1683.39727,310.33062 L1683.39727,310.33062 C1688.31069,250.789784 1738.19117,204 1799,204 C1848.5666,204 1890.87215,235.088232 1907.48175,278.829791 C1920.16857,266.554057 1937.45211,259 1956.5,259 C1988.79926,259 2016.0254,280.720602 2024.36858,310.351954 C2050.3139,267.579062 2097.31945,239 2151,239 C2161.27624,239 2171.30787,240.047328 2180.99396,242.041066 C2187.49431,198.442407 2225.09171,165 2270.5,165 C2274.82687,165 2279.08282,165.303651 2283.2477,165.890807 C2291.6369,73.1591576 2369.58322,0.5 2464.5,0.5 C2551.78055,0.5 2624.71141,61.9383187 2642.40428,143.926653 L2642.40428,143.926653 C2656.53979,130.639836 2675.56931,122.5 2696.5,122.5 C2712.68162,122.5 2727.72694,127.365113 2740.25301,135.712404 C2756.00198,100.519857 2791.32503,76 2832.375,76 C2888.08672,76 2933.25,121.163276 2933.25,176.875 C2933.25,178.865657 2933.19234,180.842847 2933.07859,182.80499 Z" id="Oval-22-Copy-26" fill="#FFFFFF" filter="url(#filter-12)"></path>
                        <path d="M2734.0786,339.804991 C2811.35267,344.74121 2872.5,408.979743 2872.5,487.5 C2872.5,492.735951 2872.2281,497.908398 2871.69766,503.00399 C2871.96479,503.001332 2872.23224,503 2872.5,503 C2916.1305,503 2951.5,538.369505 2951.5,582 C2951.5,612.092852 2934.67421,638.255831 2909.91722,651.594359 L2909.91722,651.594359 C2922.29822,673.228337 2929.375,698.287733 2929.375,725 C2929.375,802.485534 2869.82862,866.063267 2794,872.469073 L2794,872.469073 L2794,873 L2360.5,873 L2009,873 L2009,776.812559 L2009,776.812559 L2009,873 L436,873 L435.999985,872.955873 C398.774158,871.639702 369,841.046915 369,803.5 C369,794.676902 370.644119,786.237809 373.642699,778.472377 C354.668607,758.782348 343,732.003848 343,702.5 C343,662.116745 364.860712,626.839333 397.393808,607.856092 C388.367465,596.130092 383,581.441865 383,565.5 C383,538.386258 398.526368,514.898894 421.173128,503.443886 C421.058355,501.810844 421,500.162237 421,498.5 C421,460.11621 452.11621,429 490.5,429 C501.159864,429 511.259199,431.399906 520.287179,435.688891 C525.633042,339.970266 604.944618,264 702,264 C789.280548,264 862.211407,325.438319 879.904276,407.426653 C894.039786,394.139836 913.069313,386 934,386 C977.630495,386 1013,421.369505 1013,465 C1013,467.069853 1012.9204,469.121114 1012.76409,471.150889 L1012.76409,471.150889 C1036.06156,472.631204 1056.4296,484.892161 1068.93444,503 L1084.73151,503 L1084.73151,503 C1093.19049,473.548766 1120.32876,452 1152.5,452 C1179.90648,452 1203.66042,467.638436 1215.32512,490.478636 C1215.10979,487.847561 1215,485.186601 1215,482.5 C1215,429.204522 1258.20452,386 1311.5,386 C1357.47876,386 1395.94707,418.156077 1405.6428,461.206104 L1405.6428,461.206104 C1415.92316,455.34717 1427.82069,452 1440.5,452 C1457.09632,452 1472.35324,457.734697 1484.39727,467.33062 L1484.39727,467.33062 C1489.31069,407.789784 1539.19117,361 1600,361 C1649.5666,361 1691.87215,392.088232 1708.48175,435.829791 C1721.16857,423.554057 1738.45211,416 1757.5,416 C1789.79926,416 1817.0254,437.720602 1825.36858,467.351954 C1851.3139,424.579062 1898.31945,396 1952,396 C1962.27624,396 1972.30787,397.047328 1981.99396,399.041066 C1988.49431,355.442407 2026.09171,322 2071.5,322 C2075.82687,322 2080.08282,322.303651 2084.2477,322.890807 C2092.6369,230.159158 2170.58322,157.5 2265.5,157.5 C2352.78055,157.5 2425.71141,218.938319 2443.40428,300.926653 L2443.40428,300.926653 C2457.53979,287.639836 2476.56931,279.5 2497.5,279.5 C2513.68162,279.5 2528.72694,284.365113 2541.25301,292.712404 C2557.00198,257.519857 2592.32503,233 2633.375,233 C2689.08672,233 2734.25,278.163276 2734.25,333.875 C2734.25,335.865657 2734.19234,337.842847 2734.07859,339.80499 Z" id="Oval-22" fill="#FFFFFF" filter="url(#filter-13)"></path>
                    </g>
                </g>
            </g>
        </g>
    </g>
</svg>