<?xml version="1.0" encoding="UTF-8" standalone="no"?>
<svg width="6832px" height="683px" viewBox="0 0 6832 683" version="1.1" xmlns="http://www.w3.org/2000/svg" xmlns:xlink="http://www.w3.org/1999/xlink" xmlns:sketch="http://www.bohemiancoding.com/sketch/ns">
    <!-- Generator: Sketch 3.3.3 (12072) - http://www.bohemiancoding.com/sketch -->
    <title>Slice 1 Copy 2</title>
    <desc>Created with Sketch.</desc>
    <defs>
        <rect id="path-1" x="-5" y="-205" width="2644" height="1021"></rect>
        <linearGradient x1="50%" y1="33.4075821%" x2="50%" y2="114.511702%" id="linearGradient-3">
            <stop stop-color="#D9BDC4" offset="0%"></stop>
            <stop stop-color="#D9BDC4" offset="100%"></stop>
        </linearGradient>
        <linearGradient x1="50%" y1="-12.9397911%" x2="50%" y2="100%" id="linearGradient-4">
            <stop stop-color="#D9BDC4" offset="0%"></stop>
            <stop stop-color="#D9BDC4" offset="100%"></stop>
        </linearGradient>
        <linearGradient x1="50%" y1="33.4075821%" x2="50%" y2="114.511702%" id="linearGradient-5">
            <stop stop-color="#FFFFFF" offset="0%"></stop>
            <stop stop-color="#D9BDC4" offset="100%"></stop>
        </linearGradient>
        <rect id="path-6" x="2637" y="-205" width="2644" height="1021"></rect>
        <linearGradient x1="50%" y1="-12.9397911%" x2="50%" y2="100%" id="linearGradient-8">
            <stop stop-color="#FFFFFF" offset="0%"></stop>
            <stop stop-color="#D9BDC4" offset="100%"></stop>
        </linearGradient>
        <rect id="path-9" x="4188" y="-205" width="2644" height="1021"></rect>
    </defs>
    <g id="Page-1" stroke="none" stroke-width="1" fill="none" fill-rule="evenodd" sketch:type="MSPage">
        <mask id="mask-2" sketch:name="Mask" fill="white">
            <use xlink:href="#path-1"></use>
        </mask>
        <use id="Mask" sketch:type="MSShapeGroup" transform="translate(1317.000000, 305.500000) scale(1, -1) translate(-1317.000000, -305.500000) " xlink:href="#path-1"></use>
        <path d="M2193.0786,87.3049906 C2270.35267,92.2412096 2331.5,156.479743 2331.5,235 C2331.5,240.235951 2331.2281,245.408398 2330.69766,250.50399 C2330.96479,250.501332 2331.23224,250.5 2331.5,250.5 C2375.1305,250.5 2410.5,285.869505 2410.5,329.5 C2410.5,359.592852 2393.67421,385.755831 2368.91722,399.094359 L2368.91722,399.094359 C2381.29822,420.728337 2388.375,445.787733 2388.375,472.5 C2388.375,549.985534 2328.82862,613.563267 2253,619.969073 L2253,619.969073 L2253,620.5 L1819.5,620.5 L1460.5,620.5 L-105,620.5 L-105.000015,620.455873 C-142.225842,619.139702 -172,588.546915 -172,551 C-172,544.08748 -170.990831,537.410665 -169.111787,531.108846 C-187.048147,511.608737 -198,485.58334 -198,457 C-198,414.97494 -174.325634,378.479324 -139.586066,360.122316 C-151.016864,347.736192 -158,331.183595 -158,313 C-158,285.886258 -142.473632,262.398894 -119.826872,250.943886 C-119.941645,249.310844 -120,247.662237 -120,246 C-120,207.61621 -88.8837901,176.5 -50.5,176.5 C-39.8401362,176.5 -29.7408006,178.899906 -20.7128213,183.188891 C-15.3669581,87.4702657 63.9446178,11.5 161,11.5 C248.280548,11.5 321.211407,72.9383187 338.904276,154.926653 C353.039786,141.639836 372.069313,133.5 393,133.5 C436.630495,133.5 472,168.869505 472,212.5 C472,214.569853 471.920397,216.621114 471.764086,218.650889 L471.764086,218.650889 C495.061561,220.131204 515.429599,232.392161 527.93444,250.5 L543.731515,250.5 L543.731515,250.5 C552.190494,221.048766 579.328755,199.5 611.5,199.5 C638.906484,199.5 662.660416,215.138436 674.325122,237.978636 C674.109788,235.347561 674,232.686601 674,230 C674,176.704522 717.204522,133.5 770.5,133.5 C816.478764,133.5 854.947075,165.656077 864.642802,208.706104 L864.642802,208.706104 C874.923157,202.84717 886.820692,199.5 899.5,199.5 C916.096324,199.5 931.353238,205.234697 943.39727,214.83062 L943.39727,214.83062 C948.310687,155.289784 998.191174,108.5 1059,108.5 C1108.5666,108.5 1150.87215,139.588232 1167.48175,183.329791 C1180.16857,171.054057 1197.45211,163.5 1216.5,163.5 C1248.79926,163.5 1276.0254,185.220602 1284.36858,214.851954 C1310.3139,172.079062 1357.31945,143.5 1411,143.5 C1421.27624,143.5 1431.30787,144.547328 1440.99396,146.541066 C1447.49431,102.942407 1485.09171,69.5 1530.5,69.5 C1534.82687,69.5 1539.08282,69.8036514 1543.2477,70.3908069 C1551.6369,-22.3408424 1629.58322,-95 1724.5,-95 C1811.78055,-95 1884.71141,-33.5616813 1902.40428,48.4266534 L1902.40428,48.4266534 C1916.53979,35.1398363 1935.56931,27 1956.5,27 C1972.68162,27 1987.72694,31.8651128 2000.25301,40.2124039 C2016.00198,5.01985682 2051.32503,-19.5 2092.375,-19.5 C2148.08672,-19.5 2193.25,25.6632759 2193.25,81.375 C2193.25,83.3656573 2193.19234,85.3428471 2193.07859,87.3049902 Z" id="Oval-22-Copy-23" fill="url(#linearGradient-3)" sketch:type="MSShapeGroup" mask="url(#mask-2)">
            <g transform="translate(1106.250000, 262.750000) scale(1, -1) translate(-1106.250000, -262.750000) "></g>
        </path>
        <path d="M2735.0786,107.304991 C2812.35267,112.24121 2873.5,176.479743 2873.5,255 C2873.5,260.235951 2873.2281,265.408398 2872.69766,270.50399 C2872.96479,270.501332 2873.23224,270.5 2873.5,270.5 C2917.1305,270.5 2952.5,305.869505 2952.5,349.5 C2952.5,379.592852 2935.67421,405.755831 2910.91722,419.094359 L2910.91722,419.094359 C2923.29822,440.728337 2930.375,465.787733 2930.375,492.5 C2930.375,569.985534 2870.82862,633.563267 2795,639.969073 L2795,639.969073 L2795,640.5 L2361.5,640.5 L2010,640.5 L2010,544.312559 L2010,640.5 L437,640.5 L436.999985,640.455873 C399.774158,639.139702 370,608.546915 370,571 C370,564.08748 371.009169,557.410665 372.888213,551.108846 C354.951853,531.608737 344,505.58334 344,477 C344,434.97494 367.674366,398.479324 402.413934,380.122316 C390.983136,367.736192 384,351.183595 384,333 C384,305.886258 399.526368,282.398894 422.173128,270.943886 C422.058355,269.310844 422,267.662237 422,266 C422,227.61621 453.11621,196.5 491.5,196.5 C502.159864,196.5 512.259199,198.899906 521.287179,203.188891 C526.633042,107.470266 605.944618,31.5 703,31.5 C790.280548,31.5 863.211407,92.9383187 880.904276,174.926653 C895.039786,161.639836 914.069313,153.5 935,153.5 C978.630495,153.5 1014,188.869505 1014,232.5 C1014,234.569853 1013.9204,236.621114 1013.76409,238.650889 L1013.76409,238.650889 C1037.06156,240.131204 1057.4296,252.392161 1069.93444,270.5 L1085.73151,270.5 L1085.73151,270.5 C1094.19049,241.048766 1121.32876,219.5 1153.5,219.5 C1180.90648,219.5 1204.66042,235.138436 1216.32512,257.978636 C1216.10979,255.347561 1216,252.686601 1216,250 C1216,196.704522 1259.20452,153.5 1312.5,153.5 C1358.47876,153.5 1396.94707,185.656077 1406.6428,228.706104 L1406.6428,228.706104 C1416.92316,222.84717 1428.82069,219.5 1441.5,219.5 C1458.09632,219.5 1473.35324,225.234697 1485.39727,234.83062 L1485.39727,234.83062 C1490.31069,175.289784 1540.19117,128.5 1601,128.5 C1650.5666,128.5 1692.87215,159.588232 1709.48175,203.329791 C1722.16857,191.054057 1739.45211,183.5 1758.5,183.5 C1790.79926,183.5 1818.0254,205.220602 1826.36858,234.851954 C1852.3139,192.079062 1899.31945,163.5 1953,163.5 C1963.27624,163.5 1973.30787,164.547328 1982.99396,166.541066 C1989.49431,122.942407 2027.09171,89.5 2072.5,89.5 C2076.82687,89.5 2081.08282,89.8036514 2085.2477,90.3908069 C2093.6369,-2.34084236 2171.58322,-75 2266.5,-75 C2353.78055,-75 2426.71141,-13.5616813 2444.40428,68.4266534 L2444.40428,68.4266534 C2458.53979,55.1398363 2477.56931,47 2498.5,47 C2514.68162,47 2529.72694,51.8651128 2542.25301,60.2124039 C2558.00198,25.0198568 2593.32503,0.5 2634.375,0.5 C2690.08672,0.5 2735.25,45.6632759 2735.25,101.375 C2735.25,103.365657 2735.19234,105.342847 2735.07859,107.30499 Z" id="Oval-22-Copy-26" fill="url(#linearGradient-4)" sketch:type="MSShapeGroup" mask="url(#mask-2)">
            <g transform="translate(1648.250000, 282.750000) scale(1, -1) translate(-1648.250000, -282.750000) "></g>
        </path>
        <path d="M2518.5786,-22.1950094 C2595.85267,-17.2587904 2657,46.9797428 2657,125.5 C2657,130.735951 2656.7281,135.908398 2656.19766,141.00399 C2656.46479,141.001332 2656.73224,141 2657,141 C2700.6305,141 2736,176.369505 2736,220 C2736,250.092852 2719.17421,276.255831 2694.41722,289.594359 L2694.41722,289.594359 C2706.79822,311.228337 2713.875,336.287733 2713.875,363 C2713.875,440.485534 2654.32862,504.063267 2578.5,510.469073 L2578.5,510.469073 L2578.5,511 L2145,511 L1793.5,511 L1793.5,414.812559 L1793.5,414.812559 L1793.5,511 L220.5,511 L220.499985,510.955873 C183.274158,509.639702 153.5,479.046915 153.5,441.5 C153.5,432.676902 155.144119,424.237809 158.142699,416.472377 C139.168607,396.782348 127.5,370.003848 127.5,340.5 C127.5,300.116745 149.360712,264.839333 181.893808,245.856092 C172.867465,234.130092 167.5,219.441865 167.5,203.5 C167.5,176.386258 183.026368,152.898894 205.673128,141.443886 C205.558355,139.810844 205.5,138.162237 205.5,136.5 C205.5,98.1162099 236.61621,67 275,67 C285.659864,67 295.759199,69.3999063 304.787179,73.6888908 C310.133042,-22.0297343 389.444618,-98 486.5,-98 C573.780548,-98 646.711407,-36.5616813 664.404276,45.4266534 C678.539786,32.1398363 697.569313,24 718.5,24 C762.130495,24 797.5,59.3695048 797.5,103 C797.5,105.069853 797.420397,107.121114 797.264086,109.150889 L797.264086,109.150889 C820.561561,110.631204 840.929599,122.892161 853.43444,141 L869.231515,141 L869.231515,141 C877.690494,111.548766 904.828755,90 937,90 C964.406484,90 988.160416,105.638436 999.825122,128.478636 C999.609788,125.847561 999.5,123.186601 999.5,120.5 C999.5,67.2045216 1042.70452,24 1096,24 C1141.97876,24 1180.44707,56.1560774 1190.1428,99.2061039 L1190.1428,99.2061039 C1200.42316,93.3471702 1212.32069,90 1225,90 C1241.59632,90 1256.85324,95.734697 1268.89727,105.33062 L1268.89727,105.33062 C1273.81069,45.7897835 1323.69117,-1 1384.5,-1 C1434.0666,-1 1476.37215,30.0882321 1492.98175,73.8297907 C1505.66857,61.5540571 1522.95211,54 1542,54 C1574.29926,54 1601.5254,75.7206018 1609.86858,105.351954 C1635.8139,62.5790621 1682.81945,34 1736.5,34 C1746.77624,34 1756.80787,35.0473281 1766.49396,37.0410661 C1772.99431,-6.5575926 1810.59171,-40 1856,-40 C1860.32687,-40 1864.58282,-39.6963486 1868.7477,-39.1091931 C1877.1369,-131.840842 1955.08322,-204.5 2050,-204.5 C2137.28055,-204.5 2210.21141,-143.061681 2227.90428,-61.0733466 L2227.90428,-61.0733466 C2242.03979,-74.3601637 2261.06931,-82.5 2282,-82.5 C2298.18162,-82.5 2313.22694,-77.6348872 2325.75301,-69.2875961 C2341.50198,-104.480143 2376.82503,-129 2417.875,-129 C2473.58672,-129 2518.75,-83.8367241 2518.75,-28.125 C2518.75,-26.1343427 2518.69234,-24.1571529 2518.57859,-22.1950098 Z" id="Oval-22" fill="url(#linearGradient-5)" sketch:type="MSShapeGroup" mask="url(#mask-2)">
            <g transform="translate(1431.750000, 153.250000) scale(1, -1) translate(-1431.750000, -153.250000) "></g>
        </path>
        <mask id="mask-7" sketch:name="Mask" fill="white">
            <use xlink:href="#path-6"></use>
        </mask>
        <use id="Mask" sketch:type="MSShapeGroup" transform="translate(3959.000000, 305.500000) scale(-1, -1) translate(-3959.000000, -305.500000) " xlink:href="#path-6"></use>
        <path d="M5254.5786,107.304991 C5331.85267,112.24121 5393,176.479743 5393,255 C5393,260.235951 5392.7281,265.408398 5392.19766,270.50399 C5392.46479,270.501332 5392.73224,270.5 5393,270.5 C5436.6305,270.5 5472,305.869505 5472,349.5 C5472,379.592852 5455.17421,405.755831 5430.41722,419.094359 L5430.41722,419.094359 C5442.79822,440.728337 5449.875,465.787733 5449.875,492.5 C5449.875,569.985534 5390.32862,633.563267 5314.5,639.969073 L5314.5,639.969073 L5314.5,640.5 L4881,640.5 L4522,640.5 L2956.5,640.5 L2956.49998,640.455873 C2919.27416,639.139702 2889.5,608.546915 2889.5,571 C2889.5,564.08748 2890.50917,557.410665 2892.38821,551.108846 C2874.45185,531.608737 2863.5,505.58334 2863.5,477 C2863.5,434.97494 2887.17437,398.479324 2921.91393,380.122316 C2910.48314,367.736192 2903.5,351.183595 2903.5,333 C2903.5,305.886258 2919.02637,282.398894 2941.67313,270.943886 C2941.55835,269.310844 2941.5,267.662237 2941.5,266 C2941.5,227.61621 2972.61621,196.5 3011,196.5 C3021.65986,196.5 3031.7592,198.899906 3040.78718,203.188891 C3046.13304,107.470266 3125.44462,31.5 3222.5,31.5 C3309.78055,31.5 3382.71141,92.9383187 3400.40428,174.926653 C3414.53979,161.639836 3433.56931,153.5 3454.5,153.5 C3498.1305,153.5 3533.5,188.869505 3533.5,232.5 C3533.5,234.569853 3533.4204,236.621114 3533.26409,238.650889 L3533.26409,238.650889 C3556.56156,240.131204 3576.9296,252.392161 3589.43444,270.5 L3605.23151,270.5 L3605.23151,270.5 C3613.69049,241.048766 3640.82876,219.5 3673,219.5 C3700.40648,219.5 3724.16042,235.138436 3735.82512,257.978636 C3735.60979,255.347561 3735.5,252.686601 3735.5,250 C3735.5,196.704522 3778.70452,153.5 3832,153.5 C3877.97876,153.5 3916.44707,185.656077 3926.1428,228.706104 L3926.1428,228.706104 C3936.42316,222.84717 3948.32069,219.5 3961,219.5 C3993.17124,219.5 4020.30951,241.048766 4028.76849,270.5 L4028.76849,270.5 L4070.19463,270.5 L4070.19463,270.5 C4066.49836,259.167034 4064.5,247.066888 4064.5,234.5 C4064.5,170.434969 4116.43497,118.5 4180.5,118.5 C4241.66131,118.5 4291.76722,165.833798 4296.18363,225.867301 C4312.61021,230.240061 4326.67863,240.395491 4336.07606,254.020767 C4358.51304,200.83267 4411.14676,163.5 4472.5,163.5 C4482.77624,163.5 4492.80787,164.547328 4502.49396,166.541066 C4508.99431,122.942407 4546.59171,89.5 4592,89.5 C4596.32687,89.5 4600.58282,89.8036514 4604.7477,90.3908069 C4613.1369,-2.34084236 4691.08322,-75 4786,-75 C4873.28055,-75 4946.21141,-13.5616813 4963.90428,68.4266534 L4963.90428,68.4266534 C4978.03979,55.1398363 4997.06931,47 5018,47 C5034.18162,47 5049.22694,51.8651128 5061.75301,60.2124039 C5077.50198,25.0198568 5112.82503,0.5 5153.875,0.5 C5209.58672,0.5 5254.75,45.6632759 5254.75,101.375 C5254.75,103.365657 5254.69234,105.342847 5254.57859,107.30499 Z" id="Oval-22-Copy-23" fill="url(#linearGradient-8)" sketch:type="MSShapeGroup" mask="url(#mask-7)">
            <g transform="translate(4167.750000, 282.750000) scale(-1, -1) translate(-4167.750000, -282.750000) "></g>
        </path>
        <path d="M4489.75301,67.2124039 C4477.22694,58.8651128 4462.18162,54 4446,54 C4425.06931,54 4406.03979,62.1398363 4391.90428,75.4266534 L4391.90428,75.4266534 C4374.21141,-6.56168129 4301.28055,-68 4214,-68 C4119.08322,-68 4041.1369,4.65915764 4032.7477,97.3908069 C4028.58282,96.8036514 4024.32687,96.5 4020,96.5 C3974.59171,96.5 3936.99431,129.942407 3930.49396,173.541066 C3920.80787,171.547328 3910.77624,170.5 3900.5,170.5 C3846.81945,170.5 3799.8139,199.079062 3773.86858,241.851954 C3765.5254,212.220602 3738.29926,190.5 3706,190.5 C3686.95211,190.5 3669.66857,198.054057 3656.98175,210.329791 C3640.37215,166.588232 3598.0666,135.5 3548.5,135.5 C3487.69117,135.5 3437.81069,182.289784 3432.89727,241.83062 L3432.89727,241.83062 C3420.85324,232.234697 3405.59632,226.5 3389,226.5 C3376.32069,226.5 3364.42316,229.84717 3354.1428,235.706104 L3354.1428,235.706104 C3344.44707,192.656077 3305.97876,160.5 3260,160.5 C3216.25803,160.5 3179.31354,189.6035 3167.47408,229.502961 C3158.69449,200.563696 3131.80709,179.5 3100,179.5 C3077.26813,179.5 3057.04908,190.258629 3044.15695,206.96177 L3044.15695,206.96177 C3016.69544,218.843723 2997.31095,245.86358 2996.52482,277.5 L2823.39575,277.5 L2823.39575,277.5 C2829.30351,259.57007 2832.5,240.408326 2832.5,220.5 C2832.5,119.984176 2751.01582,38.5 2650.5,38.5 C2553.44462,38.5 2474.13304,114.470266 2468.78718,210.188891 C2459.7592,205.899906 2449.65986,203.5 2439,203.5 C2400.61621,203.5 2369.5,234.61621 2369.5,273 C2369.5,274.662237 2369.55835,276.310844 2369.67313,277.943886 C2347.02637,289.398894 2331.5,312.886258 2331.5,340 C2331.5,358.183595 2338.48314,374.736192 2349.91393,387.122316 C2315.17437,405.479324 2291.5,441.97494 2291.5,484 C2291.5,512.58334 2302.45185,538.608737 2320.38821,558.108846 C2318.50917,564.410665 2317.5,571.08748 2317.5,578 C2317.5,615.546915 2347.27416,646.139702 2384.49998,647.455873 L2384.5,647.5 L3957.5,647.5 L3957.5,551.312559 L3957.5,647.5 L4309,647.5 L4742.5,647.5 L4742.5,646.969073 L4742.5,646.969073 C4818.32862,640.563267 4877.875,576.985534 4877.875,499.5 C4877.875,472.787733 4870.79822,447.728337 4858.41722,426.094359 L4858.41722,426.094359 C4883.17421,412.755831 4900,386.592852 4900,356.5 C4900,312.869505 4864.6305,277.5 4821,277.5 C4820.73224,277.5 4820.46479,277.501332 4820.19766,277.50399 C4820.7281,272.408398 4821,267.235951 4821,262 C4821,183.479743 4759.85267,119.24121 4682.5786,114.304991 C4682.69234,112.342847 4682.75,110.365657 4682.75,108.375 C4682.75,52.6632759 4637.58672,7.5 4581.875,7.5 C4540.82503,7.5 4505.50198,32.0198568 4489.75301,67.2124039 Z M3165.68193,277.5 L3164.93511,277.5 C3165.10381,277.102148 3165.26897,276.702425 3165.43053,276.300873 C3165.51185,276.701489 3165.59566,277.101203 3165.68193,277.5 L3165.68193,277.5 Z" id="Oval-22-Copy-26" fill="url(#linearGradient-4)" sketch:type="MSShapeGroup" mask="url(#mask-7)">
            <g transform="translate(3595.750000, 289.750000) scale(-1, -1) translate(-3595.750000, -289.750000) "></g>
        </path>
        <path d="M4924.0786,-22.1950094 C5001.35267,-17.2587904 5062.5,46.9797428 5062.5,125.5 C5062.5,130.735951 5062.2281,135.908398 5061.69766,141.00399 C5061.96479,141.001332 5062.23224,141 5062.5,141 C5106.1305,141 5141.5,176.369505 5141.5,220 C5141.5,250.092852 5124.67421,276.255831 5099.91722,289.594359 L5099.91722,289.594359 C5112.29822,311.228337 5119.375,336.287733 5119.375,363 C5119.375,440.485534 5059.82862,504.063267 4984,510.469073 L4984,510.469073 L4984,511 L4550.5,511 L4199,511 L4199,414.812559 L4199,414.812559 L4199,511 L2626,511 L2625.99998,510.955873 C2588.77416,509.639702 2559,479.046915 2559,441.5 C2559,432.676902 2560.64412,424.237809 2563.6427,416.472377 C2544.66861,396.782348 2533,370.003848 2533,340.5 C2533,300.116745 2554.86071,264.839333 2587.39381,245.856092 C2578.36747,234.130092 2573,219.441865 2573,203.5 C2573,176.386258 2588.52637,152.898894 2611.17313,141.443886 C2611.05835,139.810844 2611,138.162237 2611,136.5 C2611,98.1162099 2642.11621,67 2680.5,67 C2691.15986,67 2701.2592,69.3999063 2710.28718,73.6888908 C2715.63304,-22.0297343 2794.94462,-98 2892,-98 C2979.28055,-98 3052.21141,-36.5616813 3069.90428,45.4266534 C3084.03979,32.1398363 3103.06931,24 3124,24 C3167.6305,24 3203,59.3695048 3203,103 C3203,105.069853 3202.9204,107.121114 3202.76409,109.150889 L3202.76409,109.150889 C3226.06156,110.631204 3246.4296,122.892161 3258.93444,141 L3274.73151,141 L3274.73151,141 C3283.19049,111.548766 3310.32876,90 3342.5,90 C3369.90648,90 3393.66042,105.638436 3405.32512,128.478636 C3405.10979,125.847561 3405,123.186601 3405,120.5 C3405,67.2045216 3448.20452,24 3501.5,24 C3547.47876,24 3585.94707,56.1560774 3595.6428,99.2061039 L3595.6428,99.2061039 C3605.92316,93.3471702 3617.82069,90 3630.5,90 C3647.09632,90 3662.35324,95.734697 3674.39727,105.33062 L3674.39727,105.33062 C3679.31069,45.7897835 3729.19117,-1 3790,-1 C3839.5666,-1 3881.87215,30.0882321 3898.48175,73.8297907 C3911.16857,61.5540571 3928.45211,54 3947.5,54 C3979.79926,54 4007.0254,75.7206018 4015.36858,105.351954 C4041.3139,62.5790621 4088.31945,34 4142,34 C4152.27624,34 4162.30787,35.0473281 4171.99396,37.0410661 C4178.49431,-6.5575926 4216.09171,-40 4261.5,-40 C4265.82687,-40 4270.08282,-39.6963486 4274.2477,-39.1091931 C4282.6369,-131.840842 4360.58322,-204.5 4455.5,-204.5 C4542.78055,-204.5 4615.71141,-143.061681 4633.40428,-61.0733466 L4633.40428,-61.0733466 C4647.53979,-74.3601637 4666.56931,-82.5 4687.5,-82.5 C4703.68162,-82.5 4718.72694,-77.6348872 4731.25301,-69.2875961 C4747.00198,-104.480143 4782.32503,-129 4823.375,-129 C4879.08672,-129 4924.25,-83.8367241 4924.25,-28.125 C4924.25,-26.1343427 4924.19234,-24.1571529 4924.07859,-22.1950098 Z" id="Oval-22" fill="url(#linearGradient-5)" sketch:type="MSShapeGroup" mask="url(#mask-7)">
            <g transform="translate(3837.250000, 153.250000) scale(-1, -1) translate(-3837.250000, -153.250000) "></g>
        </path>
        <mask id="mask-10" sketch:name="Mask" fill="white">
            <use xlink:href="#path-9"></use>
        </mask>
        <use id="Mask" sketch:type="MSShapeGroup" transform="translate(5510.000000, 305.500000) scale(-1, -1) translate(-5510.000000, -305.500000) " xlink:href="#path-9"></use>
        <path d="M6807.5786,127.304991 C6884.85267,132.24121 6946,196.479743 6946,275 C6946,280.235951 6945.7281,285.408398 6945.19766,290.50399 C6945.46479,290.501332 6945.73224,290.5 6946,290.5 C6989.6305,290.5 7025,325.869505 7025,369.5 C7025,399.592852 7008.17421,425.755831 6983.41722,439.094359 L6983.41722,439.094359 C6995.79822,460.728337 7002.875,485.787733 7002.875,512.5 C7002.875,589.985534 6943.32862,653.563267 6867.5,659.969073 L6867.5,659.969073 L6867.5,660.5 L6434,660.5 L6075,660.5 L4509.5,660.5 L4509.49998,660.455873 C4472.27416,659.139702 4442.5,628.546915 4442.5,591 C4442.5,584.08748 4443.50917,577.410665 4445.38821,571.108846 C4427.45185,551.608737 4416.5,525.58334 4416.5,497 C4416.5,454.97494 4440.17437,418.479324 4474.91393,400.122316 C4463.48314,387.736192 4456.5,371.183595 4456.5,353 C4456.5,325.886258 4472.02637,302.398894 4494.67313,290.943886 C4494.55835,289.310844 4494.5,287.662237 4494.5,286 C4494.5,247.61621 4525.61621,216.5 4564,216.5 C4574.65986,216.5 4584.7592,218.899906 4593.78718,223.188891 C4599.13304,127.470266 4678.44462,51.5 4775.5,51.5 C4862.78055,51.5 4935.71141,112.938319 4953.40428,194.926653 C4967.53979,181.639836 4986.56931,173.5 5007.5,173.5 C5051.1305,173.5 5086.5,208.869505 5086.5,252.5 C5086.5,254.569853 5086.4204,256.621114 5086.26409,258.650889 L5086.26409,258.650889 C5109.56156,260.131204 5129.9296,272.392161 5142.43444,290.5 L5158.23151,290.5 L5158.23151,290.5 C5166.69049,261.048766 5193.82876,239.5 5226,239.5 C5253.40648,239.5 5277.16042,255.138436 5288.82512,277.978636 C5288.60979,275.347561 5288.5,272.686601 5288.5,270 C5288.5,216.704522 5331.70452,173.5 5385,173.5 C5430.97876,173.5 5469.44707,205.656077 5479.1428,248.706104 L5479.1428,248.706104 C5489.42316,242.84717 5501.32069,239.5 5514,239.5 C5530.59632,239.5 5545.85324,245.234697 5557.89727,254.83062 L5557.89727,254.83062 C5562.81069,195.289784 5612.69117,148.5 5673.5,148.5 C5723.0666,148.5 5765.37215,179.588232 5781.98175,223.329791 C5794.66857,211.054057 5811.95211,203.5 5831,203.5 C5863.29926,203.5 5890.5254,225.220602 5898.86858,254.851954 C5924.8139,212.079062 5971.81945,183.5 6025.5,183.5 C6035.77624,183.5 6045.80787,184.547328 6055.49396,186.541066 C6061.99431,142.942407 6099.59171,109.5 6145,109.5 C6149.32687,109.5 6153.58282,109.803651 6157.7477,110.390807 C6166.1369,17.6591576 6244.08322,-55 6339,-55 C6426.28055,-55 6499.21141,6.43831871 6516.90428,88.4266534 L6516.90428,88.4266534 C6531.03979,75.1398363 6550.06931,67 6571,67 C6587.18162,67 6602.22694,71.8651128 6614.75301,80.2124039 C6630.50198,45.0198568 6665.82503,20.5 6706.875,20.5 C6762.58672,20.5 6807.75,65.6632759 6807.75,121.375 C6807.75,123.365657 6807.69234,125.342847 6807.57859,127.30499 Z" id="Oval-22-Copy-23" fill="#D9BDC4" sketch:type="MSShapeGroup" mask="url(#mask-10)">
            <g transform="translate(5720.750000, 302.750000) scale(-1, -1) translate(-5720.750000, -302.750000) "></g>
        </path>
        <path d="M6352.36262,237.089832 C6362.04938,232.851515 6372.75008,230.5 6384,230.5 C6427.6305,230.5 6463,265.869505 6463,309.5 C6463,339.592852 6446.17421,365.755831 6421.41722,379.094359 L6421.41722,379.094359 C6433.79822,400.728337 6440.875,425.787733 6440.875,452.5 C6440.875,529.985534 6381.32862,593.563267 6305.5,599.969073 L6305.5,599.969073 L6305.5,600.5 L5872,600.5 L5520.5,600.5 L5520.5,504.312559 L5520.5,600.5 L3947.5,600.5 L3947.49998,600.455873 C3910.27416,599.139702 3880.5,568.546915 3880.5,531 C3880.5,524.08748 3881.50917,517.410665 3883.38821,511.108846 C3865.45185,491.608737 3854.5,465.58334 3854.5,437 C3854.5,394.97494 3878.17437,358.479324 3912.91393,340.122316 C3901.48314,327.736192 3894.5,311.183595 3894.5,293 C3894.5,265.886258 3910.02637,242.398894 3932.67313,230.943886 C3932.55835,229.310844 3932.5,227.662237 3932.5,226 C3932.5,187.61621 3963.61621,156.5 4002,156.5 C4012.65986,156.5 4022.7592,158.899906 4031.78718,163.188891 C4037.13304,67.4702657 4116.44462,-8.5 4213.5,-8.5 C4300.78055,-8.5 4373.71141,52.9383187 4391.40428,134.926653 C4405.53979,121.639836 4424.56931,113.5 4445.5,113.5 C4489.1305,113.5 4524.5,148.869505 4524.5,192.5 C4524.5,194.569853 4524.4204,196.621114 4524.26409,198.650889 L4524.26409,198.650889 C4547.56156,200.131204 4567.9296,212.392161 4580.43444,230.5 L4596.23151,230.5 L4596.23151,230.5 C4604.69049,201.048766 4631.82876,179.5 4664,179.5 C4691.40648,179.5 4715.16042,195.138436 4726.82512,217.978636 C4726.60979,215.347561 4726.5,212.686601 4726.5,210 C4726.5,156.704522 4769.70452,113.5 4823,113.5 C4868.97876,113.5 4907.44707,145.656077 4917.1428,188.706104 L4917.1428,188.706104 C4927.42316,182.84717 4939.32069,179.5 4952,179.5 C4968.59632,179.5 4983.85324,185.234697 4995.89727,194.83062 L4995.89727,194.83062 C5000.81069,135.289784 5050.69117,88.5 5111.5,88.5 C5161.0666,88.5 5203.37215,119.588232 5219.98175,163.329791 C5232.66857,151.054057 5249.95211,143.5 5269,143.5 C5301.29926,143.5 5328.5254,165.220602 5336.86858,194.851954 C5362.8139,152.079062 5409.81945,123.5 5463.5,123.5 C5473.77624,123.5 5483.80787,124.547328 5493.49396,126.541066 C5499.99431,82.9424074 5537.59171,49.5 5583,49.5 C5587.32687,49.5 5591.58282,49.8036514 5595.7477,50.3908069 C5604.1369,-42.3408424 5682.08322,-115 5777,-115 C5874.73481,-115 5954.47651,-37.9623707 5958.8142,58.7019735 L5958.8142,58.7019735 C5971.9603,33.3342561 5998.45583,16 6029,16 C6072.6305,16 6108,51.3695048 6108,95 C6108,98.2517118 6107.80354,101.457538 6107.42184,104.606257 C6133.59522,81.2180257 6168.13721,67 6206,67 C6287.73814,67 6354,133.261857 6354,215 C6354,222.506931 6353.44109,229.883322 6352.36262,237.089832 Z" id="Oval-22-Copy-26" fill="url(#linearGradient-8)" sketch:type="MSShapeGroup" mask="url(#mask-10)">
            <g transform="translate(5158.750000, 242.750000) scale(-1, -1) translate(-5158.750000, -242.750000) "></g>
        </path>
        <path d="M6478.0786,10.8049906 C6555.35267,15.7412096 6616.5,79.9797428 6616.5,158.5 C6616.5,163.735951 6616.2281,168.908398 6615.69766,174.00399 C6615.96479,174.001332 6616.23224,174 6616.5,174 C6660.1305,174 6695.5,209.369505 6695.5,253 C6695.5,283.092852 6678.67421,309.255831 6653.91722,322.594359 L6653.91722,322.594359 C6666.29822,344.228337 6673.375,369.287733 6673.375,396 C6673.375,473.485534 6613.82862,537.063267 6538,543.469073 L6538,543.469073 L6538,544 L6104.5,544 L5753,544 L5753,447.812559 L5753,447.812559 L5753,544 L4180,544 L4179.99998,543.955873 C4142.77416,542.639702 4113,512.046915 4113,474.5 C4113,465.676902 4114.64412,457.237809 4117.6427,449.472377 C4098.66861,429.782348 4087,403.003848 4087,373.5 C4087,333.116745 4108.86071,297.839333 4141.39381,278.856092 C4132.36747,267.130092 4127,252.441865 4127,236.5 C4127,209.386258 4142.52637,185.898894 4165.17313,174.443886 C4165.05835,172.810844 4165,171.162237 4165,169.5 C4165,131.11621 4196.11621,100 4234.5,100 C4245.15986,100 4255.2592,102.399906 4264.28718,106.688891 C4269.63304,10.9702657 4348.94462,-65 4446,-65 C4533.28055,-65 4606.21141,-3.56168129 4623.90428,78.4266534 C4638.03979,65.1398363 4657.06931,57 4678,57 C4721.6305,57 4757,92.3695048 4757,136 C4757,138.069853 4756.9204,140.121114 4756.76409,142.150889 L4756.76409,142.150889 C4780.06156,143.631204 4800.4296,155.892161 4812.93444,174 L4828.73151,174 L4828.73151,174 C4837.19049,144.548766 4864.32876,123 4896.5,123 C4923.90648,123 4947.66042,138.638436 4959.32512,161.478636 C4959.10979,158.847561 4959,156.186601 4959,153.5 C4959,100.204522 5002.20452,57 5055.5,57 C5101.47876,57 5139.94707,89.1560774 5149.6428,132.206104 L5149.6428,132.206104 C5159.92316,126.34717 5171.82069,123 5184.5,123 C5201.09632,123 5216.35324,128.734697 5228.39727,138.33062 L5228.39727,138.33062 C5233.31069,78.7897835 5283.19117,32 5344,32 C5393.5666,32 5435.87215,63.0882321 5452.48175,106.829791 C5465.16857,94.5540571 5482.45211,87 5501.5,87 C5533.79926,87 5561.0254,108.720602 5569.36858,138.351954 C5595.3139,95.5790621 5642.31945,67 5696,67 C5706.27624,67 5716.30787,68.0473281 5725.99396,70.0410661 C5732.49431,26.4424074 5770.09171,-7 5815.5,-7 C5819.82687,-7 5824.08282,-6.69634864 5828.2477,-6.10919309 C5836.6369,-98.8408424 5914.58322,-171.5 6009.5,-171.5 C6096.78055,-171.5 6169.71141,-110.061681 6187.40428,-28.0733466 L6187.40428,-28.0733466 C6201.53979,-41.3601637 6220.56931,-49.5 6241.5,-49.5 C6257.68162,-49.5 6272.72694,-44.6348872 6285.25301,-36.2875961 C6301.00198,-71.4801432 6336.32503,-96 6377.375,-96 C6433.08672,-96 6478.25,-50.8367241 6478.25,4.875 C6478.25,6.86565732 6478.19234,8.8428471 6478.07859,10.8049902 Z" id="Oval-22" fill="url(#linearGradient-5)" sketch:type="MSShapeGroup" mask="url(#mask-10)">
            <g transform="translate(5391.250000, 186.250000) scale(-1, -1) translate(-5391.250000, -186.250000) "></g>
        </path>
    </g>
</svg>