<?xml version="1.0" encoding="UTF-8" standalone="no"?>
<svg width="6832px" height="570px" viewBox="0 0 6832 570" version="1.1" xmlns="http://www.w3.org/2000/svg" xmlns:xlink="http://www.w3.org/1999/xlink" xmlns:sketch="http://www.bohemiancoding.com/sketch/ns">
    <!-- Generator: Sketch 3.3.3 (12072) - http://www.bohemiancoding.com/sketch -->
    <title>Slice 1</title>
    <desc>Created with Sketch.</desc>
    <defs>
        <rect id="path-1" x="0" y="0" width="2644" height="1021"></rect>
        <linearGradient x1="50%" y1="33.4075821%" x2="50%" y2="100%" id="linearGradient-3">
            <stop stop-color="#FFFFFF" offset="0%"></stop>
            <stop stop-color="#D9BDC4" offset="100%"></stop>
        </linearGradient>
        <filter x="-50%" y="-50%" width="200%" height="200%" filterUnits="objectBoundingBox" id="filter-4">
            <feOffset dx="0" dy="-13" in="SourceAlpha" result="shadowOffsetOuter1"></feOffset>
            <feGaussianBlur stdDeviation="2" in="shadowOffsetOuter1" result="shadowBlurOuter1"></feGaussianBlur>
            <feColorMatrix values="0 0 0 0 0.917647059   0 0 0 0 0.8   0 0 0 0 0.741176471  0 0 0 0.35459692 0" in="shadowBlurOuter1" type="matrix" result="shadowMatrixOuter1"></feColorMatrix>
            <feMerge>
                <feMergeNode in="shadowMatrixOuter1"></feMergeNode>
                <feMergeNode in="SourceGraphic"></feMergeNode>
            </feMerge>
        </filter>
        <filter x="-50%" y="-50%" width="200%" height="200%" filterUnits="objectBoundingBox" id="filter-5">
            <feOffset dx="0" dy="-9" in="SourceAlpha" result="shadowOffsetOuter1"></feOffset>
            <feGaussianBlur stdDeviation="2" in="shadowOffsetOuter1" result="shadowBlurOuter1"></feGaussianBlur>
            <feColorMatrix values="0 0 0 0 0.917647059   0 0 0 0 0.8   0 0 0 0 0.741176471  0 0 0 0.297353374 0" in="shadowBlurOuter1" type="matrix" result="shadowMatrixOuter1"></feColorMatrix>
            <feMerge>
                <feMergeNode in="shadowMatrixOuter1"></feMergeNode>
                <feMergeNode in="SourceGraphic"></feMergeNode>
            </feMerge>
        </filter>
        <linearGradient x1="50%" y1="33.4075821%" x2="50%" y2="114.511702%" id="linearGradient-6">
            <stop stop-color="#FFFFFF" offset="0%"></stop>
            <stop stop-color="#D9BDC4" offset="100%"></stop>
        </linearGradient>
        <filter x="-50%" y="-50%" width="200%" height="200%" filterUnits="objectBoundingBox" id="filter-7">
            <feOffset dx="0" dy="-3" in="SourceAlpha" result="shadowOffsetOuter1"></feOffset>
            <feGaussianBlur stdDeviation="2.5" in="shadowOffsetOuter1" result="shadowBlurOuter1"></feGaussianBlur>
            <feColorMatrix values="0 0 0 0 0.917647059   0 0 0 0 0.8   0 0 0 0 0.741176471  0 0 0 0.7 0" in="shadowBlurOuter1" type="matrix" result="shadowMatrixOuter1"></feColorMatrix>
            <feMerge>
                <feMergeNode in="shadowMatrixOuter1"></feMergeNode>
                <feMergeNode in="SourceGraphic"></feMergeNode>
            </feMerge>
        </filter>
        <rect id="path-8" x="0" y="0" width="2644" height="1021"></rect>
        <filter x="-50%" y="-50%" width="200%" height="200%" filterUnits="objectBoundingBox" id="filter-10">
            <feOffset dx="0" dy="-13" in="SourceAlpha" result="shadowOffsetOuter1"></feOffset>
            <feGaussianBlur stdDeviation="2" in="shadowOffsetOuter1" result="shadowBlurOuter1"></feGaussianBlur>
            <feColorMatrix values="0 0 0 0 0.917647059   0 0 0 0 0.8   0 0 0 0 0.741176471  0 0 0 0.379741282 0" in="shadowBlurOuter1" type="matrix" result="shadowMatrixOuter1"></feColorMatrix>
            <feMerge>
                <feMergeNode in="shadowMatrixOuter1"></feMergeNode>
                <feMergeNode in="SourceGraphic"></feMergeNode>
            </feMerge>
        </filter>
        <filter x="-50%" y="-50%" width="200%" height="200%" filterUnits="objectBoundingBox" id="filter-11">
            <feOffset dx="0" dy="-9" in="SourceAlpha" result="shadowOffsetOuter1"></feOffset>
            <feGaussianBlur stdDeviation="2" in="shadowOffsetOuter1" result="shadowBlurOuter1"></feGaussianBlur>
            <feColorMatrix values="0 0 0 0 0.917647059   0 0 0 0 0.8   0 0 0 0 0.741176471  0 0 0 0.297353374 0" in="shadowBlurOuter1" type="matrix" result="shadowMatrixOuter1"></feColorMatrix>
            <feMerge>
                <feMergeNode in="shadowMatrixOuter1"></feMergeNode>
                <feMergeNode in="SourceGraphic"></feMergeNode>
            </feMerge>
        </filter>
        <filter x="-50%" y="-50%" width="200%" height="200%" filterUnits="objectBoundingBox" id="filter-12">
            <feOffset dx="0" dy="-3" in="SourceAlpha" result="shadowOffsetOuter1"></feOffset>
            <feGaussianBlur stdDeviation="2.5" in="shadowOffsetOuter1" result="shadowBlurOuter1"></feGaussianBlur>
            <feColorMatrix values="0 0 0 0 0.917647059   0 0 0 0 0.8   0 0 0 0 0.741176471  0 0 0 0.7 0" in="shadowBlurOuter1" type="matrix" result="shadowMatrixOuter1"></feColorMatrix>
            <feMerge>
                <feMergeNode in="shadowMatrixOuter1"></feMergeNode>
                <feMergeNode in="SourceGraphic"></feMergeNode>
            </feMerge>
        </filter>
        <rect id="path-13" x="0" y="0" width="2644" height="1021"></rect>
        <filter x="-50%" y="-50%" width="200%" height="200%" filterUnits="objectBoundingBox" id="filter-15">
            <feOffset dx="0" dy="-13" in="SourceAlpha" result="shadowOffsetOuter1"></feOffset>
            <feGaussianBlur stdDeviation="2" in="shadowOffsetOuter1" result="shadowBlurOuter1"></feGaussianBlur>
            <feColorMatrix values="0 0 0 0 0.917647059   0 0 0 0 0.8   0 0 0 0 0.741176471  0 0 0 0.349227242 0" in="shadowBlurOuter1" type="matrix" result="shadowMatrixOuter1"></feColorMatrix>
            <feMerge>
                <feMergeNode in="shadowMatrixOuter1"></feMergeNode>
                <feMergeNode in="SourceGraphic"></feMergeNode>
            </feMerge>
        </filter>
        <filter x="-50%" y="-50%" width="200%" height="200%" filterUnits="objectBoundingBox" id="filter-16">
            <feOffset dx="0" dy="-9" in="SourceAlpha" result="shadowOffsetOuter1"></feOffset>
            <feGaussianBlur stdDeviation="2" in="shadowOffsetOuter1" result="shadowBlurOuter1"></feGaussianBlur>
            <feColorMatrix values="0 0 0 0 0.917647059   0 0 0 0 0.8   0 0 0 0 0.741176471  0 0 0 0.297353374 0" in="shadowBlurOuter1" type="matrix" result="shadowMatrixOuter1"></feColorMatrix>
            <feMerge>
                <feMergeNode in="shadowMatrixOuter1"></feMergeNode>
                <feMergeNode in="SourceGraphic"></feMergeNode>
            </feMerge>
        </filter>
        <filter x="-50%" y="-50%" width="200%" height="200%" filterUnits="objectBoundingBox" id="filter-17">
            <feOffset dx="0" dy="-3" in="SourceAlpha" result="shadowOffsetOuter1"></feOffset>
            <feGaussianBlur stdDeviation="2.5" in="shadowOffsetOuter1" result="shadowBlurOuter1"></feGaussianBlur>
            <feColorMatrix values="0 0 0 0 0.917647059   0 0 0 0 0.8   0 0 0 0 0.741176471  0 0 0 0.7 0" in="shadowBlurOuter1" type="matrix" result="shadowMatrixOuter1"></feColorMatrix>
            <feMerge>
                <feMergeNode in="shadowMatrixOuter1"></feMergeNode>
                <feMergeNode in="SourceGraphic"></feMergeNode>
            </feMerge>
        </filter>
    </defs>
    <g id="Page-1" stroke="none" stroke-width="1" fill="none" fill-rule="evenodd" sketch:type="MSPage">
        <g id="Group-Copy-7-+-Group-Copy-8" sketch:type="MSLayerGroup" transform="translate(-5.000000, -183.000000)">
            <g id="Group-Copy-7" transform="translate(1322.000000, 510.500000) scale(1, -1) translate(-1322.000000, -510.500000) ">
                <mask id="mask-2" sketch:name="Mask" fill="white">
                    <use xlink:href="#path-1"></use>
                </mask>
                <use id="Mask" sketch:type="MSShapeGroup" xlink:href="#path-1"></use>
                <g id="Group-Copy-2" mask="url(#mask-2)" sketch:type="MSShapeGroup">
                    <g transform="translate(-193.000000, 305.000000)">
                        <path d="M2391.0786,182.804991 C2468.35267,187.74121 2529.5,251.979743 2529.5,330.5 C2529.5,335.735951 2529.2281,340.908398 2528.69766,346.00399 C2528.96479,346.001332 2529.23224,346 2529.5,346 C2573.1305,346 2608.5,381.369505 2608.5,425 C2608.5,455.092852 2591.67421,481.255831 2566.91722,494.594359 L2566.91722,494.594359 C2579.29822,516.228337 2586.375,541.287733 2586.375,568 C2586.375,645.485534 2526.82862,709.063267 2451,715.469073 L2451,715.469073 L2451,716 L2017.5,716 L1658.5,716 L93,716 L92.9999846,715.955873 C55.774158,714.639702 26,684.046915 26,646.5 C26,639.58748 27.0091686,632.910665 28.8882129,626.608846 C10.9518532,607.108737 0,581.08334 0,552.5 C0,510.47494 23.6743657,473.979324 58.4139341,455.622316 C46.983136,443.236192 40,426.683595 40,408.5 C40,381.386258 55.5263684,357.898894 78.1731277,346.443886 C78.0583548,344.810844 78,343.162237 78,341.5 C78,303.11621 109.11621,272 147.5,272 C158.159864,272 168.259199,274.399906 177.287179,278.688891 C182.633042,182.970266 261.944618,107 359,107 C446.280548,107 519.211407,168.438319 536.904276,250.426653 C551.039786,237.139836 570.069313,229 591,229 C634.630495,229 670,264.369505 670,308 C670,310.069853 669.920397,312.121114 669.764086,314.150889 L669.764086,314.150889 C693.061561,315.631204 713.429599,327.892161 725.93444,346 L741.731515,346 L741.731515,346 C750.190494,316.548766 777.328755,295 809.5,295 C836.906484,295 860.660416,310.638436 872.325122,333.478636 C872.109788,330.847561 872,328.186601 872,325.5 C872,272.204522 915.204522,229 968.5,229 C1014.47876,229 1052.94707,261.156077 1062.6428,304.206104 L1062.6428,304.206104 C1072.92316,298.34717 1084.82069,295 1097.5,295 C1114.09632,295 1129.35324,300.734697 1141.39727,310.33062 L1141.39727,310.33062 C1146.31069,250.789784 1196.19117,204 1257,204 C1306.5666,204 1348.87215,235.088232 1365.48175,278.829791 C1378.16857,266.554057 1395.45211,259 1414.5,259 C1446.79926,259 1474.0254,280.720602 1482.36858,310.351954 C1508.3139,267.579062 1555.31945,239 1609,239 C1619.27624,239 1629.30787,240.047328 1638.99396,242.041066 C1645.49431,198.442407 1683.09171,165 1728.5,165 C1732.82687,165 1737.08282,165.303651 1741.2477,165.890807 C1749.6369,73.1591576 1827.58322,0.5 1922.5,0.5 C2009.78055,0.5 2082.71141,61.9383187 2100.40428,143.926653 L2100.40428,143.926653 C2114.53979,130.639836 2133.56931,122.5 2154.5,122.5 C2170.68162,122.5 2185.72694,127.365113 2198.25301,135.712404 C2214.00198,100.519857 2249.32503,76 2290.375,76 C2346.08672,76 2391.25,121.163276 2391.25,176.875 C2391.25,178.865657 2391.19234,180.842847 2391.07859,182.80499 Z" id="Oval-22-Copy-23" fill="url(#linearGradient-3)" filter="url(#filter-4)"></path>
                        <path d="M2933.0786,182.804991 C3010.35267,187.74121 3071.5,251.979743 3071.5,330.5 C3071.5,335.735951 3071.2281,340.908398 3070.69766,346.00399 C3070.96479,346.001332 3071.23224,346 3071.5,346 C3115.1305,346 3150.5,381.369505 3150.5,425 C3150.5,455.092852 3133.67421,481.255831 3108.91722,494.594359 L3108.91722,494.594359 C3121.29822,516.228337 3128.375,541.287733 3128.375,568 C3128.375,645.485534 3068.82862,709.063267 2993,715.469073 L2993,715.469073 L2993,716 L2559.5,716 L2208,716 L2208,619.812559 L2208,716 L635,716 L634.999985,715.955873 C597.774158,714.639702 568,684.046915 568,646.5 C568,639.58748 569.009169,632.910665 570.888213,626.608846 C552.951853,607.108737 542,581.08334 542,552.5 C542,510.47494 565.674366,473.979324 600.413934,455.622316 C588.983136,443.236192 582,426.683595 582,408.5 C582,381.386258 597.526368,357.898894 620.173128,346.443886 C620.058355,344.810844 620,343.162237 620,341.5 C620,303.11621 651.11621,272 689.5,272 C700.159864,272 710.259199,274.399906 719.287179,278.688891 C724.633042,182.970266 803.944618,107 901,107 C988.280548,107 1061.21141,168.438319 1078.90428,250.426653 C1093.03979,237.139836 1112.06931,229 1133,229 C1176.6305,229 1212,264.369505 1212,308 C1212,310.069853 1211.9204,312.121114 1211.76409,314.150889 L1211.76409,314.150889 C1235.06156,315.631204 1255.4296,327.892161 1267.93444,346 L1283.73151,346 L1283.73151,346 C1292.19049,316.548766 1319.32876,295 1351.5,295 C1378.90648,295 1402.66042,310.638436 1414.32512,333.478636 C1414.10979,330.847561 1414,328.186601 1414,325.5 C1414,272.204522 1457.20452,229 1510.5,229 C1556.47876,229 1594.94707,261.156077 1604.6428,304.206104 L1604.6428,304.206104 C1614.92316,298.34717 1626.82069,295 1639.5,295 C1656.09632,295 1671.35324,300.734697 1683.39727,310.33062 L1683.39727,310.33062 C1688.31069,250.789784 1738.19117,204 1799,204 C1848.5666,204 1890.87215,235.088232 1907.48175,278.829791 C1920.16857,266.554057 1937.45211,259 1956.5,259 C1988.79926,259 2016.0254,280.720602 2024.36858,310.351954 C2050.3139,267.579062 2097.31945,239 2151,239 C2161.27624,239 2171.30787,240.047328 2180.99396,242.041066 C2187.49431,198.442407 2225.09171,165 2270.5,165 C2274.82687,165 2279.08282,165.303651 2283.2477,165.890807 C2291.6369,73.1591576 2369.58322,0.5 2464.5,0.5 C2551.78055,0.5 2624.71141,61.9383187 2642.40428,143.926653 L2642.40428,143.926653 C2656.53979,130.639836 2675.56931,122.5 2696.5,122.5 C2712.68162,122.5 2727.72694,127.365113 2740.25301,135.712404 C2756.00198,100.519857 2791.32503,76 2832.375,76 C2888.08672,76 2933.25,121.163276 2933.25,176.875 C2933.25,178.865657 2933.19234,180.842847 2933.07859,182.80499 Z" id="Oval-22-Copy-26" fill="#FFFFFF" filter="url(#filter-5)"></path>
                        <path d="M2734.0786,339.804991 C2811.35267,344.74121 2872.5,408.979743 2872.5,487.5 C2872.5,492.735951 2872.2281,497.908398 2871.69766,503.00399 C2871.96479,503.001332 2872.23224,503 2872.5,503 C2916.1305,503 2951.5,538.369505 2951.5,582 C2951.5,612.092852 2934.67421,638.255831 2909.91722,651.594359 L2909.91722,651.594359 C2922.29822,673.228337 2929.375,698.287733 2929.375,725 C2929.375,802.485534 2869.82862,866.063267 2794,872.469073 L2794,872.469073 L2794,873 L2360.5,873 L2009,873 L2009,776.812559 L2009,776.812559 L2009,873 L436,873 L435.999985,872.955873 C398.774158,871.639702 369,841.046915 369,803.5 C369,794.676902 370.644119,786.237809 373.642699,778.472377 C354.668607,758.782348 343,732.003848 343,702.5 C343,662.116745 364.860712,626.839333 397.393808,607.856092 C388.367465,596.130092 383,581.441865 383,565.5 C383,538.386258 398.526368,514.898894 421.173128,503.443886 C421.058355,501.810844 421,500.162237 421,498.5 C421,460.11621 452.11621,429 490.5,429 C501.159864,429 511.259199,431.399906 520.287179,435.688891 C525.633042,339.970266 604.944618,264 702,264 C789.280548,264 862.211407,325.438319 879.904276,407.426653 C894.039786,394.139836 913.069313,386 934,386 C977.630495,386 1013,421.369505 1013,465 C1013,467.069853 1012.9204,469.121114 1012.76409,471.150889 L1012.76409,471.150889 C1036.06156,472.631204 1056.4296,484.892161 1068.93444,503 L1084.73151,503 L1084.73151,503 C1093.19049,473.548766 1120.32876,452 1152.5,452 C1179.90648,452 1203.66042,467.638436 1215.32512,490.478636 C1215.10979,487.847561 1215,485.186601 1215,482.5 C1215,429.204522 1258.20452,386 1311.5,386 C1357.47876,386 1395.94707,418.156077 1405.6428,461.206104 L1405.6428,461.206104 C1415.92316,455.34717 1427.82069,452 1440.5,452 C1457.09632,452 1472.35324,457.734697 1484.39727,467.33062 L1484.39727,467.33062 C1489.31069,407.789784 1539.19117,361 1600,361 C1649.5666,361 1691.87215,392.088232 1708.48175,435.829791 C1721.16857,423.554057 1738.45211,416 1757.5,416 C1789.79926,416 1817.0254,437.720602 1825.36858,467.351954 C1851.3139,424.579062 1898.31945,396 1952,396 C1962.27624,396 1972.30787,397.047328 1981.99396,399.041066 C1988.49431,355.442407 2026.09171,322 2071.5,322 C2075.82687,322 2080.08282,322.303651 2084.2477,322.890807 C2092.6369,230.159158 2170.58322,157.5 2265.5,157.5 C2352.78055,157.5 2425.71141,218.938319 2443.40428,300.926653 L2443.40428,300.926653 C2457.53979,287.639836 2476.56931,279.5 2497.5,279.5 C2513.68162,279.5 2528.72694,284.365113 2541.25301,292.712404 C2557.00198,257.519857 2592.32503,233 2633.375,233 C2689.08672,233 2734.25,278.163276 2734.25,333.875 C2734.25,335.865657 2734.19234,337.842847 2734.07859,339.80499 Z" id="Oval-22" fill="url(#linearGradient-6)" filter="url(#filter-7)"></path>
                    </g>
                </g>
            </g>
            <g id="Group-Copy-8" transform="translate(3964.000000, 510.500000) scale(-1, -1) translate(-3964.000000, -510.500000) translate(2642.000000, 0.000000)">
                <mask id="mask-9" sketch:name="Mask" fill="white">
                    <use xlink:href="#path-8"></use>
                </mask>
                <use id="Mask" sketch:type="MSShapeGroup" xlink:href="#path-8"></use>
                <g id="Group-Copy-2" mask="url(#mask-9)" sketch:type="MSShapeGroup">
                    <g transform="translate(-191.000000, 305.000000)">
                        <path d="M2391.0786,182.804991 C2468.35267,187.74121 2529.5,251.979743 2529.5,330.5 C2529.5,335.735951 2529.2281,340.908398 2528.69766,346.00399 C2528.96479,346.001332 2529.23224,346 2529.5,346 C2573.1305,346 2608.5,381.369505 2608.5,425 C2608.5,455.092852 2591.67421,481.255831 2566.91722,494.594359 L2566.91722,494.594359 C2579.29822,516.228337 2586.375,541.287733 2586.375,568 C2586.375,645.485534 2526.82862,709.063267 2451,715.469073 L2451,715.469073 L2451,716 L2017.5,716 L1658.5,716 L93,716 L92.9999846,715.955873 C55.774158,714.639702 26,684.046915 26,646.5 C26,639.58748 27.0091686,632.910665 28.8882129,626.608846 C10.9518532,607.108737 0,581.08334 0,552.5 C0,510.47494 23.6743657,473.979324 58.4139341,455.622316 C46.983136,443.236192 40,426.683595 40,408.5 C40,381.386258 55.5263684,357.898894 78.1731277,346.443886 C78.0583548,344.810844 78,343.162237 78,341.5 C78,303.11621 109.11621,272 147.5,272 C158.159864,272 168.259199,274.399906 177.287179,278.688891 C182.633042,182.970266 261.944618,107 359,107 C446.280548,107 519.211407,168.438319 536.904276,250.426653 C551.039786,237.139836 570.069313,229 591,229 C634.630495,229 670,264.369505 670,308 C670,310.069853 669.920397,312.121114 669.764086,314.150889 L669.764086,314.150889 C693.061561,315.631204 713.429599,327.892161 725.93444,346 L741.731515,346 L741.731515,346 C750.190494,316.548766 777.328755,295 809.5,295 C836.906484,295 860.660416,310.638436 872.325122,333.478636 C872.109788,330.847561 872,328.186601 872,325.5 C872,272.204522 915.204522,229 968.5,229 C1014.47876,229 1052.94707,261.156077 1062.6428,304.206104 L1062.6428,304.206104 C1072.92316,298.34717 1084.82069,295 1097.5,295 C1129.67124,295 1156.80951,316.548766 1165.26849,346 L1165.26849,346 L1206.69463,346 L1206.69463,346 C1202.99836,334.667034 1201,322.566888 1201,310 C1201,245.934969 1252.93497,194 1317,194 C1378.16131,194 1428.26722,241.333798 1432.68363,301.367301 C1449.11021,305.740061 1463.17863,315.895491 1472.57606,329.520767 C1495.01304,276.33267 1547.64676,239 1609,239 C1619.27624,239 1629.30787,240.047328 1638.99396,242.041066 C1645.49431,198.442407 1683.09171,165 1728.5,165 C1732.82687,165 1737.08282,165.303651 1741.2477,165.890807 C1749.6369,73.1591576 1827.58322,0.5 1922.5,0.5 C2009.78055,0.5 2082.71141,61.9383187 2100.40428,143.926653 L2100.40428,143.926653 C2114.53979,130.639836 2133.56931,122.5 2154.5,122.5 C2170.68162,122.5 2185.72694,127.365113 2198.25301,135.712404 C2214.00198,100.519857 2249.32503,76 2290.375,76 C2346.08672,76 2391.25,121.163276 2391.25,176.875 C2391.25,178.865657 2391.19234,180.842847 2391.07859,182.80499 Z" id="Oval-22-Copy-23" fill="url(#linearGradient-3)" filter="url(#filter-10)"></path>
                        <path d="M2933.0786,182.804991 C3010.35267,187.74121 3071.5,251.979743 3071.5,330.5 C3071.5,335.735951 3071.2281,340.908398 3070.69766,346.00399 C3070.96479,346.001332 3071.23224,346 3071.5,346 C3115.1305,346 3150.5,381.369505 3150.5,425 C3150.5,455.092852 3133.67421,481.255831 3108.91722,494.594359 L3108.91722,494.594359 C3121.29822,516.228337 3128.375,541.287733 3128.375,568 C3128.375,645.485534 3068.82862,709.063267 2993,715.469073 L2993,715.469073 L2993,716 L2559.5,716 L2208,716 L2208,619.812559 L2208,716 L635,716 L634.999985,715.955873 C597.774158,714.639702 568,684.046915 568,646.5 C568,639.58748 569.009169,632.910665 570.888213,626.608846 C552.951853,607.108737 542,581.08334 542,552.5 C542,510.47494 565.674366,473.979324 600.413934,455.622316 C588.983136,443.236192 582,426.683595 582,408.5 C582,381.386258 597.526368,357.898894 620.173128,346.443886 C620.058355,344.810844 620,343.162237 620,341.5 C620,303.11621 651.11621,272 689.5,272 C700.159864,272 710.259199,274.399906 719.287179,278.688891 C724.633042,182.970266 803.944618,107 901,107 C988.280548,107 1061.21141,168.438319 1078.90428,250.426653 C1093.03979,237.139836 1112.06931,229 1133,229 C1176.6305,229 1212,264.369505 1212,308 C1212,310.069853 1211.9204,312.121114 1211.76409,314.150889 L1211.76409,314.150889 C1235.06156,315.631204 1255.4296,327.892161 1267.93444,346 L1285.56489,346 L1285.5649,346.000002 C1281.98184,337.549958 1280,328.256421 1280,318.5 C1280,279.563925 1311.56393,248 1350.5,248 C1382.30709,248 1409.19449,269.063696 1417.97408,298.002961 C1429.81354,258.1035 1466.75803,229 1510.5,229 C1556.47876,229 1594.94707,261.156077 1604.6428,304.206104 L1604.6428,304.206104 C1614.92316,298.34717 1626.82069,295 1639.5,295 C1656.09632,295 1671.35324,300.734697 1683.39727,310.33062 L1683.39727,310.33062 C1688.31069,250.789784 1738.19117,204 1799,204 C1848.5666,204 1890.87215,235.088232 1907.48175,278.829791 C1920.16857,266.554057 1937.45211,259 1956.5,259 C1988.79926,259 2016.0254,280.720602 2024.36858,310.351954 C2050.3139,267.579062 2097.31945,239 2151,239 C2161.27624,239 2171.30787,240.047328 2180.99396,242.041066 C2187.49431,198.442407 2225.09171,165 2270.5,165 C2274.82687,165 2279.08282,165.303651 2283.2477,165.890807 C2291.6369,73.1591576 2369.58322,0.5 2464.5,0.5 C2551.78055,0.5 2624.71141,61.9383187 2642.40428,143.926653 L2642.40428,143.926653 C2656.53979,130.639836 2675.56931,122.5 2696.5,122.5 C2712.68162,122.5 2727.72694,127.365113 2740.25301,135.712404 C2756.00198,100.519857 2791.32503,76 2832.375,76 C2888.08672,76 2933.25,121.163276 2933.25,176.875 C2933.25,178.865657 2933.19234,180.842847 2933.07859,182.80499 Z M1416.18193,346 L1415.43511,346 C1415.60381,345.602148 1415.76897,345.202425 1415.93053,344.800873 C1416.01185,345.201489 1416.09566,345.601203 1416.18193,346 L1416.18193,346 Z" id="Oval-22-Copy-26" fill="#FFFFFF" filter="url(#filter-11)"></path>
                        <path d="M2734.0786,339.804991 C2811.35267,344.74121 2872.5,408.979743 2872.5,487.5 C2872.5,492.735951 2872.2281,497.908398 2871.69766,503.00399 C2871.96479,503.001332 2872.23224,503 2872.5,503 C2916.1305,503 2951.5,538.369505 2951.5,582 C2951.5,612.092852 2934.67421,638.255831 2909.91722,651.594359 L2909.91722,651.594359 C2922.29822,673.228337 2929.375,698.287733 2929.375,725 C2929.375,802.485534 2869.82862,866.063267 2794,872.469073 L2794,872.469073 L2794,873 L2360.5,873 L2009,873 L2009,776.812559 L2009,776.812559 L2009,873 L436,873 L435.999985,872.955873 C398.774158,871.639702 369,841.046915 369,803.5 C369,794.676902 370.644119,786.237809 373.642699,778.472377 C354.668607,758.782348 343,732.003848 343,702.5 C343,662.116745 364.860712,626.839333 397.393808,607.856092 C388.367465,596.130092 383,581.441865 383,565.5 C383,538.386258 398.526368,514.898894 421.173128,503.443886 C421.058355,501.810844 421,500.162237 421,498.5 C421,460.11621 452.11621,429 490.5,429 C501.159864,429 511.259199,431.399906 520.287179,435.688891 C525.633042,339.970266 604.944618,264 702,264 C789.280548,264 862.211407,325.438319 879.904276,407.426653 C894.039786,394.139836 913.069313,386 934,386 C977.630495,386 1013,421.369505 1013,465 C1013,467.069853 1012.9204,469.121114 1012.76409,471.150889 L1012.76409,471.150889 C1036.06156,472.631204 1056.4296,484.892161 1068.93444,503 L1084.73151,503 L1084.73151,503 C1093.19049,473.548766 1120.32876,452 1152.5,452 C1179.90648,452 1203.66042,467.638436 1215.32512,490.478636 C1215.10979,487.847561 1215,485.186601 1215,482.5 C1215,429.204522 1258.20452,386 1311.5,386 C1357.47876,386 1395.94707,418.156077 1405.6428,461.206104 L1405.6428,461.206104 C1415.92316,455.34717 1427.82069,452 1440.5,452 C1457.09632,452 1472.35324,457.734697 1484.39727,467.33062 L1484.39727,467.33062 C1489.31069,407.789784 1539.19117,361 1600,361 C1649.5666,361 1691.87215,392.088232 1708.48175,435.829791 C1721.16857,423.554057 1738.45211,416 1757.5,416 C1789.79926,416 1817.0254,437.720602 1825.36858,467.351954 C1851.3139,424.579062 1898.31945,396 1952,396 C1962.27624,396 1972.30787,397.047328 1981.99396,399.041066 C1988.49431,355.442407 2026.09171,322 2071.5,322 C2075.82687,322 2080.08282,322.303651 2084.2477,322.890807 C2092.6369,230.159158 2170.58322,157.5 2265.5,157.5 C2352.78055,157.5 2425.71141,218.938319 2443.40428,300.926653 L2443.40428,300.926653 C2457.53979,287.639836 2476.56931,279.5 2497.5,279.5 C2513.68162,279.5 2528.72694,284.365113 2541.25301,292.712404 C2557.00198,257.519857 2592.32503,233 2633.375,233 C2689.08672,233 2734.25,278.163276 2734.25,333.875 C2734.25,335.865657 2734.19234,337.842847 2734.07859,339.80499 Z" id="Oval-22" fill="url(#linearGradient-6)" filter="url(#filter-12)"></path>
                    </g>
                </g>
            </g>
            <g id="Group-Copy-9" transform="translate(5515.000000, 510.500000) scale(-1, -1) translate(-5515.000000, -510.500000) translate(4193.000000, 0.000000)">
                <mask id="mask-14" sketch:name="Mask" fill="white">
                    <use xlink:href="#path-13"></use>
                </mask>
                <use id="Mask" sketch:type="MSShapeGroup" xlink:href="#path-13"></use>
                <g id="Group-Copy-2" mask="url(#mask-14)" sketch:type="MSShapeGroup">
                    <g transform="translate(-193.000000, 305.000000)">
                        <path d="M2391.0786,182.804991 C2468.35267,187.74121 2529.5,251.979743 2529.5,330.5 C2529.5,335.735951 2529.2281,340.908398 2528.69766,346.00399 C2528.96479,346.001332 2529.23224,346 2529.5,346 C2573.1305,346 2608.5,381.369505 2608.5,425 C2608.5,455.092852 2591.67421,481.255831 2566.91722,494.594359 L2566.91722,494.594359 C2579.29822,516.228337 2586.375,541.287733 2586.375,568 C2586.375,645.485534 2526.82862,709.063267 2451,715.469073 L2451,715.469073 L2451,716 L2017.5,716 L1658.5,716 L93,716 L92.9999846,715.955873 C55.774158,714.639702 26,684.046915 26,646.5 C26,639.58748 27.0091686,632.910665 28.8882129,626.608846 C10.9518532,607.108737 0,581.08334 0,552.5 C0,510.47494 23.6743657,473.979324 58.4139341,455.622316 C46.983136,443.236192 40,426.683595 40,408.5 C40,381.386258 55.5263684,357.898894 78.1731277,346.443886 C78.0583548,344.810844 78,343.162237 78,341.5 C78,303.11621 109.11621,272 147.5,272 C158.159864,272 168.259199,274.399906 177.287179,278.688891 C182.633042,182.970266 261.944618,107 359,107 C446.280548,107 519.211407,168.438319 536.904276,250.426653 C551.039786,237.139836 570.069313,229 591,229 C634.630495,229 670,264.369505 670,308 C670,310.069853 669.920397,312.121114 669.764086,314.150889 L669.764086,314.150889 C693.061561,315.631204 713.429599,327.892161 725.93444,346 L741.731515,346 L741.731515,346 C750.190494,316.548766 777.328755,295 809.5,295 C836.906484,295 860.660416,310.638436 872.325122,333.478636 C872.109788,330.847561 872,328.186601 872,325.5 C872,272.204522 915.204522,229 968.5,229 C1014.47876,229 1052.94707,261.156077 1062.6428,304.206104 L1062.6428,304.206104 C1072.92316,298.34717 1084.82069,295 1097.5,295 C1114.09632,295 1129.35324,300.734697 1141.39727,310.33062 L1141.39727,310.33062 C1146.31069,250.789784 1196.19117,204 1257,204 C1306.5666,204 1348.87215,235.088232 1365.48175,278.829791 C1378.16857,266.554057 1395.45211,259 1414.5,259 C1446.79926,259 1474.0254,280.720602 1482.36858,310.351954 C1508.3139,267.579062 1555.31945,239 1609,239 C1619.27624,239 1629.30787,240.047328 1638.99396,242.041066 C1645.49431,198.442407 1683.09171,165 1728.5,165 C1732.82687,165 1737.08282,165.303651 1741.2477,165.890807 C1749.6369,73.1591576 1827.58322,0.5 1922.5,0.5 C2009.78055,0.5 2082.71141,61.9383187 2100.40428,143.926653 L2100.40428,143.926653 C2114.53979,130.639836 2133.56931,122.5 2154.5,122.5 C2170.68162,122.5 2185.72694,127.365113 2198.25301,135.712404 C2214.00198,100.519857 2249.32503,76 2290.375,76 C2346.08672,76 2391.25,121.163276 2391.25,176.875 C2391.25,178.865657 2391.19234,180.842847 2391.07859,182.80499 Z" id="Oval-22-Copy-23" fill="url(#linearGradient-3)" filter="url(#filter-15)"></path>
                        <path d="M3039.86262,352.589832 C3049.54938,348.351515 3060.25008,346 3071.5,346 C3115.1305,346 3150.5,381.369505 3150.5,425 C3150.5,455.092852 3133.67421,481.255831 3108.91722,494.594359 L3108.91722,494.594359 C3121.29822,516.228337 3128.375,541.287733 3128.375,568 C3128.375,645.485534 3068.82862,709.063267 2993,715.469073 L2993,715.469073 L2993,716 L2559.5,716 L2208,716 L2208,619.812559 L2208,716 L635,716 L634.999985,715.955873 C597.774158,714.639702 568,684.046915 568,646.5 C568,639.58748 569.009169,632.910665 570.888213,626.608846 C552.951853,607.108737 542,581.08334 542,552.5 C542,510.47494 565.674366,473.979324 600.413934,455.622316 C588.983136,443.236192 582,426.683595 582,408.5 C582,381.386258 597.526368,357.898894 620.173128,346.443886 C620.058355,344.810844 620,343.162237 620,341.5 C620,303.11621 651.11621,272 689.5,272 C700.159864,272 710.259199,274.399906 719.287179,278.688891 C724.633042,182.970266 803.944618,107 901,107 C988.280548,107 1061.21141,168.438319 1078.90428,250.426653 C1093.03979,237.139836 1112.06931,229 1133,229 C1176.6305,229 1212,264.369505 1212,308 C1212,310.069853 1211.9204,312.121114 1211.76409,314.150889 L1211.76409,314.150889 C1235.06156,315.631204 1255.4296,327.892161 1267.93444,346 L1283.73151,346 L1283.73151,346 C1292.19049,316.548766 1319.32876,295 1351.5,295 C1378.90648,295 1402.66042,310.638436 1414.32512,333.478636 C1414.10979,330.847561 1414,328.186601 1414,325.5 C1414,272.204522 1457.20452,229 1510.5,229 C1556.47876,229 1594.94707,261.156077 1604.6428,304.206104 L1604.6428,304.206104 C1614.92316,298.34717 1626.82069,295 1639.5,295 C1656.09632,295 1671.35324,300.734697 1683.39727,310.33062 L1683.39727,310.33062 C1688.31069,250.789784 1738.19117,204 1799,204 C1848.5666,204 1890.87215,235.088232 1907.48175,278.829791 C1920.16857,266.554057 1937.45211,259 1956.5,259 C1988.79926,259 2016.0254,280.720602 2024.36858,310.351954 C2050.3139,267.579062 2097.31945,239 2151,239 C2161.27624,239 2171.30787,240.047328 2180.99396,242.041066 C2187.49431,198.442407 2225.09171,165 2270.5,165 C2274.82687,165 2279.08282,165.303651 2283.2477,165.890807 C2291.6369,73.1591576 2369.58322,0.5 2464.5,0.5 C2562.23481,0.5 2641.97651,77.5376293 2646.3142,174.201974 L2646.3142,174.201974 C2659.4603,148.834256 2685.95583,131.5 2716.5,131.5 C2760.1305,131.5 2795.5,166.869505 2795.5,210.5 C2795.5,213.751712 2795.30354,216.957538 2794.92184,220.106257 C2821.09522,196.718026 2855.63721,182.5 2893.5,182.5 C2975.23814,182.5 3041.5,248.761857 3041.5,330.5 C3041.5,338.006931 3040.94109,345.383322 3039.86262,352.589832 Z" id="Oval-22-Copy-26" fill="#FFFFFF" filter="url(#filter-16)"></path>
                        <path d="M2734.0786,339.804991 C2811.35267,344.74121 2872.5,408.979743 2872.5,487.5 C2872.5,492.735951 2872.2281,497.908398 2871.69766,503.00399 C2871.96479,503.001332 2872.23224,503 2872.5,503 C2916.1305,503 2951.5,538.369505 2951.5,582 C2951.5,612.092852 2934.67421,638.255831 2909.91722,651.594359 L2909.91722,651.594359 C2922.29822,673.228337 2929.375,698.287733 2929.375,725 C2929.375,802.485534 2869.82862,866.063267 2794,872.469073 L2794,872.469073 L2794,873 L2360.5,873 L2009,873 L2009,776.812559 L2009,776.812559 L2009,873 L436,873 L435.999985,872.955873 C398.774158,871.639702 369,841.046915 369,803.5 C369,794.676902 370.644119,786.237809 373.642699,778.472377 C354.668607,758.782348 343,732.003848 343,702.5 C343,662.116745 364.860712,626.839333 397.393808,607.856092 C388.367465,596.130092 383,581.441865 383,565.5 C383,538.386258 398.526368,514.898894 421.173128,503.443886 C421.058355,501.810844 421,500.162237 421,498.5 C421,460.11621 452.11621,429 490.5,429 C501.159864,429 511.259199,431.399906 520.287179,435.688891 C525.633042,339.970266 604.944618,264 702,264 C789.280548,264 862.211407,325.438319 879.904276,407.426653 C894.039786,394.139836 913.069313,386 934,386 C977.630495,386 1013,421.369505 1013,465 C1013,467.069853 1012.9204,469.121114 1012.76409,471.150889 L1012.76409,471.150889 C1036.06156,472.631204 1056.4296,484.892161 1068.93444,503 L1084.73151,503 L1084.73151,503 C1093.19049,473.548766 1120.32876,452 1152.5,452 C1179.90648,452 1203.66042,467.638436 1215.32512,490.478636 C1215.10979,487.847561 1215,485.186601 1215,482.5 C1215,429.204522 1258.20452,386 1311.5,386 C1357.47876,386 1395.94707,418.156077 1405.6428,461.206104 L1405.6428,461.206104 C1415.92316,455.34717 1427.82069,452 1440.5,452 C1457.09632,452 1472.35324,457.734697 1484.39727,467.33062 L1484.39727,467.33062 C1489.31069,407.789784 1539.19117,361 1600,361 C1649.5666,361 1691.87215,392.088232 1708.48175,435.829791 C1721.16857,423.554057 1738.45211,416 1757.5,416 C1789.79926,416 1817.0254,437.720602 1825.36858,467.351954 C1851.3139,424.579062 1898.31945,396 1952,396 C1962.27624,396 1972.30787,397.047328 1981.99396,399.041066 C1988.49431,355.442407 2026.09171,322 2071.5,322 C2075.82687,322 2080.08282,322.303651 2084.2477,322.890807 C2092.6369,230.159158 2170.58322,157.5 2265.5,157.5 C2352.78055,157.5 2425.71141,218.938319 2443.40428,300.926653 L2443.40428,300.926653 C2457.53979,287.639836 2476.56931,279.5 2497.5,279.5 C2513.68162,279.5 2528.72694,284.365113 2541.25301,292.712404 C2557.00198,257.519857 2592.32503,233 2633.375,233 C2689.08672,233 2734.25,278.163276 2734.25,333.875 C2734.25,335.865657 2734.19234,337.842847 2734.07859,339.80499 Z" id="Oval-22" fill="url(#linearGradient-6)" filter="url(#filter-17)"></path>
                    </g>
                </g>
            </g>
        </g>
    </g>
</svg>