<?xml version="1.0" encoding="UTF-8" standalone="no"?>
<svg width="7943px" height="1078px" viewBox="0 0 7943 1078" version="1.1" xmlns="http://www.w3.org/2000/svg" xmlns:xlink="http://www.w3.org/1999/xlink" xmlns:sketch="http://www.bohemiancoding.com/sketch/ns">
    <!-- Generator: Sketch 3.3.3 (12072) - http://www.bohemiancoding.com/sketch -->
    <title>Slice 2</title>
    <desc>Created with Sketch.</desc>
    <defs>
        <linearGradient x1="50%" y1="-63.1782234%" x2="50%" y2="106.268562%" id="linearGradient-1">
            <stop stop-color="#FFFFFF" offset="0%"></stop>
            <stop stop-color="#D9ABB7" offset="100%"></stop>
        </linearGradient>
        <linearGradient x1="51.6354737%" y1="20.2136864%" x2="50%" y2="106.268562%" id="linearGradient-2">
            <stop stop-color="#FFFFFF" offset="0%"></stop>
            <stop stop-color="#D9ABB7" offset="100%"></stop>
        </linearGradient>
        <linearGradient x1="50%" y1="33.4075821%" x2="50%" y2="100%" id="linearGradient-3">
            <stop stop-color="#FFFFFF" offset="0%"></stop>
            <stop stop-color="#D9BDC4" offset="100%"></stop>
        </linearGradient>
        <linearGradient x1="50%" y1="39.6095388%" x2="50%" y2="106.268562%" id="linearGradient-4">
            <stop stop-color="#FFFFFF" offset="0%"></stop>
            <stop stop-color="#D9ABB7" offset="100%"></stop>
        </linearGradient>
    </defs>
    <g id="Page-1" stroke="none" stroke-width="1" fill="none" fill-rule="evenodd" sketch:type="MSPage">
        <g id="Group" sketch:type="MSLayerGroup" transform="translate(-327.000000, -214.000000)">
            <g transform="translate(4480.000000, 634.500000) scale(1, -1) translate(-4480.000000, -634.500000) " sketch:type="MSShapeGroup">
                <path d="M5335.5786,289.804991 C5412.85267,294.74121 5474,358.979743 5474,437.5 C5474,442.735951 5473.7281,447.908398 5473.19766,453.00399 C5473.46479,453.001332 5473.73224,453 5474,453 C5517.6305,453 5553,488.369505 5553,532 C5553,562.092852 5536.17421,588.255831 5511.41722,601.594359 L5511.41722,601.594359 C5523.79822,623.228337 5530.875,648.287733 5530.875,675 C5530.875,752.485534 5471.32862,816.063267 5395.5,822.469073 L5395.5,822.469073 L5395.5,823 L4962,823 L4598,823 L4598,823 L3037.5,823 L3037.49998,822.955873 C3000.27416,821.639702 2970.5,791.046915 2970.5,753.5 C2970.5,746.58748 2971.50917,739.910665 2973.38821,733.608846 C2955.45185,714.108737 2944.5,688.08334 2944.5,659.5 C2944.5,617.47494 2968.17437,580.979324 3002.91393,562.622316 C2991.48314,550.236192 2984.5,533.683595 2984.5,515.5 C2984.5,488.386258 3000.02637,464.898894 3022.67313,453.443886 C3022.55835,451.810844 3022.5,450.162237 3022.5,448.5 C3022.5,410.11621 3053.61621,379 3092,379 C3102.65986,379 3112.7592,381.399906 3121.78718,385.688891 C3127.13304,289.970266 3206.44462,214 3303.5,214 C3390.78055,214 3463.71141,275.438319 3481.40428,357.426653 C3495.53979,344.139836 3514.56931,336 3535.5,336 C3579.1305,336 3614.5,371.369505 3614.5,415 C3614.5,417.069853 3614.4204,419.121114 3614.26409,421.150889 L3614.26409,421.150889 C3637.56156,422.631204 3657.9296,434.892161 3670.43444,453 L3686.23151,453 L3686.23151,453 C3694.69049,423.548766 3721.82876,402 3754,402 C3781.40648,402 3805.16042,417.638436 3816.82512,440.478636 C3816.60979,437.847561 3816.5,435.186601 3816.5,432.5 C3816.5,379.204522 3859.70452,336 3913,336 C3958.97876,336 3997.44707,368.156077 4007.1428,411.206104 L4007.1428,411.206104 C4017.42316,405.34717 4029.32069,402 4042,402 C4058.59632,402 4073.85324,407.734697 4085.89727,417.33062 L4085.89727,417.33062 C4090.81069,357.789784 4140.69117,311 4201.5,311 C4251.0666,311 4293.37215,342.088232 4309.98175,385.829791 C4322.66857,373.554057 4339.95211,366 4359,366 C4391.29926,366 4418.5254,387.720602 4426.86858,417.351954 C4452.8139,374.579062 4499.81945,346 4553.5,346 C4563.77624,346 4573.80787,347.047328 4583.49396,349.041066 C4583.98707,345.733684 4584.65914,342.484749 4585.5,339.304425 L4585.5,327 L4589.72807,327 C4603.5312,294.663725 4635.6189,272 4673,272 C4677.32687,272 4681.58282,272.303651 4685.7477,272.890807 C4694.1369,180.159158 4772.08322,107.5 4867,107.5 C4954.28055,107.5 5027.21141,168.938319 5044.90428,250.926653 L5044.90428,250.926653 C5059.03979,237.639836 5078.06931,229.5 5099,229.5 C5115.18162,229.5 5130.22694,234.365113 5142.75301,242.712404 C5158.50198,207.519857 5193.82503,183 5234.875,183 C5290.58672,183 5335.75,228.163276 5335.75,283.875 C5335.75,285.865657 5335.69234,287.842847 5335.57859,289.80499 Z" id="Oval-22-Copy-56" fill="url(#linearGradient-1)"></path>
                <path d="M7914.5786,182.554991 C7991.85267,187.49121 8053,251.729743 8053,330.25 C8053,335.485951 8052.7281,340.658398 8052.19766,345.75399 C8052.46479,345.751332 8052.73224,345.75 8053,345.75 C8096.6305,345.75 8132,381.119505 8132,424.75 C8132,454.842852 8115.17421,481.005831 8090.41722,494.344359 L8090.41722,494.344359 C8102.79822,515.978337 8109.875,541.037733 8109.875,567.75 C8109.875,645.235534 8050.32862,708.813267 7974.5,715.219073 L7974.5,715.219073 L7974.5,715.75 L7541,715.75 L7177,715.75 L7177,715.75 L5616.5,715.75 L5616.49998,715.705873 C5579.27416,714.389702 5549.5,683.796915 5549.5,646.25 C5549.5,639.33748 5550.50917,632.660665 5552.38821,626.358846 C5534.45185,606.858737 5523.5,580.83334 5523.5,552.25 C5523.5,510.22494 5547.17437,473.729324 5581.91393,455.372316 C5570.48314,442.986192 5563.5,426.433595 5563.5,408.25 C5563.5,381.136258 5579.02637,357.648894 5601.67313,346.193886 C5601.55835,344.560844 5601.5,342.912237 5601.5,341.25 C5601.5,302.86621 5632.61621,271.75 5671,271.75 C5681.65986,271.75 5691.7592,274.149906 5700.78718,278.438891 C5706.13304,182.720266 5785.44462,106.75 5882.5,106.75 C5969.78055,106.75 6042.71141,168.188319 6060.40428,250.176653 C6074.53979,236.889836 6093.56931,228.75 6114.5,228.75 C6158.1305,228.75 6193.5,264.119505 6193.5,307.75 C6193.5,309.819853 6193.4204,311.871114 6193.26409,313.900889 L6193.26409,313.900889 C6216.56156,315.381204 6236.9296,327.642161 6249.43444,345.75 L6265.23151,345.75 L6265.23151,345.75 C6273.69049,316.298766 6300.82876,294.75 6333,294.75 C6360.40648,294.75 6384.16042,310.388436 6395.82512,333.228636 C6395.60979,330.597561 6395.5,327.936601 6395.5,325.25 C6395.5,271.954522 6438.70452,228.75 6492,228.75 C6537.97876,228.75 6576.44707,260.906077 6586.1428,303.956104 L6586.1428,303.956104 C6596.42316,298.09717 6608.32069,294.75 6621,294.75 C6637.59632,294.75 6652.85324,300.484697 6664.89727,310.08062 L6664.89727,310.08062 C6669.81069,250.539784 6719.69117,203.75 6780.5,203.75 C6830.0666,203.75 6872.37215,234.838232 6888.98175,278.579791 C6901.66857,266.304057 6918.95211,258.75 6938,258.75 C6970.29926,258.75 6997.5254,280.470602 7005.86858,310.101954 C7031.8139,267.329062 7078.81945,238.75 7132.5,238.75 C7142.77624,238.75 7152.80787,239.797328 7162.49396,241.791066 C7162.98707,238.483684 7163.65914,235.234749 7164.5,232.054425 L7164.5,219.75 L7168.72807,219.75 C7182.5312,187.413725 7214.6189,164.75 7252,164.75 C7256.32687,164.75 7260.58282,165.053651 7264.7477,165.640807 C7273.1369,72.9091576 7351.08322,0.25 7446,0.25 C7533.28055,0.25 7606.21141,61.6883187 7623.90428,143.676653 L7623.90428,143.676653 C7638.03979,130.389836 7657.06931,122.25 7678,122.25 C7694.18162,122.25 7709.22694,127.115113 7721.75301,135.462404 C7737.50198,100.269857 7772.82503,75.75 7813.875,75.75 C7869.58672,75.75 7914.75,120.913276 7914.75,176.625 C7914.75,178.615657 7914.69234,180.592847 7914.57859,182.55499 Z" id="Oval-22-Copy-60" fill="url(#linearGradient-1)"></path>
                <path d="M2920.5786,317.554991 C2997.85267,322.49121 3059,386.729743 3059,465.25 C3059,470.485951 3058.7281,475.658398 3058.19766,480.75399 C3058.46479,480.751332 3058.73224,480.75 3059,480.75 C3102.6305,480.75 3138,516.119505 3138,559.75 C3138,589.842852 3121.17421,616.005831 3096.41722,629.344359 L3096.41722,629.344359 C3108.79822,650.978337 3115.875,676.037733 3115.875,702.75 C3115.875,780.235534 3056.32862,843.813267 2980.5,850.219073 L2980.5,850.219073 L2980.5,850.75 L2547,850.75 L2183,850.75 L2183,850.75 L622.5,850.75 L622.499985,850.705873 C585.274158,849.389702 555.5,818.796915 555.5,781.25 C555.5,774.33748 556.509169,767.660665 558.388213,761.358846 C540.451853,741.858737 529.5,715.83334 529.5,687.25 C529.5,645.22494 553.174366,608.729324 587.913934,590.372316 C576.483136,577.986192 569.5,561.433595 569.5,543.25 C569.5,516.136258 585.026368,492.648894 607.673128,481.193886 C607.558355,479.560844 607.5,477.912237 607.5,476.25 C607.5,437.86621 638.61621,406.75 677,406.75 C687.659864,406.75 697.759199,409.149906 706.787179,413.438891 C712.133042,317.720266 791.444618,241.75 888.5,241.75 C975.780548,241.75 1048.71141,303.188319 1066.40428,385.176653 C1080.53979,371.889836 1099.56931,363.75 1120.5,363.75 C1164.1305,363.75 1199.5,399.119505 1199.5,442.75 C1199.5,444.819853 1199.4204,446.871114 1199.26409,448.900889 L1199.26409,448.900889 C1222.56156,450.381204 1242.9296,462.642161 1255.43444,480.75 L1271.23151,480.75 L1271.23151,480.75 C1279.69049,451.298766 1306.82876,429.75 1339,429.75 C1366.40648,429.75 1390.16042,445.388436 1401.82512,468.228636 C1401.60979,465.597561 1401.5,462.936601 1401.5,460.25 C1401.5,406.954522 1444.70452,363.75 1498,363.75 C1543.97876,363.75 1582.44707,395.906077 1592.1428,438.956104 L1592.1428,438.956104 C1602.42316,433.09717 1614.32069,429.75 1627,429.75 C1643.59632,429.75 1658.85324,435.484697 1670.89727,445.08062 L1670.89727,445.08062 C1675.81069,385.539784 1725.69117,338.75 1786.5,338.75 C1836.0666,338.75 1878.37215,369.838232 1894.98175,413.579791 C1907.66857,401.304057 1924.95211,393.75 1944,393.75 C1976.29926,393.75 2003.5254,415.470602 2011.86858,445.101954 C2037.8139,402.329062 2084.81945,373.75 2138.5,373.75 C2148.77624,373.75 2158.80787,374.797328 2168.49396,376.791066 C2168.98707,373.483684 2169.65914,370.234749 2170.5,367.054425 L2170.5,354.75 L2174.72807,354.75 C2188.5312,322.413725 2220.6189,299.75 2258,299.75 C2262.32687,299.75 2266.58282,300.053651 2270.7477,300.640807 C2279.1369,207.909158 2357.08322,135.25 2452,135.25 C2539.28055,135.25 2612.21141,196.688319 2629.90428,278.676653 L2629.90428,278.676653 C2644.03979,265.389836 2663.06931,257.25 2684,257.25 C2700.18162,257.25 2715.22694,262.115113 2727.75301,270.462404 C2743.50198,235.269857 2778.82503,210.75 2819.875,210.75 C2875.58672,210.75 2920.75,255.913276 2920.75,311.625 C2920.75,313.615657 2920.69234,315.592847 2920.57859,317.55499 Z" id="Oval-22-Copy-57" fill="url(#linearGradient-1)"></path>
                <path d="M2604.3286,540.304991 C2681.60267,545.24121 2742.75,609.479743 2742.75,688 C2742.75,693.235951 2742.4781,698.408398 2741.94766,703.50399 C2742.21479,703.501332 2742.48224,703.5 2742.75,703.5 C2786.3805,703.5 2821.75,738.869505 2821.75,782.5 C2821.75,812.592852 2804.92421,838.755831 2780.16722,852.094359 L2780.16722,852.094359 C2792.54822,873.728337 2799.625,898.787733 2799.625,925.5 C2799.625,1002.98553 2740.07862,1066.56327 2664.25,1072.96907 L2664.25,1072.96907 L2664.25,1073.5 L2230.75,1073.5 L1866.75,1073.5 L1866.75,1073.5 L306.25,1073.5 L306.249985,1073.45587 C269.024158,1072.1397 239.25,1041.54691 239.25,1004 C239.25,997.08748 240.259169,990.410665 242.138213,984.108846 C224.201853,964.608737 213.25,938.58334 213.25,910 C213.25,867.97494 236.924366,831.479324 271.663934,813.122316 C260.233136,800.736192 253.25,784.183595 253.25,766 C253.25,738.886258 268.776368,715.398894 291.423128,703.943886 C291.308355,702.310844 291.25,700.662237 291.25,699 C291.25,660.61621 322.36621,629.5 360.75,629.5 C371.409864,629.5 381.509199,631.899906 390.537179,636.188891 C395.883042,540.470266 475.194618,464.5 572.25,464.5 C659.530548,464.5 732.461407,525.938319 750.154276,607.926653 C764.289786,594.639836 783.319313,586.5 804.25,586.5 C847.880495,586.5 883.25,621.869505 883.25,665.5 C883.25,667.569853 883.170397,669.621114 883.014086,671.650889 L883.014086,671.650889 C906.311561,673.131204 926.679599,685.392161 939.18444,703.5 L954.981515,703.5 L954.981515,703.5 C963.440494,674.048766 990.578755,652.5 1022.75,652.5 C1050.15648,652.5 1073.91042,668.138436 1085.57512,690.978636 C1085.35979,688.347561 1085.25,685.686601 1085.25,683 C1085.25,629.704522 1128.45452,586.5 1181.75,586.5 C1227.72876,586.5 1266.19707,618.656077 1275.8928,661.706104 L1275.8928,661.706104 C1286.17316,655.84717 1298.07069,652.5 1310.75,652.5 C1327.34632,652.5 1342.60324,658.234697 1354.64727,667.83062 L1354.64727,667.83062 C1359.56069,608.289784 1409.44117,561.5 1470.25,561.5 C1519.8166,561.5 1562.12215,592.588232 1578.73175,636.329791 C1591.41857,624.054057 1608.70211,616.5 1627.75,616.5 C1660.04926,616.5 1687.2754,638.220602 1695.61858,667.851954 C1721.5639,625.079062 1768.56945,596.5 1822.25,596.5 C1832.52624,596.5 1842.55787,597.547328 1852.24396,599.541066 C1852.73707,596.233684 1853.40914,592.984749 1854.25,589.804425 L1854.25,577.5 L1858.47807,577.5 C1872.2812,545.163725 1904.3689,522.5 1941.75,522.5 C1946.07687,522.5 1950.33282,522.803651 1954.4977,523.390807 C1962.8869,430.659158 2040.83322,358 2135.75,358 C2223.03055,358 2295.96141,419.438319 2313.65428,501.426653 L2313.65428,501.426653 C2327.78979,488.139836 2346.81931,480 2367.75,480 C2383.93162,480 2398.97694,484.865113 2411.50301,493.212404 C2427.25198,458.019857 2462.57503,433.5 2503.625,433.5 C2559.33672,433.5 2604.5,478.663276 2604.5,534.375 C2604.5,536.365657 2604.44234,538.342847 2604.32859,540.30499 Z" id="Oval-22-Copy-51" fill="url(#linearGradient-2)"></path>
                <path d="M3695.5786,540.304991 C3772.85267,545.24121 3834,609.479743 3834,688 C3834,693.235951 3833.7281,698.408398 3833.19766,703.50399 C3833.46479,703.501332 3833.73224,703.5 3834,703.5 C3877.6305,703.5 3913,738.869505 3913,782.5 C3913,812.592852 3896.17421,838.755831 3871.41722,852.094359 L3871.41722,852.094359 C3883.79822,873.728337 3890.875,898.787733 3890.875,925.5 C3890.875,1002.98553 3831.32862,1066.56327 3755.5,1072.96907 L3755.5,1072.96907 L3755.5,1073.5 L3322,1073.5 L2958,1073.5 L2958,1073.5 L1397.5,1073.5 L1397.49998,1073.45587 C1360.27416,1072.1397 1330.5,1041.54691 1330.5,1004 C1330.5,997.08748 1331.50917,990.410665 1333.38821,984.108846 C1315.45185,964.608737 1304.5,938.58334 1304.5,910 C1304.5,867.97494 1328.17437,831.479324 1362.91393,813.122316 C1351.48314,800.736192 1344.5,784.183595 1344.5,766 C1344.5,738.886258 1360.02637,715.398894 1382.67313,703.943886 C1382.55835,702.310844 1382.5,700.662237 1382.5,699 C1382.5,660.61621 1413.61621,629.5 1452,629.5 C1462.65986,629.5 1472.7592,631.899906 1481.78718,636.188891 C1487.13304,540.470266 1566.44462,464.5 1663.5,464.5 C1750.78055,464.5 1823.71141,525.938319 1841.40428,607.926653 C1855.53979,594.639836 1874.56931,586.5 1895.5,586.5 C1939.1305,586.5 1974.5,621.869505 1974.5,665.5 C1974.5,667.569853 1974.4204,669.621114 1974.26409,671.650889 L1974.26409,671.650889 C1997.56156,673.131204 2017.9296,685.392161 2030.43444,703.5 L2046.23151,703.5 L2046.23151,703.5 C2054.69049,674.048766 2081.82876,652.5 2114,652.5 C2141.40648,652.5 2165.16042,668.138436 2176.82512,690.978636 C2176.60979,688.347561 2176.5,685.686601 2176.5,683 C2176.5,629.704522 2219.70452,586.5 2273,586.5 C2318.97876,586.5 2357.44707,618.656077 2367.1428,661.706104 L2367.1428,661.706104 C2377.42316,655.84717 2389.32069,652.5 2402,652.5 C2418.59632,652.5 2433.85324,658.234697 2445.89727,667.83062 L2445.89727,667.83062 C2450.81069,608.289784 2500.69117,561.5 2561.5,561.5 C2611.0666,561.5 2653.37215,592.588232 2669.98175,636.329791 C2682.66857,624.054057 2699.95211,616.5 2719,616.5 C2751.29926,616.5 2778.5254,638.220602 2786.86858,667.851954 C2812.8139,625.079062 2859.81945,596.5 2913.5,596.5 C2923.77624,596.5 2933.80787,597.547328 2943.49396,599.541066 C2943.98707,596.233684 2944.65914,592.984749 2945.5,589.804425 L2945.5,577.5 L2949.72807,577.5 C2963.5312,545.163725 2995.6189,522.5 3033,522.5 C3037.32687,522.5 3041.58282,522.803651 3045.7477,523.390807 C3054.1369,430.659158 3132.08322,358 3227,358 C3314.28055,358 3387.21141,419.438319 3404.90428,501.426653 L3404.90428,501.426653 C3419.03979,488.139836 3438.06931,480 3459,480 C3475.18162,480 3490.22694,484.865113 3502.75301,493.212404 C3518.50198,458.019857 3553.82503,433.5 3594.875,433.5 C3650.58672,433.5 3695.75,478.663276 3695.75,534.375 C3695.75,536.365657 3695.69234,538.342847 3695.57859,540.30499 Z" id="Oval-22-Copy-52" fill="url(#linearGradient-3)"></path>
                <path d="M6133.5786,380.554991 C6210.85267,385.49121 6272,449.729743 6272,528.25 C6272,533.485951 6271.7281,538.658398 6271.19766,543.75399 C6271.46479,543.751332 6271.73224,543.75 6272,543.75 C6315.6305,543.75 6351,579.119505 6351,622.75 C6351,652.842852 6334.17421,679.005831 6309.41722,692.344359 L6309.41722,692.344359 C6321.79822,713.978337 6328.875,739.037733 6328.875,765.75 C6328.875,843.235534 6269.32862,906.813267 6193.5,913.219073 L6193.5,913.219073 L6193.5,913.75 L5760,913.75 L5396,913.75 L5396,913.75 L3835.5,913.75 L3835.49998,913.705873 C3798.27416,912.389702 3768.5,881.796915 3768.5,844.25 C3768.5,837.33748 3769.50917,830.660665 3771.38821,824.358846 C3753.45185,804.858737 3742.5,778.83334 3742.5,750.25 C3742.5,708.22494 3766.17437,671.729324 3800.91393,653.372316 C3789.48314,640.986192 3782.5,624.433595 3782.5,606.25 C3782.5,579.136258 3798.02637,555.648894 3820.67313,544.193886 C3820.55835,542.560844 3820.5,540.912237 3820.5,539.25 C3820.5,500.86621 3851.61621,469.75 3890,469.75 C3900.65986,469.75 3910.7592,472.149906 3919.78718,476.438891 C3925.13304,380.720266 4004.44462,304.75 4101.5,304.75 C4188.78055,304.75 4261.71141,366.188319 4279.40428,448.176653 C4293.53979,434.889836 4312.56931,426.75 4333.5,426.75 C4377.1305,426.75 4412.5,462.119505 4412.5,505.75 C4412.5,507.819853 4412.4204,509.871114 4412.26409,511.900889 L4412.26409,511.900889 C4435.56156,513.381204 4455.9296,525.642161 4468.43444,543.75 L4484.23151,543.75 L4484.23151,543.75 C4492.69049,514.298766 4519.82876,492.75 4552,492.75 C4579.40648,492.75 4603.16042,508.388436 4614.82512,531.228636 C4614.60979,528.597561 4614.5,525.936601 4614.5,523.25 C4614.5,469.954522 4657.70452,426.75 4711,426.75 C4756.97876,426.75 4795.44707,458.906077 4805.1428,501.956104 L4805.1428,501.956104 C4815.42316,496.09717 4827.32069,492.75 4840,492.75 C4856.59632,492.75 4871.85324,498.484697 4883.89727,508.08062 L4883.89727,508.08062 C4888.81069,448.539784 4938.69117,401.75 4999.5,401.75 C5049.0666,401.75 5091.37215,432.838232 5107.98175,476.579791 C5120.66857,464.304057 5137.95211,456.75 5157,456.75 C5189.29926,456.75 5216.5254,478.470602 5224.86858,508.101954 C5250.8139,465.329062 5297.81945,436.75 5351.5,436.75 C5361.77624,436.75 5371.80787,437.797328 5381.49396,439.791066 C5381.98707,436.483684 5382.65914,433.234749 5383.5,430.054425 L5383.5,417.75 L5387.72807,417.75 C5401.5312,385.413725 5433.6189,362.75 5471,362.75 C5475.32687,362.75 5479.58282,363.053651 5483.7477,363.640807 C5492.1369,270.909158 5570.08322,198.25 5665,198.25 C5752.28055,198.25 5825.21141,259.688319 5842.90428,341.676653 L5842.90428,341.676653 C5857.03979,328.389836 5876.06931,320.25 5897,320.25 C5913.18162,320.25 5928.22694,325.115113 5940.75301,333.462404 C5956.50198,298.269857 5991.82503,273.75 6032.875,273.75 C6088.58672,273.75 6133.75,318.913276 6133.75,374.625 C6133.75,376.615657 6133.69234,378.592847 6133.57859,380.55499 Z" id="Oval-22-Copy-53" fill="url(#linearGradient-4)"></path>
                <path d="M8140.5786,400.304991 C8217.85267,405.24121 8279,469.479743 8279,548 C8279,553.235951 8278.7281,558.408398 8278.19766,563.50399 C8278.46479,563.501332 8278.73224,563.5 8279,563.5 C8322.6305,563.5 8358,598.869505 8358,642.5 C8358,672.592852 8341.17421,698.755831 8316.41722,712.094359 L8316.41722,712.094359 C8328.79822,733.728337 8335.875,758.787733 8335.875,785.5 C8335.875,862.985534 8276.32862,926.563267 8200.5,932.969073 L8200.5,932.969073 L8200.5,933.5 L7767,933.5 L7403,933.5 L7403,933.5 L5842.5,933.5 L5842.49998,933.455873 C5805.27416,932.139702 5775.5,901.546915 5775.5,864 C5775.5,857.08748 5776.50917,850.410665 5778.38821,844.108846 C5760.45185,824.608737 5749.5,798.58334 5749.5,770 C5749.5,727.97494 5773.17437,691.479324 5807.91393,673.122316 C5796.48314,660.736192 5789.5,644.183595 5789.5,626 C5789.5,598.886258 5805.02637,575.398894 5827.67313,563.943886 C5827.55835,562.310844 5827.5,560.662237 5827.5,559 C5827.5,520.61621 5858.61621,489.5 5897,489.5 C5907.65986,489.5 5917.7592,491.899906 5926.78718,496.188891 C5932.13304,400.470266 6011.44462,324.5 6108.5,324.5 C6195.78055,324.5 6268.71141,385.938319 6286.40428,467.926653 C6300.53979,454.639836 6319.56931,446.5 6340.5,446.5 C6384.1305,446.5 6419.5,481.869505 6419.5,525.5 C6419.5,527.569853 6419.4204,529.621114 6419.26409,531.650889 L6419.26409,531.650889 C6442.56156,533.131204 6462.9296,545.392161 6475.43444,563.5 L6491.23151,563.5 L6491.23151,563.5 C6499.69049,534.048766 6526.82876,512.5 6559,512.5 C6586.40648,512.5 6610.16042,528.138436 6621.82512,550.978636 C6621.60979,548.347561 6621.5,545.686601 6621.5,543 C6621.5,489.704522 6664.70452,446.5 6718,446.5 C6763.97876,446.5 6802.44707,478.656077 6812.1428,521.706104 L6812.1428,521.706104 C6822.42316,515.84717 6834.32069,512.5 6847,512.5 C6863.59632,512.5 6878.85324,518.234697 6890.89727,527.83062 L6890.89727,527.83062 C6895.81069,468.289784 6945.69117,421.5 7006.5,421.5 C7056.0666,421.5 7098.37215,452.588232 7114.98175,496.329791 C7127.66857,484.054057 7144.95211,476.5 7164,476.5 C7196.29926,476.5 7223.5254,498.220602 7231.86858,527.851954 C7257.8139,485.079062 7304.81945,456.5 7358.5,456.5 C7368.77624,456.5 7378.80787,457.547328 7388.49396,459.541066 C7388.98707,456.233684 7389.65914,452.984749 7390.5,449.804425 L7390.5,437.5 L7394.72807,437.5 C7408.5312,405.163725 7440.6189,382.5 7478,382.5 C7482.32687,382.5 7486.58282,382.803651 7490.7477,383.390807 C7499.1369,290.659158 7577.08322,218 7672,218 C7759.28055,218 7832.21141,279.438319 7849.90428,361.426653 L7849.90428,361.426653 C7864.03979,348.139836 7883.06931,340 7904,340 C7920.18162,340 7935.22694,344.865113 7947.75301,353.212404 C7963.50198,318.019857 7998.82503,293.5 8039.875,293.5 C8095.58672,293.5 8140.75,338.663276 8140.75,394.375 C8140.75,396.365657 8140.69234,398.342847 8140.57859,400.30499 Z" id="Oval-22-Copy-59" fill="url(#linearGradient-4)"></path>
                <path d="M6408.5786,735.304991 C6485.85267,740.24121 6547,804.479743 6547,883 C6547,888.235951 6546.7281,893.408398 6546.19766,898.50399 C6546.46479,898.501332 6546.73224,898.5 6547,898.5 C6590.6305,898.5 6626,933.869505 6626,977.5 C6626,1007.59285 6609.17421,1033.75583 6584.41722,1047.09436 L6584.41722,1047.09436 C6596.79822,1068.72834 6603.875,1093.78773 6603.875,1120.5 C6603.875,1197.98553 6544.32862,1261.56327 6468.5,1267.96907 L6468.5,1267.96907 L6468.5,1268.5 L6035,1268.5 L5671,1268.5 L5671,1268.5 L4110.5,1268.5 L4110.49998,1268.45587 C4073.27416,1267.1397 4043.5,1236.54691 4043.5,1199 C4043.5,1192.08748 4044.50917,1185.41066 4046.38821,1179.10885 C4028.45185,1159.60874 4017.5,1133.58334 4017.5,1105 C4017.5,1062.97494 4041.17437,1026.47932 4075.91393,1008.12232 C4064.48314,995.736192 4057.5,979.183595 4057.5,961 C4057.5,933.886258 4073.02637,910.398894 4095.67313,898.943886 C4095.55835,897.310844 4095.5,895.662237 4095.5,894 C4095.5,855.61621 4126.61621,824.5 4165,824.5 C4175.65986,824.5 4185.7592,826.899906 4194.78718,831.188891 C4200.13304,735.470266 4279.44462,659.5 4376.5,659.5 C4463.78055,659.5 4536.71141,720.938319 4554.40428,802.926653 C4568.53979,789.639836 4587.56931,781.5 4608.5,781.5 C4652.1305,781.5 4687.5,816.869505 4687.5,860.5 C4687.5,862.569853 4687.4204,864.621114 4687.26409,866.650889 L4687.26409,866.650889 C4710.56156,868.131204 4730.9296,880.392161 4743.43444,898.5 L4759.23151,898.5 L4759.23151,898.5 C4767.69049,869.048766 4794.82876,847.5 4827,847.5 C4854.40648,847.5 4878.16042,863.138436 4889.82512,885.978636 C4889.60979,883.347561 4889.5,880.686601 4889.5,878 C4889.5,824.704522 4932.70452,781.5 4986,781.5 C5031.97876,781.5 5070.44707,813.656077 5080.1428,856.706104 L5080.1428,856.706104 C5090.42316,850.84717 5102.32069,847.5 5115,847.5 C5131.59632,847.5 5146.85324,853.234697 5158.89727,862.83062 L5158.89727,862.83062 C5163.81069,803.289784 5213.69117,756.5 5274.5,756.5 C5324.0666,756.5 5366.37215,787.588232 5382.98175,831.329791 C5395.66857,819.054057 5412.95211,811.5 5432,811.5 C5464.29926,811.5 5491.5254,833.220602 5499.86858,862.851954 C5525.8139,820.079062 5572.81945,791.5 5626.5,791.5 C5636.77624,791.5 5646.80787,792.547328 5656.49396,794.541066 C5656.98707,791.233684 5657.65914,787.984749 5658.5,784.804425 L5658.5,772.5 L5662.72807,772.5 C5676.5312,740.163725 5708.6189,717.5 5746,717.5 C5750.32687,717.5 5754.58282,717.803651 5758.7477,718.390807 C5767.1369,625.659158 5845.08322,553 5940,553 C6027.28055,553 6100.21141,614.438319 6117.90428,696.426653 L6117.90428,696.426653 C6132.03979,683.139836 6151.06931,675 6172,675 C6188.18162,675 6203.22694,679.865113 6215.75301,688.212404 C6231.50198,653.019857 6266.82503,628.5 6307.875,628.5 C6363.58672,628.5 6408.75,673.663276 6408.75,729.375 C6408.75,731.365657 6408.69234,733.342847 6408.57859,735.30499 Z" id="Oval-22-Copy-54" fill="#FFFFFF"></path>
                <path d="M8742.0786,735.304991 C8819.35267,740.24121 8880.5,804.479743 8880.5,883 C8880.5,888.235951 8880.2281,893.408398 8879.69766,898.50399 C8879.96479,898.501332 8880.23224,898.5 8880.5,898.5 C8924.1305,898.5 8959.5,933.869505 8959.5,977.5 C8959.5,1007.59285 8942.67421,1033.75583 8917.91722,1047.09436 L8917.91722,1047.09436 C8930.29822,1068.72834 8937.375,1093.78773 8937.375,1120.5 C8937.375,1197.98553 8877.82862,1261.56327 8802,1267.96907 L8802,1267.96907 L8802,1268.5 L8368.5,1268.5 L8004.5,1268.5 L8004.5,1268.5 L6444,1268.5 L6443.99998,1268.45587 C6406.77416,1267.1397 6377,1236.54691 6377,1199 C6377,1192.08748 6378.00917,1185.41066 6379.88821,1179.10885 C6361.95185,1159.60874 6351,1133.58334 6351,1105 C6351,1062.97494 6374.67437,1026.47932 6409.41393,1008.12232 C6397.98314,995.736192 6391,979.183595 6391,961 C6391,933.886258 6406.52637,910.398894 6429.17313,898.943886 C6429.05835,897.310844 6429,895.662237 6429,894 C6429,855.61621 6460.11621,824.5 6498.5,824.5 C6509.15986,824.5 6519.2592,826.899906 6528.28718,831.188891 C6533.63304,735.470266 6612.94462,659.5 6710,659.5 C6797.28055,659.5 6870.21141,720.938319 6887.90428,802.926653 C6902.03979,789.639836 6921.06931,781.5 6942,781.5 C6985.6305,781.5 7021,816.869505 7021,860.5 C7021,862.569853 7020.9204,864.621114 7020.76409,866.650889 L7020.76409,866.650889 C7044.06156,868.131204 7064.4296,880.392161 7076.93444,898.5 L7092.73151,898.5 L7092.73151,898.5 C7101.19049,869.048766 7128.32876,847.5 7160.5,847.5 C7187.90648,847.5 7211.66042,863.138436 7223.32512,885.978636 C7223.10979,883.347561 7223,880.686601 7223,878 C7223,824.704522 7266.20452,781.5 7319.5,781.5 C7365.47876,781.5 7403.94707,813.656077 7413.6428,856.706104 L7413.6428,856.706104 C7423.92316,850.84717 7435.82069,847.5 7448.5,847.5 C7465.09632,847.5 7480.35324,853.234697 7492.39727,862.83062 L7492.39727,862.83062 C7497.31069,803.289784 7547.19117,756.5 7608,756.5 C7657.5666,756.5 7699.87215,787.588232 7716.48175,831.329791 C7729.16857,819.054057 7746.45211,811.5 7765.5,811.5 C7797.79926,811.5 7825.0254,833.220602 7833.36858,862.851954 C7859.3139,820.079062 7906.31945,791.5 7960,791.5 C7970.27624,791.5 7980.30787,792.547328 7989.99396,794.541066 C7990.48707,791.233684 7991.15914,787.984749 7992,784.804425 L7992,772.5 L7996.22807,772.5 C8010.0312,740.163725 8042.1189,717.5 8079.5,717.5 C8083.82687,717.5 8088.08282,717.803651 8092.2477,718.390807 C8100.6369,625.659158 8178.58322,553 8273.5,553 C8360.78055,553 8433.71141,614.438319 8451.40428,696.426653 L8451.40428,696.426653 C8465.53979,683.139836 8484.56931,675 8505.5,675 C8521.68162,675 8536.72694,679.865113 8549.25301,688.212404 C8565.00198,653.019857 8600.32503,628.5 8641.375,628.5 C8697.08672,628.5 8742.25,673.663276 8742.25,729.375 C8742.25,731.365657 8742.19234,733.342847 8742.07859,735.30499 Z" id="Oval-22-Copy-58" fill="#FFFFFF"></path>
                <path d="M4114.3286,735.304991 C4191.60267,740.24121 4252.75,804.479743 4252.75,883 C4252.75,888.235951 4252.4781,893.408398 4251.94766,898.50399 C4252.21479,898.501332 4252.48224,898.5 4252.75,898.5 C4296.3805,898.5 4331.75,933.869505 4331.75,977.5 C4331.75,1007.59285 4314.92421,1033.75583 4290.16722,1047.09436 L4290.16722,1047.09436 C4302.54822,1068.72834 4309.625,1093.78773 4309.625,1120.5 C4309.625,1197.98553 4250.07862,1261.56327 4174.25,1267.96907 L4174.25,1267.96907 L4174.25,1268.5 L3740.75,1268.5 L3376.75,1268.5 L3376.75,1268.5 L1816.25,1268.5 L1816.24998,1268.45587 C1779.02416,1267.1397 1749.25,1236.54691 1749.25,1199 C1749.25,1192.08748 1750.25917,1185.41066 1752.13821,1179.10885 C1734.20185,1159.60874 1723.25,1133.58334 1723.25,1105 C1723.25,1062.97494 1746.92437,1026.47932 1781.66393,1008.12232 C1770.23314,995.736192 1763.25,979.183595 1763.25,961 C1763.25,933.886258 1778.77637,910.398894 1801.42313,898.943886 C1801.30835,897.310844 1801.25,895.662237 1801.25,894 C1801.25,855.61621 1832.36621,824.5 1870.75,824.5 C1881.40986,824.5 1891.5092,826.899906 1900.53718,831.188891 C1905.88304,735.470266 1985.19462,659.5 2082.25,659.5 C2169.53055,659.5 2242.46141,720.938319 2260.15428,802.926653 C2274.28979,789.639836 2293.31931,781.5 2314.25,781.5 C2357.8805,781.5 2393.25,816.869505 2393.25,860.5 C2393.25,862.569853 2393.1704,864.621114 2393.01409,866.650889 L2393.01409,866.650889 C2416.31156,868.131204 2436.6796,880.392161 2449.18444,898.5 L2464.98151,898.5 L2464.98151,898.5 C2473.44049,869.048766 2500.57876,847.5 2532.75,847.5 C2560.15648,847.5 2583.91042,863.138436 2595.57512,885.978636 C2595.35979,883.347561 2595.25,880.686601 2595.25,878 C2595.25,824.704522 2638.45452,781.5 2691.75,781.5 C2737.72876,781.5 2776.19707,813.656077 2785.8928,856.706104 L2785.8928,856.706104 C2796.17316,850.84717 2808.07069,847.5 2820.75,847.5 C2837.34632,847.5 2852.60324,853.234697 2864.64727,862.83062 L2864.64727,862.83062 C2869.56069,803.289784 2919.44117,756.5 2980.25,756.5 C3029.8166,756.5 3072.12215,787.588232 3088.73175,831.329791 C3101.41857,819.054057 3118.70211,811.5 3137.75,811.5 C3170.04926,811.5 3197.2754,833.220602 3205.61858,862.851954 C3231.5639,820.079062 3278.56945,791.5 3332.25,791.5 C3342.52624,791.5 3352.55787,792.547328 3362.24396,794.541066 C3362.73707,791.233684 3363.40914,787.984749 3364.25,784.804425 L3364.25,772.5 L3368.47807,772.5 C3382.2812,740.163725 3414.3689,717.5 3451.75,717.5 C3456.07687,717.5 3460.33282,717.803651 3464.4977,718.390807 C3472.8869,625.659158 3550.83322,553 3645.75,553 C3733.03055,553 3805.96141,614.438319 3823.65428,696.426653 L3823.65428,696.426653 C3837.78979,683.139836 3856.81931,675 3877.75,675 C3893.93162,675 3908.97694,679.865113 3921.50301,688.212404 C3937.25198,653.019857 3972.57503,628.5 4013.625,628.5 C4069.33672,628.5 4114.5,673.663276 4114.5,729.375 C4114.5,731.365657 4114.44234,733.342847 4114.32859,735.30499 Z" id="Oval-22-Copy-55" fill="#FFFFFF"></path>
                <path d="M2391.3286,735.304991 C2468.60267,740.24121 2529.75,804.479743 2529.75,883 C2529.75,888.235951 2529.4781,893.408398 2528.94766,898.50399 C2529.21479,898.501332 2529.48224,898.5 2529.75,898.5 C2573.3805,898.5 2608.75,933.869505 2608.75,977.5 C2608.75,1007.59285 2591.92421,1033.75583 2567.16722,1047.09436 L2567.16722,1047.09436 C2579.54822,1068.72834 2586.625,1093.78773 2586.625,1120.5 C2586.625,1197.98553 2527.07862,1261.56327 2451.25,1267.96907 L2451.25,1267.96907 L2451.25,1268.5 L2017.75,1268.5 L1653.75,1268.5 L1653.75,1268.5 L93.25,1268.5 L93.2499846,1268.45587 C56.024158,1267.1397 26.25,1236.54691 26.25,1199 C26.25,1192.08748 27.2591686,1185.41066 29.1382129,1179.10885 C11.2018532,1159.60874 0.25,1133.58334 0.25,1105 C0.25,1062.97494 23.9243657,1026.47932 58.6639341,1008.12232 C47.233136,995.736192 40.25,979.183595 40.25,961 C40.25,933.886258 55.7763684,910.398894 78.4231277,898.943886 C78.3083548,897.310844 78.25,895.662237 78.25,894 C78.25,855.61621 109.36621,824.5 147.75,824.5 C158.409864,824.5 168.509199,826.899906 177.537179,831.188891 C182.883042,735.470266 262.194618,659.5 359.25,659.5 C446.530548,659.5 519.461407,720.938319 537.154276,802.926653 C551.289786,789.639836 570.319313,781.5 591.25,781.5 C634.880495,781.5 670.25,816.869505 670.25,860.5 C670.25,862.569853 670.170397,864.621114 670.014086,866.650889 L670.014086,866.650889 C693.311561,868.131204 713.679599,880.392161 726.18444,898.5 L741.981515,898.5 L741.981515,898.5 C750.440494,869.048766 777.578755,847.5 809.75,847.5 C837.156484,847.5 860.910416,863.138436 872.575122,885.978636 C872.359788,883.347561 872.25,880.686601 872.25,878 C872.25,824.704522 915.454522,781.5 968.75,781.5 C1014.72876,781.5 1053.19707,813.656077 1062.8928,856.706104 L1062.8928,856.706104 C1073.17316,850.84717 1085.07069,847.5 1097.75,847.5 C1114.34632,847.5 1129.60324,853.234697 1141.64727,862.83062 L1141.64727,862.83062 C1146.56069,803.289784 1196.44117,756.5 1257.25,756.5 C1306.8166,756.5 1349.12215,787.588232 1365.73175,831.329791 C1378.41857,819.054057 1395.70211,811.5 1414.75,811.5 C1447.04926,811.5 1474.2754,833.220602 1482.61858,862.851954 C1508.5639,820.079062 1555.56945,791.5 1609.25,791.5 C1619.52624,791.5 1629.55787,792.547328 1639.24396,794.541066 C1639.73707,791.233684 1640.40914,787.984749 1641.25,784.804425 L1641.25,772.5 L1645.47807,772.5 C1659.2812,740.163725 1691.3689,717.5 1728.75,717.5 C1733.07687,717.5 1737.33282,717.803651 1741.4977,718.390807 C1749.8869,625.659158 1827.83322,553 1922.75,553 C2010.03055,553 2082.96141,614.438319 2100.65428,696.426653 L2100.65428,696.426653 C2114.78979,683.139836 2133.81931,675 2154.75,675 C2170.93162,675 2185.97694,679.865113 2198.50301,688.212404 C2214.25198,653.019857 2249.57503,628.5 2290.625,628.5 C2346.33672,628.5 2391.5,673.663276 2391.5,729.375 C2391.5,731.365657 2391.44234,733.342847 2391.32859,735.30499 Z" id="Oval-22-Copy-61" fill="#FFFFFF"></path>
            </g>
        </g>
    </g>
</svg>