<?xml version="1.0" encoding="UTF-8" standalone="no"?>
<svg width="3376px" height="1312px" viewBox="0 0 3376 1312" version="1.1" xmlns="http://www.w3.org/2000/svg" xmlns:xlink="http://www.w3.org/1999/xlink" xmlns:sketch="http://www.bohemiancoding.com/sketch/ns">
    <!-- Generator: Sketch 3.3.3 (12072) - http://www.bohemiancoding.com/sketch -->
    <title>Group</title>
    <desc>Created with Sketch.</desc>
    <defs>
        <linearGradient x1="50%" y1="91.0776422%" x2="50%" y2="11.1259838%" id="linearGradient-1">
            <stop stop-color="#4A8BA1" offset="0%"></stop>
            <stop stop-color="#D3E2E5" offset="100%"></stop>
        </linearGradient>
        <linearGradient x1="50%" y1="141.313985%" x2="50%" y2="29.718073%" id="linearGradient-2">
            <stop stop-color="#4A8BA1" offset="0%"></stop>
            <stop stop-color="#D3E2E5" offset="100%"></stop>
        </linearGradient>
        <linearGradient x1="50%" y1="33.4075821%" x2="50%" y2="100%" id="linearGradient-3">
            <stop stop-color="#FFFFFF" offset="0%"></stop>
            <stop stop-color="#D9BDC4" offset="100%"></stop>
        </linearGradient>
        <linearGradient x1="50%" y1="39.6095388%" x2="50%" y2="106.268562%" id="linearGradient-4">
            <stop stop-color="#FFFFFF" offset="0%"></stop>
            <stop stop-color="#D9ABB7" offset="100%"></stop>
        </linearGradient>
    </defs>
    <g id="Page-1" stroke="none" stroke-width="1" fill="none" fill-rule="evenodd" sketch:type="MSPage">
        <g id="Group" sketch:type="MSLayerGroup" transform="translate(0.000000, -0.250000)">
            <path d="M3158.0786,183.054991 C3235.35267,187.99121 3296.5,252.229743 3296.5,330.75 C3296.5,335.985951 3296.2281,341.158398 3295.69766,346.25399 C3295.96479,346.251332 3296.23224,346.25 3296.5,346.25 C3340.1305,346.25 3375.5,381.619505 3375.5,425.25 C3375.5,455.342852 3358.67421,481.505831 3333.91722,494.844359 L3333.91722,494.844359 C3346.29822,516.478337 3353.375,541.537733 3353.375,568.25 C3353.375,645.735534 3293.82862,709.313267 3218,715.719073 L3218,715.719073 L3218,716.25 L2784.5,716.25 L2420.5,716.25 L2420.5,716.25 L860,716.25 L859.999985,716.205873 C822.774158,714.889702 793,684.296915 793,646.75 C793,639.83748 794.009169,633.160665 795.888213,626.858846 C777.951853,607.358737 767,581.33334 767,552.75 C767,510.72494 790.674366,474.229324 825.413934,455.872316 C813.983136,443.486192 807,426.933595 807,408.75 C807,381.636258 822.526368,358.148894 845.173128,346.693886 C845.058355,345.060844 845,343.412237 845,341.75 C845,303.36621 876.11621,272.25 914.5,272.25 C925.159864,272.25 935.259199,274.649906 944.287179,278.938891 C949.633042,183.220266 1028.94462,107.25 1126,107.25 C1213.28055,107.25 1286.21141,168.688319 1303.90428,250.676653 C1318.03979,237.389836 1337.06931,229.25 1358,229.25 C1401.6305,229.25 1437,264.619505 1437,308.25 C1437,310.319853 1436.9204,312.371114 1436.76409,314.400889 L1436.76409,314.400889 C1460.06156,315.881204 1480.4296,328.142161 1492.93444,346.25 L1508.73151,346.25 L1508.73151,346.25 C1517.19049,316.798766 1544.32876,295.25 1576.5,295.25 C1603.90648,295.25 1627.66042,310.888436 1639.32512,333.728636 C1639.10979,331.097561 1639,328.436601 1639,325.75 C1639,272.454522 1682.20452,229.25 1735.5,229.25 C1781.47876,229.25 1819.94707,261.406077 1829.6428,304.456104 L1829.6428,304.456104 C1839.92316,298.59717 1851.82069,295.25 1864.5,295.25 C1881.09632,295.25 1896.35324,300.984697 1908.39727,310.58062 L1908.39727,310.58062 C1913.31069,251.039784 1963.19117,204.25 2024,204.25 C2073.5666,204.25 2115.87215,235.338232 2132.48175,279.079791 C2145.16857,266.804057 2162.45211,259.25 2181.5,259.25 C2213.79926,259.25 2241.0254,280.970602 2249.36858,310.601954 C2275.3139,267.829062 2322.31945,239.25 2376,239.25 C2386.27624,239.25 2396.30787,240.297328 2405.99396,242.291066 C2406.48707,238.983684 2407.15914,235.734749 2408,232.554425 L2408,220.25 L2412.22807,220.25 C2426.0312,187.913725 2458.1189,165.25 2495.5,165.25 C2499.82687,165.25 2504.08282,165.553651 2508.2477,166.140807 C2516.6369,73.4091576 2594.58322,0.75 2689.5,0.75 C2776.78055,0.75 2849.71141,62.1883187 2867.40428,144.176653 L2867.40428,144.176653 C2881.53979,130.889836 2900.56931,122.75 2921.5,122.75 C2937.68162,122.75 2952.72694,127.615113 2965.25301,135.962404 C2981.00198,100.769857 3016.32503,76.25 3057.375,76.25 C3113.08672,76.25 3158.25,121.413276 3158.25,177.125 C3158.25,179.115657 3158.19234,181.092847 3158.07859,183.05499 Z" id="Oval-22-Copy-27" fill="url(#linearGradient-1)" sketch:type="MSShapeGroup"></path>
            <path d="M2391.0786,306.304991 C2468.35267,311.24121 2529.5,375.479743 2529.5,454 C2529.5,459.235951 2529.2281,464.408398 2528.69766,469.50399 C2528.96479,469.501332 2529.23224,469.5 2529.5,469.5 C2573.1305,469.5 2608.5,504.869505 2608.5,548.5 C2608.5,578.592852 2591.67421,604.755831 2566.91722,618.094359 L2566.91722,618.094359 C2579.29822,639.728337 2586.375,664.787733 2586.375,691.5 C2586.375,768.985534 2526.82862,832.563267 2451,838.969073 L2451,838.969073 L2451,839.5 L2017.5,839.5 L1653.5,839.5 L1653.5,839.5 L93,839.5 L92.9999846,839.455873 C55.774158,838.139702 26,807.546915 26,770 C26,763.08748 27.0091686,756.410665 28.8882129,750.108846 C10.9518532,730.608737 0,704.58334 0,676 C0,633.97494 23.6743657,597.479324 58.4139341,579.122316 C46.983136,566.736192 40,550.183595 40,532 C40,504.886258 55.5263684,481.398894 78.1731277,469.943886 C78.0583548,468.310844 78,466.662237 78,465 C78,426.61621 109.11621,395.5 147.5,395.5 C158.159864,395.5 168.259199,397.899906 177.287179,402.188891 C182.633042,306.470266 261.944618,230.5 359,230.5 C446.280548,230.5 519.211407,291.938319 536.904276,373.926653 C551.039786,360.639836 570.069313,352.5 591,352.5 C634.630495,352.5 670,387.869505 670,431.5 C670,433.569853 669.920397,435.621114 669.764086,437.650889 L669.764086,437.650889 C693.061561,439.131204 713.429599,451.392161 725.93444,469.5 L741.731515,469.5 L741.731515,469.5 C750.190494,440.048766 777.328755,418.5 809.5,418.5 C836.906484,418.5 860.660416,434.138436 872.325122,456.978636 C872.109788,454.347561 872,451.686601 872,449 C872,395.704522 915.204522,352.5 968.5,352.5 C1014.47876,352.5 1052.94707,384.656077 1062.6428,427.706104 L1062.6428,427.706104 C1072.92316,421.84717 1084.82069,418.5 1097.5,418.5 C1114.09632,418.5 1129.35324,424.234697 1141.39727,433.83062 L1141.39727,433.83062 C1146.31069,374.289784 1196.19117,327.5 1257,327.5 C1306.5666,327.5 1348.87215,358.588232 1365.48175,402.329791 C1378.16857,390.054057 1395.45211,382.5 1414.5,382.5 C1446.79926,382.5 1474.0254,404.220602 1482.36858,433.851954 C1508.3139,391.079062 1555.31945,362.5 1609,362.5 C1619.27624,362.5 1629.30787,363.547328 1638.99396,365.541066 C1639.48707,362.233684 1640.15914,358.984749 1641,355.804425 L1641,343.5 L1645.22807,343.5 C1659.0312,311.163725 1691.1189,288.5 1728.5,288.5 C1732.82687,288.5 1737.08282,288.803651 1741.2477,289.390807 C1749.6369,196.659158 1827.58322,124 1922.5,124 C2009.78055,124 2082.71141,185.438319 2100.40428,267.426653 L2100.40428,267.426653 C2114.53979,254.139836 2133.56931,246 2154.5,246 C2170.68162,246 2185.72694,250.865113 2198.25301,259.212404 C2214.00198,224.019857 2249.32503,199.5 2290.375,199.5 C2346.08672,199.5 2391.25,244.663276 2391.25,300.375 C2391.25,302.365657 2391.19234,304.342847 2391.07859,306.30499 Z" id="Oval-22-Copy-25" fill="url(#linearGradient-2)" sketch:type="MSShapeGroup"></path>
            <path d="M2407.0786,540.804991 C2484.35267,545.74121 2545.5,609.979743 2545.5,688.5 C2545.5,693.735951 2545.2281,698.908398 2544.69766,704.00399 C2544.96479,704.001332 2545.23224,704 2545.5,704 C2589.1305,704 2624.5,739.369505 2624.5,783 C2624.5,813.092852 2607.67421,839.255831 2582.91722,852.594359 L2582.91722,852.594359 C2595.29822,874.228337 2602.375,899.287733 2602.375,926 C2602.375,1003.48553 2542.82862,1067.06327 2467,1073.46907 L2467,1073.46907 L2467,1074 L2033.5,1074 L1669.5,1074 L1669.5,1074 L109,1074 L108.999985,1073.95587 C71.774158,1072.6397 42,1042.04691 42,1004.5 C42,997.58748 43.0091686,990.910665 44.8882129,984.608846 C26.9518532,965.108737 16,939.08334 16,910.5 C16,868.47494 39.6743657,831.979324 74.4139341,813.622316 C62.983136,801.236192 56,784.683595 56,766.5 C56,739.386258 71.5263684,715.898894 94.1731277,704.443886 C94.0583548,702.810844 94,701.162237 94,699.5 C94,661.11621 125.11621,630 163.5,630 C174.159864,630 184.259199,632.399906 193.287179,636.688891 C198.633042,540.970266 277.944618,465 375,465 C462.280548,465 535.211407,526.438319 552.904276,608.426653 C567.039786,595.139836 586.069313,587 607,587 C650.630495,587 686,622.369505 686,666 C686,668.069853 685.920397,670.121114 685.764086,672.150889 L685.764086,672.150889 C709.061561,673.631204 729.429599,685.892161 741.93444,704 L757.731515,704 L757.731515,704 C766.190494,674.548766 793.328755,653 825.5,653 C852.906484,653 876.660416,668.638436 888.325122,691.478636 C888.109788,688.847561 888,686.186601 888,683.5 C888,630.204522 931.204522,587 984.5,587 C1030.47876,587 1068.94707,619.156077 1078.6428,662.206104 L1078.6428,662.206104 C1088.92316,656.34717 1100.82069,653 1113.5,653 C1130.09632,653 1145.35324,658.734697 1157.39727,668.33062 L1157.39727,668.33062 C1162.31069,608.789784 1212.19117,562 1273,562 C1322.5666,562 1364.87215,593.088232 1381.48175,636.829791 C1394.16857,624.554057 1411.45211,617 1430.5,617 C1462.79926,617 1490.0254,638.720602 1498.36858,668.351954 C1524.3139,625.579062 1571.31945,597 1625,597 C1635.27624,597 1645.30787,598.047328 1654.99396,600.041066 C1655.48707,596.733684 1656.15914,593.484749 1657,590.304425 L1657,578 L1661.22807,578 C1675.0312,545.663725 1707.1189,523 1744.5,523 C1748.82687,523 1753.08282,523.303651 1757.2477,523.890807 C1765.6369,431.159158 1843.58322,358.5 1938.5,358.5 C2025.78055,358.5 2098.71141,419.938319 2116.40428,501.926653 L2116.40428,501.926653 C2130.53979,488.639836 2149.56931,480.5 2170.5,480.5 C2186.68162,480.5 2201.72694,485.365113 2214.25301,493.712404 C2230.00198,458.519857 2265.32503,434 2306.375,434 C2362.08672,434 2407.25,479.163276 2407.25,534.875 C2407.25,536.865657 2407.19234,538.842847 2407.07859,540.80499 Z" id="Oval-22-Copy-23" fill="url(#linearGradient-3)" sketch:type="MSShapeGroup"></path>
            <path d="M3158.0786,420.804991 C3235.35267,425.74121 3296.5,489.979743 3296.5,568.5 C3296.5,573.735951 3296.2281,578.908398 3295.69766,584.00399 C3295.96479,584.001332 3296.23224,584 3296.5,584 C3340.1305,584 3375.5,619.369505 3375.5,663 C3375.5,693.092852 3358.67421,719.255831 3333.91722,732.594359 L3333.91722,732.594359 C3346.29822,754.228337 3353.375,779.287733 3353.375,806 C3353.375,883.485534 3293.82862,947.063267 3218,953.469073 L3218,953.469073 L3218,954 L2784.5,954 L2420.5,954 L2420.5,954 L860,954 L859.999985,953.955873 C822.774158,952.639702 793,922.046915 793,884.5 C793,877.58748 794.009169,870.910665 795.888213,864.608846 C777.951853,845.108737 767,819.08334 767,790.5 C767,748.47494 790.674366,711.979324 825.413934,693.622316 C813.983136,681.236192 807,664.683595 807,646.5 C807,619.386258 822.526368,595.898894 845.173128,584.443886 C845.058355,582.810844 845,581.162237 845,579.5 C845,541.11621 876.11621,510 914.5,510 C925.159864,510 935.259199,512.399906 944.287179,516.688891 C949.633042,420.970266 1028.94462,345 1126,345 C1213.28055,345 1286.21141,406.438319 1303.90428,488.426653 C1318.03979,475.139836 1337.06931,467 1358,467 C1401.6305,467 1437,502.369505 1437,546 C1437,548.069853 1436.9204,550.121114 1436.76409,552.150889 L1436.76409,552.150889 C1460.06156,553.631204 1480.4296,565.892161 1492.93444,584 L1508.73151,584 L1508.73151,584 C1517.19049,554.548766 1544.32876,533 1576.5,533 C1603.90648,533 1627.66042,548.638436 1639.32512,571.478636 C1639.10979,568.847561 1639,566.186601 1639,563.5 C1639,510.204522 1682.20452,467 1735.5,467 C1781.47876,467 1819.94707,499.156077 1829.6428,542.206104 L1829.6428,542.206104 C1839.92316,536.34717 1851.82069,533 1864.5,533 C1881.09632,533 1896.35324,538.734697 1908.39727,548.33062 L1908.39727,548.33062 C1913.31069,488.789784 1963.19117,442 2024,442 C2073.5666,442 2115.87215,473.088232 2132.48175,516.829791 C2145.16857,504.554057 2162.45211,497 2181.5,497 C2213.79926,497 2241.0254,518.720602 2249.36858,548.351954 C2275.3139,505.579062 2322.31945,477 2376,477 C2386.27624,477 2396.30787,478.047328 2405.99396,480.041066 C2406.48707,476.733684 2407.15914,473.484749 2408,470.304425 L2408,458 L2412.22807,458 C2426.0312,425.663725 2458.1189,403 2495.5,403 C2499.82687,403 2504.08282,403.303651 2508.2477,403.890807 C2516.6369,311.159158 2594.58322,238.5 2689.5,238.5 C2776.78055,238.5 2849.71141,299.938319 2867.40428,381.926653 L2867.40428,381.926653 C2881.53979,368.639836 2900.56931,360.5 2921.5,360.5 C2937.68162,360.5 2952.72694,365.365113 2965.25301,373.712404 C2981.00198,338.519857 3016.32503,314 3057.375,314 C3113.08672,314 3158.25,359.163276 3158.25,414.875 C3158.25,416.865657 3158.19234,418.842847 3158.07859,420.80499 Z" id="Oval-22-Copy-26" fill="url(#linearGradient-4)" sketch:type="MSShapeGroup"></path>
            <path d="M2819.8286,778.554991 C2897.10267,783.49121 2958.25,847.729743 2958.25,926.25 C2958.25,931.485951 2957.9781,936.658398 2957.44766,941.75399 C2957.71479,941.751332 2957.98224,941.75 2958.25,941.75 C3001.8805,941.75 3037.25,977.119505 3037.25,1020.75 C3037.25,1050.84285 3020.42421,1077.00583 2995.66722,1090.34436 L2995.66722,1090.34436 C3008.04822,1111.97834 3015.125,1137.03773 3015.125,1163.75 C3015.125,1241.23553 2955.57862,1304.81327 2879.75,1311.21907 L2879.75,1311.21907 L2879.75,1311.75 L2446.25,1311.75 L2082.25,1311.75 L2082.25,1311.75 L521.75,1311.75 L521.749985,1311.70587 C484.524158,1310.3897 454.75,1279.79691 454.75,1242.25 C454.75,1235.33748 455.759169,1228.66066 457.638213,1222.35885 C439.701853,1202.85874 428.75,1176.83334 428.75,1148.25 C428.75,1106.22494 452.424366,1069.72932 487.163934,1051.37232 C475.733136,1038.98619 468.75,1022.4336 468.75,1004.25 C468.75,977.136258 484.276368,953.648894 506.923128,942.193886 C506.808355,940.560844 506.75,938.912237 506.75,937.25 C506.75,898.86621 537.86621,867.75 576.25,867.75 C586.909864,867.75 597.009199,870.149906 606.037179,874.438891 C611.383042,778.720266 690.694618,702.75 787.75,702.75 C875.030548,702.75 947.961407,764.188319 965.654276,846.176653 C979.789786,832.889836 998.819313,824.75 1019.75,824.75 C1063.3805,824.75 1098.75,860.119505 1098.75,903.75 C1098.75,905.819853 1098.6704,907.871114 1098.51409,909.900889 L1098.51409,909.900889 C1121.81156,911.381204 1142.1796,923.642161 1154.68444,941.75 L1170.48151,941.75 L1170.48151,941.75 C1178.94049,912.298766 1206.07876,890.75 1238.25,890.75 C1265.65648,890.75 1289.41042,906.388436 1301.07512,929.228636 C1300.85979,926.597561 1300.75,923.936601 1300.75,921.25 C1300.75,867.954522 1343.95452,824.75 1397.25,824.75 C1443.22876,824.75 1481.69707,856.906077 1491.3928,899.956104 L1491.3928,899.956104 C1501.67316,894.09717 1513.57069,890.75 1526.25,890.75 C1542.84632,890.75 1558.10324,896.484697 1570.14727,906.08062 L1570.14727,906.08062 C1575.06069,846.539784 1624.94117,799.75 1685.75,799.75 C1735.3166,799.75 1777.62215,830.838232 1794.23175,874.579791 C1806.91857,862.304057 1824.20211,854.75 1843.25,854.75 C1875.54926,854.75 1902.7754,876.470602 1911.11858,906.101954 C1937.0639,863.329062 1984.06945,834.75 2037.75,834.75 C2048.02624,834.75 2058.05787,835.797328 2067.74396,837.791066 C2068.23707,834.483684 2068.90914,831.234749 2069.75,828.054425 L2069.75,815.75 L2073.97807,815.75 C2087.7812,783.413725 2119.8689,760.75 2157.25,760.75 C2161.57687,760.75 2165.83282,761.053651 2169.9977,761.640807 C2178.3869,668.909158 2256.33322,596.25 2351.25,596.25 C2438.53055,596.25 2511.46141,657.688319 2529.15428,739.676653 L2529.15428,739.676653 C2543.28979,726.389836 2562.31931,718.25 2583.25,718.25 C2599.43162,718.25 2614.47694,723.115113 2627.00301,731.462404 C2642.75198,696.269857 2678.07503,671.75 2719.125,671.75 C2774.83672,671.75 2820,716.913276 2820,772.625 C2820,774.615657 2819.94234,776.592847 2819.82859,778.55499 Z" id="Oval-22" fill="#FFFFFF" sketch:type="MSShapeGroup"></path>
        </g>
    </g>
</svg>