<?xml version="1.0" encoding="UTF-8" standalone="no"?>
<svg width="2052px" height="259px" viewBox="0 0 2052 259" version="1.1" xmlns="http://www.w3.org/2000/svg" xmlns:xlink="http://www.w3.org/1999/xlink" xmlns:sketch="http://www.bohemiancoding.com/sketch/ns">
    <!-- Generator: Sketch 3.3.3 (12072) - http://www.bohemiancoding.com/sketch -->
    <title>black</title>
    <desc>Created with Sketch.</desc>
    <defs></defs>
    <g id="Page-1" stroke="none" stroke-width="1" fill="none" fill-rule="evenodd" sketch:type="MSPage">
        <g id="black" sketch:type="MSLayerGroup" fill="#000000">
            <ellipse id="Oval-895" sketch:type="MSShapeGroup" cx="504.538073" cy="74.6308282" rx="21.5659218" ry="20.7200079"></ellipse>
            <path d="M0.53807291,256.727063 C0.53807291,256.727063 86.4055335,236.735158 175.99669,236.831726 C682.258467,237.377409 1456.23117,237.00356 1875.02277,236.831726 C2018.32431,236.772928 2051.53807,257.109665 2051.53807,257.109665 L2051.53807,258.831377 L52.9316859,258.831377 L2.2833488,258.831377 L0.53807291,256.727063 Z" id="Rectangle-175" sketch:type="MSShapeGroup"></path>
            <path d="M498.61965,93.824304 C498.711025,89.4060766 502.367082,85.8243957 506.788431,85.8243957 L501.81441,85.8243957 C506.234528,85.8243957 509.902886,89.3996573 510.008259,93.824304 L513.50908,240.825416 C513.6143,245.243644 510.108772,248.825325 505.705875,248.825325 L503.407736,248.825325 C498.992925,248.825325 495.487955,245.250063 495.579463,240.825416 L498.61965,93.824304 Z" id="Rectangle-177" sketch:type="MSShapeGroup"></path>
            <rect id="Rectangle-178" sketch:type="MSShapeGroup" x="492.284708" y="97.2561242" width="24.5067293" height="8.57379637" rx="6"></rect>
            <rect id="Rectangle-178-Copy" sketch:type="MSShapeGroup" x="496.69592" y="42.9554138" width="14.7040376" height="17.6239148" rx="2"></rect>
            <rect id="Rectangle-178-Copy-3" sketch:type="MSShapeGroup" x="499.146592" y="32.9526514" width="8.82242255" height="17.6239148" rx="2"></rect>
            <path d="M502.569355,2.08358141 C502.573872,0.978297755 503.474639,0.0822883168 504.579596,0.0822883192 L502.781079,0.0822883152 C503.886787,0.0822883177 504.7877,0.974694274 504.793365,2.08358142 L505.998252,237.909133 C506.003899,239.014416 505.115802,239.910426 504.009377,239.910426 L503.596365,239.910426 C502.492293,239.910426 501.600913,239.01802 501.605445,237.909133 L502.569355,2.08358141 Z" id="Rectangle-178-Copy-4" sketch:type="MSShapeGroup"></path>
            <rect id="Rectangle-178-Copy-2" sketch:type="MSShapeGroup" x="492.284708" y="40.0974817" width="23.5264601" height="3.33425414" rx="2"></rect>
            <rect id="Rectangle-183-Copy" sketch:type="MSShapeGroup" x="1046" y="78.8313593" width="43.6701056" height="163.000929" rx="2"></rect>
            <rect id="Rectangle-183-Copy-14" sketch:type="MSShapeGroup" x="1889" y="82.3318238" width="43.6701056" height="163.000929" rx="2"></rect>
            <rect id="Rectangle-183-Copy-22" sketch:type="MSShapeGroup" x="1784.53807" y="146.832288" width="43.6701056" height="93.5177264" rx="2"></rect>
            <rect id="Rectangle-183-Copy-15" sketch:type="MSShapeGroup" x="1916.83505" y="105.831359" width="43.6701056" height="150" rx="2"></rect>
            <rect id="Rectangle-183-Copy-23" sketch:type="MSShapeGroup" x="1812.37313" y="160.314562" width="43.6701056" height="93.5177264" rx="2"></rect>
            <rect id="Rectangle-183-Copy-16" sketch:type="MSShapeGroup" x="182.329894" y="62.5430223" width="43.6701056" height="172" rx="2"></rect>
            <path d="M358.867967,37.0699025 C358.867967,35.9664521 359.636262,35.5450122 360.577363,36.1245023 L391.629037,55.2448091 C392.57311,55.8261295 393.338433,57.192277 393.338433,58.2980398 L393.338433,236.599151 C393.338433,237.704084 392.451709,238.599808 391.336161,238.599808 L360.870239,238.599808 C359.764415,238.599808 358.867967,237.703551 358.867967,236.601835 L358.867967,37.0699025 Z" id="Rectangle-183-Copy-19" sketch:type="MSShapeGroup"></path>
            <rect id="Rectangle-183-Copy-17" sketch:type="MSShapeGroup" x="189.562532" y="50.3243957" width="3" height="27" rx="2"></rect>
            <rect id="Rectangle-183-Copy-18" sketch:type="MSShapeGroup" x="189.799978" y="50.3961942" width="2.47619048" height="10.7993785" rx="2"></rect>
            <rect id="Rectangle-183-Copy-13" sketch:type="MSShapeGroup" x="1006" y="207.832288" width="43.6701056" height="50" rx="2"></rect>
            <path d="M1037.53807,85.8334862 C1037.53807,84.7277421 1038.29605,83.3540614 1039.22323,82.7702128 L1079.52302,57.3934346 C1080.45371,56.8073796 1081.20818,57.2240195 1081.20818,58.3269541 L1081.20818,244.837622 C1081.20818,245.939246 1080.31606,246.832288 1079.2039,246.832288 L1039.54235,246.832288 C1038.43542,246.832288 1037.53807,245.935555 1037.53807,244.830161 L1037.53807,85.8334862 Z" id="Rectangle-183-Copy-6" sketch:type="MSShapeGroup"></path>
            <path d="M98.0761458,187.327562 C98.0761458,186.225346 98.9452542,185.104849 100.002813,184.82866 L130.611406,176.834988 C131.675475,176.557098 132.538073,177.219335 132.538073,178.326214 L132.538073,255.837898 C132.538073,256.939369 131.651569,257.832288 130.536297,257.832288 L100.077922,257.832288 C98.9723714,257.832288 98.0761458,256.941771 98.0761458,255.83655 L98.0761458,187.327562 Z" id="Rectangle-183-Copy-9" sketch:type="MSShapeGroup"></path>
            <path d="M163.076146,176.327562 C163.076146,175.225346 163.96265,174.331824 165.077922,174.331824 L195.536297,174.331824 C196.641847,174.331824 197.538073,175.222341 197.538073,176.327562 L197.538073,244.83655 C197.538073,245.938766 196.651569,246.832288 195.536297,246.832288 L165.077922,246.832288 C163.972371,246.832288 163.076146,245.941771 163.076146,244.83655 L163.076146,176.327562 Z" id="Rectangle-183-Copy-10" sketch:type="MSShapeGroup"></path>
            <path d="M398.07446,114.928608 C398.07446,113.824063 398.979523,112.928652 400.074696,112.928652 L423.276327,112.928652 C424.381026,112.928652 425.276562,113.832732 425.276562,114.928608 L425.276562,241.581175 C425.276562,242.68572 424.3715,243.581131 423.276327,243.581131 L400.074696,243.581131 C398.969996,243.581131 398.07446,242.677052 398.07446,241.581175 L398.07446,114.928608 Z" id="Rectangle-183-Copy-20" sketch:type="MSShapeGroup"></path>
            <path d="M394.917109,107.064801 C394.917109,98.9004249 401.542026,92.2818907 409.701469,92.2818907 L414.178344,92.2818907 C422.343521,92.2818907 428.962704,98.8986298 428.962704,107.064801 L428.962704,107.064801 C428.962704,115.229176 422.337787,121.847711 414.178344,121.847711 L409.701469,121.847711 C401.536292,121.847711 394.917109,115.230972 394.917109,107.064801 L394.917109,107.064801 Z" id="Rectangle-183-Copy-21" sketch:type="MSShapeGroup"></path>
            <path d="M191.122614,206.222435 L190.562687,160.588119 C190.549093,159.480201 191.432401,158.582056 192.546265,158.582056 L223.991807,158.582056 C225.100902,158.582056 226,159.469568 226,160.576447 L226,238.08813 C226,239.189601 225.113496,240.082521 223.998224,240.082521 L193.539849,240.082521 C192.434298,240.082521 191.527034,239.182838 191.513522,238.081578 L191.122614,206.222435 Z" id="Rectangle-183-Copy-11" sketch:type="MSShapeGroup"></path>
            <rect id="Rectangle-183-Copy-8" sketch:type="MSShapeGroup" x="1693" y="108.831359" width="43.6701056" height="150" rx="2"></rect>
            <path d="M250.632734,90.8393071 C250.632734,89.7308612 251.52485,88.975288 252.608282,89.1489543 L292.327291,95.5156223 C293.418356,95.6905121 294.302839,96.7268334 294.302839,97.8264833 L294.30284,236.838093 C294.30284,237.939457 293.410724,238.832288 292.298559,238.832288 L252.637015,238.832288 C251.530081,238.832288 250.632734,237.932443 250.632734,236.82527 L250.632734,90.8393071 Z" id="Rectangle-183-Copy-24" sketch:type="MSShapeGroup"></path>
            <rect id="Rectangle-183-Copy-7" sketch:type="MSShapeGroup" x="1637.53807" y="93.8313593" width="43.6701056" height="163.000929" rx="2"></rect>
            <path d="M277.067607,184.631808 C277.067607,183.525298 277.852337,182.177633 278.800626,181.633041 L309.805054,163.827541 C310.762173,163.277878 311.538072,163.735239 311.538072,164.838772 L311.538073,238.825804 C311.538073,239.933955 310.651349,240.832288 309.535801,240.832288 L279.069879,240.832288 C277.964055,240.832288 277.067607,239.941334 277.067607,238.828775 L277.067607,184.631808 Z" id="Rectangle-183-Copy-25" sketch:type="MSShapeGroup"></path>
            <path d="M1519.00222,58.3624088 L1502.32252,58.3624088 C1501.2193,58.3624088 1500.32424,59.2574662 1500.32424,60.3615754 L1500.32424,242.833122 C1500.32424,243.938302 1501.2189,244.832288 1502.32252,244.832288 L1559.96199,244.832288 C1561.06521,244.832288 1561.96028,243.937231 1561.96028,242.833122 L1561.96028,60.3615754 C1561.96028,59.2563952 1561.06561,58.3624088 1559.96199,58.3624088 L1543.28223,58.3624088 C1543.35699,57.8174752 1543.39562,57.2610232 1543.39562,56.695548 C1543.39562,49.9842277 1537.95782,44.5462989 1531.24995,44.5462989 L1531.03456,44.5462989 C1524.32773,44.5462989 1518.88889,49.985703 1518.88889,56.695548 C1518.88889,57.2610393 1518.9275,57.81749 1519.00222,58.3624088 Z" id="Rectangle-183-Copy-3" sketch:type="MSShapeGroup"></path>
            <rect id="Rectangle-293" sketch:type="MSShapeGroup" x="1509.53807" y="71.6966582" width="5.78120352" height="40.3614458" rx="1"></rect>
            <rect id="Rectangle-293-Copy" sketch:type="MSShapeGroup" x="1528.25165" y="71.6966582" width="5.78120352" height="40.3614458" rx="1"></rect>
            <rect id="Rectangle-293-Copy-2" sketch:type="MSShapeGroup" x="1546.96524" y="71.6966582" width="5.78120352" height="40.3614458" rx="1"></rect>
            <path d="M729.992229,154.334687 L607.02259,154.334687 C605.919258,154.334687 605.027463,155.230269 605.027463,156.335026 L605.027463,238.831949 C605.027463,239.933765 605.920712,240.832288 607.02259,240.832288 L909.1581,240.832288 C910.261432,240.832288 911.153227,239.936706 911.153227,238.831949 L911.153227,156.335026 C911.153227,155.23321 910.259978,154.334687 909.1581,154.334687 L787.000699,154.334687 C787.074374,153.759161 787.112658,153.141962 787.112658,152.480646 C787.112658,135.646173 774.296922,121.999135 758.487911,121.999135 C742.6789,121.999135 729.863164,135.646173 729.863164,152.480646 C729.863164,153.141963 729.907338,153.759162 729.99233,154.334688 L729.992229,154.334687 Z M665.457484,173.685038 C665.457484,171.480889 667.252183,169.694074 669.448688,169.694074 L671.007862,169.694074 C673.212143,169.694074 674.999066,171.475738 674.999066,173.685038 L674.999066,215.763159 C674.999066,217.967307 673.204368,219.754122 671.007862,219.754122 L669.448688,219.754122 C667.244407,219.754122 665.457484,217.972458 665.457484,215.763159 L665.457484,173.685038 Z M616.954441,187.729508 C616.954441,187.176553 617.396366,186.728294 617.949222,186.728294 L631.862297,186.728294 C632.411699,186.728294 632.857078,187.168675 632.857078,187.729508 L632.857078,216.879496 C632.857078,217.432451 632.415153,217.880709 631.862297,217.880709 L617.949222,217.880709 C617.39982,217.880709 616.954441,217.440329 616.954441,216.879496 L616.954441,187.729508 Z M616.954441,178.444258 C616.954441,174.058126 620.523303,170.502463 624.90576,170.502463 C629.297151,170.502463 632.857078,174.070565 632.857078,178.444258 L632.857078,178.728444 C632.857078,183.114576 629.288216,186.670239 624.90576,186.670239 C620.514368,186.670239 616.954441,183.102137 616.954441,178.728444 L616.954441,178.444258 Z M699.648154,173.685038 C699.648154,171.480889 701.442852,169.694074 703.639358,169.694074 L705.198532,169.694074 C707.402813,169.694074 709.189736,171.475738 709.189736,173.685038 L709.189736,215.763159 C709.189736,217.967307 707.395037,219.754122 705.198532,219.754122 L703.639358,219.754122 C701.435077,219.754122 699.648154,217.972458 699.648154,215.763159 L699.648154,173.685038 Z M682.155253,173.685038 C682.155253,171.480889 683.949952,169.694074 686.146457,169.694074 L687.705631,169.694074 C689.909912,169.694074 691.696835,171.475738 691.696835,173.685038 L691.696835,215.763159 C691.696835,217.967307 689.902137,219.754122 687.705631,219.754122 L686.146457,219.754122 C683.942176,219.754122 682.155253,217.972458 682.155253,215.763159 L682.155253,173.685038 Z M822.893591,173.685038 C822.893591,171.480889 824.68829,169.694074 826.884795,169.694074 L828.443969,169.694074 C830.64825,169.694074 832.435173,171.475738 832.435173,173.685038 L832.435173,215.763159 C832.435173,217.967307 830.640475,219.754122 828.443969,219.754122 L826.884795,219.754122 C824.680514,219.754122 822.893591,217.972458 822.893591,215.763159 L822.893591,173.685038 Z M806.195822,173.685038 C806.195822,171.480889 807.990521,169.694074 810.187027,169.694074 L811.7462,169.694074 C813.950481,169.694074 815.737404,171.475738 815.737404,173.685038 L815.737404,215.763159 C815.737404,217.967307 813.942706,219.754122 811.7462,219.754122 L810.187027,219.754122 C807.982745,219.754122 806.195822,217.972458 806.195822,215.763159 L806.195822,173.685038 Z M839.59136,173.685038 C839.59136,171.480889 841.386059,169.694074 843.582564,169.694074 L845.141738,169.694074 C847.346019,169.694074 849.132942,171.475738 849.132942,173.685038 L849.132942,215.763159 C849.132942,217.967307 847.338244,219.754122 845.141738,219.754122 L843.582564,219.754122 C841.378283,219.754122 839.59136,217.972458 839.59136,215.763159 L839.59136,173.685038 Z M734.96463,188.569201 C734.96463,186.365053 736.765148,184.578238 738.961074,184.578238 L741.304901,184.578238 C743.512075,184.578238 745.301344,186.359901 745.301344,188.569201 L745.301344,230.647322 C745.301344,232.85147 743.500826,234.638285 741.304901,234.638285 L738.961074,234.638285 C736.753899,234.638285 734.96463,232.856622 734.96463,230.647322 L734.96463,188.569201 Z M753.71712,188.569201 C753.71712,186.365053 755.517638,184.578238 757.713563,184.578238 L760.05739,184.578238 C762.264565,184.578238 764.053834,186.359901 764.053834,188.569201 L764.053834,230.647322 C764.053834,232.85147 762.253316,234.638285 760.05739,234.638285 L757.713563,234.638285 C755.506389,234.638285 753.71712,232.856622 753.71712,230.647322 L753.71712,188.569201 Z M772.441519,188.569201 C772.441519,186.365053 774.242038,184.578238 776.437963,184.578238 L778.78179,184.578238 C780.988965,184.578238 782.778234,186.359901 782.778234,188.569201 L782.778234,230.647322 C782.778234,232.85147 780.977715,234.638285 778.78179,234.638285 L776.437963,234.638285 C774.230788,234.638285 772.441519,232.856622 772.441519,230.647322 L772.441519,188.569201 Z M881.733348,187.729508 C881.733348,187.176553 882.175274,186.728294 882.728129,186.728294 L896.641204,186.728294 C897.190607,186.728294 897.635985,187.168675 897.635985,187.729508 L897.635985,216.879496 C897.635985,217.432451 897.19406,217.880709 896.641204,217.880709 L882.728129,217.880709 C882.178727,217.880709 881.733348,217.440329 881.733348,216.879496 L881.733348,187.729508 Z M881.733348,178.502313 C881.733348,174.116181 885.30221,170.560518 889.684667,170.560518 C894.076059,170.560518 897.635985,174.128621 897.635985,178.502313 L897.635985,178.786499 C897.635985,183.172632 894.067123,186.728294 889.684667,186.728294 C885.293275,186.728294 881.733348,183.160192 881.733348,178.786499 L881.733348,178.502313 Z" id="Rectangle-183-Copy-12" sketch:type="MSShapeGroup"></path>
            <rect id="Rectangle-313" sketch:type="MSShapeGroup" x="721.116714" y="146.250799" width="73.9472624" height="12.1258319" rx="5"></rect>
            <rect id="Rectangle-313-Copy-2" sketch:type="MSShapeGroup" x="839.59136" y="144.634022" width="73.9472624" height="12.1258319" rx="5"></rect>
            <rect id="Rectangle-313-Copy-3" sketch:type="MSShapeGroup" x="869.011239" y="126.849468" width="38.9614608" height="21.0181087" rx="5"></rect>
            <rect id="Rectangle-313-Copy-4" sketch:type="MSShapeGroup" x="866.625843" y="121.999135" width="43.732252" height="8.89227676" rx="5"></rect>
            <rect id="Rectangle-313-Copy-7" sketch:type="MSShapeGroup" transform="translate(639.615699, 150.696938) scale(1, -1) translate(-639.615699, -150.696938) " x="602.642068" y="144.634022" width="73.9472624" height="12.1258319" rx="5"></rect>
            <rect id="Rectangle-313-Copy-5" sketch:type="MSShapeGroup" transform="translate(627.688721, 137.358522) scale(1, -1) translate(-627.688721, -137.358522) " x="608.207991" y="126.849468" width="38.9614608" height="21.0181087" rx="5"></rect>
            <rect id="Rectangle-313-Copy-6" sketch:type="MSShapeGroup" transform="translate(627.688721, 126.445274) scale(1, -1) translate(-627.688721, -126.445274) " x="605.822595" y="121.999135" width="43.732252" height="8.89227676" rx="5"></rect>
            <rect id="Rectangle-313-Copy" sketch:type="MSShapeGroup" x="724.860879" y="141.400466" width="67.3949733" height="8.89227676"></rect>
            <rect id="Rectangle-315" sketch:type="MSShapeGroup" x="727.477769" y="134.933356" width="2.38539556" height="8.08388797" rx="1"></rect>
            <polygon id="Triangle-1" sketch:type="MSShapeGroup" points="728.670466 127.657857 732.24856 135.741745 725.092373 135.741745 "></polygon>
            <rect id="Rectangle-316" sketch:type="MSShapeGroup" x="728.272901" y="126.849468" width="0.795131854" height="4.85033278" rx="1"></rect>
            <rect id="Rectangle-315" sketch:type="MSShapeGroup" x="787.112658" y="134.933356" width="2.38539556" height="8.08388797" rx="1"></rect>
            <polygon id="Triangle-1" sketch:type="MSShapeGroup" points="788.305355 127.657857 791.883449 135.741745 784.727262 135.741745 "></polygon>
            <rect id="Rectangle-316" sketch:type="MSShapeGroup" x="787.90779" y="126.849468" width="0.795131854" height="4.85033278" rx="1"></rect>
            <rect id="Rectangle-323" sketch:type="MSShapeGroup" x="613.773914" y="178.586351" width="23.8539556" height="8.08388797"></rect>
            <rect id="Rectangle-323-Copy" sketch:type="MSShapeGroup" x="876.167425" y="178.586351" width="23.8539556" height="8.08388797"></rect>
            <path d="M1421.08454,85.2019797 C1422.31232,85.705477 1424.35156,85.6954005 1424.35156,85.6954005 C1424.35156,85.6954005 1426.43861,85.6949866 1427.70402,85.172774 C1437.02497,81.3261607 1453.31869,64.422703 1453.31869,50.8180666 C1453.31869,35.3664776 1439.52558,22.8404898 1424.35156,22.8404898 C1409.17754,22.8404898 1395.75746,35.3664776 1395.75746,50.8180666 C1395.75746,64.4574357 1411.84382,81.4124914 1421.08454,85.2019797 Z" id="Oval-1343" sketch:type="MSShapeGroup"></path>
            <rect id="Rectangle-354" sketch:type="MSShapeGroup" x="1418.1044" y="89.0614714" width="12.9464286" height="9.32142857"></rect>
            <rect id="Rectangle-354-Copy" sketch:type="MSShapeGroup" x="1419.65797" y="82.3293286" width="1.03571429" height="9.32142857"></rect>
            <rect id="Rectangle-354-Copy-2" sketch:type="MSShapeGroup" x="1427.94369" y="82.3293286" width="1.03571429" height="9.32142857"></rect>
            <rect id="Rectangle-333" sketch:type="MSShapeGroup" x="624.90576" y="105.831359" width="1.59026371" height="19.4013311" rx="22"></rect>
            <path d="M626.496023,106.639748 C626.496023,106.639748 627.797148,108.591031 631.266814,107.810518 C634.736481,107.030005 636.037605,109.761801 636.037605,109.761801 L636.037605,117.45687 C636.037605,117.73319 635.937345,117.756811 635.790171,117.513153 C635.790171,117.513153 634.736481,114.835138 630.833106,116.005908 C628.640268,116.663623 626.496023,113.664368 626.496023,113.664368 L626.496023,106.639748 Z" id="Rectangle-334-Copy" sketch:type="MSShapeGroup"></path>
            <rect id="Rectangle-333-Copy" sketch:type="MSShapeGroup" x="1068.53807" y="45.8322883" width="3" height="24"></rect>
            <rect id="Rectangle-333" sketch:type="MSShapeGroup" x="887.299271" y="105.831359" width="1.59026371" height="19.4013311" rx="22"></rect>
            <path d="M888.889535,106.639748 C888.889535,106.639748 890.19066,108.591031 893.660326,107.810518 C897.129992,107.030005 898.431117,109.761801 898.431117,109.761801 L898.431117,117.45687 C898.431117,117.73319 898.330857,117.756811 898.183683,117.513153 C898.183683,117.513153 897.129992,114.835138 893.226618,116.005908 C891.03378,116.663623 888.889535,113.664368 888.889535,113.664368 L888.889535,106.639748 Z" id="Rectangle-334-Copy" sketch:type="MSShapeGroup"></path>
            <path d="M1387.78807,151.832288 L1315.53807,151.832288 L1315.53807,142.839134 C1315.53807,142.282237 1315.09423,141.832288 1314.54672,141.832288 L1313.53807,141.832288 L1313.53807,141.832288 L1313.53807,138.839134 C1313.53807,138.282237 1313.08965,137.832288 1312.53649,137.832288 L1293.02596,137.832288 C1293.35761,136.893952 1293.53807,135.884195 1293.53807,134.832288 C1293.53807,130.199735 1290.03802,126.384661 1285.53807,125.887217 L1285.53807,125.887217 L1285.53807,118.828823 C1285.53807,118.787907 1285.53565,118.747621 1285.53095,118.708096 L1285.53095,118.708096 C1287.25979,118.266534 1288.53807,116.69869 1288.53807,114.832288 C1288.53807,112.623149 1286.74721,110.832288 1284.53807,110.832288 C1282.32893,110.832288 1280.53807,112.623149 1280.53807,114.832288 C1280.53807,116.69872 1281.81639,118.266585 1283.54528,118.708117 C1283.54052,118.747685 1283.53807,118.787967 1283.53807,118.828823 L1283.53807,125.887217 C1279.03812,126.384661 1275.53807,130.199735 1275.53807,134.832288 C1275.53807,135.884195 1275.71854,136.893952 1276.05019,137.832288 L1259.53965,137.832288 C1258.98079,137.832288 1258.53807,138.283068 1258.53807,138.839134 L1258.53807,141.832288 L1256.52943,141.832288 C1255.98653,141.832288 1255.53807,142.283068 1255.53807,142.839134 L1255.53807,151.832288 L1255.53807,151.832288 L1182.28807,151.832288 L1182.28807,151.832288 L1145.53807,148.832288 L1152.53807,160.165622 L1152.53807,256.837321 C1152.53807,257.939406 1153.43325,258.832288 1154.53752,258.832288 L1415.53863,258.832288 C1416.64325,258.832288 1417.53807,257.939111 1417.53807,256.837321 L1417.53807,160.165622 L1424.53807,148.832288 L1387.78807,151.832288 Z M1167.57128,176.806064 C1167.57128,175.697827 1168.46721,174.799423 1169.56804,174.799423 L1188.07498,174.799423 C1189.17777,174.799423 1190.07175,175.697741 1190.07175,176.806064 L1190.07175,251.573593 C1190.07175,252.68183 1189.17582,253.580234 1188.07498,253.580234 L1169.56804,253.580234 C1168.46526,253.580234 1167.57128,252.681916 1167.57128,251.573593 L1167.57128,176.806064 Z M1207.53807,176.793768 C1207.53807,175.692321 1208.434,174.799423 1209.53484,174.799423 L1228.04178,174.799423 C1229.14456,174.799423 1230.03855,175.686293 1230.03855,176.793768 L1230.03855,256.837943 C1230.03855,257.93939 1229.14262,258.832288 1228.04178,258.832288 L1209.53484,258.832288 C1208.43206,258.832288 1207.53807,257.945418 1207.53807,256.837943 L1207.53807,176.793768 Z M1255.53807,177.825358 C1255.53807,176.724616 1256.4328,175.832288 1257.53438,175.832288 L1313.54177,175.832288 C1314.6443,175.832288 1315.53807,176.734596 1315.53807,177.825358 L1315.53807,229.839219 C1315.53807,230.939961 1314.64334,231.832288 1313.54177,231.832288 L1257.53438,231.832288 C1256.43185,231.832288 1255.53807,230.92998 1255.53807,229.839219 L1255.53807,177.825358 Z M1336.53807,176.806064 C1336.53807,175.697827 1337.434,174.799423 1338.53484,174.799423 L1357.04178,174.799423 C1358.14456,174.799423 1359.03855,175.697741 1359.03855,176.806064 L1359.03855,251.573593 C1359.03855,252.68183 1358.14262,253.580234 1357.04178,253.580234 L1338.53484,253.580234 C1337.43206,253.580234 1336.53807,252.681916 1336.53807,251.573593 L1336.53807,176.806064 Z M1384.0044,176.806064 C1384.0044,175.697827 1384.90033,174.799423 1386.00116,174.799423 L1404.5081,174.799423 C1405.61089,174.799423 1406.50487,175.697741 1406.50487,176.806064 L1406.50487,251.573593 C1406.50487,252.68183 1405.60894,253.580234 1404.5081,253.580234 L1386.00116,253.580234 C1384.89838,253.580234 1384.0044,252.681916 1384.0044,251.573593 L1384.0044,176.806064 Z" id="Rectangle-183-Copy-5" sketch:type="MSShapeGroup"></path>
            <path d="M1261.0429,121.1191 C1261.0429,120.42121 1260.53807,118.1191 1260.53807,118.1191 C1260.53807,118.1191 1261.30679,117.379835 1262.53807,117.6191 C1263.50156,117.806327 1264.87645,118.848039 1265.53807,119.6191 C1266.36591,120.583881 1265.95819,122.917101 1266.71663,124.1191 C1267.26681,124.991031 1267.02645,126.197355 1267.53807,127.1191 C1268.19506,128.302745 1270.96391,128.400051 1271.53807,129.579471 C1272.7383,132.044916 1272.93085,134.542123 1273.03807,136.601781 C1273.08248,137.454737 1275.66923,138.182287 1275.53807,138.852922 C1275.36714,139.726916 1273.50199,137.175228 1272.53807,137.6191 C1271.91592,137.905596 1272.66039,139.035211 1272.03807,139.6191 C1270.91052,140.677017 1269.53807,140.293537 1267.53807,140.1191 C1266.34735,140.015247 1267.03807,137.6191 1266.71663,136.601781 L1263.38431,134.477938 C1262.29802,135.450925 1263.72004,140.272077 1263.38431,138.852922 L1262.03807,138.852922 C1261.21362,135.367934 1261.33401,132.19375 1262.03807,129.579471 C1262.51448,127.810514 1263.67997,126.297773 1263.38431,125.1191 C1263.14601,124.169112 1261.7513,124.395984 1260.53807,123.6191 C1260.53807,123.6191 1261.0429,122.254543 1261.0429,121.1191 Z" id="Path-5" sketch:type="MSShapeGroup"></path>
            <path d="M1295.0429,121.1191 C1295.0429,120.42121 1294.53807,118.1191 1294.53807,118.1191 C1294.53807,118.1191 1295.30679,117.379835 1296.53807,117.6191 C1297.50156,117.806327 1298.87645,118.848039 1299.53807,119.6191 C1300.36591,120.583881 1299.95819,122.917101 1300.71663,124.1191 C1301.26681,124.991031 1301.02645,126.197355 1301.53807,127.1191 C1302.19506,128.302745 1304.96391,128.400051 1305.53807,129.579471 C1306.7383,132.044916 1306.93085,134.542123 1307.03807,136.601781 C1307.08248,137.454737 1309.66923,138.182287 1309.53807,138.852922 C1309.36714,139.726916 1307.50199,137.175228 1306.53807,137.6191 C1305.91592,137.905596 1306.66039,139.035211 1306.03807,139.6191 C1304.91052,140.677017 1303.53807,140.293537 1301.53807,140.1191 C1300.34735,140.015247 1301.03807,137.6191 1300.71663,136.601781 L1297.38431,134.477938 C1296.29802,135.450925 1297.72004,140.272077 1297.38431,138.852922 L1296.03807,138.852922 C1295.21362,135.367934 1295.33401,132.19375 1296.03807,129.579471 C1296.51448,127.810514 1297.67997,126.297773 1297.38431,125.1191 C1297.14601,124.169112 1295.7513,124.395984 1294.53807,123.6191 C1294.53807,123.6191 1295.0429,122.254543 1295.0429,121.1191 Z" id="Path-5-Copy" sketch:type="MSShapeGroup" transform="translate(1302.040485, 128.951860) scale(-1, 1) translate(-1302.040485, -128.951860) "></path>
            <path d="M1282.0429,121.1191 C1282.0429,120.42121 1281.53807,118.1191 1281.53807,118.1191 C1281.53807,118.1191 1282.30679,117.379835 1283.53807,117.6191 C1284.50156,117.806327 1285.87645,118.848039 1286.53807,119.6191 C1287.36591,120.583881 1286.95819,122.917101 1287.71663,124.1191 C1288.26681,124.991031 1288.02645,126.197355 1288.53807,127.1191 C1289.19506,128.302745 1291.96391,128.400051 1292.53807,129.579471 C1293.7383,132.044916 1293.93085,134.542123 1294.03807,136.601781 C1294.08248,137.454737 1296.66923,138.182287 1296.53807,138.852922 C1296.36714,139.726916 1294.50199,137.175228 1293.53807,137.6191 C1292.91592,137.905596 1293.66039,139.035211 1293.03807,139.6191 C1291.91052,140.677017 1290.53807,140.293537 1288.53807,140.1191 C1287.34735,140.015247 1288.03807,137.6191 1287.71663,136.601781 L1284.38431,134.477938 C1283.29802,135.450925 1284.72004,140.272077 1284.38431,138.852922 L1283.03807,138.852922 C1282.21362,135.367934 1282.33401,132.19375 1283.03807,129.579471 C1283.51448,127.810514 1284.67997,126.297773 1284.38431,125.1191 C1284.14601,124.169112 1282.7513,124.395984 1281.53807,123.6191 C1281.53807,123.6191 1282.0429,122.254543 1282.0429,121.1191 Z" id="Path-5-Copy-2" sketch:type="MSShapeGroup" transform="translate(1289.040485, 128.951860) scale(-1, 1) translate(-1289.040485, -128.951860) "></path>
            <path d="M1274.0429,121.1191 C1274.0429,120.42121 1273.53807,118.1191 1273.53807,118.1191 C1273.53807,118.1191 1274.30679,117.379835 1275.53807,117.6191 C1276.50156,117.806327 1277.87645,118.848039 1278.53807,119.6191 C1279.36591,120.583881 1278.95819,122.917101 1279.71663,124.1191 C1280.26681,124.991031 1280.02645,126.197355 1280.53807,127.1191 C1281.19506,128.302745 1283.96391,128.400051 1284.53807,129.579471 C1285.7383,132.044916 1285.93085,134.542123 1286.03807,136.601781 C1286.08248,137.454737 1288.66923,138.182287 1288.53807,138.852922 C1288.36714,139.726916 1286.50199,137.175228 1285.53807,137.6191 C1284.91592,137.905596 1285.66039,139.035211 1285.03807,139.6191 C1283.91052,140.677017 1282.53807,140.293537 1280.53807,140.1191 C1279.34735,140.015247 1280.03807,137.6191 1279.71663,136.601781 L1276.38431,134.477938 C1275.29802,135.450925 1276.72004,140.272077 1276.38431,138.852922 L1275.03807,138.852922 C1274.21362,135.367934 1274.33401,132.19375 1275.03807,129.579471 C1275.51448,127.810514 1276.67997,126.297773 1276.38431,125.1191 C1276.14601,124.169112 1274.7513,124.395984 1273.53807,123.6191 C1273.53807,123.6191 1274.0429,122.254543 1274.0429,121.1191 Z" id="Path-5-Copy-3" sketch:type="MSShapeGroup"></path>
            <path d="M1286.58413,106.868138 C1286.47824,105.628704 1287.39518,104.623943 1288.63808,104.623943 L1289.10204,104.623943 C1290.34229,104.623943 1291.24665,105.619341 1291.12112,106.855692 L1290.55899,112.392195 C1290.43385,113.624755 1289.73148,115.430183 1288.99126,116.423319 L1288.78956,116.693934 L1288.58787,116.423319 C1287.84718,115.429551 1287.16169,113.628546 1287.055,112.379748 L1286.58413,106.868138 Z" id="Rectangle-342-Copy" sketch:type="MSShapeGroup" transform="translate(1288.848499, 110.658939) scale(1, -1) rotate(-44.000000) translate(-1288.848499, -110.658939) "></path>
            <path d="M1278.58413,107.868138 C1278.47824,106.628704 1279.39518,105.623943 1280.63808,105.623943 L1281.10204,105.623943 C1282.34229,105.623943 1283.24665,106.619341 1283.12112,107.855692 L1282.55899,113.392195 C1282.43385,114.624755 1281.73148,116.430183 1280.99126,117.423319 L1280.78956,117.693934 L1280.58787,117.423319 C1279.84718,116.429551 1279.16169,114.628546 1279.055,113.379748 L1278.58413,107.868138 Z" id="Rectangle-342-Copy-2" sketch:type="MSShapeGroup" transform="translate(1280.848499, 111.658939) scale(-1, -1) rotate(-44.000000) translate(-1280.848499, -111.658939) "></path>
        </g>
    </g>
</svg>