<?xml version="1.0" encoding="UTF-8" standalone="no"?>
<svg width="2051px" height="260px" viewBox="0 0 2051 260" version="1.1" xmlns="http://www.w3.org/2000/svg" xmlns:xlink="http://www.w3.org/1999/xlink" xmlns:sketch="http://www.bohemiancoding.com/sketch/ns">
    <!-- Generator: Sketch 3.3.3 (12072) - http://www.bohemiancoding.com/sketch -->
    <title>Group</title>
    <desc>Created with Sketch.</desc>
    <defs>
        <linearGradient x1="50%" y1="0%" x2="50%" y2="100%" id="linearGradient-1">
            <stop stop-color="#62A2C5" offset="0%"></stop>
            <stop stop-color="#E8B9B8" offset="100%"></stop>
        </linearGradient>
    </defs>
    <g id="Page-1" stroke="none" stroke-width="1" fill="none" fill-rule="evenodd" sketch:type="MSPage">
        <g id="Group" sketch:type="MSLayerGroup" fill="url(#linearGradient-1)">
            <ellipse id="Oval-895" sketch:type="MSShapeGroup" cx="504" cy="75.2985399" rx="21.5659218" ry="20.7200079"></ellipse>
            <path d="M5.9099392e-12,257.394775 C5.9099392e-12,257.394775 85.8674606,237.40287 175.458617,237.499437 C681.720394,238.045121 1455.6931,237.671272 1874.48469,237.499437 C2017.78624,237.440639 2051,257.777377 2051,257.777377 L2051,259.499089 L52.393613,259.499089 L1.74527589,259.499089 L5.9099392e-12,257.394775 Z" id="Rectangle-175" sketch:type="MSShapeGroup"></path>
            <path d="M498.081577,94.4920157 C498.172952,90.0737883 501.829009,86.4921073 506.250358,86.4921073 L501.276337,86.4921073 C505.696455,86.4921073 509.364813,90.067369 509.470186,94.4920157 L512.971007,241.493128 C513.076227,245.911355 509.570699,249.493036 505.167802,249.493036 L502.869663,249.493036 C498.454852,249.493036 494.949882,245.917775 495.04139,241.493128 L498.081577,94.4920157 Z" id="Rectangle-177" sketch:type="MSShapeGroup"></path>
            <rect id="Rectangle-178" sketch:type="MSShapeGroup" x="491.746635" y="97.9238358" width="24.5067293" height="8.57379637" rx="6"></rect>
            <rect id="Rectangle-178-Copy" sketch:type="MSShapeGroup" x="496.157847" y="43.6231255" width="14.7040376" height="17.6239148" rx="2"></rect>
            <rect id="Rectangle-178-Copy-3" sketch:type="MSShapeGroup" x="498.60852" y="33.6203631" width="8.82242255" height="17.6239148" rx="2"></rect>
            <path d="M502.031282,2.7512931 C502.035799,1.64600944 502.936566,0.75 504.041523,0.750000002 L502.243006,0.749999998 C503.348714,0.750000001 504.249627,1.64240596 504.255292,2.7512931 L505.460179,238.576844 C505.465826,239.682128 504.577729,240.578137 503.471304,240.578137 L503.058292,240.578137 C501.95422,240.578137 501.06284,239.685731 501.067373,238.576844 L502.031282,2.7512931 Z" id="Rectangle-178-Copy-4" sketch:type="MSShapeGroup"></path>
            <rect id="Rectangle-178-Copy-2" sketch:type="MSShapeGroup" x="491.746635" y="40.7651934" width="23.5264601" height="3.33425414" rx="2"></rect>
            <rect id="Rectangle-183-Copy" sketch:type="MSShapeGroup" x="1045.46193" y="79.499071" width="43.6701056" height="163.000929" rx="2"></rect>
            <rect id="Rectangle-183-Copy-14" sketch:type="MSShapeGroup" x="1888.46193" y="82.9995355" width="43.6701056" height="163.000929" rx="2"></rect>
            <rect id="Rectangle-183-Copy-22" sketch:type="MSShapeGroup" x="1784" y="147.5" width="43.6701056" height="93.5177264" rx="2"></rect>
            <rect id="Rectangle-183-Copy-15" sketch:type="MSShapeGroup" x="1916.29698" y="106.499071" width="43.6701056" height="150" rx="2"></rect>
            <rect id="Rectangle-183-Copy-23" sketch:type="MSShapeGroup" x="1811.83505" y="160.982274" width="43.6701056" height="93.5177264" rx="2"></rect>
            <rect id="Rectangle-183-Copy-16" sketch:type="MSShapeGroup" x="181.791821" y="63.210734" width="43.6701056" height="172" rx="2"></rect>
            <path d="M358.329894,37.7376141 C358.329894,36.6341637 359.098189,36.2127239 360.03929,36.792214 L391.090964,55.9125208 C392.035037,56.4938411 392.80036,57.8599887 392.80036,58.9657515 L392.80036,237.266863 C392.80036,238.371795 391.913637,239.26752 390.798088,239.26752 L360.332166,239.26752 C359.226342,239.26752 358.329894,238.371263 358.329894,237.269546 L358.329894,37.7376141 Z" id="Rectangle-183-Copy-19" sketch:type="MSShapeGroup"></path>
            <rect id="Rectangle-183-Copy-17" sketch:type="MSShapeGroup" x="189.024459" y="50.9921073" width="3" height="27" rx="2"></rect>
            <rect id="Rectangle-183-Copy-18" sketch:type="MSShapeGroup" x="189.261905" y="51.0639059" width="2.47619048" height="10.7993785" rx="2"></rect>
            <rect id="Rectangle-183-Copy-13" sketch:type="MSShapeGroup" x="1005.46193" y="208.5" width="43.6701056" height="50" rx="2"></rect>
            <path d="M1037,86.5011979 C1037,85.3954537 1037.75798,84.0217731 1038.68516,83.4379245 L1078.98494,58.0611463 C1079.91563,57.4750913 1080.6701,57.8917312 1080.6701,58.9946658 L1080.67011,245.505334 C1080.67011,246.606958 1079.77799,247.5 1078.66582,247.5 L1039.00428,247.5 C1037.89735,247.5 1037,246.603266 1037,245.497873 L1037,86.5011979 Z" id="Rectangle-183-Copy-6" sketch:type="MSShapeGroup"></path>
            <path d="M97.5380729,187.995274 C97.5380729,186.893058 98.4071813,185.772561 99.4647396,185.496372 L130.073333,177.502699 C131.137402,177.22481 132,177.887047 132,178.993926 L132,256.505609 C132,257.607081 131.113496,258.5 129.998224,258.5 L99.5398487,258.5 C98.4342985,258.5 97.5380729,257.609483 97.5380729,256.504262 L97.5380729,187.995274 Z" id="Rectangle-183-Copy-9" sketch:type="MSShapeGroup"></path>
            <path d="M162.538073,176.995274 C162.538073,175.893058 163.424577,174.999535 164.539849,174.999535 L194.998224,174.999535 C196.103774,174.999535 197,175.890053 197,176.995274 L197,245.504262 C197,246.606478 196.113496,247.5 194.998224,247.5 L164.539849,247.5 C163.434298,247.5 162.538073,246.609483 162.538073,245.504262 L162.538073,176.995274 Z" id="Rectangle-183-Copy-10" sketch:type="MSShapeGroup"></path>
            <path d="M397.536387,115.59632 C397.536387,114.491775 398.44145,113.596364 399.536623,113.596364 L422.738254,113.596364 C423.842954,113.596364 424.738489,114.500443 424.738489,115.59632 L424.738489,242.248886 C424.738489,243.353432 423.833427,244.248843 422.738254,244.248843 L399.536623,244.248843 C398.431923,244.248843 397.536387,243.344763 397.536387,242.248886 L397.536387,115.59632 Z" id="Rectangle-183-Copy-20" sketch:type="MSShapeGroup"></path>
            <path d="M394.379036,107.732512 C394.379036,99.5681366 401.003953,92.9496024 409.163396,92.9496024 L413.640271,92.9496024 C421.805448,92.9496024 428.424631,99.5663415 428.424631,107.732512 L428.424631,107.732512 C428.424631,115.896888 421.799714,122.515422 413.640271,122.515422 L409.163396,122.515422 C400.998219,122.515422 394.379036,115.898683 394.379036,107.732512 L394.379036,107.732512 Z" id="Rectangle-183-Copy-21" sketch:type="MSShapeGroup"></path>
            <path d="M190.584541,206.890147 L190.024614,161.255831 C190.01102,160.147913 190.894328,159.249768 192.008193,159.249768 L223.453735,159.249768 C224.562829,159.249768 225.461927,160.137279 225.461927,161.244158 L225.461927,238.755842 C225.461927,239.857313 224.575423,240.750232 223.460151,240.750232 L193.001776,240.750232 C191.896226,240.750232 190.988961,239.85055 190.975449,238.74929 L190.584541,206.890147 Z" id="Rectangle-183-Copy-11" sketch:type="MSShapeGroup"></path>
            <rect id="Rectangle-183-Copy-8" sketch:type="MSShapeGroup" x="1692.46193" y="109.499071" width="43.6701056" height="150" rx="2"></rect>
            <path d="M250.094661,91.5070188 C250.094661,90.3985729 250.986777,89.6429997 252.07021,89.816666 L291.789218,96.183334 C292.880283,96.3582238 293.764766,97.3945451 293.764766,98.494195 L293.764767,237.505805 C293.764767,238.607168 292.872651,239.5 291.760486,239.5 L252.098942,239.5 C250.992008,239.5 250.094661,238.600155 250.094661,237.492981 L250.094661,91.5070188 Z" id="Rectangle-183-Copy-24" sketch:type="MSShapeGroup"></path>
            <rect id="Rectangle-183-Copy-7" sketch:type="MSShapeGroup" x="1637" y="94.499071" width="43.6701056" height="163.000929" rx="2"></rect>
            <path d="M276.529534,185.29952 C276.529534,184.19301 277.314264,182.845345 278.262553,182.300753 L309.266981,164.495253 C310.224101,163.94559 311,164.40295 311,165.506484 L311,239.493516 C311,240.601666 310.113276,241.5 308.997728,241.5 L278.531806,241.5 C277.425982,241.5 276.529534,240.609045 276.529534,239.496487 L276.529534,185.29952 Z" id="Rectangle-183-Copy-25" sketch:type="MSShapeGroup"></path>
            <path d="M1518.46415,59.0301205 L1501.78445,59.0301205 C1500.68123,59.0301205 1499.78616,59.9251779 1499.78616,61.0292871 L1499.78616,243.500833 C1499.78616,244.606014 1500.68083,245.5 1501.78445,245.5 L1559.42392,245.5 C1560.52714,245.5 1561.4222,244.604943 1561.4222,243.500833 L1561.4222,61.0292871 C1561.4222,59.9241069 1560.52754,59.0301205 1559.42392,59.0301205 L1542.74416,59.0301205 C1542.81892,58.4851869 1542.85755,57.9287348 1542.85755,57.3632597 C1542.85755,50.6519393 1537.41975,45.2140105 1530.71188,45.2140105 L1530.49649,45.2140105 C1523.78966,45.2140105 1518.35082,50.6534147 1518.35082,57.3632597 C1518.35082,57.928751 1518.38943,58.4852017 1518.46415,59.0301205 Z" id="Rectangle-183-Copy-3" sketch:type="MSShapeGroup"></path>
            <rect id="Rectangle-293" sketch:type="MSShapeGroup" x="1509" y="72.3643699" width="5.78120352" height="40.3614458" rx="1"></rect>
            <rect id="Rectangle-293-Copy" sketch:type="MSShapeGroup" x="1527.71358" y="72.3643699" width="5.78120352" height="40.3614458" rx="1"></rect>
            <rect id="Rectangle-293-Copy-2" sketch:type="MSShapeGroup" x="1546.42716" y="72.3643699" width="5.78120352" height="40.3614458" rx="1"></rect>
            <path d="M729.454156,155.002399 L606.484517,155.002399 C605.381185,155.002399 604.48939,155.897981 604.48939,157.002738 L604.48939,239.499661 C604.48939,240.601477 605.382639,241.5 606.484517,241.5 L908.620027,241.5 C909.723359,241.5 910.615154,240.604418 910.615154,239.499661 L910.615154,157.002738 C910.615154,155.900922 909.721905,155.002399 908.620027,155.002399 L786.462626,155.002399 C786.536301,154.426873 786.574585,153.809674 786.574585,153.148358 C786.574585,136.313884 773.758849,122.666847 757.949838,122.666847 C742.140827,122.666847 729.325091,136.313884 729.325091,153.148358 C729.325091,153.809675 729.369265,154.426873 729.454257,155.0024 L729.454156,155.002399 Z M664.919411,174.352749 C664.919411,172.148601 666.71411,170.361786 668.910616,170.361786 L670.469789,170.361786 C672.67407,170.361786 674.460993,172.14345 674.460993,174.352749 L674.460993,216.43087 C674.460993,218.635018 672.666295,220.421834 670.469789,220.421834 L668.910616,220.421834 C666.706334,220.421834 664.919411,218.64017 664.919411,216.43087 L664.919411,174.352749 Z M616.416368,188.39722 C616.416368,187.844265 616.858293,187.396006 617.411149,187.396006 L631.324224,187.396006 C631.873626,187.396006 632.319005,187.836386 632.319005,188.39722 L632.319005,217.547208 C632.319005,218.100163 631.87708,218.548421 631.324224,218.548421 L617.411149,218.548421 C616.861747,218.548421 616.416368,218.108041 616.416368,217.547208 L616.416368,188.39722 Z M616.416368,179.11197 C616.416368,174.725837 619.98523,171.170175 624.367687,171.170175 C628.759079,171.170175 632.319005,174.738277 632.319005,179.11197 L632.319005,179.396156 C632.319005,183.782288 628.750143,187.337951 624.367687,187.337951 C619.976295,187.337951 616.416368,183.769849 616.416368,179.396156 L616.416368,179.11197 Z M699.110081,174.352749 C699.110081,172.148601 700.90478,170.361786 703.101285,170.361786 L704.660459,170.361786 C706.86474,170.361786 708.651663,172.14345 708.651663,174.352749 L708.651663,216.43087 C708.651663,218.635018 706.856964,220.421834 704.660459,220.421834 L703.101285,220.421834 C700.897004,220.421834 699.110081,218.64017 699.110081,216.43087 L699.110081,174.352749 Z M681.61718,174.352749 C681.61718,172.148601 683.411879,170.361786 685.608384,170.361786 L687.167558,170.361786 C689.371839,170.361786 691.158762,172.14345 691.158762,174.352749 L691.158762,216.43087 C691.158762,218.635018 689.364064,220.421834 687.167558,220.421834 L685.608384,220.421834 C683.404103,220.421834 681.61718,218.64017 681.61718,216.43087 L681.61718,174.352749 Z M822.355518,174.352749 C822.355518,172.148601 824.150217,170.361786 826.346723,170.361786 L827.905896,170.361786 C830.110177,170.361786 831.8971,172.14345 831.8971,174.352749 L831.8971,216.43087 C831.8971,218.635018 830.102402,220.421834 827.905896,220.421834 L826.346723,220.421834 C824.142441,220.421834 822.355518,218.64017 822.355518,216.43087 L822.355518,174.352749 Z M805.657749,174.352749 C805.657749,172.148601 807.452448,170.361786 809.648954,170.361786 L811.208127,170.361786 C813.412408,170.361786 815.199332,172.14345 815.199332,174.352749 L815.199332,216.43087 C815.199332,218.635018 813.404633,220.421834 811.208127,220.421834 L809.648954,220.421834 C807.444672,220.421834 805.657749,218.64017 805.657749,216.43087 L805.657749,174.352749 Z M839.053287,174.352749 C839.053287,172.148601 840.847986,170.361786 843.044492,170.361786 L844.603665,170.361786 C846.807946,170.361786 848.594869,172.14345 848.594869,174.352749 L848.594869,216.43087 C848.594869,218.635018 846.800171,220.421834 844.603665,220.421834 L843.044492,220.421834 C840.84021,220.421834 839.053287,218.64017 839.053287,216.43087 L839.053287,174.352749 Z M734.426557,189.236913 C734.426557,187.032765 736.227075,185.245949 738.423001,185.245949 L740.766828,185.245949 C742.974003,185.245949 744.763271,187.027613 744.763271,189.236913 L744.763271,231.315034 C744.763271,233.519182 742.962753,235.305997 740.766828,235.305997 L738.423001,235.305997 C736.215826,235.305997 734.426557,233.524333 734.426557,231.315034 L734.426557,189.236913 Z M753.179047,189.236913 C753.179047,187.032765 754.979565,185.245949 757.17549,185.245949 L759.519317,185.245949 C761.726492,185.245949 763.515761,187.027613 763.515761,189.236913 L763.515761,231.315034 C763.515761,233.519182 761.715243,235.305997 759.519317,235.305997 L757.17549,235.305997 C754.968316,235.305997 753.179047,233.524333 753.179047,231.315034 L753.179047,189.236913 Z M771.903447,189.236913 C771.903447,187.032765 773.703965,185.245949 775.89989,185.245949 L778.243717,185.245949 C780.450892,185.245949 782.240161,187.027613 782.240161,189.236913 L782.240161,231.315034 C782.240161,233.519182 780.439642,235.305997 778.243717,235.305997 L775.89989,235.305997 C773.692715,235.305997 771.903447,233.524333 771.903447,231.315034 L771.903447,189.236913 Z M881.195275,188.39722 C881.195275,187.844265 881.637201,187.396006 882.190057,187.396006 L896.103131,187.396006 C896.652534,187.396006 897.097912,187.836386 897.097912,188.39722 L897.097912,217.547208 C897.097912,218.100163 896.655987,218.548421 896.103131,218.548421 L882.190057,218.548421 C881.640654,218.548421 881.195275,218.108041 881.195275,217.547208 L881.195275,188.39722 Z M881.195275,179.170025 C881.195275,174.783893 884.764138,171.22823 889.146594,171.22823 C893.537986,171.22823 897.097912,174.796332 897.097912,179.170025 L897.097912,179.454211 C897.097912,183.840343 893.52905,187.396006 889.146594,187.396006 C884.755202,187.396006 881.195275,183.827904 881.195275,179.454211 L881.195275,179.170025 Z" id="Rectangle-183-Copy-12" sketch:type="MSShapeGroup"></path>
            <rect id="Rectangle-313" sketch:type="MSShapeGroup" x="720.578641" y="146.918511" width="73.9472624" height="12.1258319" rx="5"></rect>
            <rect id="Rectangle-313-Copy-2" sketch:type="MSShapeGroup" x="839.053287" y="145.301733" width="73.9472624" height="12.1258319" rx="5"></rect>
            <rect id="Rectangle-313-Copy-3" sketch:type="MSShapeGroup" x="868.473166" y="127.51718" width="38.9614608" height="21.0181087" rx="5"></rect>
            <rect id="Rectangle-313-Copy-4" sketch:type="MSShapeGroup" x="866.08777" y="122.666847" width="43.732252" height="8.89227676" rx="5"></rect>
            <rect id="Rectangle-313-Copy-7" sketch:type="MSShapeGroup" transform="translate(639.077626, 151.364649) scale(1, -1) translate(-639.077626, -151.364649) " x="602.103995" y="145.301733" width="73.9472624" height="12.1258319" rx="5"></rect>
            <rect id="Rectangle-313-Copy-5" sketch:type="MSShapeGroup" transform="translate(627.150648, 138.026234) scale(1, -1) translate(-627.150648, -138.026234) " x="607.669918" y="127.51718" width="38.9614608" height="21.0181087" rx="5"></rect>
            <rect id="Rectangle-313-Copy-6" sketch:type="MSShapeGroup" transform="translate(627.150648, 127.112985) scale(1, -1) translate(-627.150648, -127.112985) " x="605.284522" y="122.666847" width="43.732252" height="8.89227676" rx="5"></rect>
            <rect id="Rectangle-313-Copy" sketch:type="MSShapeGroup" x="724.322806" y="142.068178" width="67.3949733" height="8.89227676"></rect>
            <rect id="Rectangle-315" sketch:type="MSShapeGroup" x="726.939696" y="135.601068" width="2.38539556" height="8.08388797" rx="1"></rect>
            <polygon id="Triangle-1" sketch:type="MSShapeGroup" points="728.132394 128.325568 731.710487 136.409456 724.5543 136.409456 "></polygon>
            <rect id="Rectangle-316" sketch:type="MSShapeGroup" x="727.734828" y="127.51718" width="0.795131854" height="4.85033278" rx="1"></rect>
            <rect id="Rectangle-315" sketch:type="MSShapeGroup" x="786.574585" y="135.601068" width="2.38539556" height="8.08388797" rx="1"></rect>
            <polygon id="Triangle-1" sketch:type="MSShapeGroup" points="787.767283 128.325568 791.345376 136.409456 784.189189 136.409456 "></polygon>
            <rect id="Rectangle-316" sketch:type="MSShapeGroup" x="787.369717" y="127.51718" width="0.795131854" height="4.85033278" rx="1"></rect>
            <rect id="Rectangle-323" sketch:type="MSShapeGroup" x="613.235841" y="179.254063" width="23.8539556" height="8.08388797"></rect>
            <rect id="Rectangle-323-Copy" sketch:type="MSShapeGroup" x="875.629352" y="179.254063" width="23.8539556" height="8.08388797"></rect>
            <path d="M1420.54647,85.8696914 C1421.77425,86.3731887 1423.81348,86.3631122 1423.81348,86.3631122 C1423.81348,86.3631122 1425.90054,86.3626983 1427.16594,85.8404857 C1436.48689,81.9938724 1452.78061,65.0904146 1452.78061,51.4857783 C1452.78061,36.0341893 1438.9875,23.5082015 1423.81348,23.5082015 C1408.63946,23.5082015 1395.21939,36.0341893 1395.21939,51.4857783 C1395.21939,65.1251473 1411.30575,82.0802031 1420.54647,85.8696914 Z" id="Oval-1343" sketch:type="MSShapeGroup"></path>
            <rect id="Rectangle-354" sketch:type="MSShapeGroup" x="1417.56633" y="89.7291831" width="12.9464286" height="9.32142857"></rect>
            <rect id="Rectangle-354-Copy" sketch:type="MSShapeGroup" x="1419.1199" y="82.9970403" width="1.03571429" height="9.32142857"></rect>
            <rect id="Rectangle-354-Copy-2" sketch:type="MSShapeGroup" x="1427.40561" y="82.9970403" width="1.03571429" height="9.32142857"></rect>
            <rect id="Rectangle-333" sketch:type="MSShapeGroup" x="624.367687" y="106.499071" width="1.59026371" height="19.4013311" rx="22"></rect>
            <path d="M625.95795,107.30746 C625.95795,107.30746 627.259075,109.258743 630.728741,108.47823 C634.198408,107.697716 635.499533,110.429513 635.499533,110.429513 L635.499533,118.124581 C635.499533,118.400901 635.399272,118.424522 635.252098,118.180865 C635.252098,118.180865 634.198408,115.50285 630.295033,116.67362 C628.102195,117.331335 625.95795,114.33208 625.95795,114.33208 L625.95795,107.30746 Z" id="Rectangle-334-Copy" sketch:type="MSShapeGroup"></path>
            <rect id="Rectangle-333-Copy" sketch:type="MSShapeGroup" x="1068" y="46.5" width="3" height="24"></rect>
            <rect id="Rectangle-333" sketch:type="MSShapeGroup" x="886.761198" y="106.499071" width="1.59026371" height="19.4013311" rx="22"></rect>
            <path d="M888.351462,107.30746 C888.351462,107.30746 889.652587,109.258743 893.122253,108.47823 C896.591919,107.697716 897.893044,110.429513 897.893044,110.429513 L897.893044,118.124581 C897.893044,118.400901 897.792784,118.424522 897.64561,118.180865 C897.64561,118.180865 896.591919,115.50285 892.688545,116.67362 C890.495707,117.331335 888.351462,114.33208 888.351462,114.33208 L888.351462,107.30746 Z" id="Rectangle-334-Copy" sketch:type="MSShapeGroup"></path>
            <path d="M1387.25,152.5 L1315,152.5 L1315,143.506845 C1315,142.949949 1314.55616,142.5 1314.00865,142.5 L1313,142.5 L1313,142.5 L1313,139.506845 C1313,138.949949 1312.55158,138.5 1311.99842,138.5 L1292.48788,138.5 C1292.81954,137.561663 1293,136.551906 1293,135.5 C1293,130.867446 1289.49995,127.052373 1285,126.554929 L1285,126.554929 L1285,119.496535 C1285,119.455618 1284.99758,119.415333 1284.99288,119.375808 L1284.99288,119.375808 C1286.72172,118.934246 1288,117.366402 1288,115.5 C1288,113.290861 1286.20914,111.5 1284,111.5 C1281.79086,111.5 1280,113.290861 1280,115.5 C1280,117.366432 1281.27832,118.934296 1283.0072,119.375829 C1283.00245,119.415397 1283,119.455679 1283,119.496535 L1283,126.554929 C1278.50005,127.052373 1275,130.867446 1275,135.5 C1275,136.551906 1275.18046,137.561663 1275.51212,138.5 L1259.00158,138.5 C1258.44272,138.5 1258,138.95078 1258,139.506845 L1258,142.5 L1255.99135,142.5 C1255.44846,142.5 1255,142.95078 1255,143.506845 L1255,152.5 L1255,152.5 L1181.75,152.5 L1181.75,152.5 L1145,149.5 L1152,160.833333 L1152,257.505033 C1152,258.607117 1152.89518,259.5 1153.99944,259.5 L1415.00056,259.5 C1416.10517,259.5 1417,258.606823 1417,257.505033 L1417,160.833333 L1424,149.5 L1387.25,152.5 Z M1167.0332,177.473775 C1167.0332,176.365538 1167.92913,175.467135 1169.02997,175.467135 L1187.53691,175.467135 C1188.63969,175.467135 1189.53368,176.365453 1189.53368,177.473775 L1189.53368,252.241305 C1189.53368,253.349542 1188.63775,254.247946 1187.53691,254.247946 L1169.02997,254.247946 C1167.92719,254.247946 1167.0332,253.349628 1167.0332,252.241305 L1167.0332,177.473775 Z M1207,177.461479 C1207,176.360033 1207.89593,175.467135 1208.99677,175.467135 L1227.50371,175.467135 C1228.60649,175.467135 1229.50047,176.354005 1229.50047,177.461479 L1229.50047,257.505655 C1229.50047,258.607101 1228.60454,259.5 1227.50371,259.5 L1208.99677,259.5 C1207.89398,259.5 1207,258.61313 1207,257.505655 L1207,177.461479 Z M1255,178.49307 C1255,177.392328 1255.89473,176.5 1256.99631,176.5 L1313.00369,176.5 C1314.10622,176.5 1315,177.402308 1315,178.49307 L1315,230.50693 C1315,231.607672 1314.10527,232.5 1313.00369,232.5 L1256.99631,232.5 C1255.89378,232.5 1255,231.597692 1255,230.50693 L1255,178.49307 Z M1336,177.473775 C1336,176.365538 1336.89593,175.467135 1337.99677,175.467135 L1356.50371,175.467135 C1357.60649,175.467135 1358.50047,176.365453 1358.50047,177.473775 L1358.50047,252.241305 C1358.50047,253.349542 1357.60454,254.247946 1356.50371,254.247946 L1337.99677,254.247946 C1336.89398,254.247946 1336,253.349628 1336,252.241305 L1336,177.473775 Z M1383.46632,177.473775 C1383.46632,176.365538 1384.36225,175.467135 1385.46309,175.467135 L1403.97003,175.467135 C1405.07281,175.467135 1405.9668,176.365453 1405.9668,177.473775 L1405.9668,252.241305 C1405.9668,253.349542 1405.07087,254.247946 1403.97003,254.247946 L1385.46309,254.247946 C1384.36031,254.247946 1383.46632,253.349628 1383.46632,252.241305 L1383.46632,177.473775 Z" id="Rectangle-183-Copy-5" sketch:type="MSShapeGroup"></path>
            <path d="M1260.50482,121.786812 C1260.50482,121.088921 1260,118.786812 1260,118.786812 C1260,118.786812 1260.76872,118.047546 1262,118.286812 C1262.96349,118.474039 1264.33838,119.51575 1265,120.286812 C1265.82784,121.251592 1265.42012,123.584813 1266.17856,124.786812 C1266.72873,125.658743 1266.48838,126.865066 1267,127.786812 C1267.65699,128.970457 1270.42583,129.067763 1271,130.247183 C1272.20023,132.712628 1272.39278,135.209835 1272.5,137.269493 C1272.5444,138.122448 1275.13116,138.849998 1275,139.520634 C1274.82907,140.394628 1272.96392,137.84294 1272,138.286812 C1271.37784,138.573307 1272.12232,139.702923 1271.5,140.286812 C1270.37245,141.344728 1269,140.961248 1267,140.786812 C1265.80928,140.682959 1266.5,138.286812 1266.17856,137.269493 L1262.84624,135.145649 C1261.75995,136.118637 1263.18197,140.939789 1262.84624,139.520633 L1261.5,139.520634 C1260.67555,136.035645 1260.79593,132.861462 1261.5,130.247183 C1261.97641,128.478225 1263.1419,126.965484 1262.84624,125.786812 C1262.60794,124.836824 1261.21323,125.063696 1260,124.286812 C1260,124.286812 1260.50482,122.922255 1260.50482,121.786812 Z" id="Path-5" sketch:type="MSShapeGroup"></path>
            <path d="M1294.50482,121.786812 C1294.50482,121.088921 1294,118.786812 1294,118.786812 C1294,118.786812 1294.76872,118.047546 1296,118.286812 C1296.96349,118.474039 1298.33838,119.51575 1299,120.286812 C1299.82784,121.251592 1299.42012,123.584813 1300.17856,124.786812 C1300.72873,125.658743 1300.48838,126.865066 1301,127.786812 C1301.65699,128.970457 1304.42583,129.067763 1305,130.247183 C1306.20023,132.712628 1306.39278,135.209835 1306.5,137.269493 C1306.5444,138.122448 1309.13116,138.849998 1309,139.520634 C1308.82907,140.394628 1306.96392,137.84294 1306,138.286812 C1305.37784,138.573307 1306.12232,139.702923 1305.5,140.286812 C1304.37245,141.344728 1303,140.961248 1301,140.786812 C1299.80928,140.682959 1300.5,138.286812 1300.17856,137.269493 L1296.84624,135.145649 C1295.75995,136.118637 1297.18197,140.939789 1296.84624,139.520633 L1295.5,139.520634 C1294.67555,136.035645 1294.79593,132.861462 1295.5,130.247183 C1295.97641,128.478225 1297.1419,126.965484 1296.84624,125.786812 C1296.60794,124.836824 1295.21323,125.063696 1294,124.286812 C1294,124.286812 1294.50482,122.922255 1294.50482,121.786812 Z" id="Path-5-Copy" sketch:type="MSShapeGroup" transform="translate(1301.502412, 129.619572) scale(-1, 1) translate(-1301.502412, -129.619572) "></path>
            <path d="M1281.50482,121.786812 C1281.50482,121.088921 1281,118.786812 1281,118.786812 C1281,118.786812 1281.76872,118.047546 1283,118.286812 C1283.96349,118.474039 1285.33838,119.51575 1286,120.286812 C1286.82784,121.251592 1286.42012,123.584813 1287.17856,124.786812 C1287.72873,125.658743 1287.48838,126.865066 1288,127.786812 C1288.65699,128.970457 1291.42583,129.067763 1292,130.247183 C1293.20023,132.712628 1293.39278,135.209835 1293.5,137.269493 C1293.5444,138.122448 1296.13116,138.849998 1296,139.520634 C1295.82907,140.394628 1293.96392,137.84294 1293,138.286812 C1292.37784,138.573307 1293.12232,139.702923 1292.5,140.286812 C1291.37245,141.344728 1290,140.961248 1288,140.786812 C1286.80928,140.682959 1287.5,138.286812 1287.17856,137.269493 L1283.84624,135.145649 C1282.75995,136.118637 1284.18197,140.939789 1283.84624,139.520633 L1282.5,139.520634 C1281.67555,136.035645 1281.79593,132.861462 1282.5,130.247183 C1282.97641,128.478225 1284.1419,126.965484 1283.84624,125.786812 C1283.60794,124.836824 1282.21323,125.063696 1281,124.286812 C1281,124.286812 1281.50482,122.922255 1281.50482,121.786812 Z" id="Path-5-Copy-2" sketch:type="MSShapeGroup" transform="translate(1288.502412, 129.619572) scale(-1, 1) translate(-1288.502412, -129.619572) "></path>
            <path d="M1273.50482,121.786812 C1273.50482,121.088921 1273,118.786812 1273,118.786812 C1273,118.786812 1273.76872,118.047546 1275,118.286812 C1275.96349,118.474039 1277.33838,119.51575 1278,120.286812 C1278.82784,121.251592 1278.42012,123.584813 1279.17856,124.786812 C1279.72873,125.658743 1279.48838,126.865066 1280,127.786812 C1280.65699,128.970457 1283.42583,129.067763 1284,130.247183 C1285.20023,132.712628 1285.39278,135.209835 1285.5,137.269493 C1285.5444,138.122448 1288.13116,138.849998 1288,139.520634 C1287.82907,140.394628 1285.96392,137.84294 1285,138.286812 C1284.37784,138.573307 1285.12232,139.702923 1284.5,140.286812 C1283.37245,141.344728 1282,140.961248 1280,140.786812 C1278.80928,140.682959 1279.5,138.286812 1279.17856,137.269493 L1275.84624,135.145649 C1274.75995,136.118637 1276.18197,140.939789 1275.84624,139.520633 L1274.5,139.520634 C1273.67555,136.035645 1273.79593,132.861462 1274.5,130.247183 C1274.97641,128.478225 1276.1419,126.965484 1275.84624,125.786812 C1275.60794,124.836824 1274.21323,125.063696 1273,124.286812 C1273,124.286812 1273.50482,122.922255 1273.50482,121.786812 Z" id="Path-5-Copy-3" sketch:type="MSShapeGroup"></path>
            <path d="M1286.04605,107.53585 C1285.94016,106.296415 1286.85711,105.291655 1288.10001,105.291655 L1288.56396,105.291655 C1289.80422,105.291655 1290.70858,106.287053 1290.58305,107.523403 L1290.02092,113.059906 C1289.89577,114.292467 1289.19341,116.097895 1288.45319,117.091031 L1288.25149,117.361646 L1288.04979,117.091031 C1287.3091,116.097263 1286.62362,114.296257 1286.51693,113.04746 L1286.04605,107.53585 Z" id="Rectangle-342-Copy" sketch:type="MSShapeGroup" transform="translate(1288.310426, 111.326650) scale(1, -1) rotate(-44.000000) translate(-1288.310426, -111.326650) "></path>
            <path d="M1278.04605,108.53585 C1277.94016,107.296415 1278.85711,106.291655 1280.10001,106.291655 L1280.56396,106.291655 C1281.80422,106.291655 1282.70858,107.287053 1282.58305,108.523403 L1282.02092,114.059906 C1281.89577,115.292467 1281.19341,117.097895 1280.45319,118.091031 L1280.25149,118.361646 L1280.04979,118.091031 C1279.3091,117.097263 1278.62362,115.296257 1278.51693,114.04746 L1278.04605,108.53585 Z" id="Rectangle-342-Copy-2" sketch:type="MSShapeGroup" transform="translate(1280.310426, 112.326650) scale(-1, -1) rotate(-44.000000) translate(-1280.310426, -112.326650) "></path>
        </g>
    </g>
</svg>