<?xml version="1.0" encoding="UTF-8" standalone="no"?>
<svg width="2051px" height="260px" viewBox="0 0 2051 260" version="1.1" xmlns="http://www.w3.org/2000/svg" xmlns:xlink="http://www.w3.org/1999/xlink" xmlns:sketch="http://www.bohemiancoding.com/sketch/ns">
    <!-- Generator: Sketch 3.3.3 (12072) - http://www.bohemiancoding.com/sketch -->
    <title>Group</title>
    <desc>Created with Sketch.</desc>
    <defs></defs>
    <g id="Page-1" stroke="none" stroke-width="1" fill="none" fill-rule="evenodd" sketch:type="MSPage">
        <g id="Group" sketch:type="MSLayerGroup">
            <ellipse id="Oval-895" fill="#677073" sketch:type="MSShapeGroup" cx="504" cy="75.2985399" rx="21.5659218" ry="20.7200079"></ellipse>
            <path d="M5.9099392e-12,257.394775 C5.9099392e-12,257.394775 85.8674606,237.40287 175.458617,237.499437 C681.720394,238.045121 1455.6931,237.671272 1874.48469,237.499437 C2017.78624,237.440639 2051,257.777377 2051,257.777377 L2051,259.499089 L52.393613,259.499089 L1.74527589,259.499089 L5.9099392e-12,257.394775 Z" id="Rectangle-175" fill="#677073" sketch:type="MSShapeGroup"></path>
            <path d="M498.081577,94.4920157 C498.172952,90.0737883 501.829009,86.4921073 506.250358,86.4921073 L501.276337,86.4921073 C505.696455,86.4921073 509.364813,90.067369 509.470186,94.4920157 L512.971007,241.493128 C513.076227,245.911355 509.570699,249.493036 505.167802,249.493036 L502.869663,249.493036 C498.454852,249.493036 494.949882,245.917775 495.04139,241.493128 L498.081577,94.4920157 Z" id="Rectangle-177" fill="#677073" sketch:type="MSShapeGroup"></path>
            <rect id="Rectangle-178" fill="#677073" sketch:type="MSShapeGroup" x="491.746635" y="97.9238358" width="24.5067293" height="8.57379637" rx="6"></rect>
            <rect id="Rectangle-178-Copy" fill="#677073" sketch:type="MSShapeGroup" x="496.157847" y="43.6231255" width="14.7040376" height="17.6239148" rx="2"></rect>
            <rect id="Rectangle-178-Copy-3" fill="#677073" sketch:type="MSShapeGroup" x="498.60852" y="33.6203631" width="8.82242255" height="17.6239148" rx="2"></rect>
            <path d="M502.031282,2.7512931 C502.035799,1.64600944 502.936566,0.75 504.041523,0.750000002 L502.243006,0.749999998 C503.348714,0.750000001 504.249627,1.64240596 504.255292,2.7512931 L505.460179,238.576844 C505.465826,239.682128 504.577729,240.578137 503.471304,240.578137 L503.058292,240.578137 C501.95422,240.578137 501.06284,239.685731 501.067373,238.576844 L502.031282,2.7512931 Z" id="Rectangle-178-Copy-4" fill="#677073" sketch:type="MSShapeGroup"></path>
            <rect id="Rectangle-178-Copy-2" fill="#677073" sketch:type="MSShapeGroup" x="491.746635" y="40.7651934" width="23.5264601" height="3.33425414" rx="2"></rect>
            <rect id="Rectangle-183-Copy" fill="#677073" sketch:type="MSShapeGroup" x="1045.46193" y="79.499071" width="43.6701056" height="163.000929" rx="2"></rect>
            <rect id="Rectangle-183-Copy-14" fill="#677073" sketch:type="MSShapeGroup" x="1888.46193" y="82.9995355" width="43.6701056" height="163.000929" rx="2"></rect>
            <rect id="Rectangle-183-Copy-22" fill="#677073" sketch:type="MSShapeGroup" x="1784" y="147.5" width="43.6701056" height="93.5177264" rx="2"></rect>
            <rect id="Rectangle-183-Copy-15" fill="#677073" sketch:type="MSShapeGroup" x="1916.29698" y="106.499071" width="43.6701056" height="150" rx="2"></rect>
            <rect id="Rectangle-183-Copy-23" fill="#677073" sketch:type="MSShapeGroup" x="1811.83505" y="160.982274" width="43.6701056" height="93.5177264" rx="2"></rect>
            <rect id="Rectangle-183-Copy-16" fill="#677073" sketch:type="MSShapeGroup" x="181.791821" y="63.210734" width="43.6701056" height="172" rx="2"></rect>
            <path d="M358.329894,37.7376141 C358.329894,36.6341637 359.098189,36.2127239 360.03929,36.792214 L391.090964,55.9125208 C392.035037,56.4938411 392.80036,57.8599887 392.80036,58.9657515 L392.80036,237.266863 C392.80036,238.371795 391.913637,239.26752 390.798088,239.26752 L360.332166,239.26752 C359.226342,239.26752 358.329894,238.371263 358.329894,237.269546 L358.329894,37.7376141 Z" id="Rectangle-183-Copy-19" fill="#677073" sketch:type="MSShapeGroup"></path>
            <rect id="Rectangle-183-Copy-17" fill="#677073" sketch:type="MSShapeGroup" x="189.024459" y="50.9921073" width="3" height="27" rx="2"></rect>
            <rect id="Rectangle-183-Copy-18" fill="#677073" sketch:type="MSShapeGroup" x="189.261905" y="51.0639059" width="2.47619048" height="10.7993785" rx="2"></rect>
            <rect id="Rectangle-183-Copy-13" fill="#677073" sketch:type="MSShapeGroup" x="1005.46193" y="208.5" width="43.6701056" height="50" rx="2"></rect>
            <path d="M1037,86.5011979 C1037,85.3954537 1037.75798,84.0217731 1038.68516,83.4379245 L1078.98494,58.0611463 C1079.91563,57.4750913 1080.6701,57.8917312 1080.6701,58.9946658 L1080.67011,245.505334 C1080.67011,246.606958 1079.77799,247.5 1078.66582,247.5 L1039.00428,247.5 C1037.89735,247.5 1037,246.603266 1037,245.497873 L1037,86.5011979 Z" id="Rectangle-183-Copy-6" fill="#677073" sketch:type="MSShapeGroup"></path>
            <path d="M97.5380729,187.995274 C97.5380729,186.893058 98.4071813,185.772561 99.4647396,185.496372 L130.073333,177.502699 C131.137402,177.22481 132,177.887047 132,178.993926 L132,256.505609 C132,257.607081 131.113496,258.5 129.998224,258.5 L99.5398487,258.5 C98.4342985,258.5 97.5380729,257.609483 97.5380729,256.504262 L97.5380729,187.995274 Z" id="Rectangle-183-Copy-9" fill="#677073" sketch:type="MSShapeGroup"></path>
            <path d="M162.538073,176.995274 C162.538073,175.893058 163.424577,174.999535 164.539849,174.999535 L194.998224,174.999535 C196.103774,174.999535 197,175.890053 197,176.995274 L197,245.504262 C197,246.606478 196.113496,247.5 194.998224,247.5 L164.539849,247.5 C163.434298,247.5 162.538073,246.609483 162.538073,245.504262 L162.538073,176.995274 Z" id="Rectangle-183-Copy-10" fill="#677073" sketch:type="MSShapeGroup"></path>
            <path d="M397.536387,115.59632 C397.536387,114.491775 398.44145,113.596364 399.536623,113.596364 L422.738254,113.596364 C423.842954,113.596364 424.738489,114.500443 424.738489,115.59632 L424.738489,242.248886 C424.738489,243.353432 423.833427,244.248843 422.738254,244.248843 L399.536623,244.248843 C398.431923,244.248843 397.536387,243.344763 397.536387,242.248886 L397.536387,115.59632 Z" id="Rectangle-183-Copy-20" fill="#677073" sketch:type="MSShapeGroup"></path>
            <path d="M394.379036,107.732512 C394.379036,99.5681366 401.003953,92.9496024 409.163396,92.9496024 L413.640271,92.9496024 C421.805448,92.9496024 428.424631,99.5663415 428.424631,107.732512 L428.424631,107.732512 C428.424631,115.896888 421.799714,122.515422 413.640271,122.515422 L409.163396,122.515422 C400.998219,122.515422 394.379036,115.898683 394.379036,107.732512 L394.379036,107.732512 Z" id="Rectangle-183-Copy-21" fill="#677073" sketch:type="MSShapeGroup"></path>
            <path d="M190.584541,206.890147 L190.024614,161.255831 C190.01102,160.147913 190.894328,159.249768 192.008193,159.249768 L223.453735,159.249768 C224.562829,159.249768 225.461927,160.137279 225.461927,161.244158 L225.461927,238.755842 C225.461927,239.857313 224.575423,240.750232 223.460151,240.750232 L193.001776,240.750232 C191.896226,240.750232 190.988961,239.85055 190.975449,238.74929 L190.584541,206.890147 Z" id="Rectangle-183-Copy-11" fill="#677073" sketch:type="MSShapeGroup"></path>
            <rect id="Rectangle-183-Copy-8" fill="#677073" sketch:type="MSShapeGroup" x="1692.46193" y="109.499071" width="43.6701056" height="150" rx="2"></rect>
            <path d="M250.094661,91.5070188 C250.094661,90.3985729 250.986777,89.6429997 252.07021,89.816666 L291.789218,96.183334 C292.880283,96.3582238 293.764766,97.3945451 293.764766,98.494195 L293.764767,237.505805 C293.764767,238.607168 292.872651,239.5 291.760486,239.5 L252.098942,239.5 C250.992008,239.5 250.094661,238.600155 250.094661,237.492981 L250.094661,91.5070188 Z" id="Rectangle-183-Copy-24" fill="#677073" sketch:type="MSShapeGroup"></path>
            <rect id="Rectangle-183-Copy-7" fill="#677073" sketch:type="MSShapeGroup" x="1637" y="94.499071" width="43.6701056" height="163.000929" rx="2"></rect>
            <path d="M276.529534,185.29952 C276.529534,184.19301 277.314264,182.845345 278.262553,182.300753 L309.266981,164.495253 C310.224101,163.94559 311,164.40295 311,165.506484 L311,239.493516 C311,240.601666 310.113276,241.5 308.997728,241.5 L278.531806,241.5 C277.425982,241.5 276.529534,240.609045 276.529534,239.496487 L276.529534,185.29952 Z" id="Rectangle-183-Copy-25" fill="#677073" sketch:type="MSShapeGroup"></path>
            <g transform="translate(1499.000000, 44.500000)" sketch:type="MSShapeGroup">
                <path d="M19.4641452,14.5301205 L2.78444601,14.5301205 C1.68123038,14.5301205 0.78616474,15.4251779 0.78616474,16.5292871 L0.78616474,199.000833 C0.78616474,200.106014 1.68082574,201 2.78444601,201 L60.4239216,201 C61.5271372,201 62.4222029,200.104943 62.4222029,199.000833 L62.4222029,16.5292871 C62.4222029,15.4241069 61.5275419,14.5301205 60.4239216,14.5301205 L43.7441593,14.5301205 C43.8189199,13.9851869 43.8575485,13.4287348 43.8575485,12.8632597 C43.8575485,6.15193934 38.4197466,0.714010542 31.7118782,0.714010542 L31.4964894,0.714010542 C24.7896567,0.714010542 19.3508191,6.15341466 19.3508191,12.8632597 C19.3508191,13.428751 19.3894255,13.9852017 19.4641452,14.5301205 Z" id="Rectangle-183-Copy-3" fill="#677073"></path>
                <rect id="Rectangle-293" fill="#FFFFFF" x="10" y="27.8643699" width="5.78120352" height="40.3614458" rx="1"></rect>
                <rect id="Rectangle-293-Copy" fill="#FFFFFF" x="28.713582" y="27.8643699" width="5.78120352" height="40.3614458" rx="1"></rect>
                <rect id="Rectangle-293-Copy-2" fill="#FFFFFF" x="47.4271641" y="27.8643699" width="5.78120352" height="40.3614458" rx="1"></rect>
            </g>
            <g transform="translate(602.103995, 122.666847)" fill="#677073" sketch:type="MSShapeGroup">
                <path d="M127.350162,32.3355519 L4.38052216,32.3355519 C3.27719067,32.3355519 2.38539556,33.2311341 2.38539556,34.3358908 L2.38539556,116.832814 C2.38539556,117.93463 3.27864417,118.833153 4.38052216,118.833153 L306.516033,118.833153 C307.619364,118.833153 308.511159,117.937571 308.511159,116.832814 L308.511159,34.3358908 C308.511159,33.2340749 307.617911,32.3355519 306.516033,32.3355519 L184.358631,32.3355519 C184.432306,31.7600256 184.47059,31.1428273 184.47059,30.4815111 C184.47059,13.6470374 171.654854,0 155.845843,0 C140.036832,0 127.221097,13.6470374 127.221097,30.4815111 C127.221097,31.1428277 127.26527,31.7600265 127.350262,32.3355531 L127.350162,32.3355519 Z M62.8154165,51.6859024 C62.8154165,49.4817542 64.6101151,47.694939 66.8066208,47.694939 L68.3657943,47.694939 C70.5700756,47.694939 72.3569987,49.4766026 72.3569987,51.6859024 L72.3569987,93.7640233 C72.3569987,95.9681715 70.5623001,97.7549867 68.3657943,97.7549867 L66.8066208,97.7549867 C64.6023395,97.7549867 62.8154165,95.9733231 62.8154165,93.7640233 L62.8154165,51.6859024 Z M14.3123734,65.7303727 C14.3123734,65.1774177 14.7542986,64.7291591 15.3071545,64.7291591 L29.2202293,64.7291591 C29.7696317,64.7291591 30.2150104,65.1695395 30.2150104,65.7303727 L30.2150104,94.8803606 C30.2150104,95.4333156 29.7730852,95.8815742 29.2202293,95.8815742 L15.3071545,95.8815742 C14.7577521,95.8815742 14.3123734,95.4411939 14.3123734,94.8803606 L14.3123734,65.7303727 Z M14.3123734,56.4451227 C14.3123734,52.0589905 17.8812355,48.5033278 22.2636919,48.5033278 C26.6550839,48.5033278 30.2150104,52.0714299 30.2150104,56.4451227 L30.2150104,56.7293088 C30.2150104,61.115441 26.6461483,64.6711037 22.2636919,64.6711037 C17.8722999,64.6711037 14.3123734,61.1030016 14.3123734,56.7293088 L14.3123734,56.4451227 Z M97.0060862,51.6859024 C97.0060862,49.4817542 98.8007848,47.694939 100.997291,47.694939 L102.556464,47.694939 C104.760745,47.694939 106.547668,49.4766026 106.547668,51.6859024 L106.547668,93.7640233 C106.547668,95.9681715 104.75297,97.7549867 102.556464,97.7549867 L100.997291,97.7549867 C98.7930092,97.7549867 97.0060862,95.9733231 97.0060862,93.7640233 L97.0060862,51.6859024 Z M79.5131854,51.6859024 C79.5131854,49.4817542 81.307884,47.694939 83.5043897,47.694939 L85.0635633,47.694939 C87.2678446,47.694939 89.0547676,49.4766026 89.0547676,51.6859024 L89.0547676,93.7640233 C89.0547676,95.9681715 87.260069,97.7549867 85.0635633,97.7549867 L83.5043897,97.7549867 C81.3001084,97.7549867 79.5131854,95.9733231 79.5131854,93.7640233 L79.5131854,51.6859024 Z M220.251524,51.6859024 C220.251524,49.4817542 222.046222,47.694939 224.242728,47.694939 L225.801901,47.694939 C228.006183,47.694939 229.793106,49.4766026 229.793106,51.6859024 L229.793106,93.7640233 C229.793106,95.9681715 227.998407,97.7549867 225.801901,97.7549867 L224.242728,97.7549867 C222.038447,97.7549867 220.251524,95.9733231 220.251524,93.7640233 L220.251524,51.6859024 Z M203.553755,51.6859024 C203.553755,49.4817542 205.348453,47.694939 207.544959,47.694939 L209.104132,47.694939 C211.308414,47.694939 213.095337,49.4766026 213.095337,51.6859024 L213.095337,93.7640233 C213.095337,95.9681715 211.300638,97.7549867 209.104132,97.7549867 L207.544959,97.7549867 C205.340678,97.7549867 203.553755,95.9733231 203.553755,93.7640233 L203.553755,51.6859024 Z M236.949292,51.6859024 C236.949292,49.4817542 238.743991,47.694939 240.940497,47.694939 L242.49967,47.694939 C244.703952,47.694939 246.490875,49.4766026 246.490875,51.6859024 L246.490875,93.7640233 C246.490875,95.9681715 244.696176,97.7549867 242.49967,97.7549867 L240.940497,97.7549867 C238.736215,97.7549867 236.949292,95.9733231 236.949292,93.7640233 L236.949292,51.6859024 Z M132.322562,66.5700658 C132.322562,64.3659176 134.123081,62.5791025 136.319006,62.5791025 L138.662833,62.5791025 C140.870008,62.5791025 142.659277,64.3607661 142.659277,66.5700658 L142.659277,108.648187 C142.659277,110.852335 140.858758,112.63915 138.662833,112.63915 L136.319006,112.63915 C134.111831,112.63915 132.322562,110.857487 132.322562,108.648187 L132.322562,66.5700658 Z M151.075052,66.5700658 C151.075052,64.3659176 152.87557,62.5791025 155.071496,62.5791025 L157.415323,62.5791025 C159.622498,62.5791025 161.411766,64.3607661 161.411766,66.5700658 L161.411766,108.648187 C161.411766,110.852335 159.611248,112.63915 157.415323,112.63915 L155.071496,112.63915 C152.864321,112.63915 151.075052,110.857487 151.075052,108.648187 L151.075052,66.5700658 Z M169.799452,66.5700658 C169.799452,64.3659176 171.59997,62.5791025 173.795895,62.5791025 L176.139722,62.5791025 C178.346897,62.5791025 180.136166,64.3607661 180.136166,66.5700658 L180.136166,108.648187 C180.136166,110.852335 178.335648,112.63915 176.139722,112.63915 L173.795895,112.63915 C171.588721,112.63915 169.799452,110.857487 169.799452,108.648187 L169.799452,66.5700658 Z M279.091281,65.7303727 C279.091281,65.1774177 279.533206,64.7291591 280.086062,64.7291591 L293.999137,64.7291591 C294.548539,64.7291591 294.993918,65.1695395 294.993918,65.7303727 L294.993918,94.8803606 C294.993918,95.4333156 294.551993,95.8815742 293.999137,95.8815742 L280.086062,95.8815742 C279.536659,95.8815742 279.091281,95.4411939 279.091281,94.8803606 L279.091281,65.7303727 Z M279.091281,56.5031781 C279.091281,52.1170459 282.660143,48.5613832 287.042599,48.5613832 C291.433991,48.5613832 294.993918,52.1294853 294.993918,56.5031781 L294.993918,56.7873642 C294.993918,61.1734964 291.425056,64.7291591 287.042599,64.7291591 C282.651207,64.7291591 279.091281,61.161057 279.091281,56.7873642 L279.091281,56.5031781 Z" id="Rectangle-183-Copy-12"></path>
                <rect id="Rectangle-313" x="118.474646" y="24.2516639" width="73.9472624" height="12.1258319" rx="5"></rect>
                <g id="Rectangle-313-Copy-2-+-Rectangle-313-Copy-3-+-Rectangle-313-Copy-4" transform="translate(236.949292, 0.000000)">
                    <rect id="Rectangle-313-Copy-2" x="0" y="22.6348863" width="73.9472624" height="12.1258319" rx="5"></rect>
                    <rect id="Rectangle-313-Copy-3" x="29.4198786" y="4.85033278" width="38.9614608" height="21.0181087" rx="5"></rect>
                    <rect id="Rectangle-313-Copy-4" x="27.034483" y="0" width="43.732252" height="8.89227676" rx="5"></rect>
                </g>
                <g id="Rectangle-313-Copy-7-+-Rectangle-313-Copy-5-+-Rectangle-313-Copy-6" transform="translate(36.973631, 17.380359) scale(-1, 1) translate(-36.973631, -17.380359) ">
                    <rect id="Rectangle-313-Copy-7" transform="translate(36.973631, 28.697802) scale(-1, -1) translate(-36.973631, -28.697802) " x="0" y="22.6348863" width="73.9472624" height="12.1258319" rx="5"></rect>
                    <rect id="Rectangle-313-Copy-5" transform="translate(48.900609, 15.359387) scale(-1, -1) translate(-48.900609, -15.359387) " x="29.4198786" y="4.85033278" width="38.9614608" height="21.0181087" rx="5"></rect>
                    <rect id="Rectangle-313-Copy-6" transform="translate(48.900609, 4.446138) scale(-1, -1) translate(-48.900609, -4.446138) " x="27.034483" y="0" width="43.732252" height="8.89227676" rx="5"></rect>
                </g>
                <rect id="Rectangle-313-Copy" x="122.218811" y="19.4013311" width="67.3949733" height="8.89227676"></rect>
                <g id="Rectangle-315-+-Triangle-1-+-Rectangle-316" transform="translate(122.450305, 4.850333)">
                    <rect id="Rectangle-315" x="2.38539556" y="8.08388797" width="2.38539556" height="8.08388797" rx="1"></rect>
                    <g id="Triangle-1-+-Rectangle-316">
                        <polygon id="Triangle-1" points="3.57809334 0.808388797 7.15618668 8.89227676 0 8.89227676 "></polygon>
                        <rect id="Rectangle-316" x="3.18052742" y="0" width="0.795131854" height="4.85033278" rx="1"></rect>
                    </g>
                </g>
                <g id="Rectangle-315-+-Triangle-1-+-Rectangle-316-Copy" transform="translate(182.085195, 4.850333)">
                    <rect id="Rectangle-315" x="2.38539556" y="8.08388797" width="2.38539556" height="8.08388797" rx="1"></rect>
                    <g id="Triangle-1-+-Rectangle-316">
                        <polygon id="Triangle-1" points="3.57809334 0.808388797 7.15618668 8.89227676 0 8.89227676 "></polygon>
                        <rect id="Rectangle-316" x="3.18052742" y="0" width="0.795131854" height="4.85033278" rx="1"></rect>
                    </g>
                </g>
            </g>
            <rect id="Rectangle-323" fill="#677073" sketch:type="MSShapeGroup" x="613.235841" y="179.254063" width="23.8539556" height="8.08388797"></rect>
            <rect id="Rectangle-323-Copy" fill="#677073" sketch:type="MSShapeGroup" x="875.629352" y="179.254063" width="23.8539556" height="8.08388797"></rect>
            <g transform="translate(1395.000000, 23.184540)" fill="#677073" sketch:type="MSShapeGroup">
                <path d="M25.5464659,62.6851511 C26.7742513,63.1886484 28.8134822,63.178572 28.8134822,63.178572 C28.8134822,63.178572 30.9005391,63.178158 32.1659425,62.6559454 C41.4868932,58.8093322 57.7806144,41.9058744 57.7806144,28.301238 C57.7806144,12.849649 43.9875031,0.323661261 28.8134828,0.323661261 C13.6394626,0.323661261 0.219385636,12.849649 0.219385636,28.301238 C0.219385636,41.9406071 16.305745,58.8956629 25.5464659,62.6851511 Z" id="Oval-1343"></path>
                <rect id="Rectangle-354" x="22.5663286" y="66.5446429" width="12.9464286" height="9.32142857"></rect>
                <rect id="Rectangle-354-Copy" x="24.1199001" y="59.8125" width="1.03571429" height="9.32142857"></rect>
                <rect id="Rectangle-354-Copy-2" x="32.4056144" y="59.8125" width="1.03571429" height="9.32142857"></rect>
            </g>
            <g id="Rectangle-333-+-Rectangle-334-Copy" transform="translate(624.367687, 106.499071)" fill="#677073" sketch:type="MSShapeGroup">
                <rect id="Rectangle-333" x="0" y="0" width="1.59026371" height="19.4013311" rx="22"></rect>
                <path d="M1.59026371,0.808388797 C1.59026371,0.808388797 2.89138856,2.7596721 6.36105483,1.97915878 C9.8307211,1.19864546 11.131846,3.93044208 11.131846,3.93044208 L11.131846,11.6255104 C11.131846,11.9018304 11.0315853,11.9254514 10.8844113,11.6817936 C10.8844113,11.6817936 9.8307211,9.00377866 5.92734655,10.1745486 C3.73450872,10.8322638 1.59026371,7.83300868 1.59026371,7.83300868 L1.59026371,0.808388797 Z" id="Rectangle-334-Copy"></path>
            </g>
            <rect id="Rectangle-333-Copy" fill="#677073" sketch:type="MSShapeGroup" x="1068" y="46.5" width="3" height="24"></rect>
            <g id="Rectangle-333-+-Rectangle-334-Copy" transform="translate(886.761198, 106.499071)" fill="#677073" sketch:type="MSShapeGroup">
                <rect id="Rectangle-333" x="0" y="0" width="1.59026371" height="19.4013311" rx="22"></rect>
                <path d="M1.59026371,0.808388797 C1.59026371,0.808388797 2.89138856,2.7596721 6.36105483,1.97915878 C9.8307211,1.19864546 11.131846,3.93044208 11.131846,3.93044208 L11.131846,11.6255104 C11.131846,11.9018304 11.0315853,11.9254514 10.8844113,11.6817936 C10.8844113,11.6817936 9.8307211,9.00377866 5.92734655,10.1745486 C3.73450872,10.8322638 1.59026371,7.83300868 1.59026371,7.83300868 L1.59026371,0.808388797 Z" id="Rectangle-334-Copy"></path>
            </g>
            <g transform="translate(1145.000000, 104.500000)" fill="#677073" sketch:type="MSShapeGroup">
                <path d="M242.25,48 L170,48 L170,39.0068455 C170,38.4499488 169.556156,38 169.008648,38 L168,38 L168,38 L168,35.0068455 C168,34.4499488 167.551578,34 166.998422,34 L147.487883,34 C147.819537,33.0616632 148,32.0519063 148,31 C148,26.3674463 144.49995,22.5523731 140,22.0549288 L140,22.0549288 L140,14.9965348 C140,14.9556183 139.997582,14.9153332 139.992881,14.8758078 L139.992881,14.8758078 C141.721719,14.4342458 143,12.8664021 143,11 C143,8.790861 141.209139,7 139,7 C136.790861,7 135,8.790861 135,11 C135,12.8664321 136.278322,14.4342962 138.007202,14.8758291 C138.002446,14.9153968 138,14.9556787 138,14.9965348 L138,22.0549288 C133.50005,22.5523731 130,26.3674463 130,31 C130,32.0519063 130.180463,33.0616632 130.512117,34 L114.001578,34 C113.442719,34 113,34.4507801 113,35.0068455 L113,38 L110.991352,38 C110.448458,38 110,38.4507801 110,39.0068455 L110,48 L110,48 L36.75,48 L36.75,48 L0,45 L7,56.3333333 L7,153.005033 C7,154.107117 7.89518173,155 8.99944435,155 L270.000556,155 C271.105174,155 272,154.106823 272,153.005033 L272,56.3333333 L279,45 L242.25,48 Z M22.0332031,72.9737755 C22.0332031,71.8655383 22.9291333,70.9671345 24.02997,70.9671345 L42.5369092,70.9671345 C43.6396931,70.9671345 44.5336761,71.8654529 44.5336761,72.9737755 L44.5336761,147.741305 C44.5336761,148.849542 43.6377459,149.747946 42.5369092,149.747946 L24.02997,149.747946 C22.9271861,149.747946 22.0332031,148.849628 22.0332031,147.741305 L22.0332031,72.9737755 Z M62,72.9614794 C62,71.8600331 62.8959302,70.9671345 63.9967669,70.9671345 L82.5037061,70.9671345 C83.60649,70.9671345 84.500473,71.8540049 84.500473,72.9614794 L84.500473,153.005655 C84.500473,154.107101 83.6045428,155 82.5037061,155 L63.9967669,155 C62.893983,155 62,154.11313 62,153.005655 L62,72.9614794 Z M110,73.9930696 C110,72.8923277 110.89473,72 111.996307,72 L168.003693,72 C169.106223,72 170,72.9023082 170,73.9930696 L170,126.00693 C170,127.107672 169.10527,128 168.003693,128 L111.996307,128 C110.893777,128 110,127.097692 110,126.00693 L110,73.9930696 Z M191,72.9737755 C191,71.8655383 191.89593,70.9671345 192.996767,70.9671345 L211.503706,70.9671345 C212.60649,70.9671345 213.500473,71.8654529 213.500473,72.9737755 L213.500473,147.741305 C213.500473,148.849542 212.604543,149.747946 211.503706,149.747946 L192.996767,149.747946 C191.893983,149.747946 191,148.849628 191,147.741305 L191,72.9737755 Z M238.466324,72.9737755 C238.466324,71.8655383 239.362254,70.9671345 240.463091,70.9671345 L258.97003,70.9671345 C260.072814,70.9671345 260.966797,71.8654529 260.966797,72.9737755 L260.966797,147.741305 C260.966797,148.849542 260.070867,149.747946 258.97003,149.747946 L240.463091,149.747946 C239.360307,149.747946 238.466324,148.849628 238.466324,147.741305 L238.466324,72.9737755 Z" id="Rectangle-183-Copy-5"></path>
                <path d="M115.504824,17.2868119 C115.504824,16.5889214 115,14.2868119 115,14.2868119 C115,14.2868119 115.768717,13.5475463 117,13.7868119 C117.963489,13.9740391 119.338382,15.0157502 120,15.7868119 C120.82784,16.7515924 120.420121,19.0848126 121.178561,20.2868119 C121.728734,21.1587426 121.48838,22.3650664 122,23.2868119 C122.656988,24.4704566 125.425833,24.5677628 126,25.7471829 C127.20023,28.2126278 127.392777,30.7098348 127.5,32.7694931 C127.544403,33.6224484 130.13116,34.3499983 130,35.0206337 C129.829068,35.8946282 127.963918,33.3429396 127,33.7868119 C126.377843,34.0733072 127.122321,35.2029225 126.5,35.7868119 C125.372451,36.8447283 124,36.4612484 122,36.2868119 C120.809277,36.182959 121.5,33.7868119 121.178561,32.7694931 L117.846237,30.6456493 C116.759951,31.6186367 118.181971,36.4397891 117.846237,35.0206333 L116.5,35.0206337 C115.675545,31.5356453 115.795934,28.3614619 116.5,25.7471829 C116.976407,23.9782254 118.141901,22.4654843 117.846237,21.2868119 C117.607937,20.3368238 116.213229,20.5636955 115,19.7868119 C115,19.7868119 115.504824,18.4222547 115.504824,17.2868119 Z" id="Path-5"></path>
                <path d="M149.504824,17.2868119 C149.504824,16.5889214 149,14.2868119 149,14.2868119 C149,14.2868119 149.768717,13.5475463 151,13.7868119 C151.963489,13.9740391 153.338382,15.0157502 154,15.7868119 C154.82784,16.7515924 154.420121,19.0848126 155.178561,20.2868119 C155.728734,21.1587426 155.48838,22.3650664 156,23.2868119 C156.656988,24.4704566 159.425833,24.5677628 160,25.7471829 C161.20023,28.2126278 161.392777,30.7098348 161.5,32.7694931 C161.544403,33.6224484 164.13116,34.3499983 164,35.0206337 C163.829068,35.8946282 161.963918,33.3429396 161,33.7868119 C160.377843,34.0733072 161.122321,35.2029225 160.5,35.7868119 C159.372451,36.8447283 158,36.4612484 156,36.2868119 C154.809277,36.182959 155.5,33.7868119 155.178561,32.7694931 L151.846237,30.6456493 C150.759951,31.6186367 152.181971,36.4397891 151.846237,35.0206333 L150.5,35.0206337 C149.675545,31.5356453 149.795934,28.3614619 150.5,25.7471829 C150.976407,23.9782254 152.141901,22.4654843 151.846237,21.2868119 C151.607937,20.3368238 150.213229,20.5636955 149,19.7868119 C149,19.7868119 149.504824,18.4222547 149.504824,17.2868119 Z" id="Path-5-Copy" transform="translate(156.502412, 25.119572) scale(-1, 1) translate(-156.502412, -25.119572) "></path>
                <path d="M136.504824,17.2868119 C136.504824,16.5889214 136,14.2868119 136,14.2868119 C136,14.2868119 136.768717,13.5475463 138,13.7868119 C138.963489,13.9740391 140.338382,15.0157502 141,15.7868119 C141.82784,16.7515924 141.420121,19.0848126 142.178561,20.2868119 C142.728734,21.1587426 142.48838,22.3650664 143,23.2868119 C143.656988,24.4704566 146.425833,24.5677628 147,25.7471829 C148.20023,28.2126278 148.392777,30.7098348 148.5,32.7694931 C148.544403,33.6224484 151.13116,34.3499983 151,35.0206337 C150.829068,35.8946282 148.963918,33.3429396 148,33.7868119 C147.377843,34.0733072 148.122321,35.2029225 147.5,35.7868119 C146.372451,36.8447283 145,36.4612484 143,36.2868119 C141.809277,36.182959 142.5,33.7868119 142.178561,32.7694931 L138.846237,30.6456493 C137.759951,31.6186367 139.181971,36.4397891 138.846237,35.0206333 L137.5,35.0206337 C136.675545,31.5356453 136.795934,28.3614619 137.5,25.7471829 C137.976407,23.9782254 139.141901,22.4654843 138.846237,21.2868119 C138.607937,20.3368238 137.213229,20.5636955 136,19.7868119 C136,19.7868119 136.504824,18.4222547 136.504824,17.2868119 Z" id="Path-5-Copy-2" transform="translate(143.502412, 25.119572) scale(-1, 1) translate(-143.502412, -25.119572) "></path>
                <path d="M128.504824,17.2868119 C128.504824,16.5889214 128,14.2868119 128,14.2868119 C128,14.2868119 128.768717,13.5475463 130,13.7868119 C130.963489,13.9740391 132.338382,15.0157502 133,15.7868119 C133.82784,16.7515924 133.420121,19.0848126 134.178561,20.2868119 C134.728734,21.1587426 134.48838,22.3650664 135,23.2868119 C135.656988,24.4704566 138.425833,24.5677628 139,25.7471829 C140.20023,28.2126278 140.392777,30.7098348 140.5,32.7694931 C140.544403,33.6224484 143.13116,34.3499983 143,35.0206337 C142.829068,35.8946282 140.963918,33.3429396 140,33.7868119 C139.377843,34.0733072 140.122321,35.2029225 139.5,35.7868119 C138.372451,36.8447283 137,36.4612484 135,36.2868119 C133.809277,36.182959 134.5,33.7868119 134.178561,32.7694931 L130.846237,30.6456493 C129.759951,31.6186367 131.181971,36.4397891 130.846237,35.0206333 L129.5,35.0206337 C128.675545,31.5356453 128.795934,28.3614619 129.5,25.7471829 C129.976407,23.9782254 131.141901,22.4654843 130.846237,21.2868119 C130.607937,20.3368238 129.213229,20.5636955 128,19.7868119 C128,19.7868119 128.504824,18.4222547 128.504824,17.2868119 Z" id="Path-5-Copy-3"></path>
                <path d="M141.046053,3.03585013 C140.940164,1.79641535 141.857107,0.791654938 143.100007,0.791654938 L143.563964,0.791654938 C144.80422,0.791654938 145.708582,1.78705251 145.583052,3.02340347 L145.020917,8.55990641 C144.895773,9.79246709 144.193406,11.5978948 143.453189,12.5910309 L143.251491,12.861646 L143.049793,12.5910309 C142.309105,11.597263 141.623619,9.79625737 141.51693,8.54745974 L141.046053,3.03585013 Z" id="Rectangle-342-Copy" transform="translate(143.310426, 6.826650) scale(1, -1) rotate(-44.000000) translate(-143.310426, -6.826650) "></path>
                <path d="M133.046053,4.03585013 C132.940164,2.79641535 133.857107,1.79165494 135.100007,1.79165494 L135.563964,1.79165494 C136.80422,1.79165494 137.708582,2.78705251 137.583052,4.02340347 L137.020917,9.55990641 C136.895773,10.7924671 136.193406,12.5978948 135.453189,13.5910309 L135.251491,13.861646 L135.049793,13.5910309 C134.309105,12.597263 133.623619,10.7962574 133.51693,9.54745974 L133.046053,4.03585013 Z" id="Rectangle-342-Copy-2" transform="translate(135.310426, 7.826650) scale(-1, -1) rotate(-44.000000) translate(-135.310426, -7.826650) "></path>
            </g>
        </g>
    </g>
</svg>