<?xml version="1.0" encoding="UTF-8" standalone="no"?>
<svg width="2644px" height="900px" viewBox="0 0 2644 900" version="1.1" xmlns="http://www.w3.org/2000/svg" xmlns:xlink="http://www.w3.org/1999/xlink" xmlns:sketch="http://www.bohemiancoding.com/sketch/ns">
    <!-- Generator: Sketch 3.3.3 (12072) - http://www.bohemiancoding.com/sketch -->
    <title>Group</title>
    <desc>Created with Sketch.</desc>
    <defs></defs>
    <g id="Page-1" stroke="none" stroke-width="1" fill="none" fill-rule="evenodd" sketch:type="MSPage">
        <g id="Group" sketch:type="MSLayerGroup" fill="#677073">
            <g sketch:type="MSShapeGroup">
                <ellipse id="Oval-895" cx="820" cy="276.5" rx="44" ry="43.5"></ellipse>
                <path d="M0,788 C0,788 200.332958,736.747604 303,737 C883.151001,738.426241 1837.58551,737.449121 2317.5,737 C2481.71649,736.846321 2644,788.000002 2644,788.000002 L2644,900 L0,900 L0,788 Z" id="Rectangle-175"></path>
                <path d="M805.363264,320.0053 C805.438781,315.584095 809.085392,312 813.491301,312 L824.508699,312 C828.922173,312 832.570336,315.576062 832.657454,320.0053 L841.842546,786.9947 C841.929505,791.415905 838.413565,795 833.999597,795 L805.250403,795 C800.831903,795 797.311082,791.423938 797.386736,786.9947 L805.363264,320.0053 Z" id="Rectangle-177"></path>
                <rect id="Rectangle-178" x="795" y="326" width="50" height="18" rx="6"></rect>
                <rect id="Rectangle-178-Copy" x="804" y="203" width="30" height="37" rx="2"></rect>
                <rect id="Rectangle-178-Copy-3" x="809" y="182" width="18" height="37" rx="2"></rect>
                <path d="M815.992046,2.50238598 C815.996439,1.39649874 816.889055,0.499999992 817.999972,0.499999994 L818.500028,0.499999995 C819.604582,0.499999998 820.504398,1.38567438 820.509942,2.50238599 L822.990058,501.997614 C822.995549,503.103501 822.104142,504 821.002608,504 L815.997392,504 C814.894263,504 814.003518,503.114326 814.007954,501.997614 L815.992046,2.50238598 Z" id="Rectangle-178-Copy-4"></path>
                <rect id="Rectangle-178-Copy-2" x="795" y="197" width="48" height="7" rx="2"></rect>
            </g>
            <rect id="Rectangle-183-Copy" sketch:type="MSShapeGroup" x="1802" y="404.453911" width="93" height="348.546089" rx="2"></rect>
            <rect id="Rectangle-183-Copy-3" sketch:type="MSShapeGroup" x="1984" y="404.453911" width="93" height="348.546089" rx="2"></rect>
            <rect id="Rectangle-183-Copy-2" sketch:type="MSShapeGroup" x="1208" y="587" width="411" height="183" rx="2"></rect>
            <rect id="Rectangle-183-Copy-4" sketch:type="MSShapeGroup" x="304" y="603" width="301" height="150" rx="2"></rect>
        </g>
    </g>
</svg>