<?xml version="1.0" encoding="UTF-8" standalone="no"?>
<svg width="2644px" height="342px" viewBox="0 0 2644 342" version="1.1" xmlns="http://www.w3.org/2000/svg" xmlns:xlink="http://www.w3.org/1999/xlink" xmlns:sketch="http://www.bohemiancoding.com/sketch/ns">
    <!-- Generator: Sketch 3.3.3 (12072) - http://www.bohemiancoding.com/sketch -->
    <title>Group</title>
    <desc>Created with Sketch.</desc>
    <defs></defs>
    <g id="Page-1" stroke="none" stroke-width="1" fill="none" fill-rule="evenodd" sketch:type="MSPage">
        <g id="Group" sketch:type="MSLayerGroup">
            <ellipse id="Oval-895" fill="#677073" sketch:type="MSShapeGroup" cx="820" cy="89.7985399" rx="21.5659218" ry="20.7200079"></ellipse>
            <path d="M0,317.000002 C0,317.000002 256.832958,283.747604 359.5,284 C939.651001,285.426241 1826.58551,284.449121 2306.5,284 C2470.71649,283.846321 2644,317.000002 2644,317.000002 L2644,341.500001 L0,341.500001 L0,317.000002 Z" id="Rectangle-175" fill="#677073" sketch:type="MSShapeGroup"></path>
            <path d="M812.732039,108.995896 C812.820962,104.575526 816.474261,100.992107 820.8964,100.992107 L818.123331,100.992107 C822.54346,100.992107 826.209477,104.566286 826.312087,108.995896 L830.597556,293.996211 C830.699952,298.416582 827.210146,302 822.786884,302 L816.845515,302 C812.429404,302 808.921339,298.425821 809.010448,293.996211 L812.732039,108.995896 Z" id="Rectangle-177" fill="#677073" sketch:type="MSShapeGroup"></path>
            <rect id="Rectangle-178" fill="#677073" sketch:type="MSShapeGroup" x="807.746635" y="112.423836" width="24.5067293" height="8.57379637" rx="6"></rect>
            <rect id="Rectangle-178-Copy" fill="#677073" sketch:type="MSShapeGroup" x="812.157847" y="58.1231255" width="14.7040376" height="17.6239148" rx="2"></rect>
            <rect id="Rectangle-178-Copy-3" fill="#677073" sketch:type="MSShapeGroup" x="814.60852" y="48.1203631" width="8.82242255" height="17.6239148" rx="2"></rect>
            <path d="M818.031282,2.2512931 C818.035799,1.14600944 818.936566,0.25 820.041523,0.250000002 L818.243006,0.249999998 C819.348714,0.250000001 820.249627,1.14240596 820.255292,2.2512931 L821.460179,238.076844 C821.465826,239.182128 820.577729,240.078137 819.471304,240.078137 L819.058292,240.078137 C817.95422,240.078137 817.06284,239.185731 817.067373,238.076844 L818.031282,2.2512931 Z" id="Rectangle-178-Copy-4" fill="#677073" sketch:type="MSShapeGroup"></path>
            <rect id="Rectangle-178-Copy-2" fill="#677073" sketch:type="MSShapeGroup" x="807.746635" y="55.2651934" width="23.5264601" height="3.33425414" rx="2"></rect>
            <rect id="Rectangle-183-Copy" fill="#677073" sketch:type="MSShapeGroup" x="1548.46193" y="130.999071" width="43.6701056" height="163.000929" rx="2"></rect>
            <path d="M1734.35082,69 L1717.78445,69 C1716.68123,69 1715.78616,69.8940911 1715.78616,70.9970083 L1715.78616,298.002992 C1715.78616,299.105204 1716.68083,300 1717.78445,300 L1775.42392,300 C1776.52714,300 1777.4222,299.105909 1777.4222,298.002992 L1777.4222,70.9970083 C1777.4222,69.8947956 1776.52754,69 1775.42392,69 L1758.85755,69 L1758.85755,64.138652 C1758.85755,57.3705297 1753.37153,51.8845205 1746.60418,51.8845205 C1739.83535,51.8845205 1734.35082,57.3708821 1734.35082,64.138652 L1734.35082,69 Z" id="Rectangle-183-Copy-3" fill="#677073" sketch:type="MSShapeGroup"></path>
            <rect id="Rectangle-183-Copy-6" fill="#677073" sketch:type="MSShapeGroup" x="1463" y="130.999071" width="43.6701056" height="163.000929" rx="2"></rect>
            <rect id="Rectangle-183-Copy-8" fill="#677073" sketch:type="MSShapeGroup" x="2008.46193" y="170.999071" width="43.6701056" height="163.000929" rx="2"></rect>
            <rect id="Rectangle-183-Copy-7" fill="#677073" sketch:type="MSShapeGroup" x="1923" y="170.999071" width="43.6701056" height="163.000929" rx="2"></rect>
            <path d="M389,194.994967 C389,193.893177 389.894826,193 390.999444,193 L652.000556,193 C653.104818,193 654,193.892883 654,194.994967 L654,298.005033 C654,299.106823 653.105174,300 652.000556,300 L390.999444,300 C389.895182,300 389,299.107117 389,298.005033 L389,194.994967 Z M425,221.99307 C425,220.892328 425.902344,220 426.994561,220 L444.005439,220 C445.107004,220 446,220.902308 446,221.99307 L446,274.00693 C446,275.107672 445.097656,276 444.005439,276 L426.994561,276 C425.892996,276 425,275.097692 425,274.00693 L425,221.99307 Z M468,221.99307 C468,220.892328 468.902344,220 469.994561,220 L487.005439,220 C488.107004,220 489,220.902308 489,221.99307 L489,274.00693 C489,275.107672 488.097656,276 487.005439,276 L469.994561,276 C468.892996,276 468,275.097692 468,274.00693 L468,221.99307 Z M511,221.99307 C511,220.892328 511.902344,220 512.994561,220 L530.005439,220 C531.107004,220 532,220.902308 532,221.99307 L532,274.00693 C532,275.107672 531.097656,276 530.005439,276 L512.994561,276 C511.892996,276 511,275.097692 511,274.00693 L511,221.99307 Z M554,221.99307 C554,220.892328 554.902344,220 555.994561,220 L573.005439,220 C574.107004,220 575,220.902308 575,221.99307 L575,274.00693 C575,275.107672 574.097656,276 573.005439,276 L555.994561,276 C554.892996,276 554,275.097692 554,274.00693 L554,221.99307 Z M599,221.99307 C599,220.892328 599.902344,220 600.994561,220 L618.005439,220 C619.107004,220 620,220.902308 620,221.99307 L620,274.00693 C620,275.107672 619.097656,276 618.005439,276 L600.994561,276 C599.892996,276 599,275.097692 599,274.00693 L599,221.99307 Z" id="Rectangle-183-Copy-4" fill="#677073" sketch:type="MSShapeGroup"></path>
            <path d="M1228,187 L1126.99944,187 C1125.89483,187 1125,187.893177 1125,188.994967 L1125,292.005033 C1125,293.107117 1125.89518,294 1126.99944,294 L1388.00056,294 C1389.10517,294 1390,293.106823 1390,292.005033 L1390,188.994967 C1390,187.892883 1389.10482,187 1388.00056,187 L1288,187 C1288,170.431458 1274.56854,157 1258,157 C1241.43146,157 1228,170.431458 1228,187 Z M1140.0332,198.539297 C1140.0332,197.438475 1140.92913,196.546082 1142.02997,196.546082 L1160.53691,196.546082 C1161.63969,196.546082 1162.53368,197.450334 1162.53368,198.539297 L1162.53368,285.915916 C1162.53368,287.016738 1161.63775,287.90913 1160.53691,287.90913 L1142.02997,287.90913 C1140.92719,287.90913 1140.0332,287.004878 1140.0332,285.915916 L1140.0332,198.539297 Z M1180,198.536922 C1180,197.437411 1180.89593,196.546082 1181.99677,196.546082 L1200.50371,196.546082 C1201.60649,196.546082 1202.50047,197.448608 1202.50047,198.536922 L1202.50047,292.00916 C1202.50047,293.108671 1201.60454,294 1200.50371,294 L1181.99677,294 C1180.89398,294 1180,293.097474 1180,292.00916 L1180,198.536922 Z M1224,198.539297 C1224,197.438475 1224.89593,196.546082 1225.99677,196.546082 L1244.50371,196.546082 C1245.60649,196.546082 1246.50047,197.450334 1246.50047,198.539297 L1246.50047,285.915916 C1246.50047,287.016738 1245.60454,287.90913 1244.50371,287.90913 L1225.99677,287.90913 C1224.89398,287.90913 1224,287.004878 1224,285.915916 L1224,198.539297 Z M1266,198.539297 C1266,197.438475 1266.89593,196.546082 1267.99677,196.546082 L1286.50371,196.546082 C1287.60649,196.546082 1288.50047,197.450334 1288.50047,198.539297 L1288.50047,285.915916 C1288.50047,287.016738 1287.60454,287.90913 1286.50371,287.90913 L1267.99677,287.90913 C1266.89398,287.90913 1266,287.004878 1266,285.915916 L1266,198.539297 Z M1309,198.539297 C1309,197.438475 1309.89593,196.546082 1310.99677,196.546082 L1329.50371,196.546082 C1330.60649,196.546082 1331.50047,197.450334 1331.50047,198.539297 L1331.50047,285.915916 C1331.50047,287.016738 1330.60454,287.90913 1329.50371,287.90913 L1310.99677,287.90913 C1309.89398,287.90913 1309,287.004878 1309,285.915916 L1309,198.539297 Z M1356.46632,198.539297 C1356.46632,197.438475 1357.36225,196.546082 1358.46309,196.546082 L1376.97003,196.546082 C1378.07281,196.546082 1378.9668,197.450334 1378.9668,198.539297 L1378.9668,285.915916 C1378.9668,287.016738 1378.07087,287.90913 1376.97003,287.90913 L1358.46309,287.90913 C1357.36031,287.90913 1356.46632,287.004878 1356.46632,285.915916 L1356.46632,198.539297 Z" id="Rectangle-183-Copy-5" fill="#677073" sketch:type="MSShapeGroup"></path>
            <rect id="Rectangle-293" fill="#FFFFFF" sketch:type="MSShapeGroup" x="1725" y="85.5185478" width="5.78120352" height="50" rx="1"></rect>
            <rect id="Rectangle-293-Copy" fill="#FFFFFF" sketch:type="MSShapeGroup" x="1743.71358" y="85.5185478" width="5.78120352" height="50" rx="1"></rect>
            <rect id="Rectangle-293-Copy-2" fill="#FFFFFF" sketch:type="MSShapeGroup" x="1762.42716" y="85.5185478" width="5.78120352" height="50" rx="1"></rect>
        </g>
    </g>
</svg>