<?xml version="1.0" encoding="UTF-8" standalone="no"?>
<svg width="2051px" height="326px" viewBox="0 0 2051 326" version="1.1" xmlns="http://www.w3.org/2000/svg" xmlns:xlink="http://www.w3.org/1999/xlink" xmlns:sketch="http://www.bohemiancoding.com/sketch/ns">
    <!-- Generator: Sketch 3.3.3 (12072) - http://www.bohemiancoding.com/sketch -->
    <title>Group</title>
    <desc>Created with Sketch.</desc>
    <defs></defs>
    <g id="Page-1" stroke="none" stroke-width="1" fill="none" fill-rule="evenodd" sketch:type="MSPage">
        <g id="Group" sketch:type="MSLayerGroup">
            <ellipse id="Oval-895" fill="#677073" sketch:type="MSShapeGroup" cx="504" cy="89.7985399" rx="21.5659218" ry="20.7200079"></ellipse>
            <path d="M5.9099392e-12,321.47534 C5.9099392e-12,321.47534 85.8674606,283.817847 175.458617,283.999746 C681.720394,285.027615 1455.6931,284.32342 1874.48469,283.999746 C2017.78624,283.888991 2051,322.196025 2051,322.196025 L2051,325.439104 L52.393613,325.439104 L1.74527589,325.439104 L5.9099392e-12,321.47534 Z" id="Rectangle-175" fill="#677073" sketch:type="MSShapeGroup"></path>
            <path d="M496.732039,108.995896 C496.820962,104.575526 500.474261,100.992107 504.8964,100.992107 L502.123331,100.992107 C506.54346,100.992107 510.209477,104.566286 510.312087,108.995896 L514.597556,293.996211 C514.699952,298.416582 511.210146,302 506.786884,302 L500.845515,302 C496.429404,302 492.921339,298.425821 493.010448,293.996211 L496.732039,108.995896 Z" id="Rectangle-177" fill="#677073" sketch:type="MSShapeGroup"></path>
            <rect id="Rectangle-178" fill="#677073" sketch:type="MSShapeGroup" x="491.746635" y="112.423836" width="24.5067293" height="8.57379637" rx="6"></rect>
            <rect id="Rectangle-178-Copy" fill="#677073" sketch:type="MSShapeGroup" x="496.157847" y="58.1231255" width="14.7040376" height="17.6239148" rx="2"></rect>
            <rect id="Rectangle-178-Copy-3" fill="#677073" sketch:type="MSShapeGroup" x="498.60852" y="48.1203631" width="8.82242255" height="17.6239148" rx="2"></rect>
            <path d="M502.031282,2.2512931 C502.035799,1.14600944 502.936566,0.25 504.041523,0.250000002 L502.243006,0.249999998 C503.348714,0.250000001 504.249627,1.14240596 504.255292,2.2512931 L505.460179,238.076844 C505.465826,239.182128 504.577729,240.078137 503.471304,240.078137 L503.058292,240.078137 C501.95422,240.078137 501.06284,239.185731 501.067373,238.076844 L502.031282,2.2512931 Z" id="Rectangle-178-Copy-4" fill="#677073" sketch:type="MSShapeGroup"></path>
            <rect id="Rectangle-178-Copy-2" fill="#677073" sketch:type="MSShapeGroup" x="491.746635" y="55.2651934" width="23.5264601" height="3.33425414" rx="2"></rect>
            <rect id="Rectangle-183-Copy" fill="#677073" sketch:type="MSShapeGroup" x="1045.46193" y="125.999071" width="43.6701056" height="163.000929" rx="2"></rect>
            <rect id="Rectangle-183-Copy-14" fill="#677073" sketch:type="MSShapeGroup" x="1888.46193" y="129.499535" width="43.6701056" height="163.000929" rx="2"></rect>
            <rect id="Rectangle-183-Copy-22" fill="#677073" sketch:type="MSShapeGroup" x="1784" y="194" width="43.6701056" height="93.5177264" rx="2"></rect>
            <rect id="Rectangle-183-Copy-15" fill="#677073" sketch:type="MSShapeGroup" x="1916.29698" y="152.999071" width="43.6701056" height="163.000929" rx="2"></rect>
            <rect id="Rectangle-183-Copy-23" fill="#677073" sketch:type="MSShapeGroup" x="1811.83505" y="207.482274" width="43.6701056" height="93.5177264" rx="2"></rect>
            <rect id="Rectangle-183-Copy-16" fill="#677073" sketch:type="MSShapeGroup" x="181.791821" y="109.710734" width="43.6701056" height="172" rx="2"></rect>
            <path d="M334.329894,2.24343412 C334.329894,1.14249086 335.069548,0.753884304 335.988488,1.37990737 L376.341405,28.8700926 C377.257422,29.4941232 377.999999,30.9000057 377.999999,32.0010582 L378,283.51749 C378,284.622643 377.107884,285.518548 375.995719,285.518548 L336.334175,285.518548 C335.227241,285.518548 334.329894,284.622589 334.329894,283.525114 L334.329894,2.24343412 Z" id="Rectangle-183-Copy-19" fill="#677073" sketch:type="MSShapeGroup"></path>
            <rect id="Rectangle-183-Copy-17" fill="#677073" sketch:type="MSShapeGroup" x="187.024459" y="87.4921073" width="6" height="27" rx="2"></rect>
            <rect id="Rectangle-183-Copy-18" fill="#677073" sketch:type="MSShapeGroup" transform="translate(190.024459, 94.992107) scale(-1, -1) rotate(-90.000000) translate(-190.024459, -94.992107) " x="187.024459" y="84.4921073" width="6" height="21" rx="2"></rect>
            <rect id="Rectangle-183-Copy-13" fill="#677073" sketch:type="MSShapeGroup" x="1005.46193" y="259" width="43.6701056" height="50" rx="2"></rect>
            <path d="M1037,133.001198 C1037,131.895454 1037.75798,130.521773 1038.68516,129.937925 L1078.98494,104.561146 C1079.91563,103.975091 1080.6701,104.391731 1080.6701,105.494666 L1080.67011,292.005334 C1080.67011,293.106958 1079.77799,294 1078.66582,294 L1039.00428,294 C1037.89735,294 1037,293.103266 1037,291.997873 L1037,133.001198 Z" id="Rectangle-183-Copy-6" fill="#677073" sketch:type="MSShapeGroup"></path>
            <path d="M97.5380729,243.495274 C97.5380729,242.393058 98.4071813,241.272561 99.4647396,240.996372 L130.073333,233.002699 C131.137402,232.72481 132,233.387047 132,234.493926 L132,312.005609 C132,313.107081 131.113496,314 129.998224,314 L99.5398487,314 C98.4342985,314 97.5380729,313.109483 97.5380729,312.004262 L97.5380729,243.495274 Z" id="Rectangle-183-Copy-9" fill="#677073" sketch:type="MSShapeGroup"></path>
            <path d="M162.538073,223.495274 C162.538073,222.393058 163.424577,221.499535 164.539849,221.499535 L194.998224,221.499535 C196.103774,221.499535 197,222.390053 197,223.495274 L197,292.004262 C197,293.106478 196.113496,294 194.998224,294 L164.539849,294 C163.434298,294 162.538073,293.109483 162.538073,292.004262 L162.538073,223.495274 Z" id="Rectangle-183-Copy-10" fill="#677073" sketch:type="MSShapeGroup"></path>
            <path d="M384,111.369632 C384,110.268284 384.886504,109.375465 386.001776,109.375465 L416.460151,109.375465 C417.565702,109.375465 418.461927,110.274397 418.461927,111.369632 L418.461927,290.506297 C418.461927,291.607645 417.575423,292.500465 416.460151,292.500465 L386.001776,292.500465 C384.896226,292.500465 384,291.601532 384,290.506297 L384,111.369632 Z" id="Rectangle-183-Copy-20" fill="#677073" sketch:type="MSShapeGroup"></path>
            <path d="M380,97.4412898 C380,88.0498429 387.611822,80.436571 397.000407,80.436571 L406.131436,80.436571 C415.520502,80.436571 423.131844,88.0493718 423.131844,97.4412898 L423.131844,104.871868 C423.131844,114.263315 415.520022,121.876587 406.131436,121.876587 L397.000407,121.876587 C387.611342,121.876587 380,114.263786 380,104.871868 L380,97.4412898 Z" id="Rectangle-183-Copy-21" fill="#677073" sketch:type="MSShapeGroup"></path>
            <path d="M190.584541,253.390147 L190.024614,207.755831 C190.01102,206.647913 190.894328,205.749768 192.008193,205.749768 L223.453735,205.749768 C224.562829,205.749768 225.461927,206.637279 225.461927,207.744158 L225.461927,285.255842 C225.461927,286.357313 224.575423,287.250232 223.460151,287.250232 L193.001776,287.250232 C191.896226,287.250232 190.988961,286.35055 190.975449,285.24929 L190.584541,253.390147 Z" id="Rectangle-183-Copy-11" fill="#677073" sketch:type="MSShapeGroup"></path>
            <rect id="Rectangle-183-Copy-8" fill="#677073" sketch:type="MSShapeGroup" x="1372.46193" y="160.999071" width="43.6701056" height="163.000929" rx="2"></rect>
            <rect id="Rectangle-183-Copy-7" fill="#677073" sketch:type="MSShapeGroup" x="1317" y="140.999071" width="43.6701056" height="163.000929" rx="2"></rect>
            <g transform="translate(1179.000000, 51.000000)" sketch:type="MSShapeGroup">
                <path d="M19.3508191,18 L2.78444601,18 C1.68123038,18 0.78616474,18.8940911 0.78616474,19.9970083 L0.78616474,247.002992 C0.78616474,248.105204 1.68082574,249 2.78444601,249 L60.4239216,249 C61.5271372,249 62.4222029,248.105909 62.4222029,247.002992 L62.4222029,19.9970083 C62.4222029,18.8947956 61.5275419,18 60.4239216,18 L43.8575485,18 L43.8575485,13.138652 C43.8575485,6.37052974 38.3715302,0.884520522 31.6041838,0.884520522 C24.8353494,0.884520522 19.3508191,6.37088208 19.3508191,13.138652 L19.3508191,18 Z" id="Rectangle-183-Copy-3" fill="#677073"></path>
                <rect id="Rectangle-293" fill="#FFFFFF" x="10" y="34.5185478" width="5.78120352" height="50" rx="1"></rect>
                <rect id="Rectangle-293-Copy" fill="#FFFFFF" x="28.713582" y="34.5185478" width="5.78120352" height="50" rx="1"></rect>
                <rect id="Rectangle-293-Copy-2" fill="#FFFFFF" x="47.4271641" y="34.5185478" width="5.78120352" height="50" rx="1"></rect>
            </g>
            <g transform="translate(556.000000, 141.000000)" fill="#677073" sketch:type="MSShapeGroup">
                <path d="M160.162445,40 L5.00239687,40 C3.89341213,40 3,40.8931771 3,41.9949669 L3,145.005033 C3,146.107117 3.89650362,147 5.00239687,147 L385.997603,147 C387.106588,147 388,146.106823 388,145.005033 L388,41.9949669 C388,40.8928826 387.103496,40 385.997603,40 L231.859304,40 C231.951852,39.2880587 232,38.5245662 232,37.7064988 C232,16.8817745 215.882251,0 196,0 C176.117749,0 160,16.8817745 160,37.7064988 C160,38.5245656 160.055555,39.2880576 160.162445,40 L160.162445,40 Z M79,62.9916388 C79,60.7871176 80.7965212,59 82.9958262,59 L87.0041738,59 C89.2110077,59 91,60.786532 91,62.9916388 L91,116.934068 C91,119.138589 89.2034788,120.925707 87.0041738,120.925707 L82.9958262,120.925707 C80.7889923,120.925707 79,119.139175 79,116.934068 L79,62.9916388 Z M18,81.0631333 C18,80.515644 18.4553056,80.0718162 18.9918031,80.0718162 L37.0081969,80.0718162 C37.5559546,80.0718162 38,80.5179251 38,81.0631333 L38,117.616925 C38,118.164414 37.5446944,118.608242 37.0081969,118.608242 L18.9918031,118.608242 C18.4440454,118.608242 18,118.162133 18,117.616925 L18,81.0631333 Z M18,70 C18,64.4771525 22.4759382,60 28,60 C33.5228475,60 38,64.4759382 38,70 C38,75.5228475 33.5240618,80 28,80 C22.4771525,80 18,75.5240618 18,70 Z M122,62.9916388 C122,60.7871176 123.796521,59 125.995826,59 L130.004174,59 C132.211008,59 134,60.786532 134,62.9916388 L134,116.934068 C134,119.138589 132.203479,120.925707 130.004174,120.925707 L125.995826,120.925707 C123.788992,120.925707 122,119.139175 122,116.934068 L122,62.9916388 Z M100,62.9916388 C100,60.7871176 101.796521,59 103.995826,59 L108.004174,59 C110.211008,59 112,60.786532 112,62.9916388 L112,116.934068 C112,119.138589 110.203479,120.925707 108.004174,120.925707 L103.995826,120.925707 C101.788992,120.925707 100,119.139175 100,116.934068 L100,62.9916388 Z M277,62.9916388 C277,60.7871176 278.796521,59 280.995826,59 L285.004174,59 C287.211008,59 289,60.786532 289,62.9916388 L289,116.934068 C289,119.138589 287.203479,120.925707 285.004174,120.925707 L280.995826,120.925707 C278.788992,120.925707 277,119.139175 277,116.934068 L277,62.9916388 Z M256,62.9916388 C256,60.7871176 257.796521,59 259.995826,59 L264.004174,59 C266.211008,59 268,60.786532 268,62.9916388 L268,116.934068 C268,119.138589 266.203479,120.925707 264.004174,120.925707 L259.995826,120.925707 C257.788992,120.925707 256,119.139175 256,116.934068 L256,62.9916388 Z M298,62.9916388 C298,60.7871176 299.796521,59 301.995826,59 L306.004174,59 C308.211008,59 310,60.786532 310,62.9916388 L310,116.934068 C310,119.138589 308.203479,120.925707 306.004174,120.925707 L301.995826,120.925707 C299.788992,120.925707 298,119.139175 298,116.934068 L298,62.9916388 Z M166.415874,81.4037736 C166.415874,79.1992523 168.20982,77.4121348 170.422379,77.4121348 L175.40937,77.4121348 C177.622101,77.4121348 179.415874,79.1986667 179.415874,81.4037736 L179.415874,135.346203 C179.415874,137.550724 177.621928,139.337842 175.40937,139.337842 L170.422379,139.337842 C168.209647,139.337842 166.415874,137.55131 166.415874,135.346203 L166.415874,81.4037736 Z M190,81.4037736 C190,79.1992523 191.793946,77.4121348 194.006505,77.4121348 L198.993495,77.4121348 C201.206227,77.4121348 203,79.1986667 203,81.4037736 L203,135.346203 C203,137.550724 201.206054,139.337842 198.993495,139.337842 L194.006505,139.337842 C191.793773,139.337842 190,137.55131 190,135.346203 L190,81.4037736 Z M213.548798,81.4037736 C213.548798,79.1992523 215.342744,77.4121348 217.555303,77.4121348 L222.542294,77.4121348 C224.755025,77.4121348 226.548798,79.1986667 226.548798,81.4037736 L226.548798,135.346203 C226.548798,137.550724 224.754853,139.337842 222.542294,139.337842 L217.555303,139.337842 C215.342571,139.337842 213.548798,137.55131 213.548798,135.346203 L213.548798,81.4037736 Z M351,81.0631333 C351,80.515644 351.455306,80.0718162 351.991803,80.0718162 L370.008197,80.0718162 C370.555955,80.0718162 371,80.5179251 371,81.0631333 L371,117.616925 C371,118.164414 370.544694,118.608242 370.008197,118.608242 L351.991803,118.608242 C351.444045,118.608242 351,118.162133 351,117.616925 L351,81.0631333 Z M351,70.0718162 C351,64.5489687 355.475938,60.0718162 361,60.0718162 C366.522847,60.0718162 371,64.5477544 371,70.0718162 C371,75.5946637 366.524062,80.0718162 361,80.0718162 C355.477153,80.0718162 351,75.595878 351,70.0718162 Z" id="Rectangle-183-Copy-12"></path>
                <rect id="Rectangle-313" x="149" y="30" width="93" height="15" rx="5"></rect>
                <g id="Rectangle-313-Copy-2-+-Rectangle-313-Copy-3-+-Rectangle-313-Copy-4" transform="translate(298.000000, 0.000000)">
                    <rect id="Rectangle-313-Copy-2" x="0" y="28" width="93" height="15" rx="5"></rect>
                    <rect id="Rectangle-313-Copy-3" x="37" y="6" width="49" height="26" rx="5"></rect>
                    <rect id="Rectangle-313-Copy-4" x="34" y="0" width="55" height="11" rx="5"></rect>
                </g>
                <g id="Rectangle-313-Copy-7-+-Rectangle-313-Copy-5-+-Rectangle-313-Copy-6" transform="translate(46.500000, 21.500000) scale(-1, 1) translate(-46.500000, -21.500000) ">
                    <rect id="Rectangle-313-Copy-7" transform="translate(46.500000, 35.500000) scale(-1, -1) translate(-46.500000, -35.500000) " x="0" y="28" width="93" height="15" rx="5"></rect>
                    <rect id="Rectangle-313-Copy-5" transform="translate(61.500000, 19.000000) scale(-1, -1) translate(-61.500000, -19.000000) " x="37" y="6" width="49" height="26" rx="5"></rect>
                    <rect id="Rectangle-313-Copy-6" transform="translate(61.500000, 5.500000) scale(-1, -1) translate(-61.500000, -5.500000) " x="34" y="0" width="55" height="11" rx="5"></rect>
                </g>
                <rect id="Rectangle-313-Copy" x="153.708861" y="24" width="84.7594937" height="11"></rect>
                <g id="Rectangle-315-+-Triangle-1-+-Rectangle-316" transform="translate(154.000000, 6.000000)">
                    <rect id="Rectangle-315" x="3" y="10" width="3" height="10" rx="1"></rect>
                    <g id="Triangle-1-+-Rectangle-316">
                        <polygon id="Triangle-1" points="4.5 1 9 11 0 11 "></polygon>
                        <rect id="Rectangle-316" x="4" y="0" width="1" height="6" rx="1"></rect>
                    </g>
                </g>
                <g id="Rectangle-315-+-Triangle-1-+-Rectangle-316-Copy" transform="translate(229.000000, 6.000000)">
                    <rect id="Rectangle-315" x="3" y="10" width="3" height="10" rx="1"></rect>
                    <g id="Triangle-1-+-Rectangle-316">
                        <polygon id="Triangle-1" points="4.5 1 9 11 0 11 "></polygon>
                        <rect id="Rectangle-316" x="4" y="0" width="1" height="6" rx="1"></rect>
                    </g>
                </g>
            </g>
            <rect id="Rectangle-323" fill="#677073" sketch:type="MSShapeGroup" x="570" y="211" width="30" height="10"></rect>
            <rect id="Rectangle-323-Copy" fill="#677073" sketch:type="MSShapeGroup" x="900" y="211" width="30" height="10"></rect>
            <g transform="translate(1745.000000, 66.937500)" fill="#677073" sketch:type="MSShapeGroup">
                <path d="M25.5464659,62.6851511 C26.7742513,63.1886484 28.8134822,63.178572 28.8134822,63.178572 C28.8134822,63.178572 30.9005391,63.178158 32.1659425,62.6559454 C41.4868932,58.8093322 57.7806144,41.9058744 57.7806144,28.301238 C57.7806144,12.849649 43.9875031,0.323661261 28.8134828,0.323661261 C13.6394626,0.323661261 0.219385636,12.849649 0.219385636,28.301238 C0.219385636,41.9406071 16.305745,58.8956629 25.5464659,62.6851511 Z" id="Oval-1343"></path>
                <rect id="Rectangle-354" x="22.5663286" y="66.5446429" width="12.9464286" height="9.32142857"></rect>
                <rect id="Rectangle-354-Copy" x="24.1199001" y="59.8125" width="1.03571429" height="9.32142857"></rect>
                <rect id="Rectangle-354-Copy-2" x="32.4056144" y="59.8125" width="1.03571429" height="9.32142857"></rect>
            </g>
            <path d="M600,90 C600,90 603.625031,91.5 605.5,91.5 C607.291698,91.5 612,94 612,94 L611,104 C611,104 607.237585,101 605.5,101 C603.570919,101 600,99 600,99 L600,90 Z" id="Rectangle-334" fill="#677073" sketch:type="MSShapeGroup"></path>
            <g id="Rectangle-333-+-Rectangle-334-Copy" transform="translate(584.000000, 121.000000)" fill="#677073" sketch:type="MSShapeGroup">
                <rect id="Rectangle-333" x="0" y="0" width="2" height="24" rx="22"></rect>
                <path d="M2,1 C2,1 3.63636364,3.4137931 8,2.44827586 C12.3636364,1.48275862 14,4.86206897 14,4.86206897 L14,14.4972584 C14,14.7749149 13.8983702,14.7963859 13.7571796,14.556166 C13.7571796,14.556166 12.3636364,11.137931 7.45454545,12.5862069 C4.69671628,13.3998193 2,9.68965517 2,9.68965517 L2,1 Z" id="Rectangle-334-Copy"></path>
            </g>
            <rect id="Rectangle-333-Copy" fill="#677073" sketch:type="MSShapeGroup" x="1068" y="93" width="3" height="24"></rect>
            <g id="Rectangle-333-+-Rectangle-334-Copy" transform="translate(914.000000, 121.000000)" fill="#677073" sketch:type="MSShapeGroup">
                <rect id="Rectangle-333" x="0" y="0" width="2" height="24" rx="22"></rect>
                <path d="M2,1 C2,1 3.63636364,3.4137931 8,2.44827586 C12.3636364,1.48275862 14,4.86206897 14,4.86206897 L14,14.4972584 C14,14.7749149 13.8983702,14.7963859 13.7571796,14.556166 C13.7571796,14.556166 12.3636364,11.137931 7.45454545,12.5862069 C4.69671628,13.3998193 2,9.68965517 2,9.68965517 L2,1 Z" id="Rectangle-334-Copy"></path>
            </g>
            <g transform="translate(1466.000000, 141.000000)" fill="#677073" sketch:type="MSShapeGroup">
                <path d="M242.25,48 L170,48 L170,39.0068455 C170,38.4499488 169.556156,38 169.008648,38 L168,38 L168,38 L168,35.0068455 C168,34.4499488 167.551578,34 166.998422,34 L147.487883,34 C147.819537,33.0616632 148,32.0519063 148,31 C148,26.3674463 144.49995,22.5523731 140,22.0549288 L140,22.0549288 L140,14.9965348 C140,14.9556183 139.997582,14.9153332 139.992881,14.8758078 L139.992881,14.8758078 C141.721719,14.4342458 143,12.8664021 143,11 C143,8.790861 141.209139,7 139,7 C136.790861,7 135,8.790861 135,11 C135,12.8664321 136.278322,14.4342962 138.007202,14.8758291 C138.002446,14.9153968 138,14.9556787 138,14.9965348 L138,22.0549288 C133.50005,22.5523731 130,26.3674463 130,31 C130,32.0519063 130.180463,33.0616632 130.512117,34 L114.001578,34 C113.442719,34 113,34.4507801 113,35.0068455 L113,38 L110.991352,38 C110.448458,38 110,38.4507801 110,39.0068455 L110,48 L110,48 L36.75,48 L36.75,48 L0,45 L7,56.3333333 L7,153.005033 C7,154.107117 7.89518173,155 8.99944435,155 L270.000556,155 C271.105174,155 272,154.106823 272,153.005033 L272,56.3333333 L279,45 L242.25,48 Z M22.0332031,72.9737755 C22.0332031,71.8655383 22.9291333,70.9671345 24.02997,70.9671345 L42.5369092,70.9671345 C43.6396931,70.9671345 44.5336761,71.8654529 44.5336761,72.9737755 L44.5336761,147.741305 C44.5336761,148.849542 43.6377459,149.747946 42.5369092,149.747946 L24.02997,149.747946 C22.9271861,149.747946 22.0332031,148.849628 22.0332031,147.741305 L22.0332031,72.9737755 Z M62,72.9614794 C62,71.8600331 62.8959302,70.9671345 63.9967669,70.9671345 L82.5037061,70.9671345 C83.60649,70.9671345 84.500473,71.8540049 84.500473,72.9614794 L84.500473,153.005655 C84.500473,154.107101 83.6045428,155 82.5037061,155 L63.9967669,155 C62.893983,155 62,154.11313 62,153.005655 L62,72.9614794 Z M110,73.9930696 C110,72.8923277 110.89473,72 111.996307,72 L168.003693,72 C169.106223,72 170,72.9023082 170,73.9930696 L170,126.00693 C170,127.107672 169.10527,128 168.003693,128 L111.996307,128 C110.893777,128 110,127.097692 110,126.00693 L110,73.9930696 Z M191,72.9737755 C191,71.8655383 191.89593,70.9671345 192.996767,70.9671345 L211.503706,70.9671345 C212.60649,70.9671345 213.500473,71.8654529 213.500473,72.9737755 L213.500473,147.741305 C213.500473,148.849542 212.604543,149.747946 211.503706,149.747946 L192.996767,149.747946 C191.893983,149.747946 191,148.849628 191,147.741305 L191,72.9737755 Z M238.466324,72.9737755 C238.466324,71.8655383 239.362254,70.9671345 240.463091,70.9671345 L258.97003,70.9671345 C260.072814,70.9671345 260.966797,71.8654529 260.966797,72.9737755 L260.966797,147.741305 C260.966797,148.849542 260.070867,149.747946 258.97003,149.747946 L240.463091,149.747946 C239.360307,149.747946 238.466324,148.849628 238.466324,147.741305 L238.466324,72.9737755 Z" id="Rectangle-183-Copy-5"></path>
                <path d="M115.504824,17.2868119 C115.504824,16.5889214 115,14.2868119 115,14.2868119 C115,14.2868119 115.768717,13.5475463 117,13.7868119 C117.963489,13.9740391 119.338382,15.0157502 120,15.7868119 C120.82784,16.7515924 120.420121,19.0848126 121.178561,20.2868119 C121.728734,21.1587426 121.48838,22.3650664 122,23.2868119 C122.656988,24.4704566 125.425833,24.5677628 126,25.7471829 C127.20023,28.2126278 127.392777,30.7098348 127.5,32.7694931 C127.544403,33.6224484 130.13116,34.3499983 130,35.0206337 C129.829068,35.8946282 127.963918,33.3429396 127,33.7868119 C126.377843,34.0733072 127.122321,35.2029225 126.5,35.7868119 C125.372451,36.8447283 124,36.4612484 122,36.2868119 C120.809277,36.182959 121.5,33.7868119 121.178561,32.7694931 L117.846237,30.6456493 C116.759951,31.6186367 118.181971,36.4397891 117.846237,35.0206333 L116.5,35.0206337 C115.675545,31.5356453 115.795934,28.3614619 116.5,25.7471829 C116.976407,23.9782254 118.141901,22.4654843 117.846237,21.2868119 C117.607937,20.3368238 116.213229,20.5636955 115,19.7868119 C115,19.7868119 115.504824,18.4222547 115.504824,17.2868119 Z" id="Path-5"></path>
                <path d="M149.504824,17.2868119 C149.504824,16.5889214 149,14.2868119 149,14.2868119 C149,14.2868119 149.768717,13.5475463 151,13.7868119 C151.963489,13.9740391 153.338382,15.0157502 154,15.7868119 C154.82784,16.7515924 154.420121,19.0848126 155.178561,20.2868119 C155.728734,21.1587426 155.48838,22.3650664 156,23.2868119 C156.656988,24.4704566 159.425833,24.5677628 160,25.7471829 C161.20023,28.2126278 161.392777,30.7098348 161.5,32.7694931 C161.544403,33.6224484 164.13116,34.3499983 164,35.0206337 C163.829068,35.8946282 161.963918,33.3429396 161,33.7868119 C160.377843,34.0733072 161.122321,35.2029225 160.5,35.7868119 C159.372451,36.8447283 158,36.4612484 156,36.2868119 C154.809277,36.182959 155.5,33.7868119 155.178561,32.7694931 L151.846237,30.6456493 C150.759951,31.6186367 152.181971,36.4397891 151.846237,35.0206333 L150.5,35.0206337 C149.675545,31.5356453 149.795934,28.3614619 150.5,25.7471829 C150.976407,23.9782254 152.141901,22.4654843 151.846237,21.2868119 C151.607937,20.3368238 150.213229,20.5636955 149,19.7868119 C149,19.7868119 149.504824,18.4222547 149.504824,17.2868119 Z" id="Path-5-Copy" transform="translate(156.502412, 25.119572) scale(-1, 1) translate(-156.502412, -25.119572) "></path>
                <path d="M136.504824,17.2868119 C136.504824,16.5889214 136,14.2868119 136,14.2868119 C136,14.2868119 136.768717,13.5475463 138,13.7868119 C138.963489,13.9740391 140.338382,15.0157502 141,15.7868119 C141.82784,16.7515924 141.420121,19.0848126 142.178561,20.2868119 C142.728734,21.1587426 142.48838,22.3650664 143,23.2868119 C143.656988,24.4704566 146.425833,24.5677628 147,25.7471829 C148.20023,28.2126278 148.392777,30.7098348 148.5,32.7694931 C148.544403,33.6224484 151.13116,34.3499983 151,35.0206337 C150.829068,35.8946282 148.963918,33.3429396 148,33.7868119 C147.377843,34.0733072 148.122321,35.2029225 147.5,35.7868119 C146.372451,36.8447283 145,36.4612484 143,36.2868119 C141.809277,36.182959 142.5,33.7868119 142.178561,32.7694931 L138.846237,30.6456493 C137.759951,31.6186367 139.181971,36.4397891 138.846237,35.0206333 L137.5,35.0206337 C136.675545,31.5356453 136.795934,28.3614619 137.5,25.7471829 C137.976407,23.9782254 139.141901,22.4654843 138.846237,21.2868119 C138.607937,20.3368238 137.213229,20.5636955 136,19.7868119 C136,19.7868119 136.504824,18.4222547 136.504824,17.2868119 Z" id="Path-5-Copy-2" transform="translate(143.502412, 25.119572) scale(-1, 1) translate(-143.502412, -25.119572) "></path>
                <path d="M128.504824,17.2868119 C128.504824,16.5889214 128,14.2868119 128,14.2868119 C128,14.2868119 128.768717,13.5475463 130,13.7868119 C130.963489,13.9740391 132.338382,15.0157502 133,15.7868119 C133.82784,16.7515924 133.420121,19.0848126 134.178561,20.2868119 C134.728734,21.1587426 134.48838,22.3650664 135,23.2868119 C135.656988,24.4704566 138.425833,24.5677628 139,25.7471829 C140.20023,28.2126278 140.392777,30.7098348 140.5,32.7694931 C140.544403,33.6224484 143.13116,34.3499983 143,35.0206337 C142.829068,35.8946282 140.963918,33.3429396 140,33.7868119 C139.377843,34.0733072 140.122321,35.2029225 139.5,35.7868119 C138.372451,36.8447283 137,36.4612484 135,36.2868119 C133.809277,36.182959 134.5,33.7868119 134.178561,32.7694931 L130.846237,30.6456493 C129.759951,31.6186367 131.181971,36.4397891 130.846237,35.0206333 L129.5,35.0206337 C128.675545,31.5356453 128.795934,28.3614619 129.5,25.7471829 C129.976407,23.9782254 131.141901,22.4654843 130.846237,21.2868119 C130.607937,20.3368238 129.213229,20.5636955 128,19.7868119 C128,19.7868119 128.504824,18.4222547 128.504824,17.2868119 Z" id="Path-5-Copy-3"></path>
                <path d="M141.046053,3.03585013 C140.940164,1.79641535 141.857107,0.791654938 143.100007,0.791654938 L143.563964,0.791654938 C144.80422,0.791654938 145.708582,1.78705251 145.583052,3.02340347 L145.020917,8.55990641 C144.895773,9.79246709 144.193406,11.5978948 143.453189,12.5910309 L143.251491,12.861646 L143.049793,12.5910309 C142.309105,11.597263 141.623619,9.79625737 141.51693,8.54745974 L141.046053,3.03585013 Z" id="Rectangle-342-Copy" transform="translate(143.310426, 6.826650) scale(1, -1) rotate(-44.000000) translate(-143.310426, -6.826650) "></path>
                <path d="M133.046053,4.03585013 C132.940164,2.79641535 133.857107,1.79165494 135.100007,1.79165494 L135.563964,1.79165494 C136.80422,1.79165494 137.708582,2.78705251 137.583052,4.02340347 L137.020917,9.55990641 C136.895773,10.7924671 136.193406,12.5978948 135.453189,13.5910309 L135.251491,13.861646 L135.049793,13.5910309 C134.309105,12.597263 133.623619,10.7962574 133.51693,9.54745974 L133.046053,4.03585013 Z" id="Rectangle-342-Copy-2" transform="translate(135.310426, 7.826650) scale(-1, -1) rotate(-44.000000) translate(-135.310426, -7.826650) "></path>
            </g>
        </g>
    </g>
</svg>